G04*
G04 #@! TF.GenerationSoftware,Altium Limited,Altium Designer,21.9.2 (33)*
G04*
G04 Layer_Physical_Order=3*
G04 Layer_Color=16440176*
%FSLAX25Y25*%
%MOIN*%
G70*
G04*
G04 #@! TF.SameCoordinates,E153DD42-8A7D-485B-B93F-EA924BBF0D18*
G04*
G04*
G04 #@! TF.FilePolarity,Positive*
G04*
G01*
G75*
%ADD84C,0.02362*%
G36*
X77065Y216715D02*
X78624Y216510D01*
X80142Y216103D01*
X81595Y215501D01*
X82956Y214716D01*
X84203Y213758D01*
X85315Y212647D01*
X86272Y211400D01*
X87058Y210038D01*
X87660Y208586D01*
X88066Y207067D01*
X88272Y205509D01*
X88272Y204723D01*
X88272Y196252D01*
X88275Y196233D01*
X88273Y196213D01*
X88315Y195345D01*
X88330Y195287D01*
Y195227D01*
X88669Y193524D01*
X88699Y193451D01*
X88714Y193374D01*
X89379Y191769D01*
X89423Y191703D01*
X89453Y191630D01*
X90418Y190187D01*
X90474Y190131D01*
X90517Y190065D01*
X91745Y188837D01*
X91811Y188793D01*
X91867Y188737D01*
X93311Y187773D01*
X93384Y187742D01*
X93450Y187698D01*
X95054Y187034D01*
X95132Y187018D01*
X95205Y186988D01*
X96908Y186649D01*
X96967D01*
X97025Y186635D01*
X97893Y186592D01*
X97913Y186595D01*
X97933Y186591D01*
X109153D01*
X109947Y186591D01*
X111503Y186282D01*
X112969Y185674D01*
X114288Y184793D01*
X115410Y183671D01*
X116292Y182351D01*
X116899Y180885D01*
X117209Y179329D01*
Y178536D01*
X117209Y150901D01*
X117212Y150881D01*
X117210Y150862D01*
X117252Y149993D01*
X117267Y149936D01*
Y149876D01*
X117605Y148173D01*
X117636Y148100D01*
X117651Y148022D01*
X118316Y146418D01*
X118360Y146352D01*
X118390Y146279D01*
X119355Y144835D01*
X119411Y144779D01*
X119455Y144714D01*
X120682Y143486D01*
X120748Y143442D01*
X120804Y143386D01*
X122248Y142421D01*
X122321Y142391D01*
X122387Y142347D01*
X123991Y141682D01*
X124069Y141667D01*
X124142Y141637D01*
X125845Y141298D01*
X125904D01*
X125962Y141284D01*
X126830Y141241D01*
X126850Y141244D01*
X126870Y141240D01*
X157775Y141240D01*
X157795Y141244D01*
X157815Y141241D01*
X158683Y141284D01*
X158741Y141298D01*
X158800D01*
X160503Y141637D01*
X160576Y141667D01*
X160654Y141682D01*
X162258Y142347D01*
X162324Y142391D01*
X162397Y142421D01*
X163841Y143386D01*
X163897Y143442D01*
X163962Y143486D01*
X165190Y144714D01*
X165234Y144779D01*
X165290Y144835D01*
X166255Y146279D01*
X166285Y146352D01*
X166329Y146418D01*
X166994Y148022D01*
X167009Y148100D01*
X167039Y148173D01*
X167378Y149876D01*
Y149936D01*
X167393Y149993D01*
X167435Y150862D01*
X167432Y150881D01*
X167436Y150901D01*
X167436Y178536D01*
X167436Y179329D01*
X167746Y180885D01*
X168353Y182351D01*
X169235Y183671D01*
X170357Y184793D01*
X171676Y185674D01*
X173142Y186282D01*
X174698Y186591D01*
X175492D01*
X203641Y186591D01*
X204435Y186591D01*
X205991Y186282D01*
X207457Y185674D01*
X208776Y184793D01*
X209898Y183671D01*
X210780Y182351D01*
X211387Y180885D01*
X211697Y179329D01*
Y178536D01*
X211697Y152820D01*
X177200D01*
X176810Y152742D01*
X176479Y152521D01*
X176479Y152521D01*
X176258Y152190D01*
X176180Y151800D01*
X176180Y26575D01*
X176258Y26185D01*
X176479Y25854D01*
X176810Y25633D01*
X177200Y25555D01*
X210528Y25555D01*
X210719Y25093D01*
X210248Y24622D01*
X210204Y24556D01*
X210148Y24500D01*
X209398Y23377D01*
X209367Y23304D01*
X209323Y23238D01*
X208807Y21991D01*
X208791Y21913D01*
X208761Y21840D01*
X208497Y20515D01*
Y20456D01*
X208483Y20398D01*
X208450Y19723D01*
X208453Y19703D01*
X208449Y19683D01*
Y18305D01*
X208449Y18094D01*
X208366Y17678D01*
X208204Y17287D01*
X207969Y16935D01*
X207669Y16635D01*
X207317Y16400D01*
X206926Y16238D01*
X206511Y16156D01*
X206299D01*
X172834Y16156D01*
X172623Y16156D01*
X172207Y16238D01*
X171816Y16400D01*
X171464Y16635D01*
X171164Y16935D01*
X170929Y17287D01*
X170767Y17678D01*
X170684Y18094D01*
X170684Y19683D01*
X170680Y19703D01*
X170683Y19723D01*
X170650Y20398D01*
X170636Y20456D01*
Y20515D01*
X170372Y21840D01*
X170342Y21913D01*
X170326Y21991D01*
X169810Y23238D01*
X169766Y23304D01*
X169735Y23377D01*
X168985Y24500D01*
X168929Y24556D01*
X168885Y24622D01*
X167930Y25577D01*
X167864Y25621D01*
X167808Y25677D01*
X166685Y26427D01*
X166613Y26457D01*
X166547Y26501D01*
X165299Y27018D01*
X165221Y27034D01*
X165148Y27064D01*
X163824Y27327D01*
X163764D01*
X163706Y27342D01*
X163031Y27375D01*
X163011Y27372D01*
X162992Y27376D01*
X39370Y27376D01*
X38584D01*
X37025Y27581D01*
X35506Y27988D01*
X34054Y28590D01*
X32693Y29376D01*
X31446Y30333D01*
X30334Y31444D01*
X29377Y32691D01*
X28591Y34053D01*
X27989Y35505D01*
X27582Y37024D01*
X27377Y38582D01*
Y39368D01*
Y204723D01*
Y205509D01*
X27582Y207067D01*
X27989Y208586D01*
X28591Y210038D01*
X29377Y211400D01*
X30334Y212647D01*
X31446Y213758D01*
X32693Y214716D01*
X34054Y215502D01*
X35507Y216103D01*
X37025Y216510D01*
X38584Y216715D01*
X39370Y216715D01*
X76279Y216715D01*
X77065Y216715D01*
D02*
G37*
G36*
X319691Y234432D02*
X321247Y234122D01*
X322713Y233515D01*
X324032Y232633D01*
X325154Y231511D01*
X326036Y230192D01*
X326643Y228726D01*
X326953Y227170D01*
Y226376D01*
Y153320D01*
X326953Y152820D01*
X261924D01*
Y174599D01*
Y175385D01*
X262130Y176943D01*
X262537Y178462D01*
X263138Y179914D01*
X263924Y181276D01*
X264881Y182523D01*
X265993Y183634D01*
X267240Y184591D01*
X268601Y185378D01*
X270054Y185979D01*
X271572Y186386D01*
X273131Y186591D01*
X281200Y186591D01*
X281220Y186595D01*
X281240Y186592D01*
X282108Y186635D01*
X282166Y186649D01*
X282225D01*
X283928Y186988D01*
X284001Y187018D01*
X284079Y187034D01*
X285683Y187698D01*
X285749Y187742D01*
X285822Y187773D01*
X287266Y188737D01*
X287322Y188793D01*
X287388Y188837D01*
X288616Y190065D01*
X288660Y190131D01*
X288715Y190187D01*
X289680Y191630D01*
X289710Y191703D01*
X289754Y191769D01*
X290419Y193374D01*
X290434Y193451D01*
X290465Y193524D01*
X290803Y195227D01*
Y195287D01*
X290818Y195345D01*
X290861Y196213D01*
X290858Y196233D01*
X290861Y196252D01*
Y226376D01*
X290861Y227170D01*
X291171Y228726D01*
X291778Y230192D01*
X292660Y231511D01*
X293782Y232633D01*
X295101Y233515D01*
X296567Y234122D01*
X298124Y234432D01*
X298917D01*
X318897Y234432D01*
X319691Y234432D01*
D02*
G37*
G36*
X326953Y39368D02*
Y38582D01*
X326747Y37024D01*
X326341Y35505D01*
X325739Y34053D01*
X324953Y32691D01*
X323996Y31444D01*
X322884Y30333D01*
X321637Y29376D01*
X320276Y28590D01*
X318823Y27988D01*
X317305Y27581D01*
X315746Y27376D01*
X223095D01*
X223045Y27876D01*
X223497Y27966D01*
X224120Y28382D01*
X224535Y29004D01*
X224681Y29738D01*
X224535Y30472D01*
X224120Y31094D01*
X223497Y31510D01*
X222763Y31656D01*
X222029Y31510D01*
X221407Y31094D01*
X220991Y30472D01*
X220846Y29738D01*
X220991Y29004D01*
X221407Y28382D01*
X222029Y27966D01*
X222481Y27876D01*
X222432Y27376D01*
X216141D01*
X216122Y27372D01*
X216102Y27375D01*
X215427Y27342D01*
X215369Y27327D01*
X215309D01*
X213985Y27064D01*
X213912Y27034D01*
X213834Y27018D01*
X212764Y26575D01*
X177200Y26575D01*
X177200Y151800D01*
X177200Y151800D01*
X211697D01*
Y150901D01*
X211701Y150881D01*
X211698Y150862D01*
X211740Y149993D01*
X211755Y149936D01*
Y149876D01*
X212094Y148173D01*
X212124Y148100D01*
X212139Y148022D01*
X212804Y146418D01*
X212848Y146352D01*
X212878Y146279D01*
X213843Y144835D01*
X213899Y144779D01*
X213943Y144714D01*
X215171Y143486D01*
X215236Y143442D01*
X215292Y143386D01*
X216736Y142421D01*
X216809Y142391D01*
X216875Y142347D01*
X218479Y141682D01*
X218557Y141667D01*
X218630Y141637D01*
X220333Y141298D01*
X220392D01*
X220450Y141284D01*
X221319Y141241D01*
X221338Y141244D01*
X221358Y141240D01*
X252263Y141240D01*
X252283Y141244D01*
X252303Y141241D01*
X253171Y141284D01*
X253229Y141298D01*
X253288D01*
X254991Y141637D01*
X255064Y141667D01*
X255142Y141682D01*
X256746Y142347D01*
X256812Y142391D01*
X256885Y142421D01*
X258329Y143386D01*
X258385Y143442D01*
X258451Y143486D01*
X259679Y144714D01*
X259722Y144779D01*
X259778Y144835D01*
X260743Y146279D01*
X260773Y146352D01*
X260817Y146418D01*
X261482Y148022D01*
X261497Y148100D01*
X261528Y148173D01*
X261866Y149876D01*
Y149936D01*
X261881Y149993D01*
X261924Y150862D01*
X261920Y150881D01*
X261924Y150901D01*
Y151800D01*
X278796D01*
X326953D01*
X326953Y39368D01*
D02*
G37*
%LPC*%
G36*
X39874Y210644D02*
X38866D01*
X38788Y210628D01*
X38709D01*
X37720Y210432D01*
X37647Y210401D01*
X37570Y210386D01*
X36638Y210000D01*
X36572Y209956D01*
X36499Y209926D01*
X35661Y209366D01*
X35605Y209310D01*
X35539Y209266D01*
X34826Y208553D01*
X34783Y208487D01*
X34727Y208431D01*
X34166Y207593D01*
X34136Y207520D01*
X34092Y207454D01*
X33707Y206523D01*
X33691Y206445D01*
X33661Y206372D01*
X33464Y205383D01*
Y205304D01*
X33449Y205227D01*
Y204219D01*
X33464Y204141D01*
Y204062D01*
X33661Y203073D01*
X33691Y203000D01*
X33707Y202923D01*
X34092Y201991D01*
X34136Y201925D01*
X34166Y201852D01*
X34727Y201014D01*
X34783Y200958D01*
X34826Y200892D01*
X35539Y200180D01*
X35605Y200136D01*
X35661Y200080D01*
X36499Y199520D01*
X36572Y199489D01*
X36638Y199445D01*
X37570Y199060D01*
X37647Y199044D01*
X37720Y199014D01*
X38709Y198817D01*
X38788D01*
X38866Y198802D01*
X39874D01*
X39951Y198817D01*
X40030D01*
X41019Y199014D01*
X41092Y199044D01*
X41170Y199060D01*
X42101Y199445D01*
X42167Y199489D01*
X42240Y199520D01*
X43078Y200080D01*
X43134Y200136D01*
X43200Y200180D01*
X43913Y200892D01*
X43957Y200958D01*
X44013Y201014D01*
X44573Y201852D01*
X44603Y201925D01*
X44647Y201991D01*
X45033Y202923D01*
X45048Y203000D01*
X45079Y203073D01*
X45275Y204062D01*
Y204141D01*
X45291Y204219D01*
Y205227D01*
X45275Y205304D01*
Y205383D01*
X45079Y206372D01*
X45048Y206445D01*
X45033Y206523D01*
X44647Y207454D01*
X44603Y207520D01*
X44573Y207593D01*
X44013Y208431D01*
X43957Y208487D01*
X43913Y208553D01*
X43200Y209266D01*
X43134Y209310D01*
X43078Y209366D01*
X42240Y209926D01*
X42167Y209956D01*
X42101Y210000D01*
X41170Y210386D01*
X41092Y210401D01*
X41019Y210432D01*
X40030Y210628D01*
X39951D01*
X39874Y210644D01*
D02*
G37*
G36*
X196000Y176718D02*
X195266Y176572D01*
X194644Y176156D01*
X194228Y175534D01*
X194082Y174800D01*
X194228Y174066D01*
X194644Y173444D01*
X195266Y173028D01*
X196000Y172882D01*
X196734Y173028D01*
X197356Y173444D01*
X197772Y174066D01*
X197918Y174800D01*
X197772Y175534D01*
X197356Y176156D01*
X196734Y176572D01*
X196000Y176718D01*
D02*
G37*
G36*
X82400Y164118D02*
X81666Y163972D01*
X81044Y163556D01*
X80628Y162934D01*
X80482Y162200D01*
X80628Y161466D01*
X81044Y160844D01*
X81666Y160428D01*
X82400Y160282D01*
X83134Y160428D01*
X83756Y160844D01*
X84172Y161466D01*
X84318Y162200D01*
X84172Y162934D01*
X83756Y163556D01*
X83134Y163972D01*
X82400Y164118D01*
D02*
G37*
G36*
X97600Y150718D02*
X96866Y150572D01*
X96244Y150156D01*
X95828Y149534D01*
X95682Y148800D01*
X95828Y148066D01*
X96244Y147444D01*
X96866Y147028D01*
X97600Y146882D01*
X98334Y147028D01*
X98956Y147444D01*
X99372Y148066D01*
X99518Y148800D01*
X99372Y149534D01*
X98956Y150156D01*
X98334Y150572D01*
X97600Y150718D01*
D02*
G37*
G36*
X116000Y130718D02*
X115266Y130572D01*
X114644Y130156D01*
X114228Y129534D01*
X114082Y128800D01*
X114228Y128066D01*
X114644Y127444D01*
X115266Y127028D01*
X116000Y126882D01*
X116734Y127028D01*
X117356Y127444D01*
X117772Y128066D01*
X117918Y128800D01*
X117772Y129534D01*
X117356Y130156D01*
X116734Y130572D01*
X116000Y130718D01*
D02*
G37*
G36*
X58526Y123518D02*
X57792Y123372D01*
X57170Y122956D01*
X56754Y122334D01*
X56608Y121600D01*
X56754Y120866D01*
X57170Y120244D01*
X57792Y119828D01*
X58526Y119682D01*
X59260Y119828D01*
X59882Y120244D01*
X60298Y120866D01*
X60444Y121600D01*
X60298Y122334D01*
X59882Y122956D01*
X59260Y123372D01*
X58526Y123518D01*
D02*
G37*
G36*
X147953Y123247D02*
X147219Y123101D01*
X146597Y122685D01*
X146181Y122063D01*
X146035Y121329D01*
X146181Y120595D01*
X146597Y119973D01*
X147219Y119557D01*
X147953Y119411D01*
X148687Y119557D01*
X149309Y119973D01*
X149725Y120595D01*
X149871Y121329D01*
X149725Y122063D01*
X149309Y122685D01*
X148687Y123101D01*
X147953Y123247D01*
D02*
G37*
G36*
X156000Y98620D02*
X146342D01*
X146243Y98600D01*
X146143D01*
X146050Y98562D01*
X145952Y98542D01*
X145868Y98486D01*
X145775Y98448D01*
X145704Y98377D01*
X145621Y98321D01*
X145565Y98238D01*
X145494Y98167D01*
X145456Y98074D01*
X145400Y97990D01*
X145380Y97892D01*
X145342Y97799D01*
X145269Y97430D01*
X145078Y97145D01*
X144793Y96955D01*
X144457Y96888D01*
X144121Y96955D01*
X143836Y97145D01*
X143646Y97430D01*
X143572Y97799D01*
X143534Y97892D01*
X143514Y97990D01*
X143458Y98074D01*
X143420Y98166D01*
X143349Y98237D01*
X143293Y98321D01*
X143210Y98377D01*
X143139Y98448D01*
X143046Y98486D01*
X142962Y98542D01*
X142864Y98562D01*
X142771Y98600D01*
X142671D01*
X142572Y98620D01*
X37400D01*
X37010Y98542D01*
X36679Y98321D01*
X36458Y97990D01*
X36380Y97600D01*
Y45474D01*
X36394Y45407D01*
X36389Y45340D01*
X36432Y45214D01*
X36458Y45084D01*
X36472Y45049D01*
X36488Y44768D01*
X36343Y44485D01*
X36300Y44442D01*
X36280Y44425D01*
X35661Y44012D01*
X35605Y43956D01*
X35539Y43912D01*
X34826Y43199D01*
X34783Y43133D01*
X34727Y43077D01*
X34166Y42239D01*
X34136Y42166D01*
X34092Y42100D01*
X33707Y41169D01*
X33691Y41091D01*
X33661Y41018D01*
X33464Y40029D01*
Y39950D01*
X33449Y39873D01*
Y38864D01*
X33464Y38787D01*
Y38708D01*
X33661Y37719D01*
X33691Y37646D01*
X33707Y37568D01*
X34092Y36637D01*
X34136Y36571D01*
X34166Y36498D01*
X34727Y35660D01*
X34783Y35604D01*
X34826Y35538D01*
X35539Y34825D01*
X35605Y34781D01*
X35661Y34725D01*
X36499Y34165D01*
X36572Y34135D01*
X36638Y34091D01*
X37570Y33705D01*
X37647Y33690D01*
X37720Y33660D01*
X38709Y33463D01*
X38788D01*
X38866Y33448D01*
X39874D01*
X39951Y33463D01*
X40030D01*
X41019Y33660D01*
X41092Y33690D01*
X41170Y33705D01*
X42101Y34091D01*
X42167Y34135D01*
X42240Y34165D01*
X43078Y34725D01*
X43134Y34781D01*
X43200Y34825D01*
X43686Y35311D01*
X43888Y35404D01*
X44121Y35459D01*
X44379Y35361D01*
X44476Y35286D01*
X44509Y35277D01*
X44538Y35258D01*
X44700Y35226D01*
X44861Y35183D01*
X44894Y35187D01*
X44928Y35180D01*
X82810D01*
X82868Y35192D01*
X82927Y35187D01*
X83061Y35230D01*
X83200Y35258D01*
X83249Y35291D01*
X83306Y35309D01*
X83413Y35401D01*
X83531Y35479D01*
X83564Y35528D01*
X83609Y35567D01*
X84005Y36067D01*
X84024Y36104D01*
X84053Y36134D01*
X84114Y36280D01*
X84186Y36421D01*
X84190Y36463D01*
X84206Y36501D01*
Y36660D01*
X84218Y36818D01*
X84206Y36857D01*
Y36899D01*
X84173Y37062D01*
X84240Y37398D01*
X84430Y37683D01*
X84715Y37874D01*
X85052Y37940D01*
X85388Y37874D01*
X85673Y37683D01*
X85863Y37398D01*
X85930Y37062D01*
X85897Y36899D01*
Y36857D01*
X85885Y36818D01*
X85897Y36660D01*
Y36501D01*
X85913Y36463D01*
X85917Y36421D01*
X85989Y36280D01*
X86050Y36134D01*
X86079Y36104D01*
X86098Y36067D01*
X86494Y35567D01*
X86540Y35528D01*
X86572Y35479D01*
X86690Y35401D01*
X86797Y35309D01*
X86854Y35291D01*
X86903Y35258D01*
X87042Y35230D01*
X87176Y35187D01*
X87235Y35192D01*
X87293Y35180D01*
X98009D01*
X98156Y35210D01*
X98216Y35215D01*
X98419Y34998D01*
X98527Y34782D01*
X98228Y34334D01*
X98082Y33600D01*
X98228Y32866D01*
X98644Y32244D01*
X99266Y31828D01*
X100000Y31682D01*
X100734Y31828D01*
X101356Y32244D01*
X101772Y32866D01*
X101918Y33600D01*
X101772Y34334D01*
X101473Y34782D01*
X101581Y34998D01*
X101784Y35215D01*
X101844Y35210D01*
X101991Y35180D01*
X128155D01*
X128205Y35190D01*
X128255Y35185D01*
X128398Y35229D01*
X128545Y35258D01*
X128587Y35286D01*
X128636Y35301D01*
X128751Y35396D01*
X128876Y35479D01*
X128904Y35521D01*
X128943Y35553D01*
X129260Y35940D01*
X129284Y35984D01*
X129320Y36020D01*
X129377Y36158D01*
X129448Y36290D01*
X129453Y36341D01*
X129472Y36388D01*
Y36537D01*
X129487Y36687D01*
X129472Y36735D01*
Y36745D01*
X129543Y37101D01*
X129733Y37386D01*
X130018Y37577D01*
X130354Y37644D01*
X130691Y37577D01*
X130976Y37386D01*
X131166Y37101D01*
X131237Y36745D01*
Y36735D01*
X131222Y36687D01*
X131237Y36537D01*
Y36388D01*
X131256Y36341D01*
X131261Y36290D01*
X131332Y36158D01*
X131389Y36020D01*
X131425Y35984D01*
X131449Y35940D01*
X131766Y35553D01*
X131805Y35521D01*
X131833Y35479D01*
X131958Y35396D01*
X132073Y35301D01*
X132122Y35286D01*
X132164Y35258D01*
X132311Y35229D01*
X132454Y35185D01*
X132504Y35190D01*
X132554Y35180D01*
X156000D01*
X156390Y35258D01*
X156721Y35479D01*
X156942Y35810D01*
X157020Y36200D01*
Y97600D01*
X156942Y97990D01*
X156721Y98321D01*
X156390Y98542D01*
X156000Y98620D01*
D02*
G37*
G36*
X200689Y25054D02*
X199992Y24962D01*
X199343Y24693D01*
X198786Y24265D01*
X198358Y23708D01*
X198089Y23059D01*
X197997Y22362D01*
Y19606D01*
X198089Y18910D01*
X198358Y18260D01*
X198786Y17703D01*
X199343Y17275D01*
X199992Y17007D01*
X200689Y16915D01*
X201386Y17007D01*
X202035Y17275D01*
X202592Y17703D01*
X203020Y18260D01*
X203289Y18910D01*
X203380Y19606D01*
Y22362D01*
X203289Y23059D01*
X203020Y23708D01*
X202592Y24265D01*
X202035Y24693D01*
X201386Y24962D01*
X200689Y25054D01*
D02*
G37*
G36*
X178445D02*
X177748Y24962D01*
X177099Y24693D01*
X176542Y24265D01*
X176114Y23708D01*
X175845Y23059D01*
X175753Y22362D01*
Y19606D01*
X175845Y18910D01*
X176114Y18260D01*
X176542Y17703D01*
X177099Y17275D01*
X177748Y17007D01*
X178445Y16915D01*
X179141Y17007D01*
X179791Y17275D01*
X180348Y17703D01*
X180776Y18260D01*
X181045Y18910D01*
X181136Y19606D01*
Y22362D01*
X181045Y23059D01*
X180776Y23708D01*
X180348Y24265D01*
X179791Y24693D01*
X179141Y24962D01*
X178445Y25054D01*
D02*
G37*
%LPD*%
G36*
X156000Y36200D02*
X132554D01*
X132237Y36586D01*
X132272Y36765D01*
X132126Y37499D01*
X131711Y38121D01*
X131088Y38537D01*
X130354Y38683D01*
X129621Y38537D01*
X128998Y38121D01*
X128583Y37499D01*
X128437Y36765D01*
X128472Y36586D01*
X128155Y36200D01*
X101991D01*
X101783Y36590D01*
X101779Y36700D01*
X101918Y37400D01*
X101772Y38134D01*
X101356Y38756D01*
X100734Y39172D01*
X100000Y39318D01*
X99266Y39172D01*
X98644Y38756D01*
X98228Y38134D01*
X98082Y37400D01*
X98221Y36700D01*
X98217Y36590D01*
X98009Y36200D01*
X87293D01*
X86897Y36700D01*
X86970Y37062D01*
X86823Y37796D01*
X86408Y38418D01*
X85786Y38834D01*
X85052Y38980D01*
X84318Y38834D01*
X83695Y38418D01*
X83280Y37796D01*
X83134Y37062D01*
X83206Y36700D01*
X82810Y36200D01*
X44928D01*
X44814Y36331D01*
X44673Y36700D01*
X45033Y37568D01*
X45048Y37646D01*
X45079Y37719D01*
X45275Y38708D01*
Y38787D01*
X45291Y38864D01*
Y39873D01*
X45275Y39950D01*
Y40029D01*
X45079Y41018D01*
X45048Y41091D01*
X45033Y41169D01*
X44647Y42100D01*
X44603Y42166D01*
X44573Y42239D01*
X44013Y43077D01*
X43957Y43133D01*
X43913Y43199D01*
X43200Y43912D01*
X43134Y43956D01*
X43078Y44012D01*
X42240Y44572D01*
X42167Y44602D01*
X42101Y44646D01*
X41170Y45032D01*
X41092Y45047D01*
X41019Y45077D01*
X40030Y45274D01*
X39951D01*
X39874Y45289D01*
X38866D01*
X38788Y45274D01*
X38709D01*
X37900Y45113D01*
X37461Y45382D01*
X37437Y45409D01*
X37400Y45474D01*
Y97600D01*
X142572D01*
X142685Y97033D01*
X143101Y96410D01*
X143723Y95995D01*
X144457Y95849D01*
X145191Y95995D01*
X145813Y96410D01*
X146229Y97033D01*
X146342Y97600D01*
X156000D01*
Y36200D01*
D02*
G37*
%LPC*%
G36*
X124600Y93718D02*
X123866Y93572D01*
X123244Y93156D01*
X122828Y92534D01*
X122682Y91800D01*
X122828Y91066D01*
X123244Y90444D01*
X123866Y90028D01*
X124600Y89882D01*
X125334Y90028D01*
X125956Y90444D01*
X126372Y91066D01*
X126518Y91800D01*
X126372Y92534D01*
X125956Y93156D01*
X125334Y93572D01*
X124600Y93718D01*
D02*
G37*
G36*
X71600Y92718D02*
X70866Y92572D01*
X70244Y92156D01*
X69828Y91534D01*
X69682Y90800D01*
X69828Y90066D01*
X70244Y89444D01*
X70866Y89028D01*
X71600Y88882D01*
X72334Y89028D01*
X72956Y89444D01*
X73372Y90066D01*
X73518Y90800D01*
X73372Y91534D01*
X72956Y92156D01*
X72334Y92572D01*
X71600Y92718D01*
D02*
G37*
G36*
X52981Y92538D02*
X52246Y92392D01*
X51624Y91977D01*
X51209Y91355D01*
X51063Y90621D01*
X51209Y89887D01*
X51624Y89264D01*
X52246Y88849D01*
X52981Y88703D01*
X53714Y88849D01*
X54337Y89264D01*
X54752Y89887D01*
X54898Y90621D01*
X54752Y91355D01*
X54337Y91977D01*
X53714Y92392D01*
X52981Y92538D01*
D02*
G37*
G36*
X86400Y92318D02*
X85666Y92172D01*
X85044Y91756D01*
X84628Y91134D01*
X84482Y90400D01*
X84628Y89666D01*
X85044Y89044D01*
X85666Y88628D01*
X86400Y88482D01*
X87134Y88628D01*
X87756Y89044D01*
X88172Y89666D01*
X88318Y90400D01*
X88172Y91134D01*
X87756Y91756D01*
X87134Y92172D01*
X86400Y92318D01*
D02*
G37*
G36*
X104600Y85918D02*
X103866Y85772D01*
X103244Y85356D01*
X102828Y84734D01*
X102682Y84000D01*
X102828Y83266D01*
X103244Y82644D01*
X103866Y82228D01*
X104600Y82082D01*
X105334Y82228D01*
X105956Y82644D01*
X106372Y83266D01*
X106518Y84000D01*
X106372Y84734D01*
X105956Y85356D01*
X105334Y85772D01*
X104600Y85918D01*
D02*
G37*
G36*
X130357Y84603D02*
X129623Y84457D01*
X129001Y84041D01*
X128585Y83419D01*
X128439Y82685D01*
X128585Y81951D01*
X129001Y81329D01*
X129623Y80913D01*
X130357Y80767D01*
X131091Y80913D01*
X131713Y81329D01*
X132129Y81951D01*
X132275Y82685D01*
X132129Y83419D01*
X131713Y84041D01*
X131091Y84457D01*
X130357Y84603D01*
D02*
G37*
G36*
X144413Y83545D02*
X143679Y83399D01*
X143057Y82983D01*
X142641Y82361D01*
X142495Y81627D01*
X142641Y80893D01*
X143057Y80271D01*
X143679Y79855D01*
X144413Y79709D01*
X145147Y79855D01*
X145769Y80271D01*
X146185Y80893D01*
X146331Y81627D01*
X146185Y82361D01*
X145769Y82983D01*
X145147Y83399D01*
X144413Y83545D01*
D02*
G37*
G36*
X116217Y81702D02*
X115483Y81556D01*
X114860Y81140D01*
X114445Y80518D01*
X114299Y79784D01*
X114445Y79050D01*
X114860Y78428D01*
X115483Y78012D01*
X116217Y77866D01*
X116951Y78012D01*
X117573Y78428D01*
X117989Y79050D01*
X118135Y79784D01*
X117989Y80518D01*
X117573Y81140D01*
X116951Y81556D01*
X116217Y81702D01*
D02*
G37*
G36*
X107800Y79718D02*
X107066Y79572D01*
X106444Y79156D01*
X106028Y78534D01*
X105882Y77800D01*
X106028Y77066D01*
X106444Y76444D01*
X107066Y76028D01*
X107800Y75882D01*
X108534Y76028D01*
X109156Y76444D01*
X109572Y77066D01*
X109718Y77800D01*
X109572Y78534D01*
X109156Y79156D01*
X108534Y79572D01*
X107800Y79718D01*
D02*
G37*
G36*
X53600Y77718D02*
X52866Y77572D01*
X52244Y77156D01*
X51828Y76534D01*
X51682Y75800D01*
X51828Y75066D01*
X52244Y74444D01*
X52866Y74028D01*
X53600Y73882D01*
X54334Y74028D01*
X54956Y74444D01*
X55372Y75066D01*
X55518Y75800D01*
X55372Y76534D01*
X54956Y77156D01*
X54334Y77572D01*
X53600Y77718D01*
D02*
G37*
G36*
X72400Y75318D02*
X71666Y75172D01*
X71044Y74756D01*
X70628Y74134D01*
X70482Y73400D01*
X70628Y72666D01*
X71044Y72044D01*
X71666Y71628D01*
X72400Y71482D01*
X73134Y71628D01*
X73756Y72044D01*
X74172Y72666D01*
X74318Y73400D01*
X74172Y74134D01*
X73756Y74756D01*
X73134Y75172D01*
X72400Y75318D01*
D02*
G37*
G36*
X105395Y74937D02*
X104662Y74791D01*
X104039Y74375D01*
X103623Y73753D01*
X103478Y73019D01*
X103623Y72285D01*
X104039Y71663D01*
X104662Y71247D01*
X105395Y71101D01*
X106129Y71247D01*
X106752Y71663D01*
X107167Y72285D01*
X107313Y73019D01*
X107167Y73753D01*
X106752Y74375D01*
X106129Y74791D01*
X105395Y74937D01*
D02*
G37*
G36*
X116386Y74190D02*
X115652Y74044D01*
X115030Y73628D01*
X114614Y73006D01*
X114468Y72272D01*
X114614Y71538D01*
X115030Y70916D01*
X115652Y70500D01*
X116386Y70354D01*
X117120Y70500D01*
X117742Y70916D01*
X118158Y71538D01*
X118304Y72272D01*
X118158Y73006D01*
X117742Y73628D01*
X117120Y74044D01*
X116386Y74190D01*
D02*
G37*
G36*
X85600Y73918D02*
X84866Y73772D01*
X84244Y73356D01*
X83828Y72734D01*
X83682Y72000D01*
X83828Y71266D01*
X84244Y70644D01*
X84866Y70228D01*
X85600Y70082D01*
X86334Y70228D01*
X86956Y70644D01*
X87372Y71266D01*
X87518Y72000D01*
X87372Y72734D01*
X86956Y73356D01*
X86334Y73772D01*
X85600Y73918D01*
D02*
G37*
G36*
X147800Y71318D02*
X147066Y71172D01*
X146444Y70756D01*
X146028Y70134D01*
X145882Y69400D01*
X146028Y68666D01*
X146444Y68044D01*
X147066Y67628D01*
X147800Y67482D01*
X148534Y67628D01*
X149156Y68044D01*
X149572Y68666D01*
X149718Y69400D01*
X149572Y70134D01*
X149156Y70756D01*
X148534Y71172D01*
X147800Y71318D01*
D02*
G37*
G36*
X130432Y70942D02*
X129698Y70796D01*
X129076Y70380D01*
X128660Y69758D01*
X128514Y69024D01*
X128660Y68290D01*
X129076Y67668D01*
X129698Y67252D01*
X130432Y67106D01*
X131166Y67252D01*
X131788Y67668D01*
X132204Y68290D01*
X132350Y69024D01*
X132204Y69758D01*
X131788Y70380D01*
X131166Y70796D01*
X130432Y70942D01*
D02*
G37*
G36*
X105400Y68718D02*
X104666Y68572D01*
X104044Y68156D01*
X103628Y67534D01*
X103482Y66800D01*
X103628Y66066D01*
X104044Y65444D01*
X104395Y65209D01*
X104393Y64611D01*
X104039Y64375D01*
X103623Y63753D01*
X103478Y63019D01*
X103623Y62285D01*
X104039Y61663D01*
X104662Y61247D01*
X105395Y61101D01*
X106129Y61247D01*
X106752Y61663D01*
X107167Y62285D01*
X107313Y63019D01*
X107167Y63753D01*
X106752Y64375D01*
X106400Y64610D01*
X106403Y65207D01*
X106756Y65444D01*
X107172Y66066D01*
X107318Y66800D01*
X107172Y67534D01*
X106756Y68156D01*
X106134Y68572D01*
X105400Y68718D01*
D02*
G37*
G36*
X69068Y63185D02*
X68334Y63039D01*
X67712Y62623D01*
X67296Y62001D01*
X67150Y61267D01*
X67296Y60533D01*
X67712Y59911D01*
X68334Y59495D01*
X69068Y59349D01*
X69802Y59495D01*
X70424Y59911D01*
X70840Y60533D01*
X70986Y61267D01*
X70840Y62001D01*
X70424Y62623D01*
X69802Y63039D01*
X69068Y63185D01*
D02*
G37*
G36*
X54600Y62718D02*
X53866Y62572D01*
X53244Y62156D01*
X52828Y61534D01*
X52682Y60800D01*
X52828Y60066D01*
X53244Y59444D01*
X53866Y59028D01*
X54600Y58882D01*
X55334Y59028D01*
X55956Y59444D01*
X56372Y60066D01*
X56518Y60800D01*
X56372Y61534D01*
X55956Y62156D01*
X55334Y62572D01*
X54600Y62718D01*
D02*
G37*
G36*
X132600Y62118D02*
X131866Y61972D01*
X131244Y61556D01*
X130828Y60934D01*
X130682Y60200D01*
X130828Y59466D01*
X131244Y58844D01*
X131866Y58428D01*
X132600Y58282D01*
X133334Y58428D01*
X133956Y58844D01*
X134372Y59466D01*
X134518Y60200D01*
X134372Y60934D01*
X133956Y61556D01*
X133334Y61972D01*
X132600Y62118D01*
D02*
G37*
G36*
X77200Y56918D02*
X76466Y56772D01*
X75844Y56356D01*
X75428Y55734D01*
X75282Y55000D01*
X75428Y54266D01*
X75844Y53644D01*
X76466Y53228D01*
X77200Y53082D01*
X77934Y53228D01*
X78556Y53644D01*
X78972Y54266D01*
X79118Y55000D01*
X78972Y55734D01*
X78556Y56356D01*
X77934Y56772D01*
X77200Y56918D01*
D02*
G37*
G36*
X138800Y56718D02*
X138066Y56572D01*
X137444Y56156D01*
X137028Y55534D01*
X136882Y54800D01*
X137028Y54066D01*
X137444Y53444D01*
X138066Y53028D01*
X138800Y52882D01*
X139534Y53028D01*
X140156Y53444D01*
X140572Y54066D01*
X140718Y54800D01*
X140572Y55534D01*
X140156Y56156D01*
X139534Y56572D01*
X138800Y56718D01*
D02*
G37*
G36*
X105395Y59937D02*
X104662Y59791D01*
X104039Y59375D01*
X103623Y58753D01*
X103478Y58019D01*
X103623Y57285D01*
X104039Y56663D01*
X104577Y56304D01*
X104575Y55955D01*
X104524Y55783D01*
X104466Y55772D01*
X103844Y55356D01*
X103428Y54734D01*
X103282Y54000D01*
X103428Y53266D01*
X103844Y52644D01*
X104466Y52228D01*
X105200Y52082D01*
X105934Y52228D01*
X106556Y52644D01*
X106972Y53266D01*
X107118Y54000D01*
X106972Y54734D01*
X106556Y55356D01*
X106019Y55715D01*
X106021Y56064D01*
X106072Y56235D01*
X106129Y56247D01*
X106752Y56663D01*
X107167Y57285D01*
X107313Y58019D01*
X107167Y58753D01*
X106752Y59375D01*
X106129Y59791D01*
X105395Y59937D01*
D02*
G37*
G36*
X112000Y55718D02*
X111266Y55572D01*
X110644Y55156D01*
X110228Y54534D01*
X110082Y53800D01*
X110228Y53066D01*
X110644Y52444D01*
X111266Y52028D01*
X112000Y51882D01*
X112734Y52028D01*
X113356Y52444D01*
X113772Y53066D01*
X113918Y53800D01*
X113772Y54534D01*
X113356Y55156D01*
X112734Y55572D01*
X112000Y55718D01*
D02*
G37*
G36*
X41200Y55518D02*
X40466Y55372D01*
X39844Y54956D01*
X39428Y54334D01*
X39282Y53600D01*
X39428Y52866D01*
X39844Y52244D01*
X40466Y51828D01*
X41200Y51682D01*
X41934Y51828D01*
X42556Y52244D01*
X42972Y52866D01*
X43118Y53600D01*
X42972Y54334D01*
X42556Y54956D01*
X41934Y55372D01*
X41200Y55518D01*
D02*
G37*
G36*
X68207Y49534D02*
X67473Y49389D01*
X66851Y48973D01*
X66435Y48351D01*
X66289Y47617D01*
X66435Y46883D01*
X66851Y46260D01*
X67473Y45845D01*
X68207Y45699D01*
X68941Y45845D01*
X69563Y46260D01*
X69979Y46883D01*
X70125Y47617D01*
X69979Y48351D01*
X69563Y48973D01*
X68941Y49389D01*
X68207Y49534D01*
D02*
G37*
G36*
X105400Y48318D02*
X104666Y48172D01*
X104044Y47756D01*
X103628Y47134D01*
X103482Y46400D01*
X103628Y45666D01*
X104044Y45044D01*
X104666Y44628D01*
X105400Y44482D01*
X106134Y44628D01*
X106756Y45044D01*
X107172Y45666D01*
X107318Y46400D01*
X107172Y47134D01*
X106756Y47756D01*
X106134Y48172D01*
X105400Y48318D01*
D02*
G37*
G36*
X150249Y47421D02*
X149514Y47275D01*
X148892Y46859D01*
X148477Y46237D01*
X148331Y45503D01*
X148477Y44769D01*
X148892Y44147D01*
X149514Y43731D01*
X150249Y43585D01*
X150982Y43731D01*
X151605Y44147D01*
X152021Y44769D01*
X152166Y45503D01*
X152021Y46237D01*
X151605Y46859D01*
X150982Y47275D01*
X150249Y47421D01*
D02*
G37*
G36*
X109854Y45414D02*
X109120Y45268D01*
X108497Y44853D01*
X108082Y44230D01*
X107936Y43496D01*
X108082Y42762D01*
X108497Y42140D01*
X109120Y41724D01*
X109854Y41578D01*
X110588Y41724D01*
X111210Y42140D01*
X111626Y42762D01*
X111772Y43496D01*
X111626Y44230D01*
X111210Y44853D01*
X110588Y45268D01*
X109854Y45414D01*
D02*
G37*
G36*
X99295Y44971D02*
X98561Y44825D01*
X97938Y44409D01*
X97523Y43787D01*
X97377Y43053D01*
X97523Y42319D01*
X97938Y41697D01*
X98561Y41281D01*
X99295Y41135D01*
X100029Y41281D01*
X100651Y41697D01*
X101067Y42319D01*
X101213Y43053D01*
X101067Y43787D01*
X100651Y44409D01*
X100029Y44825D01*
X99295Y44971D01*
D02*
G37*
G36*
X52450Y42676D02*
X51716Y42530D01*
X51094Y42114D01*
X50678Y41492D01*
X50532Y40758D01*
X50678Y40024D01*
X51094Y39402D01*
X51716Y38986D01*
X52450Y38840D01*
X53184Y38986D01*
X53806Y39402D01*
X54222Y40024D01*
X54368Y40758D01*
X54222Y41492D01*
X53806Y42114D01*
X53184Y42530D01*
X52450Y42676D01*
D02*
G37*
G36*
X274421Y180520D02*
X273413D01*
X273335Y180504D01*
X273256D01*
X272267Y180307D01*
X272194Y180277D01*
X272117Y180262D01*
X271185Y179876D01*
X271120Y179832D01*
X271046Y179802D01*
X270208Y179242D01*
X270152Y179186D01*
X270087Y179142D01*
X269374Y178429D01*
X269330Y178363D01*
X269274Y178307D01*
X268714Y177469D01*
X268684Y177396D01*
X268640Y177330D01*
X268254Y176399D01*
X268238Y176321D01*
X268208Y176248D01*
X268011Y175259D01*
Y175180D01*
X267996Y175103D01*
Y174095D01*
X268011Y174017D01*
Y173938D01*
X268208Y172949D01*
X268238Y172876D01*
X268254Y172799D01*
X268640Y171867D01*
X268684Y171801D01*
X268714Y171728D01*
X269274Y170890D01*
X269330Y170834D01*
X269374Y170768D01*
X270087Y170055D01*
X270152Y170012D01*
X270208Y169956D01*
X271046Y169396D01*
X271120Y169365D01*
X271185Y169321D01*
X272117Y168936D01*
X272194Y168920D01*
X272267Y168890D01*
X273256Y168693D01*
X273335D01*
X273413Y168678D01*
X274421D01*
X274499Y168693D01*
X274578D01*
X275566Y168890D01*
X275640Y168920D01*
X275717Y168936D01*
X276648Y169321D01*
X276714Y169365D01*
X276787Y169396D01*
X277626Y169956D01*
X277681Y170012D01*
X277747Y170055D01*
X278460Y170768D01*
X278504Y170834D01*
X278560Y170890D01*
X279120Y171728D01*
X279150Y171801D01*
X279194Y171867D01*
X279580Y172799D01*
X279595Y172876D01*
X279626Y172949D01*
X279822Y173938D01*
Y174017D01*
X279838Y174095D01*
Y175103D01*
X279822Y175180D01*
Y175259D01*
X279626Y176248D01*
X279595Y176321D01*
X279580Y176399D01*
X279194Y177330D01*
X279150Y177396D01*
X279120Y177469D01*
X278560Y178307D01*
X278504Y178363D01*
X278460Y178429D01*
X277747Y179142D01*
X277681Y179186D01*
X277626Y179242D01*
X276787Y179802D01*
X276714Y179832D01*
X276648Y179876D01*
X275717Y180262D01*
X275640Y180277D01*
X275566Y180307D01*
X274578Y180504D01*
X274499D01*
X274421Y180520D01*
D02*
G37*
G36*
X318198Y151028D02*
X317464Y150882D01*
X316842Y150466D01*
X316426Y149844D01*
X316281Y149110D01*
X316426Y148376D01*
X316842Y147754D01*
X317464Y147338D01*
X318198Y147192D01*
X318932Y147338D01*
X319555Y147754D01*
X319970Y148376D01*
X320116Y149110D01*
X319970Y149844D01*
X319555Y150466D01*
X318932Y150882D01*
X318198Y151028D01*
D02*
G37*
G36*
X276581Y150338D02*
X275847Y150192D01*
X275224Y149777D01*
X274809Y149154D01*
X274662Y148421D01*
X274809Y147687D01*
X275224Y147064D01*
X275847Y146649D01*
X276581Y146503D01*
X277314Y146649D01*
X277937Y147064D01*
X278352Y147687D01*
X278498Y148421D01*
X278352Y149154D01*
X277937Y149777D01*
X277314Y150192D01*
X276581Y150338D01*
D02*
G37*
G36*
X283295Y144911D02*
X282561Y144765D01*
X281939Y144349D01*
X281523Y143727D01*
X281377Y142993D01*
X281523Y142259D01*
X281939Y141637D01*
X282561Y141221D01*
X283295Y141075D01*
X284029Y141221D01*
X284651Y141637D01*
X285067Y142259D01*
X285213Y142993D01*
X285067Y143727D01*
X284651Y144349D01*
X284029Y144765D01*
X283295Y144911D01*
D02*
G37*
G36*
X193544Y143923D02*
X192811Y143777D01*
X192188Y143362D01*
X191773Y142739D01*
X191627Y142005D01*
X191773Y141271D01*
X192188Y140649D01*
X192811Y140233D01*
X193544Y140087D01*
X194279Y140233D01*
X194901Y140649D01*
X195317Y141271D01*
X195463Y142005D01*
X195317Y142739D01*
X194901Y143362D01*
X194279Y143777D01*
X193544Y143923D01*
D02*
G37*
G36*
X251600Y137918D02*
X250866Y137772D01*
X250244Y137356D01*
X249828Y136734D01*
X249682Y136000D01*
X249828Y135266D01*
X250244Y134644D01*
X250866Y134228D01*
X251600Y134082D01*
X252334Y134228D01*
X252956Y134644D01*
X253372Y135266D01*
X253518Y136000D01*
X253372Y136734D01*
X252956Y137356D01*
X252334Y137772D01*
X251600Y137918D01*
D02*
G37*
G36*
X229963Y137133D02*
X229229Y136987D01*
X228607Y136572D01*
X228191Y135949D01*
X228045Y135215D01*
X228191Y134482D01*
X228607Y133859D01*
X229229Y133443D01*
X229963Y133298D01*
X230697Y133443D01*
X231319Y133859D01*
X231735Y134482D01*
X231881Y135215D01*
X231735Y135949D01*
X231319Y136572D01*
X230697Y136987D01*
X229963Y137133D01*
D02*
G37*
G36*
X322998Y136228D02*
X322264Y136082D01*
X321642Y135666D01*
X321227Y135044D01*
X321080Y134310D01*
X321227Y133576D01*
X321642Y132954D01*
X322264Y132538D01*
X322998Y132392D01*
X323732Y132538D01*
X324355Y132954D01*
X324770Y133576D01*
X324916Y134310D01*
X324770Y135044D01*
X324355Y135666D01*
X323732Y136082D01*
X322998Y136228D01*
D02*
G37*
G36*
X303720Y135044D02*
X302986Y134898D01*
X302364Y134482D01*
X301948Y133860D01*
X301802Y133126D01*
X301948Y132392D01*
X302364Y131770D01*
X302986Y131354D01*
X303720Y131208D01*
X304454Y131354D01*
X305076Y131770D01*
X305492Y132392D01*
X305638Y133126D01*
X305492Y133860D01*
X305076Y134482D01*
X304454Y134898D01*
X303720Y135044D01*
D02*
G37*
G36*
X218098Y133463D02*
X217365Y133317D01*
X216742Y132901D01*
X216326Y132279D01*
X216180Y131545D01*
X216326Y130811D01*
X216742Y130189D01*
X217365Y129773D01*
X218098Y129627D01*
X218832Y129773D01*
X219455Y130189D01*
X219870Y130811D01*
X220016Y131545D01*
X219870Y132279D01*
X219455Y132901D01*
X218832Y133317D01*
X218098Y133463D01*
D02*
G37*
G36*
X205974Y130874D02*
X205240Y130728D01*
X204617Y130313D01*
X204202Y129691D01*
X204056Y128956D01*
X204202Y128223D01*
X204617Y127600D01*
X205240Y127184D01*
X205974Y127039D01*
X206707Y127184D01*
X207330Y127600D01*
X207745Y128223D01*
X207891Y128956D01*
X207745Y129691D01*
X207330Y130313D01*
X206707Y130728D01*
X205974Y130874D01*
D02*
G37*
G36*
X192866Y130087D02*
X192132Y129940D01*
X191510Y129525D01*
X191094Y128902D01*
X190948Y128169D01*
X191094Y127435D01*
X191510Y126812D01*
X192132Y126397D01*
X192866Y126251D01*
X193600Y126397D01*
X194222Y126812D01*
X194638Y127435D01*
X194784Y128169D01*
X194638Y128902D01*
X194222Y129525D01*
X193600Y129940D01*
X192866Y130087D01*
D02*
G37*
G36*
X247990Y124802D02*
X247256Y124656D01*
X246634Y124240D01*
X246218Y123618D01*
X246072Y122884D01*
X246218Y122150D01*
X246634Y121528D01*
X247256Y121112D01*
X247990Y120966D01*
X248724Y121112D01*
X249346Y121528D01*
X249762Y122150D01*
X249908Y122884D01*
X249762Y123618D01*
X249346Y124240D01*
X248724Y124656D01*
X247990Y124802D01*
D02*
G37*
G36*
X263200Y122118D02*
X262466Y121972D01*
X261844Y121556D01*
X261428Y120934D01*
X261282Y120200D01*
X261428Y119466D01*
X261844Y118844D01*
X262466Y118428D01*
X263200Y118282D01*
X263934Y118428D01*
X264556Y118844D01*
X264972Y119466D01*
X265118Y120200D01*
X264972Y120934D01*
X264556Y121556D01*
X263934Y121972D01*
X263200Y122118D01*
D02*
G37*
G36*
X299400Y120918D02*
X298666Y120772D01*
X298044Y120356D01*
X297628Y119734D01*
X297482Y119000D01*
X297628Y118266D01*
X298044Y117644D01*
X298666Y117228D01*
X299400Y117082D01*
X300134Y117228D01*
X300756Y117644D01*
X301172Y118266D01*
X301318Y119000D01*
X301172Y119734D01*
X300756Y120356D01*
X300134Y120772D01*
X299400Y120918D01*
D02*
G37*
G36*
X267462Y120766D02*
X266728Y120620D01*
X266106Y120204D01*
X265690Y119582D01*
X265544Y118848D01*
X265690Y118114D01*
X266106Y117492D01*
X266728Y117076D01*
X267462Y116930D01*
X268196Y117076D01*
X268818Y117492D01*
X269234Y118114D01*
X269380Y118848D01*
X269234Y119582D01*
X268818Y120204D01*
X268196Y120620D01*
X267462Y120766D01*
D02*
G37*
G36*
X278290Y120507D02*
X277556Y120361D01*
X276934Y119945D01*
X276518Y119323D01*
X276372Y118589D01*
X276518Y117855D01*
X276934Y117233D01*
X277556Y116817D01*
X278290Y116671D01*
X279024Y116817D01*
X279646Y117233D01*
X280062Y117855D01*
X280208Y118589D01*
X280062Y119323D01*
X279646Y119945D01*
X279024Y120361D01*
X278290Y120507D01*
D02*
G37*
G36*
X273290D02*
X272556Y120361D01*
X271934Y119945D01*
X271518Y119323D01*
X271372Y118589D01*
X271518Y117855D01*
X271934Y117233D01*
X272556Y116817D01*
X273290Y116671D01*
X274024Y116817D01*
X274646Y117233D01*
X275062Y117855D01*
X275208Y118589D01*
X275062Y119323D01*
X274646Y119945D01*
X274024Y120361D01*
X273290Y120507D01*
D02*
G37*
G36*
X198864Y117812D02*
X198130Y117666D01*
X197508Y117250D01*
X197092Y116628D01*
X196946Y115894D01*
X197092Y115160D01*
X197508Y114538D01*
X198130Y114122D01*
X198864Y113976D01*
X199598Y114122D01*
X200220Y114538D01*
X200636Y115160D01*
X200782Y115894D01*
X200636Y116628D01*
X200220Y117250D01*
X199598Y117666D01*
X198864Y117812D01*
D02*
G37*
G36*
X224930Y117164D02*
X224196Y117018D01*
X223574Y116602D01*
X223158Y115980D01*
X223012Y115246D01*
X223158Y114512D01*
X223574Y113890D01*
X224196Y113474D01*
X224930Y113328D01*
X225664Y113474D01*
X226286Y113890D01*
X226702Y114512D01*
X226848Y115246D01*
X226702Y115980D01*
X226286Y116602D01*
X225664Y117018D01*
X224930Y117164D01*
D02*
G37*
G36*
X187200Y117118D02*
X186466Y116972D01*
X185844Y116556D01*
X185428Y115934D01*
X185282Y115200D01*
X185428Y114466D01*
X185844Y113844D01*
X186466Y113428D01*
X187200Y113282D01*
X187934Y113428D01*
X188556Y113844D01*
X188972Y114466D01*
X189118Y115200D01*
X188972Y115934D01*
X188556Y116556D01*
X187934Y116972D01*
X187200Y117118D01*
D02*
G37*
G36*
X248800Y116918D02*
X248066Y116772D01*
X247444Y116356D01*
X247028Y115734D01*
X246882Y115000D01*
X247028Y114266D01*
X247444Y113644D01*
X248066Y113228D01*
X248800Y113082D01*
X249534Y113228D01*
X250156Y113644D01*
X250572Y114266D01*
X250718Y115000D01*
X250572Y115734D01*
X250156Y116356D01*
X249534Y116772D01*
X248800Y116918D01*
D02*
G37*
G36*
X317929Y112424D02*
X317196Y112277D01*
X316573Y111862D01*
X316158Y111240D01*
X316012Y110505D01*
X316158Y109772D01*
X316573Y109149D01*
X317196Y108734D01*
X317929Y108588D01*
X318663Y108734D01*
X319286Y109149D01*
X319701Y109772D01*
X319847Y110505D01*
X319701Y111240D01*
X319286Y111862D01*
X318663Y112277D01*
X317929Y112424D01*
D02*
G37*
G36*
X192031Y111782D02*
X191297Y111636D01*
X190675Y111220D01*
X190259Y110598D01*
X190113Y109864D01*
X190259Y109130D01*
X190675Y108508D01*
X191297Y108092D01*
X192031Y107946D01*
X192765Y108092D01*
X193387Y108508D01*
X193803Y109130D01*
X193949Y109864D01*
X193803Y110598D01*
X193387Y111220D01*
X192765Y111636D01*
X192031Y111782D01*
D02*
G37*
G36*
X216556Y111311D02*
X215822Y111165D01*
X215199Y110749D01*
X214784Y110127D01*
X214638Y109393D01*
X214784Y108659D01*
X215199Y108037D01*
X215822Y107621D01*
X216556Y107475D01*
X217289Y107621D01*
X217912Y108037D01*
X218327Y108659D01*
X218474Y109393D01*
X218327Y110127D01*
X217912Y110749D01*
X217289Y111165D01*
X216556Y111311D01*
D02*
G37*
G36*
X242000Y110718D02*
X241266Y110572D01*
X240644Y110156D01*
X240228Y109534D01*
X240082Y108800D01*
X240228Y108066D01*
X240644Y107444D01*
X241266Y107028D01*
X242000Y106882D01*
X242734Y107028D01*
X243356Y107444D01*
X243772Y108066D01*
X243918Y108800D01*
X243772Y109534D01*
X243356Y110156D01*
X242734Y110572D01*
X242000Y110718D01*
D02*
G37*
G36*
X264200Y110318D02*
X263466Y110172D01*
X262844Y109756D01*
X262428Y109134D01*
X262282Y108400D01*
X262428Y107666D01*
X262844Y107044D01*
X263466Y106628D01*
X264200Y106482D01*
X264934Y106628D01*
X265556Y107044D01*
X265972Y107666D01*
X266118Y108400D01*
X265972Y109134D01*
X265556Y109756D01*
X264934Y110172D01*
X264200Y110318D01*
D02*
G37*
G36*
X297155Y105599D02*
X296422Y105453D01*
X295799Y105037D01*
X295384Y104415D01*
X295238Y103681D01*
X295384Y102947D01*
X295799Y102325D01*
X296422Y101909D01*
X297155Y101763D01*
X297889Y101909D01*
X298512Y102325D01*
X298927Y102947D01*
X299074Y103681D01*
X298927Y104415D01*
X298512Y105037D01*
X297889Y105453D01*
X297155Y105599D01*
D02*
G37*
G36*
X289931D02*
X289197Y105453D01*
X288575Y105037D01*
X288159Y104415D01*
X288013Y103681D01*
X288159Y102947D01*
X288575Y102325D01*
X289197Y101909D01*
X289931Y101763D01*
X290665Y101909D01*
X291287Y102325D01*
X291703Y102947D01*
X291849Y103681D01*
X291703Y104415D01*
X291287Y105037D01*
X290665Y105453D01*
X289931Y105599D01*
D02*
G37*
G36*
X202457Y104695D02*
X201723Y104549D01*
X201100Y104133D01*
X200685Y103511D01*
X200539Y102777D01*
X200685Y102043D01*
X201100Y101421D01*
X201723Y101005D01*
X202457Y100859D01*
X203191Y101005D01*
X203813Y101421D01*
X204229Y102043D01*
X204375Y102777D01*
X204229Y103511D01*
X203813Y104133D01*
X203191Y104549D01*
X202457Y104695D01*
D02*
G37*
G36*
X214004Y104666D02*
X213270Y104520D01*
X212648Y104104D01*
X212232Y103482D01*
X212086Y102748D01*
X212232Y102014D01*
X212648Y101392D01*
X213270Y100976D01*
X214004Y100830D01*
X214738Y100976D01*
X215360Y101392D01*
X215776Y102014D01*
X215922Y102748D01*
X215776Y103482D01*
X215360Y104104D01*
X214738Y104520D01*
X214004Y104666D01*
D02*
G37*
G36*
X268600Y102718D02*
X267866Y102572D01*
X267244Y102156D01*
X266828Y101534D01*
X266682Y100800D01*
X266828Y100066D01*
X267244Y99444D01*
X267866Y99028D01*
X268600Y98882D01*
X269334Y99028D01*
X269956Y99444D01*
X270372Y100066D01*
X270518Y100800D01*
X270372Y101534D01*
X269956Y102156D01*
X269334Y102572D01*
X268600Y102718D01*
D02*
G37*
G36*
X300768Y101987D02*
X300034Y101841D01*
X299412Y101425D01*
X298996Y100803D01*
X298850Y100069D01*
X298996Y99335D01*
X299412Y98713D01*
X300034Y98297D01*
X300768Y98151D01*
X301502Y98297D01*
X302124Y98713D01*
X302540Y99335D01*
X302686Y100069D01*
X302540Y100803D01*
X302124Y101425D01*
X301502Y101841D01*
X300768Y101987D01*
D02*
G37*
G36*
X293543D02*
X292809Y101841D01*
X292187Y101425D01*
X291771Y100803D01*
X291625Y100069D01*
X291771Y99335D01*
X292187Y98713D01*
X292809Y98297D01*
X293543Y98151D01*
X294277Y98297D01*
X294900Y98713D01*
X295315Y99335D01*
X295461Y100069D01*
X295315Y100803D01*
X294900Y101425D01*
X294277Y101841D01*
X293543Y101987D01*
D02*
G37*
G36*
X286319D02*
X285585Y101841D01*
X284963Y101425D01*
X284547Y100803D01*
X284401Y100069D01*
X284547Y99335D01*
X284963Y98713D01*
X285585Y98297D01*
X286319Y98151D01*
X287053Y98297D01*
X287675Y98713D01*
X288091Y99335D01*
X288237Y100069D01*
X288091Y100803D01*
X287675Y101425D01*
X287053Y101841D01*
X286319Y101987D01*
D02*
G37*
G36*
X297155Y98375D02*
X296422Y98229D01*
X295799Y97813D01*
X295384Y97191D01*
X295238Y96457D01*
X295384Y95723D01*
X295799Y95100D01*
X296422Y94685D01*
X297155Y94539D01*
X297889Y94685D01*
X298512Y95100D01*
X298927Y95723D01*
X299074Y96457D01*
X298927Y97191D01*
X298512Y97813D01*
X297889Y98229D01*
X297155Y98375D01*
D02*
G37*
G36*
X289931D02*
X289197Y98229D01*
X288575Y97813D01*
X288159Y97191D01*
X288013Y96457D01*
X288159Y95723D01*
X288575Y95100D01*
X289197Y94685D01*
X289931Y94539D01*
X290665Y94685D01*
X291287Y95100D01*
X291703Y95723D01*
X291849Y96457D01*
X291703Y97191D01*
X291287Y97813D01*
X290665Y98229D01*
X289931Y98375D01*
D02*
G37*
G36*
X318000Y96718D02*
X317266Y96572D01*
X316644Y96156D01*
X316228Y95534D01*
X316082Y94800D01*
X316228Y94066D01*
X316644Y93444D01*
X317266Y93028D01*
X318000Y92882D01*
X318734Y93028D01*
X319356Y93444D01*
X319772Y94066D01*
X319918Y94800D01*
X319772Y95534D01*
X319356Y96156D01*
X318734Y96572D01*
X318000Y96718D01*
D02*
G37*
G36*
X239381Y95338D02*
X238647Y95192D01*
X238024Y94777D01*
X237609Y94155D01*
X237462Y93421D01*
X237609Y92687D01*
X238024Y92064D01*
X238647Y91649D01*
X239381Y91503D01*
X240114Y91649D01*
X240737Y92064D01*
X241152Y92687D01*
X241298Y93421D01*
X241152Y94155D01*
X240737Y94777D01*
X240114Y95192D01*
X239381Y95338D01*
D02*
G37*
G36*
X246800Y95118D02*
X246066Y94972D01*
X245444Y94556D01*
X245028Y93934D01*
X244882Y93200D01*
X245028Y92466D01*
X245444Y91844D01*
X246066Y91428D01*
X246800Y91282D01*
X247534Y91428D01*
X248156Y91844D01*
X248572Y92466D01*
X248718Y93200D01*
X248572Y93934D01*
X248156Y94556D01*
X247534Y94972D01*
X246800Y95118D01*
D02*
G37*
G36*
X300768Y94762D02*
X300034Y94616D01*
X299412Y94201D01*
X298996Y93578D01*
X298850Y92844D01*
X298996Y92111D01*
X299412Y91488D01*
X300034Y91072D01*
X300768Y90926D01*
X301502Y91072D01*
X302124Y91488D01*
X302540Y92111D01*
X302686Y92844D01*
X302540Y93578D01*
X302124Y94201D01*
X301502Y94616D01*
X300768Y94762D01*
D02*
G37*
G36*
X293543D02*
X292809Y94616D01*
X292187Y94201D01*
X291771Y93578D01*
X291625Y92844D01*
X291771Y92111D01*
X292187Y91488D01*
X292809Y91072D01*
X293543Y90926D01*
X294277Y91072D01*
X294900Y91488D01*
X295315Y92111D01*
X295461Y92844D01*
X295315Y93578D01*
X294900Y94201D01*
X294277Y94616D01*
X293543Y94762D01*
D02*
G37*
G36*
X286319D02*
X285585Y94616D01*
X284963Y94201D01*
X284547Y93578D01*
X284401Y92844D01*
X284547Y92111D01*
X284963Y91488D01*
X285585Y91072D01*
X286319Y90926D01*
X287053Y91072D01*
X287675Y91488D01*
X288091Y92111D01*
X288237Y92844D01*
X288091Y93578D01*
X287675Y94201D01*
X287053Y94616D01*
X286319Y94762D01*
D02*
G37*
G36*
X185801Y91792D02*
X185067Y91646D01*
X184445Y91230D01*
X184029Y90608D01*
X183883Y89874D01*
X184029Y89140D01*
X184445Y88518D01*
X185067Y88102D01*
X185801Y87956D01*
X186535Y88102D01*
X187158Y88518D01*
X187573Y89140D01*
X187719Y89874D01*
X187573Y90608D01*
X187158Y91230D01*
X186535Y91646D01*
X185801Y91792D01*
D02*
G37*
G36*
X297155Y91150D02*
X296422Y91004D01*
X295799Y90588D01*
X295384Y89966D01*
X295238Y89232D01*
X295384Y88498D01*
X295799Y87876D01*
X296422Y87460D01*
X297155Y87314D01*
X297889Y87460D01*
X298512Y87876D01*
X298927Y88498D01*
X299074Y89232D01*
X298927Y89966D01*
X298512Y90588D01*
X297889Y91004D01*
X297155Y91150D01*
D02*
G37*
G36*
X289931D02*
X289197Y91004D01*
X288575Y90588D01*
X288159Y89966D01*
X288013Y89232D01*
X288159Y88498D01*
X288575Y87876D01*
X289197Y87460D01*
X289931Y87314D01*
X290665Y87460D01*
X291287Y87876D01*
X291703Y88498D01*
X291849Y89232D01*
X291703Y89966D01*
X291287Y90588D01*
X290665Y91004D01*
X289931Y91150D01*
D02*
G37*
G36*
X227980Y90939D02*
X227246Y90793D01*
X226624Y90377D01*
X226208Y89754D01*
X226062Y89021D01*
X226208Y88287D01*
X226624Y87664D01*
X227246Y87249D01*
X227980Y87103D01*
X228714Y87249D01*
X229337Y87664D01*
X229752Y88287D01*
X229898Y89021D01*
X229752Y89754D01*
X229337Y90377D01*
X228714Y90793D01*
X227980Y90939D01*
D02*
G37*
G36*
X272800Y84718D02*
X272066Y84572D01*
X271444Y84156D01*
X271028Y83534D01*
X270882Y82800D01*
X271028Y82066D01*
X271444Y81444D01*
X272066Y81028D01*
X272800Y80882D01*
X273534Y81028D01*
X274156Y81444D01*
X274572Y82066D01*
X274718Y82800D01*
X274572Y83534D01*
X274156Y84156D01*
X273534Y84572D01*
X272800Y84718D01*
D02*
G37*
G36*
X228300Y84318D02*
X227566Y84172D01*
X226944Y83756D01*
X226528Y83134D01*
X226382Y82400D01*
X226528Y81666D01*
X226944Y81044D01*
X227566Y80628D01*
X228300Y80482D01*
X229034Y80628D01*
X229656Y81044D01*
X230072Y81666D01*
X230218Y82400D01*
X230072Y83134D01*
X229656Y83756D01*
X229034Y84172D01*
X228300Y84318D01*
D02*
G37*
G36*
X242400Y83918D02*
X241666Y83772D01*
X241044Y83356D01*
X240628Y82734D01*
X240482Y82000D01*
X240628Y81266D01*
X241044Y80644D01*
X241666Y80228D01*
X242400Y80082D01*
X243134Y80228D01*
X243756Y80644D01*
X244172Y81266D01*
X244318Y82000D01*
X244172Y82734D01*
X243756Y83356D01*
X243134Y83772D01*
X242400Y83918D01*
D02*
G37*
G36*
X203670Y82949D02*
X202936Y82803D01*
X202314Y82387D01*
X201898Y81765D01*
X201752Y81031D01*
X201898Y80297D01*
X202314Y79675D01*
X202936Y79259D01*
X203670Y79113D01*
X204404Y79259D01*
X205026Y79675D01*
X205442Y80297D01*
X205588Y81031D01*
X205442Y81765D01*
X205026Y82387D01*
X204404Y82803D01*
X203670Y82949D01*
D02*
G37*
G36*
X220400Y80918D02*
X219666Y80772D01*
X219044Y80356D01*
X218628Y79734D01*
X218482Y79000D01*
X218628Y78266D01*
X219044Y77644D01*
X219666Y77228D01*
X220400Y77082D01*
X221134Y77228D01*
X221756Y77644D01*
X222172Y78266D01*
X222318Y79000D01*
X222172Y79734D01*
X221756Y80356D01*
X221134Y80772D01*
X220400Y80918D01*
D02*
G37*
G36*
X293200Y79518D02*
X292466Y79372D01*
X291844Y78956D01*
X291428Y78334D01*
X291282Y77600D01*
X291428Y76866D01*
X291844Y76244D01*
X292466Y75828D01*
X293200Y75682D01*
X293934Y75828D01*
X294556Y76244D01*
X294972Y76866D01*
X295118Y77600D01*
X294972Y78334D01*
X294556Y78956D01*
X293934Y79372D01*
X293200Y79518D01*
D02*
G37*
G36*
X233600Y76718D02*
X232866Y76572D01*
X232244Y76156D01*
X231828Y75534D01*
X231373Y75346D01*
X231334Y75372D01*
X230600Y75518D01*
X229866Y75372D01*
X229244Y74956D01*
X228828Y74334D01*
X228682Y73600D01*
X228828Y72866D01*
X229244Y72244D01*
X229866Y71828D01*
X230600Y71682D01*
X231334Y71828D01*
X231956Y72244D01*
X232372Y72866D01*
X232827Y73054D01*
X232866Y73028D01*
X233600Y72882D01*
X234334Y73028D01*
X234956Y73444D01*
X235300Y73958D01*
X235744Y73933D01*
X235820Y73905D01*
X235828Y73866D01*
X236244Y73244D01*
X236866Y72828D01*
X237600Y72682D01*
X238334Y72828D01*
X238956Y73244D01*
X239372Y73866D01*
X239518Y74600D01*
X239372Y75334D01*
X238956Y75956D01*
X238334Y76372D01*
X237600Y76518D01*
X236866Y76372D01*
X236244Y75956D01*
X235900Y75442D01*
X235456Y75467D01*
X235380Y75495D01*
X235372Y75534D01*
X234956Y76156D01*
X234334Y76572D01*
X233600Y76718D01*
D02*
G37*
G36*
X319010Y78558D02*
X318276Y78412D01*
X317654Y77996D01*
X317238Y77374D01*
X317092Y76640D01*
X317238Y75906D01*
X317654Y75283D01*
X318276Y74868D01*
X319010Y74722D01*
X319744Y74868D01*
X320366Y75283D01*
X320782Y75906D01*
X320928Y76640D01*
X320782Y77374D01*
X320366Y77996D01*
X319744Y78412D01*
X319010Y78558D01*
D02*
G37*
G36*
X190400Y76118D02*
X189666Y75972D01*
X189044Y75556D01*
X188628Y74934D01*
X188482Y74200D01*
X188628Y73466D01*
X189044Y72844D01*
X189666Y72428D01*
X190400Y72282D01*
X191134Y72428D01*
X191756Y72844D01*
X192172Y73466D01*
X192318Y74200D01*
X192172Y74934D01*
X191756Y75556D01*
X191134Y75972D01*
X190400Y76118D01*
D02*
G37*
G36*
X266199Y72060D02*
X265465Y71914D01*
X264843Y71498D01*
X264427Y70876D01*
X264282Y70142D01*
X264427Y69408D01*
X264843Y68786D01*
X265465Y68370D01*
X266199Y68224D01*
X266933Y68370D01*
X267556Y68786D01*
X267971Y69408D01*
X268117Y70142D01*
X267971Y70876D01*
X267556Y71498D01*
X266933Y71914D01*
X266199Y72060D01*
D02*
G37*
G36*
X323181Y68739D02*
X322446Y68593D01*
X321824Y68177D01*
X321409Y67554D01*
X321263Y66821D01*
X321409Y66087D01*
X321824Y65464D01*
X322446Y65049D01*
X323181Y64903D01*
X323914Y65049D01*
X324537Y65464D01*
X324952Y66087D01*
X325098Y66821D01*
X324952Y67554D01*
X324537Y68177D01*
X323914Y68593D01*
X323181Y68739D01*
D02*
G37*
G36*
X217571Y68432D02*
X216837Y68286D01*
X216215Y67870D01*
X215799Y67248D01*
X215653Y66514D01*
X215799Y65780D01*
X216215Y65158D01*
X216837Y64742D01*
X217571Y64596D01*
X218305Y64742D01*
X218927Y65158D01*
X219343Y65780D01*
X219489Y66514D01*
X219343Y67248D01*
X218927Y67870D01*
X218305Y68286D01*
X217571Y68432D01*
D02*
G37*
G36*
X312852Y68369D02*
X312118Y68222D01*
X311496Y67807D01*
X311080Y67185D01*
X310934Y66451D01*
X311080Y65717D01*
X311496Y65094D01*
X312118Y64679D01*
X312852Y64533D01*
X313586Y64679D01*
X314208Y65094D01*
X314624Y65717D01*
X314770Y66451D01*
X314624Y67185D01*
X314208Y67807D01*
X313586Y68222D01*
X312852Y68369D01*
D02*
G37*
G36*
X297852D02*
X297118Y68222D01*
X296496Y67807D01*
X296080Y67185D01*
X295934Y66451D01*
X296080Y65717D01*
X296496Y65094D01*
X297118Y64679D01*
X297852Y64533D01*
X298586Y64679D01*
X299208Y65094D01*
X299624Y65717D01*
X299770Y66451D01*
X299624Y67185D01*
X299208Y67807D01*
X298586Y68222D01*
X297852Y68369D01*
D02*
G37*
G36*
X287852D02*
X287118Y68222D01*
X286496Y67807D01*
X286080Y67185D01*
X285934Y66451D01*
X286080Y65717D01*
X286496Y65094D01*
X287118Y64679D01*
X287852Y64533D01*
X288586Y64679D01*
X289208Y65094D01*
X289624Y65717D01*
X289770Y66451D01*
X289624Y67185D01*
X289208Y67807D01*
X288586Y68222D01*
X287852Y68369D01*
D02*
G37*
G36*
X282852D02*
X282118Y68222D01*
X281496Y67807D01*
X281080Y67185D01*
X280934Y66451D01*
X281080Y65717D01*
X281496Y65094D01*
X282118Y64679D01*
X282852Y64533D01*
X283586Y64679D01*
X284208Y65094D01*
X284624Y65717D01*
X284770Y66451D01*
X284624Y67185D01*
X284208Y67807D01*
X283586Y68222D01*
X282852Y68369D01*
D02*
G37*
G36*
X308200Y68318D02*
X307466Y68172D01*
X306844Y67756D01*
X306428Y67134D01*
X306282Y66400D01*
X306428Y65666D01*
X306844Y65044D01*
X307466Y64628D01*
X308200Y64482D01*
X308934Y64628D01*
X309556Y65044D01*
X309972Y65666D01*
X310118Y66400D01*
X309972Y67134D01*
X309556Y67756D01*
X308934Y68172D01*
X308200Y68318D01*
D02*
G37*
G36*
X303000Y68118D02*
X302266Y67972D01*
X301644Y67556D01*
X301228Y66934D01*
X301082Y66200D01*
X301228Y65466D01*
X301644Y64844D01*
X302266Y64428D01*
X303000Y64282D01*
X303734Y64428D01*
X304356Y64844D01*
X304772Y65466D01*
X304918Y66200D01*
X304772Y66934D01*
X304356Y67556D01*
X303734Y67972D01*
X303000Y68118D01*
D02*
G37*
G36*
X247818Y64022D02*
X247084Y63876D01*
X246462Y63460D01*
X246046Y62838D01*
X245900Y62104D01*
X246046Y61370D01*
X246462Y60748D01*
X247084Y60332D01*
X247818Y60186D01*
X248552Y60332D01*
X249174Y60748D01*
X249590Y61370D01*
X249736Y62104D01*
X249590Y62838D01*
X249174Y63460D01*
X248552Y63876D01*
X247818Y64022D01*
D02*
G37*
G36*
X219500Y60218D02*
X218766Y60072D01*
X218144Y59656D01*
X217728Y59034D01*
X217582Y58300D01*
X217728Y57566D01*
X218144Y56944D01*
X218766Y56528D01*
X219500Y56382D01*
X220234Y56528D01*
X220856Y56944D01*
X221272Y57566D01*
X221418Y58300D01*
X221272Y59034D01*
X220856Y59656D01*
X220234Y60072D01*
X219500Y60218D01*
D02*
G37*
G36*
X202165Y60083D02*
X201431Y59936D01*
X200808Y59521D01*
X200393Y58899D01*
X200247Y58165D01*
X200393Y57431D01*
X200808Y56808D01*
X201431Y56393D01*
X202165Y56247D01*
X202899Y56393D01*
X203521Y56808D01*
X203937Y57431D01*
X204082Y58165D01*
X203937Y58899D01*
X203521Y59521D01*
X202899Y59936D01*
X202165Y60083D01*
D02*
G37*
G36*
X184586Y59422D02*
X183853Y59276D01*
X183230Y58860D01*
X182815Y58238D01*
X182668Y57504D01*
X182815Y56770D01*
X183230Y56148D01*
X183853Y55732D01*
X184586Y55586D01*
X185320Y55732D01*
X185943Y56148D01*
X186358Y56770D01*
X186504Y57504D01*
X186358Y58238D01*
X185943Y58860D01*
X185320Y59276D01*
X184586Y59422D01*
D02*
G37*
G36*
X209600Y57518D02*
X208866Y57372D01*
X208244Y56956D01*
X207828Y56334D01*
X207682Y55600D01*
X207828Y54866D01*
X208244Y54244D01*
X208866Y53828D01*
X209600Y53682D01*
X210334Y53828D01*
X210956Y54244D01*
X211372Y54866D01*
X211518Y55600D01*
X211372Y56334D01*
X210956Y56956D01*
X210334Y57372D01*
X209600Y57518D01*
D02*
G37*
G36*
X249400Y56918D02*
X248666Y56772D01*
X248044Y56356D01*
X247628Y55734D01*
X247482Y55000D01*
X247628Y54266D01*
X248044Y53644D01*
X248666Y53228D01*
X249400Y53082D01*
X250134Y53228D01*
X250756Y53644D01*
X251172Y54266D01*
X251318Y55000D01*
X251172Y55734D01*
X250756Y56356D01*
X250134Y56772D01*
X249400Y56918D01*
D02*
G37*
G36*
X213000Y52318D02*
X212266Y52172D01*
X211644Y51756D01*
X211228Y51134D01*
X211082Y50400D01*
X211228Y49666D01*
X211644Y49044D01*
X212266Y48628D01*
X213000Y48482D01*
X213734Y48628D01*
X214356Y49044D01*
X214772Y49666D01*
X214918Y50400D01*
X214772Y51134D01*
X214356Y51756D01*
X213734Y52172D01*
X213000Y52318D01*
D02*
G37*
G36*
X250880Y51865D02*
X250146Y51719D01*
X249523Y51303D01*
X249108Y50681D01*
X248962Y49947D01*
X249108Y49213D01*
X249523Y48590D01*
X250146Y48175D01*
X250880Y48029D01*
X251613Y48175D01*
X252236Y48590D01*
X252652Y49213D01*
X252798Y49947D01*
X252652Y50681D01*
X252236Y51303D01*
X251613Y51719D01*
X250880Y51865D01*
D02*
G37*
G36*
X323859Y51385D02*
X323125Y51239D01*
X322503Y50823D01*
X322087Y50201D01*
X321941Y49467D01*
X322087Y48733D01*
X322503Y48111D01*
X323125Y47695D01*
X323859Y47549D01*
X324593Y47695D01*
X325215Y48111D01*
X325631Y48733D01*
X325777Y49467D01*
X325631Y50201D01*
X325215Y50823D01*
X324593Y51239D01*
X323859Y51385D01*
D02*
G37*
G36*
X227181Y49738D02*
X226447Y49593D01*
X225824Y49177D01*
X225409Y48555D01*
X225262Y47821D01*
X225409Y47087D01*
X225824Y46464D01*
X226447Y46049D01*
X227181Y45903D01*
X227914Y46049D01*
X228537Y46464D01*
X228952Y47087D01*
X229098Y47821D01*
X228952Y48555D01*
X228537Y49177D01*
X227914Y49593D01*
X227181Y49738D01*
D02*
G37*
G36*
X202200Y49518D02*
X201466Y49372D01*
X200844Y48956D01*
X200428Y48334D01*
X200282Y47600D01*
X200428Y46866D01*
X200844Y46244D01*
X201466Y45828D01*
X202200Y45682D01*
X202934Y45828D01*
X203556Y46244D01*
X203972Y46866D01*
X204118Y47600D01*
X203972Y48334D01*
X203556Y48956D01*
X202934Y49372D01*
X202200Y49518D01*
D02*
G37*
G36*
X283228Y46192D02*
X282494Y46046D01*
X281872Y45630D01*
X281456Y45008D01*
X281311Y44274D01*
X281456Y43540D01*
X281872Y42918D01*
X282494Y42502D01*
X283228Y42356D01*
X283962Y42502D01*
X284585Y42918D01*
X285000Y43540D01*
X285146Y44274D01*
X285000Y45008D01*
X284585Y45630D01*
X283962Y46046D01*
X283228Y46192D01*
D02*
G37*
G36*
X246400Y43918D02*
X245666Y43772D01*
X245044Y43356D01*
X244628Y42734D01*
X244482Y42000D01*
X244628Y41266D01*
X245044Y40644D01*
X245666Y40228D01*
X246400Y40082D01*
X247134Y40228D01*
X247756Y40644D01*
X248172Y41266D01*
X248318Y42000D01*
X248172Y42734D01*
X247756Y43356D01*
X247134Y43772D01*
X246400Y43918D01*
D02*
G37*
G36*
X296400Y39518D02*
X295666Y39372D01*
X295044Y38956D01*
X294628Y38334D01*
X294482Y37600D01*
X294628Y36866D01*
X295044Y36244D01*
X295666Y35828D01*
X296400Y35682D01*
X297134Y35828D01*
X297756Y36244D01*
X298172Y36866D01*
X298318Y37600D01*
X298172Y38334D01*
X297756Y38956D01*
X297134Y39372D01*
X296400Y39518D01*
D02*
G37*
G36*
X264000Y37918D02*
X263266Y37772D01*
X262644Y37356D01*
X262228Y36734D01*
X262082Y36000D01*
X262228Y35266D01*
X262644Y34644D01*
X263266Y34228D01*
X264000Y34082D01*
X264734Y34228D01*
X265356Y34644D01*
X265772Y35266D01*
X265918Y36000D01*
X265772Y36734D01*
X265356Y37356D01*
X264734Y37772D01*
X264000Y37918D01*
D02*
G37*
G36*
X315464Y45289D02*
X314456D01*
X314379Y45274D01*
X314300D01*
X313311Y45077D01*
X313238Y45047D01*
X313160Y45032D01*
X312229Y44646D01*
X312163Y44602D01*
X312090Y44572D01*
X311252Y44012D01*
X311196Y43956D01*
X311130Y43912D01*
X310417Y43199D01*
X310373Y43133D01*
X310317Y43077D01*
X309757Y42239D01*
X309727Y42166D01*
X309683Y42100D01*
X309297Y41169D01*
X309282Y41091D01*
X309251Y41018D01*
X309055Y40029D01*
Y39950D01*
X309039Y39873D01*
Y38864D01*
X309055Y38787D01*
Y38708D01*
X309251Y37719D01*
X309282Y37646D01*
X309297Y37568D01*
X309683Y36637D01*
X309727Y36571D01*
X309757Y36498D01*
X310317Y35660D01*
X310373Y35604D01*
X310417Y35538D01*
X311130Y34825D01*
X311196Y34781D01*
X311252Y34725D01*
X312090Y34165D01*
X312163Y34135D01*
X312229Y34091D01*
X313160Y33705D01*
X313238Y33690D01*
X313311Y33660D01*
X314300Y33463D01*
X314379D01*
X314456Y33448D01*
X315464D01*
X315542Y33463D01*
X315621D01*
X316610Y33660D01*
X316683Y33690D01*
X316760Y33705D01*
X317692Y34091D01*
X317758Y34135D01*
X317831Y34165D01*
X318669Y34725D01*
X318725Y34781D01*
X318791Y34825D01*
X319503Y35538D01*
X319547Y35604D01*
X319603Y35660D01*
X320163Y36498D01*
X320194Y36571D01*
X320238Y36637D01*
X320623Y37568D01*
X320639Y37646D01*
X320669Y37719D01*
X320866Y38708D01*
Y38787D01*
X320881Y38864D01*
Y39873D01*
X320866Y39950D01*
Y40029D01*
X320669Y41018D01*
X320639Y41091D01*
X320623Y41169D01*
X320238Y42100D01*
X320194Y42166D01*
X320163Y42239D01*
X319603Y43077D01*
X319547Y43133D01*
X319503Y43199D01*
X318791Y43912D01*
X318725Y43956D01*
X318669Y44012D01*
X317831Y44572D01*
X317758Y44602D01*
X317692Y44646D01*
X316760Y45032D01*
X316683Y45047D01*
X316610Y45077D01*
X315621Y45274D01*
X315542D01*
X315464Y45289D01*
D02*
G37*
G36*
X296200Y34518D02*
X295466Y34372D01*
X294844Y33956D01*
X294428Y33334D01*
X294282Y32600D01*
X294428Y31866D01*
X294844Y31244D01*
X295466Y30828D01*
X296200Y30682D01*
X296934Y30828D01*
X297556Y31244D01*
X297972Y31866D01*
X298118Y32600D01*
X297972Y33334D01*
X297556Y33956D01*
X296934Y34372D01*
X296200Y34518D01*
D02*
G37*
G36*
X278986Y33747D02*
X278252Y33601D01*
X277629Y33185D01*
X277214Y32563D01*
X277068Y31829D01*
X277214Y31095D01*
X277629Y30473D01*
X278252Y30057D01*
X278986Y29911D01*
X279719Y30057D01*
X280342Y30473D01*
X280757Y31095D01*
X280904Y31829D01*
X280757Y32563D01*
X280342Y33185D01*
X279719Y33601D01*
X278986Y33747D01*
D02*
G37*
G36*
X245972Y32365D02*
X245238Y32219D01*
X244616Y31803D01*
X244200Y31181D01*
X244054Y30447D01*
X244200Y29713D01*
X244616Y29091D01*
X245238Y28675D01*
X245972Y28529D01*
X246706Y28675D01*
X247328Y29091D01*
X247744Y29713D01*
X247890Y30447D01*
X247744Y31181D01*
X247328Y31803D01*
X246706Y32219D01*
X245972Y32365D01*
D02*
G37*
G36*
X305038Y32259D02*
X304304Y32113D01*
X303681Y31697D01*
X303266Y31075D01*
X303120Y30341D01*
X303266Y29607D01*
X303681Y28985D01*
X304304Y28569D01*
X305038Y28423D01*
X305772Y28569D01*
X306394Y28985D01*
X306810Y29607D01*
X306956Y30341D01*
X306810Y31075D01*
X306394Y31697D01*
X305772Y32113D01*
X305038Y32259D01*
D02*
G37*
G36*
X197441Y31535D02*
X196673Y31382D01*
X196022Y30947D01*
X195587Y30296D01*
X195434Y29528D01*
X195587Y28760D01*
X196022Y28108D01*
X196673Y27673D01*
X197441Y27520D01*
X198209Y27673D01*
X198860Y28108D01*
X199295Y28760D01*
X199448Y29528D01*
X199295Y30296D01*
X198860Y30947D01*
X198209Y31382D01*
X197441Y31535D01*
D02*
G37*
G36*
X181693D02*
X180925Y31382D01*
X180274Y30947D01*
X179839Y30296D01*
X179686Y29528D01*
X179839Y28760D01*
X180274Y28108D01*
X180925Y27673D01*
X181693Y27520D01*
X182461Y27673D01*
X183112Y28108D01*
X183547Y28760D01*
X183700Y29528D01*
X183547Y30296D01*
X183112Y30947D01*
X182461Y31382D01*
X181693Y31535D01*
D02*
G37*
%LPD*%
D84*
X185400Y164400D02*
D03*
X152200Y134000D02*
D03*
X170796Y131266D02*
D03*
X160797Y131806D02*
D03*
X105600Y136400D02*
D03*
X32600Y161200D02*
D03*
X88400Y139800D02*
D03*
X52000Y172000D02*
D03*
X74200Y194800D02*
D03*
X75905Y180678D02*
D03*
X207036Y23676D02*
D03*
X172918Y21975D02*
D03*
X209381Y170221D02*
D03*
X99800Y166400D02*
D03*
X78180Y206621D02*
D03*
X179750Y177501D02*
D03*
X320981Y221621D02*
D03*
X323688Y205096D02*
D03*
X315814Y189348D02*
D03*
X323688Y173600D02*
D03*
X315814Y157852D02*
D03*
X300066Y189348D02*
D03*
X307940Y173600D02*
D03*
X292192Y205096D02*
D03*
Y173600D02*
D03*
X268570Y157852D02*
D03*
X205578D02*
D03*
X174082D02*
D03*
Y126356D02*
D03*
Y94860D02*
D03*
X166208Y142104D02*
D03*
X158334Y94860D02*
D03*
X166208Y79112D02*
D03*
X158334Y63364D02*
D03*
X142586Y126356D02*
D03*
X118964Y110608D02*
D03*
X87468Y173600D02*
D03*
Y110608D02*
D03*
X63846Y157852D02*
D03*
X71720Y142104D02*
D03*
Y110608D02*
D03*
X63846Y31868D02*
D03*
X55972Y205096D02*
D03*
X48098Y157852D02*
D03*
Y126356D02*
D03*
Y31868D02*
D03*
X32350Y189348D02*
D03*
X40224Y173600D02*
D03*
X32350Y126356D02*
D03*
Y94860D02*
D03*
Y63364D02*
D03*
Y31868D02*
D03*
X147200Y37200D02*
D03*
X298495Y159793D02*
D03*
X295400Y223000D02*
D03*
X308800Y191000D02*
D03*
X297695Y145393D02*
D03*
X313800Y136349D02*
D03*
X165000Y37200D02*
D03*
X159800Y108600D02*
D03*
X170704Y102653D02*
D03*
X144457Y97767D02*
D03*
X85052Y37062D02*
D03*
X130354Y36765D02*
D03*
X173907Y40558D02*
D03*
X166066Y53060D02*
D03*
X162562Y62085D02*
D03*
X218600Y49000D02*
D03*
X165669Y29451D02*
D03*
X147110Y29732D02*
D03*
X85631Y30045D02*
D03*
X54257Y134781D02*
D03*
X32733Y104732D02*
D03*
X143444Y106840D02*
D03*
X160886Y115577D02*
D03*
X189600Y96400D02*
D03*
X181800Y96000D02*
D03*
X181000Y74400D02*
D03*
X121981Y45621D02*
D03*
X116181Y43421D02*
D03*
X73600Y39000D02*
D03*
X111781Y82621D02*
D03*
X48981Y89621D02*
D03*
X235580Y94221D02*
D03*
X300600Y51800D02*
D03*
X272581Y51621D02*
D03*
X232400Y31477D02*
D03*
X181600Y78000D02*
D03*
M02*
