G04*
G04 #@! TF.GenerationSoftware,Altium Limited,Altium Designer,20.1.12 (249)*
G04*
G04 Layer_Physical_Order=4*
G04 Layer_Color=16711680*
%FSLAX25Y25*%
%MOIN*%
G70*
G04*
G04 #@! TF.SameCoordinates,C485F13E-52F4-4B27-BA2E-0FCDB629E99E*
G04*
G04*
G04 #@! TF.FilePolarity,Positive*
G04*
G01*
G75*
%ADD15C,0.01000*%
%ADD16C,0.00600*%
%ADD75C,0.01200*%
%ADD76C,0.02362*%
G04:AMPARAMS|DCode=77|XSize=220.47mil|YSize=78.74mil|CornerRadius=19.68mil|HoleSize=0mil|Usage=FLASHONLY|Rotation=90.000|XOffset=0mil|YOffset=0mil|HoleType=Round|Shape=RoundedRectangle|*
%AMROUNDEDRECTD77*
21,1,0.22047,0.03937,0,0,90.0*
21,1,0.18110,0.07874,0,0,90.0*
1,1,0.03937,0.01968,0.09055*
1,1,0.03937,0.01968,-0.09055*
1,1,0.03937,-0.01968,-0.09055*
1,1,0.03937,-0.01968,0.09055*
%
%ADD77ROUNDEDRECTD77*%
%ADD78C,0.19291*%
%ADD79O,0.03937X0.06693*%
%ADD80C,0.05906*%
%ADD81O,0.05906X0.09843*%
G36*
X39370Y236402D02*
X314961D01*
X315747Y236402D01*
X317305Y236197D01*
X318824Y235790D01*
X320276Y235188D01*
X321638Y234402D01*
X322885Y233445D01*
X323996Y232334D01*
X324953Y231086D01*
X325739Y229725D01*
X326341Y228273D01*
X326748Y226754D01*
X326953Y225196D01*
Y224410D01*
Y39370D01*
Y38584D01*
X326748Y37025D01*
X326341Y35507D01*
X325739Y34054D01*
X324953Y32693D01*
X323996Y31446D01*
X322885Y30334D01*
X321638Y29377D01*
X320276Y28591D01*
X318824Y27990D01*
X317305Y27583D01*
X315747Y27378D01*
X38584D01*
X37025Y27583D01*
X35507Y27990D01*
X34054Y28591D01*
X32693Y29377D01*
X31446Y30334D01*
X30334Y31446D01*
X29377Y32693D01*
X28591Y34055D01*
X27990Y35507D01*
X27583Y37025D01*
X27378Y38584D01*
Y39370D01*
Y224410D01*
Y225196D01*
X27583Y226754D01*
X27990Y228273D01*
X28591Y229725D01*
X29377Y231086D01*
X30334Y232334D01*
X31446Y233445D01*
X32693Y234402D01*
X34055Y235188D01*
X35507Y235790D01*
X37025Y236197D01*
X38584Y236402D01*
X39370Y236402D01*
D02*
G37*
%LPC*%
G36*
X210177Y233320D02*
X208408D01*
Y222050D01*
X212592D01*
Y230906D01*
X212408Y231830D01*
X211885Y232613D01*
X211101Y233137D01*
X210177Y233320D01*
D02*
G37*
G36*
X115689D02*
X113920D01*
Y222050D01*
X118104D01*
Y230906D01*
X117920Y231830D01*
X117396Y232613D01*
X116613Y233137D01*
X115689Y233320D01*
D02*
G37*
G36*
X208009D02*
X206240D01*
X205316Y233137D01*
X204532Y232613D01*
X204009Y231830D01*
X203825Y230906D01*
Y222050D01*
X208009D01*
Y233320D01*
D02*
G37*
G36*
X113520D02*
X111752D01*
X110828Y233137D01*
X110044Y232613D01*
X109521Y231830D01*
X109337Y230906D01*
Y222050D01*
X113520D01*
Y233320D01*
D02*
G37*
G36*
X314961Y234787D02*
X313337Y234659D01*
X311754Y234279D01*
X310249Y233656D01*
X308861Y232805D01*
X307623Y231748D01*
X306565Y230509D01*
X305714Y229121D01*
X305091Y227616D01*
X304711Y226033D01*
X304583Y224410D01*
X304711Y222786D01*
X305091Y221203D01*
X305714Y219698D01*
X306565Y218310D01*
X307623Y217071D01*
X308861Y216014D01*
X310249Y215163D01*
X311754Y214540D01*
X313337Y214160D01*
X314961Y214032D01*
X316584Y214160D01*
X318167Y214540D01*
X319672Y215163D01*
X321060Y216014D01*
X322299Y217071D01*
X323356Y218310D01*
X324207Y219698D01*
X324830Y221203D01*
X325210Y222786D01*
X325338Y224410D01*
X325210Y226033D01*
X324830Y227616D01*
X324207Y229121D01*
X323356Y230509D01*
X322299Y231748D01*
X321060Y232805D01*
X319672Y233656D01*
X318167Y234279D01*
X316584Y234659D01*
X314961Y234787D01*
D02*
G37*
G36*
X39370D02*
X37747Y234659D01*
X36163Y234279D01*
X34659Y233656D01*
X33270Y232805D01*
X32032Y231748D01*
X30974Y230509D01*
X30123Y229121D01*
X29500Y227616D01*
X29120Y226033D01*
X28992Y224410D01*
X29120Y222786D01*
X29500Y221203D01*
X30123Y219698D01*
X30974Y218310D01*
X32032Y217071D01*
X33270Y216014D01*
X34659Y215163D01*
X36163Y214540D01*
X37747Y214160D01*
X39370Y214032D01*
X40993Y214160D01*
X42577Y214540D01*
X44081Y215163D01*
X45470Y216014D01*
X46708Y217071D01*
X47766Y218310D01*
X48617Y219698D01*
X49240Y221203D01*
X49620Y222786D01*
X49748Y224410D01*
X49620Y226033D01*
X49240Y227616D01*
X48617Y229121D01*
X47766Y230509D01*
X46708Y231748D01*
X45470Y232805D01*
X44081Y233656D01*
X42577Y234279D01*
X40993Y234659D01*
X39370Y234787D01*
D02*
G37*
G36*
X212592Y221650D02*
X208408D01*
Y210380D01*
X210177D01*
X211101Y210564D01*
X211885Y211088D01*
X212408Y211871D01*
X212592Y212795D01*
Y221650D01*
D02*
G37*
G36*
X208009D02*
X203825D01*
Y212795D01*
X204009Y211871D01*
X204532Y211088D01*
X205316Y210564D01*
X206240Y210380D01*
X208009D01*
Y221650D01*
D02*
G37*
G36*
X118104D02*
X113920D01*
Y210380D01*
X115689D01*
X116613Y210564D01*
X117396Y211088D01*
X117920Y211871D01*
X118104Y212795D01*
Y221650D01*
D02*
G37*
G36*
X113520D02*
X109337D01*
Y212795D01*
X109521Y211871D01*
X110044Y211088D01*
X110828Y210564D01*
X111752Y210380D01*
X113520D01*
Y221650D01*
D02*
G37*
G36*
X274075Y233597D02*
X270138D01*
X269441Y233505D01*
X268792Y233236D01*
X268235Y232809D01*
X267807Y232251D01*
X267538Y231602D01*
X267446Y230906D01*
Y212795D01*
X267538Y212099D01*
X267807Y211450D01*
X268235Y210892D01*
X268792Y210464D01*
X269441Y210195D01*
X270138Y210104D01*
X274075D01*
X274772Y210195D01*
X275421Y210464D01*
X275978Y210892D01*
X276406Y211450D01*
X276675Y212099D01*
X276766Y212795D01*
Y230906D01*
X276675Y231602D01*
X276406Y232251D01*
X275978Y232809D01*
X275421Y233236D01*
X274772Y233505D01*
X274075Y233597D01*
D02*
G37*
G36*
X179587D02*
X175650D01*
X174953Y233505D01*
X174304Y233236D01*
X173747Y232809D01*
X173319Y232251D01*
X173050Y231602D01*
X172958Y230906D01*
Y212795D01*
X173050Y212099D01*
X173319Y211450D01*
X173747Y210892D01*
X174304Y210464D01*
X174953Y210195D01*
X175650Y210104D01*
X179587D01*
X180283Y210195D01*
X180933Y210464D01*
X181490Y210892D01*
X181918Y211450D01*
X182187Y212099D01*
X182278Y212795D01*
Y230906D01*
X182187Y231602D01*
X181918Y232251D01*
X181490Y232809D01*
X180933Y233236D01*
X180283Y233505D01*
X179587Y233597D01*
D02*
G37*
G36*
X274075Y208597D02*
X270138D01*
X269441Y208505D01*
X268792Y208236D01*
X268235Y207809D01*
X267807Y207251D01*
X267538Y206602D01*
X267446Y205906D01*
Y187795D01*
X267538Y187099D01*
X267807Y186450D01*
X268235Y185892D01*
X268792Y185464D01*
X269441Y185196D01*
X270138Y185104D01*
X274075D01*
X274772Y185196D01*
X275421Y185464D01*
X275978Y185892D01*
X276406Y186450D01*
X276675Y187099D01*
X276766Y187795D01*
Y205906D01*
X276675Y206602D01*
X276406Y207251D01*
X275978Y207809D01*
X275421Y208236D01*
X274772Y208505D01*
X274075Y208597D01*
D02*
G37*
G36*
X210177D02*
X206240D01*
X205543Y208505D01*
X204894Y208236D01*
X204337Y207809D01*
X203909Y207251D01*
X203640Y206602D01*
X203548Y205906D01*
Y187795D01*
X203640Y187099D01*
X203909Y186450D01*
X204337Y185892D01*
X204894Y185464D01*
X205543Y185196D01*
X206240Y185104D01*
X210177D01*
X210874Y185196D01*
X211523Y185464D01*
X212080Y185892D01*
X212508Y186450D01*
X212777Y187099D01*
X212868Y187795D01*
Y205906D01*
X212777Y206602D01*
X212508Y207251D01*
X212080Y207809D01*
X211523Y208236D01*
X210874Y208505D01*
X210177Y208597D01*
D02*
G37*
G36*
X179587D02*
X175650D01*
X174953Y208505D01*
X174304Y208236D01*
X173747Y207809D01*
X173319Y207251D01*
X173050Y206602D01*
X172958Y205906D01*
Y187795D01*
X173050Y187099D01*
X173319Y186450D01*
X173747Y185892D01*
X174304Y185464D01*
X174953Y185196D01*
X175650Y185104D01*
X179587D01*
X180283Y185196D01*
X180933Y185464D01*
X181490Y185892D01*
X181918Y186450D01*
X182187Y187099D01*
X182278Y187795D01*
Y205906D01*
X182187Y206602D01*
X181918Y207251D01*
X181490Y207809D01*
X180933Y208236D01*
X180283Y208505D01*
X179587Y208597D01*
D02*
G37*
G36*
X115689D02*
X111752D01*
X111055Y208505D01*
X110406Y208236D01*
X109849Y207809D01*
X109421Y207251D01*
X109152Y206602D01*
X109060Y205906D01*
Y187795D01*
X109152Y187099D01*
X109421Y186450D01*
X109849Y185892D01*
X110406Y185464D01*
X111055Y185196D01*
X111752Y185104D01*
X115689D01*
X116385Y185196D01*
X117035Y185464D01*
X117592Y185892D01*
X118020Y186450D01*
X118289Y187099D01*
X118380Y187795D01*
Y205906D01*
X118289Y206602D01*
X118020Y207251D01*
X117592Y207809D01*
X117035Y208236D01*
X116385Y208505D01*
X115689Y208597D01*
D02*
G37*
G36*
X274075Y183597D02*
X270138D01*
X269441Y183505D01*
X268792Y183236D01*
X268235Y182809D01*
X267807Y182251D01*
X267538Y181602D01*
X267446Y180905D01*
Y162795D01*
X267538Y162099D01*
X267807Y161450D01*
X268235Y160892D01*
X268792Y160464D01*
X269441Y160196D01*
X270138Y160104D01*
X274075D01*
X274772Y160196D01*
X275421Y160464D01*
X275978Y160892D01*
X276406Y161450D01*
X276675Y162099D01*
X276766Y162795D01*
Y180905D01*
X276675Y181602D01*
X276406Y182251D01*
X275978Y182809D01*
X275421Y183236D01*
X274772Y183505D01*
X274075Y183597D01*
D02*
G37*
G36*
X210177D02*
X206240D01*
X205543Y183505D01*
X204894Y183236D01*
X204337Y182809D01*
X203909Y182251D01*
X203640Y181602D01*
X203548Y180905D01*
Y162795D01*
X203640Y162099D01*
X203909Y161450D01*
X204337Y160892D01*
X204894Y160464D01*
X205543Y160196D01*
X206240Y160104D01*
X210177D01*
X210874Y160196D01*
X211523Y160464D01*
X212080Y160892D01*
X212508Y161450D01*
X212777Y162099D01*
X212868Y162795D01*
Y180905D01*
X212777Y181602D01*
X212508Y182251D01*
X212080Y182809D01*
X211523Y183236D01*
X210874Y183505D01*
X210177Y183597D01*
D02*
G37*
G36*
X179587D02*
X175650D01*
X174953Y183505D01*
X174304Y183236D01*
X173747Y182809D01*
X173319Y182251D01*
X173050Y181602D01*
X172958Y180905D01*
Y162795D01*
X173050Y162099D01*
X173319Y161450D01*
X173747Y160892D01*
X174304Y160464D01*
X174953Y160196D01*
X175650Y160104D01*
X179587D01*
X180283Y160196D01*
X180933Y160464D01*
X181490Y160892D01*
X181918Y161450D01*
X182187Y162099D01*
X182278Y162795D01*
Y180905D01*
X182187Y181602D01*
X181918Y182251D01*
X181490Y182809D01*
X180933Y183236D01*
X180283Y183505D01*
X179587Y183597D01*
D02*
G37*
G36*
X80800Y204624D02*
X59400D01*
X58932Y204530D01*
X58535Y204265D01*
X50735Y196465D01*
X50470Y196068D01*
X50376Y195600D01*
Y194645D01*
X50244Y194556D01*
X49828Y193934D01*
X49682Y193200D01*
X49828Y192466D01*
X50244Y191844D01*
X50866Y191428D01*
X51600Y191282D01*
X52334Y191428D01*
X52956Y191844D01*
X53372Y192466D01*
X53518Y193200D01*
X53372Y193934D01*
X52956Y194556D01*
X52871Y194613D01*
X52842Y195112D01*
X59907Y202176D01*
X80293D01*
X108004Y174466D01*
X108401Y174201D01*
X108869Y174107D01*
X109060D01*
Y162795D01*
X109152Y162099D01*
X109421Y161450D01*
X109849Y160892D01*
X110406Y160464D01*
X111055Y160196D01*
X111752Y160104D01*
X115689D01*
X116385Y160196D01*
X117035Y160464D01*
X117592Y160892D01*
X118020Y161450D01*
X118289Y162099D01*
X118380Y162795D01*
Y180905D01*
X118289Y181602D01*
X118020Y182251D01*
X117592Y182809D01*
X117035Y183236D01*
X116385Y183505D01*
X115689Y183597D01*
X111752D01*
X111055Y183505D01*
X110406Y183236D01*
X109849Y182809D01*
X109421Y182251D01*
X109152Y181602D01*
X109060Y180905D01*
Y177523D01*
X108598Y177332D01*
X81665Y204265D01*
X81268Y204530D01*
X80800Y204624D01*
D02*
G37*
G36*
X309400Y141718D02*
X308666Y141572D01*
X308044Y141156D01*
X307628Y140534D01*
X307482Y139800D01*
X307628Y139066D01*
X308044Y138444D01*
X308666Y138028D01*
X309400Y137882D01*
X310134Y138028D01*
X310756Y138444D01*
X311172Y139066D01*
X311318Y139800D01*
X311172Y140534D01*
X310756Y141156D01*
X310134Y141572D01*
X309400Y141718D01*
D02*
G37*
G36*
X299600Y127755D02*
Y124600D01*
X302755D01*
X302666Y125275D01*
X302329Y126091D01*
X301791Y126791D01*
X301091Y127329D01*
X300275Y127666D01*
X299600Y127755D01*
D02*
G37*
G36*
X299200D02*
X298525Y127666D01*
X297709Y127329D01*
X297009Y126791D01*
X296471Y126091D01*
X296134Y125275D01*
X296045Y124600D01*
X299200D01*
Y127755D01*
D02*
G37*
G36*
X282200Y128484D02*
X281246Y128359D01*
X280358Y127991D01*
X279595Y127405D01*
X279009Y126642D01*
X278641Y125754D01*
X278516Y124800D01*
X278641Y123846D01*
X278982Y123024D01*
X277569Y121611D01*
X277348Y121280D01*
X277270Y120890D01*
Y120170D01*
X276934Y119945D01*
X276518Y119323D01*
X276372Y118589D01*
X276518Y117855D01*
X276934Y117233D01*
X276975Y116816D01*
X266578Y106420D01*
X158400D01*
X158010Y106342D01*
X157679Y106121D01*
X132178Y80620D01*
X120200D01*
X119810Y80542D01*
X119479Y80321D01*
X113197Y74038D01*
X106976D01*
X106752Y74375D01*
X106129Y74791D01*
X105395Y74937D01*
X104662Y74791D01*
X104039Y74375D01*
X103623Y73753D01*
X103478Y73019D01*
X103623Y72285D01*
X104039Y71663D01*
X104662Y71247D01*
X105395Y71101D01*
X106129Y71247D01*
X106752Y71663D01*
X106976Y71999D01*
X113619D01*
X114009Y72077D01*
X114340Y72298D01*
X120622Y78580D01*
X132600D01*
X132990Y78658D01*
X133321Y78879D01*
X158822Y104380D01*
X267000D01*
X267390Y104458D01*
X267721Y104679D01*
X279011Y115969D01*
X279232Y116300D01*
X279309Y116690D01*
Y117008D01*
X279646Y117233D01*
X280062Y117855D01*
X280208Y118589D01*
X280062Y119323D01*
X279646Y119945D01*
X279496Y120045D01*
X279454Y120612D01*
X280424Y121582D01*
X281246Y121241D01*
X282200Y121116D01*
X283154Y121241D01*
X284042Y121609D01*
X284805Y122195D01*
X285391Y122958D01*
X285759Y123846D01*
X285884Y124800D01*
X285759Y125754D01*
X285391Y126642D01*
X284805Y127405D01*
X284042Y127991D01*
X283154Y128359D01*
X282200Y128484D01*
D02*
G37*
G36*
X302755Y124200D02*
X299600D01*
Y121045D01*
X300275Y121133D01*
X301091Y121471D01*
X301791Y122009D01*
X302329Y122709D01*
X302666Y123525D01*
X302755Y124200D01*
D02*
G37*
G36*
X299200D02*
X296045D01*
X296134Y123525D01*
X296471Y122709D01*
X297009Y122009D01*
X297709Y121471D01*
X298525Y121133D01*
X299200Y121045D01*
Y124200D01*
D02*
G37*
G36*
X66400Y123518D02*
X65666Y123372D01*
X65044Y122956D01*
X64628Y122334D01*
X64482Y121600D01*
X64628Y120866D01*
X65044Y120244D01*
X65666Y119828D01*
X66400Y119682D01*
X67134Y119828D01*
X67756Y120244D01*
X67777Y120274D01*
X146395D01*
X146597Y119973D01*
X147219Y119557D01*
X147953Y119411D01*
X148687Y119557D01*
X149309Y119973D01*
X149725Y120595D01*
X149871Y121329D01*
X149725Y122063D01*
X149309Y122685D01*
X148687Y123101D01*
X147953Y123247D01*
X147219Y123101D01*
X146957Y122925D01*
X67777D01*
X67756Y122956D01*
X67134Y123372D01*
X66400Y123518D01*
D02*
G37*
G36*
X263400Y129084D02*
X262446Y128959D01*
X261558Y128591D01*
X260795Y128005D01*
X260209Y127242D01*
X259841Y126354D01*
X259716Y125400D01*
X259841Y124446D01*
X260209Y123558D01*
X260795Y122795D01*
X261558Y122209D01*
X262270Y121914D01*
Y120170D01*
X261933Y119945D01*
X261716Y119620D01*
X151200D01*
X150810Y119542D01*
X150479Y119321D01*
X145378Y114220D01*
X138000D01*
X137610Y114142D01*
X137279Y113921D01*
X106946Y83588D01*
X106485Y83834D01*
X106518Y84000D01*
X106372Y84734D01*
X105956Y85356D01*
X105334Y85772D01*
X104600Y85918D01*
X103866Y85772D01*
X103244Y85356D01*
X103019Y85020D01*
X96800D01*
X96410Y84942D01*
X96079Y84721D01*
X92079Y80721D01*
X91858Y80390D01*
X91780Y80000D01*
Y57000D01*
X91858Y56610D01*
X92079Y56279D01*
X99279Y49079D01*
X99610Y48858D01*
X100000Y48780D01*
X105162D01*
X105211Y48280D01*
X105112Y48261D01*
X104666Y48172D01*
X104044Y47756D01*
X103628Y47134D01*
X103482Y46400D01*
X103628Y45666D01*
X104044Y45044D01*
X104380Y44819D01*
Y43222D01*
X102079Y40921D01*
X100397Y39239D01*
X100000Y39318D01*
X99266Y39172D01*
X98789Y38853D01*
X92505Y45137D01*
X92450Y45174D01*
X92484Y45432D01*
Y49369D01*
X92359Y50322D01*
X91991Y51211D01*
X91405Y51974D01*
X90642Y52559D01*
X89754Y52927D01*
X88800Y53053D01*
X87846Y52927D01*
X86958Y52559D01*
X86195Y51974D01*
X85609Y51211D01*
X85241Y50322D01*
X85116Y49369D01*
Y45432D01*
X85241Y44478D01*
X85609Y43589D01*
X86195Y42826D01*
X86958Y42241D01*
X87846Y41873D01*
X88800Y41747D01*
X89754Y41873D01*
X90642Y42241D01*
X91405Y42826D01*
X91899Y42859D01*
X97808Y36951D01*
X98138Y36730D01*
X98219Y36714D01*
X98228Y36666D01*
X98644Y36044D01*
X99018Y35794D01*
Y35206D01*
X98644Y34956D01*
X98419Y34620D01*
X82822D01*
X71307Y46135D01*
X71498Y46597D01*
X77242D01*
Y45432D01*
X77367Y44478D01*
X77735Y43589D01*
X78321Y42826D01*
X79084Y42241D01*
X79972Y41873D01*
X80926Y41747D01*
X81880Y41873D01*
X82768Y42241D01*
X83531Y42826D01*
X84117Y43589D01*
X84485Y44478D01*
X84610Y45432D01*
Y49369D01*
X84485Y50322D01*
X84117Y51211D01*
X83531Y51974D01*
X82768Y52559D01*
X81880Y52927D01*
X80926Y53053D01*
X79972Y52927D01*
X79084Y52559D01*
X78321Y51974D01*
X77735Y51211D01*
X77367Y50322D01*
X77242Y49369D01*
Y48636D01*
X69788D01*
X69563Y48973D01*
X68941Y49389D01*
X68207Y49534D01*
X67473Y49389D01*
X66851Y48973D01*
X66435Y48351D01*
X66289Y47617D01*
X66435Y46883D01*
X66851Y46260D01*
X67473Y45845D01*
X68207Y45699D01*
X68751Y45807D01*
X73208Y41350D01*
X73044Y40807D01*
X72866Y40772D01*
X72244Y40356D01*
X71828Y39734D01*
X71682Y39000D01*
X71828Y38266D01*
X72244Y37644D01*
X72866Y37228D01*
X73600Y37082D01*
X74334Y37228D01*
X74956Y37644D01*
X75372Y38266D01*
X75407Y38444D01*
X75950Y38608D01*
X81679Y32879D01*
X82010Y32658D01*
X82400Y32580D01*
X98419D01*
X98644Y32244D01*
X99266Y31828D01*
X100000Y31682D01*
X100734Y31828D01*
X101356Y32244D01*
X101581Y32580D01*
X126102D01*
X126493Y32658D01*
X126711Y32804D01*
X127582D01*
X127801Y32658D01*
X128191Y32580D01*
X170600D01*
X170990Y32658D01*
X171321Y32879D01*
X176222Y37780D01*
X205578D01*
X210269Y33089D01*
X210600Y32868D01*
X210990Y32790D01*
X230485D01*
X230720Y32350D01*
X230628Y32211D01*
X230482Y31477D01*
X230628Y30743D01*
X231044Y30121D01*
X231666Y29705D01*
X232400Y29559D01*
X233134Y29705D01*
X233756Y30121D01*
X234172Y30743D01*
X234318Y31477D01*
X234172Y32211D01*
X234080Y32350D01*
X234315Y32790D01*
X279766D01*
X279816Y32780D01*
X283378D01*
X287879Y28279D01*
X288210Y28058D01*
X288600Y27980D01*
X297800D01*
X298190Y28058D01*
X298521Y28279D01*
X300721Y30479D01*
X300942Y30810D01*
X301020Y31200D01*
Y34000D01*
X300942Y34390D01*
X300721Y34721D01*
X298239Y37203D01*
X298318Y37600D01*
X298239Y37997D01*
X307052Y46810D01*
X307419Y46470D01*
X306565Y45470D01*
X305714Y44081D01*
X305091Y42577D01*
X304711Y40993D01*
X304583Y39370D01*
X304711Y37747D01*
X305091Y36163D01*
X305714Y34659D01*
X306565Y33270D01*
X307623Y32032D01*
X308861Y30974D01*
X310249Y30123D01*
X311754Y29500D01*
X313337Y29120D01*
X314961Y28992D01*
X316584Y29120D01*
X318167Y29500D01*
X319672Y30123D01*
X321060Y30974D01*
X322299Y32032D01*
X323356Y33270D01*
X324207Y34659D01*
X324830Y36163D01*
X325210Y37747D01*
X325338Y39370D01*
X325210Y40993D01*
X324830Y42577D01*
X324207Y44081D01*
X323356Y45470D01*
X322299Y46708D01*
X321060Y47766D01*
X319672Y48617D01*
X318167Y49240D01*
X316584Y49620D01*
X314961Y49748D01*
X313337Y49620D01*
X311754Y49240D01*
X310249Y48617D01*
X308861Y47766D01*
X307860Y46911D01*
X307521Y47279D01*
X313573Y53331D01*
X313794Y53662D01*
X313872Y54052D01*
Y64869D01*
X314208Y65094D01*
X314624Y65717D01*
X314770Y66451D01*
X314624Y67185D01*
X314208Y67807D01*
X313586Y68222D01*
X312852Y68369D01*
X312118Y68222D01*
X311496Y67807D01*
X311080Y67185D01*
X310934Y66451D01*
X311080Y65717D01*
X311496Y65094D01*
X311832Y64869D01*
Y54474D01*
X296797Y39439D01*
X296400Y39518D01*
X295666Y39372D01*
X295044Y38956D01*
X294720Y38471D01*
X294220Y38623D01*
Y61376D01*
X297455Y64612D01*
X297852Y64533D01*
X298586Y64679D01*
X299208Y65094D01*
X299624Y65717D01*
X299770Y66451D01*
X299624Y67185D01*
X299208Y67807D01*
X298586Y68222D01*
X297852Y68369D01*
X297118Y68222D01*
X296496Y67807D01*
X296080Y67185D01*
X295934Y66451D01*
X296013Y66053D01*
X292479Y62520D01*
X292258Y62189D01*
X292180Y61799D01*
Y35600D01*
X292258Y35210D01*
X292479Y34879D01*
X293277Y34082D01*
X293085Y33620D01*
X291422D01*
X285721Y39321D01*
X285390Y39542D01*
X285000Y39620D01*
X213222D01*
X208921Y43921D01*
X208590Y44142D01*
X208200Y44220D01*
X172800D01*
X172410Y44142D01*
X172079Y43921D01*
X169378Y41220D01*
X117125D01*
X117021Y41720D01*
X117537Y42064D01*
X117952Y42687D01*
X118098Y43421D01*
X117952Y44155D01*
X117537Y44777D01*
X116914Y45193D01*
X116181Y45338D01*
X115446Y45193D01*
X114824Y44777D01*
X114409Y44155D01*
X114262Y43421D01*
X114409Y42687D01*
X114824Y42064D01*
X115340Y41720D01*
X115236Y41220D01*
X105915D01*
X105724Y41682D01*
X106121Y42079D01*
X106342Y42410D01*
X106420Y42800D01*
Y44819D01*
X106756Y45044D01*
X107172Y45666D01*
X107318Y46400D01*
X107172Y47134D01*
X106756Y47756D01*
X106134Y48172D01*
X105688Y48261D01*
X105589Y48280D01*
X105638Y48780D01*
X209978D01*
X214679Y44079D01*
X215010Y43858D01*
X215400Y43780D01*
X232653D01*
X233044Y43858D01*
X233374Y44079D01*
X238222Y48927D01*
X249298D01*
X249523Y48590D01*
X250146Y48175D01*
X250880Y48029D01*
X251613Y48175D01*
X252236Y48590D01*
X252461Y48927D01*
X254031D01*
X254041Y48846D01*
X254409Y47958D01*
X254995Y47195D01*
X255758Y46609D01*
X256646Y46241D01*
X257600Y46116D01*
X258554Y46241D01*
X259442Y46609D01*
X260205Y47195D01*
X260791Y47958D01*
X261159Y48846D01*
X261284Y49800D01*
X261159Y50754D01*
X260791Y51642D01*
X260205Y52405D01*
X259442Y52991D01*
X258554Y53359D01*
X257600Y53484D01*
X256646Y53359D01*
X255758Y52991D01*
X254995Y52405D01*
X254409Y51642D01*
X254129Y50966D01*
X252461D01*
X252236Y51303D01*
X251613Y51719D01*
X250880Y51865D01*
X250146Y51719D01*
X249523Y51303D01*
X249298Y50966D01*
X237800D01*
X237410Y50889D01*
X237079Y50668D01*
X232231Y45820D01*
X228472D01*
X228320Y46320D01*
X228537Y46464D01*
X228952Y47087D01*
X229098Y47821D01*
X228952Y48555D01*
X228537Y49177D01*
X227914Y49593D01*
X227181Y49738D01*
X226447Y49593D01*
X226089Y49353D01*
X220521Y54921D01*
X220190Y55142D01*
X219800Y55220D01*
X211830D01*
X211518Y55600D01*
X211372Y56334D01*
X211140Y56680D01*
X211408Y57180D01*
X217986D01*
X218144Y56944D01*
X218766Y56528D01*
X219500Y56382D01*
X220234Y56528D01*
X220856Y56944D01*
X221272Y57566D01*
X221418Y58300D01*
X221272Y59034D01*
X220856Y59656D01*
X220234Y60072D01*
X219500Y60218D01*
X218766Y60072D01*
X218144Y59656D01*
X217852Y59220D01*
X203722D01*
X203521Y59521D01*
X202899Y59936D01*
X202165Y60083D01*
X201431Y59936D01*
X200808Y59521D01*
X200393Y58899D01*
X200247Y58165D01*
X200393Y57431D01*
X200808Y56808D01*
X201431Y56393D01*
X202165Y56247D01*
X202899Y56393D01*
X203521Y56808D01*
X203769Y57180D01*
X207792D01*
X208060Y56680D01*
X207828Y56334D01*
X207682Y55600D01*
X207828Y54866D01*
X208244Y54244D01*
X208866Y53828D01*
X209600Y53682D01*
X209997Y53761D01*
X210279Y53479D01*
X210610Y53258D01*
X211000Y53180D01*
X219378D01*
X225121Y47437D01*
X225372Y47269D01*
X225409Y47087D01*
X225824Y46464D01*
X226041Y46320D01*
X225889Y45820D01*
X215822D01*
X211121Y50521D01*
X210790Y50742D01*
X210400Y50820D01*
X100422D01*
X93820Y57422D01*
Y79578D01*
X97222Y82980D01*
X103019D01*
X103244Y82644D01*
X103866Y82228D01*
X104600Y82082D01*
X104766Y82115D01*
X105012Y81654D01*
X97679Y74321D01*
X97458Y73990D01*
X97380Y73600D01*
Y60014D01*
X97458Y59624D01*
X97679Y59293D01*
X103359Y53614D01*
X103428Y53266D01*
X103844Y52644D01*
X104466Y52228D01*
X105200Y52082D01*
X105934Y52228D01*
X106556Y52644D01*
X106972Y53266D01*
X107118Y54000D01*
X106972Y54734D01*
X106556Y55356D01*
X106019Y55715D01*
X106021Y56064D01*
X106072Y56235D01*
X106129Y56247D01*
X106752Y56663D01*
X106976Y56999D01*
X179619D01*
X180009Y57077D01*
X180340Y57298D01*
X185422Y62380D01*
X219978D01*
X223679Y58679D01*
X224010Y58458D01*
X224400Y58380D01*
X275523D01*
X275693Y57880D01*
X275595Y57805D01*
X275009Y57042D01*
X274641Y56154D01*
X274516Y55200D01*
X274641Y54246D01*
X275009Y53358D01*
X275595Y52595D01*
X276358Y52009D01*
X277246Y51641D01*
X278200Y51516D01*
X279154Y51641D01*
X280042Y52009D01*
X280805Y52595D01*
X281391Y53358D01*
X281759Y54246D01*
X281884Y55200D01*
X281759Y56154D01*
X281418Y56976D01*
X283573Y59131D01*
X283794Y59462D01*
X283872Y59852D01*
Y64869D01*
X284208Y65094D01*
X284624Y65717D01*
X284770Y66451D01*
X284624Y67185D01*
X284208Y67807D01*
X283586Y68222D01*
X282852Y68369D01*
X282118Y68222D01*
X281496Y67807D01*
X281080Y67185D01*
X280934Y66451D01*
X281013Y66053D01*
X275379Y60420D01*
X224822D01*
X221121Y64121D01*
X220790Y64342D01*
X220400Y64420D01*
X185000D01*
X184610Y64342D01*
X184279Y64121D01*
X179197Y59039D01*
X106976D01*
X106752Y59375D01*
X106129Y59791D01*
X105395Y59937D01*
X104662Y59791D01*
X104039Y59375D01*
X103623Y58753D01*
X103478Y58019D01*
X103623Y57285D01*
X104039Y56663D01*
X104404Y56419D01*
X104412Y56385D01*
X104332Y55881D01*
X104058Y55799D01*
X99420Y60437D01*
Y73178D01*
X109475Y83232D01*
X109935Y82986D01*
X109862Y82621D01*
X110009Y81887D01*
X110424Y81264D01*
X111047Y80849D01*
X111758Y80707D01*
X111822Y80612D01*
X111993Y80235D01*
X110578Y78820D01*
X109381D01*
X109156Y79156D01*
X108534Y79572D01*
X107800Y79718D01*
X107066Y79572D01*
X106444Y79156D01*
X106028Y78534D01*
X105882Y77800D01*
X106028Y77066D01*
X106444Y76444D01*
X107066Y76028D01*
X107800Y75882D01*
X108534Y76028D01*
X109156Y76444D01*
X109381Y76780D01*
X111000D01*
X111390Y76858D01*
X111721Y77079D01*
X118022Y83380D01*
X124400D01*
X124790Y83458D01*
X125121Y83679D01*
X152422Y110980D01*
X266701D01*
X267091Y111058D01*
X267422Y111279D01*
X272893Y116750D01*
X273290Y116671D01*
X274024Y116817D01*
X274646Y117233D01*
X275062Y117855D01*
X275208Y118589D01*
X275062Y119323D01*
X274646Y119945D01*
X274309Y120170D01*
Y121954D01*
X274442Y122009D01*
X275205Y122595D01*
X275791Y123358D01*
X276159Y124246D01*
X276284Y125200D01*
X276159Y126154D01*
X275791Y127042D01*
X275205Y127805D01*
X274442Y128391D01*
X273554Y128759D01*
X272600Y128884D01*
X271646Y128759D01*
X270758Y128391D01*
X269995Y127805D01*
X269409Y127042D01*
X269041Y126154D01*
X268916Y125200D01*
X269041Y124246D01*
X269409Y123358D01*
X269995Y122595D01*
X270758Y122009D01*
X271646Y121641D01*
X272270Y121559D01*
Y120170D01*
X271934Y119945D01*
X271518Y119323D01*
X271372Y118589D01*
X271451Y118192D01*
X266279Y113020D01*
X152000D01*
X151610Y112942D01*
X151279Y112721D01*
X123978Y85420D01*
X117600D01*
X117210Y85342D01*
X116879Y85121D01*
X114166Y82408D01*
X113789Y82579D01*
X113694Y82643D01*
X113552Y83355D01*
X113137Y83977D01*
X112514Y84392D01*
X111781Y84539D01*
X111415Y84466D01*
X111169Y84927D01*
X138422Y112180D01*
X145800D01*
X146190Y112258D01*
X146521Y112479D01*
X151622Y117580D01*
X261701D01*
X261933Y117233D01*
X262556Y116817D01*
X263290Y116671D01*
X264024Y116817D01*
X264646Y117233D01*
X265062Y117855D01*
X265208Y118589D01*
X265062Y119323D01*
X264646Y119945D01*
X264309Y120170D01*
Y121835D01*
X264354Y121841D01*
X265242Y122209D01*
X266005Y122795D01*
X266591Y123558D01*
X266959Y124446D01*
X267084Y125400D01*
X266959Y126354D01*
X266591Y127242D01*
X266005Y128005D01*
X265242Y128591D01*
X264354Y128959D01*
X263400Y129084D01*
D02*
G37*
G36*
X297356Y105253D02*
Y103881D01*
X298728D01*
X298645Y104298D01*
X298295Y104821D01*
X297772Y105171D01*
X297356Y105253D01*
D02*
G37*
G36*
X296955D02*
X296539Y105171D01*
X296016Y104821D01*
X295666Y104298D01*
X295583Y103881D01*
X296955D01*
Y105253D01*
D02*
G37*
G36*
X290131D02*
Y103881D01*
X291503D01*
X291421Y104298D01*
X291071Y104821D01*
X290548Y105171D01*
X290131Y105253D01*
D02*
G37*
G36*
X289731D02*
X289314Y105171D01*
X288791Y104821D01*
X288442Y104298D01*
X288359Y103881D01*
X289731D01*
Y105253D01*
D02*
G37*
G36*
X298728Y103481D02*
X297356D01*
Y102109D01*
X297772Y102192D01*
X298295Y102541D01*
X298645Y103064D01*
X298728Y103481D01*
D02*
G37*
G36*
X291503Y103481D02*
X290131D01*
Y102109D01*
X290548Y102192D01*
X291071Y102541D01*
X291421Y103064D01*
X291503Y103481D01*
D02*
G37*
G36*
X289731D02*
X288359D01*
X288442Y103064D01*
X288791Y102541D01*
X289314Y102192D01*
X289731Y102109D01*
Y103481D01*
D02*
G37*
G36*
X296955Y103481D02*
X295583D01*
X295666Y103064D01*
X296016Y102541D01*
X296539Y102192D01*
X296955Y102109D01*
Y103481D01*
D02*
G37*
G36*
X300968Y101641D02*
Y100269D01*
X302340D01*
X302257Y100686D01*
X301908Y101209D01*
X301385Y101558D01*
X300968Y101641D01*
D02*
G37*
G36*
X300568D02*
X300151Y101558D01*
X299628Y101209D01*
X299278Y100686D01*
X299195Y100269D01*
X300568D01*
Y101641D01*
D02*
G37*
G36*
X293743D02*
Y100269D01*
X295116D01*
X295033Y100686D01*
X294683Y101209D01*
X294160Y101558D01*
X293743Y101641D01*
D02*
G37*
G36*
X293343D02*
X292926Y101558D01*
X292403Y101209D01*
X292054Y100686D01*
X291971Y100269D01*
X293343D01*
Y101641D01*
D02*
G37*
G36*
X286519D02*
Y100269D01*
X287891D01*
X287808Y100686D01*
X287459Y101209D01*
X286936Y101558D01*
X286519Y101641D01*
D02*
G37*
G36*
X286119D02*
X285702Y101558D01*
X285179Y101209D01*
X284829Y100686D01*
X284747Y100269D01*
X286119D01*
Y101641D01*
D02*
G37*
G36*
X302340Y99869D02*
X300968D01*
Y98497D01*
X301385Y98580D01*
X301908Y98929D01*
X302257Y99452D01*
X302340Y99869D01*
D02*
G37*
G36*
X286119Y99869D02*
X284747D01*
X284829Y99452D01*
X285179Y98929D01*
X285702Y98580D01*
X286119Y98497D01*
Y99869D01*
D02*
G37*
G36*
X295116Y99869D02*
X293743D01*
Y98497D01*
X294160Y98580D01*
X294683Y98929D01*
X295033Y99452D01*
X295116Y99869D01*
D02*
G37*
G36*
X293343D02*
X291971D01*
X292054Y99452D01*
X292403Y98929D01*
X292926Y98580D01*
X293343Y98497D01*
Y99869D01*
D02*
G37*
G36*
X287891Y99869D02*
X286519D01*
Y98497D01*
X286936Y98580D01*
X287459Y98929D01*
X287808Y99452D01*
X287891Y99869D01*
D02*
G37*
G36*
X300568Y99869D02*
X299195D01*
X299278Y99452D01*
X299628Y98929D01*
X300151Y98580D01*
X300568Y98497D01*
Y99869D01*
D02*
G37*
G36*
X297356Y98029D02*
Y96657D01*
X298728D01*
X298645Y97074D01*
X298295Y97597D01*
X297772Y97946D01*
X297356Y98029D01*
D02*
G37*
G36*
X296955D02*
X296539Y97946D01*
X296016Y97597D01*
X295666Y97074D01*
X295583Y96657D01*
X296955D01*
Y98029D01*
D02*
G37*
G36*
X290131D02*
Y96657D01*
X291503D01*
X291421Y97074D01*
X291071Y97597D01*
X290548Y97946D01*
X290131Y98029D01*
D02*
G37*
G36*
X289731D02*
X289314Y97946D01*
X288791Y97597D01*
X288442Y97074D01*
X288359Y96657D01*
X289731D01*
Y98029D01*
D02*
G37*
G36*
X298728Y96257D02*
X297356D01*
Y94884D01*
X297772Y94967D01*
X298295Y95317D01*
X298645Y95840D01*
X298728Y96257D01*
D02*
G37*
G36*
X291503Y96257D02*
X290131D01*
Y94884D01*
X290548Y94967D01*
X291071Y95317D01*
X291421Y95840D01*
X291503Y96257D01*
D02*
G37*
G36*
X289731D02*
X288359D01*
X288442Y95840D01*
X288791Y95317D01*
X289314Y94967D01*
X289731Y94884D01*
Y96257D01*
D02*
G37*
G36*
X296955Y96257D02*
X295583D01*
X295666Y95840D01*
X296016Y95317D01*
X296539Y94967D01*
X296955Y94884D01*
Y96257D01*
D02*
G37*
G36*
X300968Y94417D02*
Y93045D01*
X302340D01*
X302257Y93461D01*
X301908Y93984D01*
X301385Y94334D01*
X300968Y94417D01*
D02*
G37*
G36*
X300568D02*
X300151Y94334D01*
X299628Y93984D01*
X299278Y93461D01*
X299195Y93045D01*
X300568D01*
Y94417D01*
D02*
G37*
G36*
X293743D02*
Y93045D01*
X295116D01*
X295033Y93461D01*
X294683Y93984D01*
X294160Y94334D01*
X293743Y94417D01*
D02*
G37*
G36*
X293343D02*
X292926Y94334D01*
X292403Y93984D01*
X292054Y93461D01*
X291971Y93045D01*
X293343D01*
Y94417D01*
D02*
G37*
G36*
X286519D02*
Y93045D01*
X287891D01*
X287808Y93461D01*
X287459Y93984D01*
X286936Y94334D01*
X286519Y94417D01*
D02*
G37*
G36*
X286119D02*
X285702Y94334D01*
X285179Y93984D01*
X284829Y93461D01*
X284747Y93045D01*
X286119D01*
Y94417D01*
D02*
G37*
G36*
X235580Y96139D02*
X234846Y95992D01*
X234224Y95577D01*
X233808Y94955D01*
X233663Y94221D01*
X233808Y93487D01*
X234224Y92864D01*
X234846Y92449D01*
X235580Y92303D01*
X236314Y92449D01*
X236937Y92864D01*
X237352Y93487D01*
X237498Y94221D01*
X237352Y94955D01*
X236937Y95577D01*
X236314Y95992D01*
X235580Y96139D01*
D02*
G37*
G36*
X302340Y92645D02*
X300968D01*
Y91272D01*
X301385Y91355D01*
X301908Y91705D01*
X302257Y92228D01*
X302340Y92645D01*
D02*
G37*
G36*
X286119Y92645D02*
X284747D01*
X284829Y92228D01*
X285179Y91705D01*
X285702Y91355D01*
X286119Y91272D01*
Y92645D01*
D02*
G37*
G36*
X295116Y92645D02*
X293743D01*
Y91272D01*
X294160Y91355D01*
X294683Y91705D01*
X295033Y92228D01*
X295116Y92645D01*
D02*
G37*
G36*
X293343D02*
X291971D01*
X292054Y92228D01*
X292403Y91705D01*
X292926Y91355D01*
X293343Y91272D01*
Y92645D01*
D02*
G37*
G36*
X287891Y92645D02*
X286519D01*
Y91272D01*
X286936Y91355D01*
X287459Y91705D01*
X287808Y92228D01*
X287891Y92645D01*
D02*
G37*
G36*
X300568Y92645D02*
X299195D01*
X299278Y92228D01*
X299628Y91705D01*
X300151Y91355D01*
X300568Y91272D01*
Y92645D01*
D02*
G37*
G36*
X297356Y90805D02*
Y89432D01*
X298728D01*
X298645Y89849D01*
X298295Y90372D01*
X297772Y90722D01*
X297356Y90805D01*
D02*
G37*
G36*
X296955D02*
X296539Y90722D01*
X296016Y90372D01*
X295666Y89849D01*
X295583Y89432D01*
X296955D01*
Y90805D01*
D02*
G37*
G36*
X290131D02*
Y89432D01*
X291503D01*
X291421Y89849D01*
X291071Y90372D01*
X290548Y90722D01*
X290131Y90805D01*
D02*
G37*
G36*
X289731D02*
X289314Y90722D01*
X288791Y90372D01*
X288442Y89849D01*
X288359Y89432D01*
X289731D01*
Y90805D01*
D02*
G37*
G36*
X48981Y91539D02*
X48246Y91392D01*
X47624Y90977D01*
X47208Y90355D01*
X47063Y89621D01*
X47208Y88887D01*
X47624Y88264D01*
X48246Y87849D01*
X48981Y87703D01*
X49714Y87849D01*
X50337Y88264D01*
X50752Y88887D01*
X50898Y89621D01*
X50752Y90355D01*
X50337Y90977D01*
X49714Y91392D01*
X48981Y91539D01*
D02*
G37*
G36*
X298728Y89032D02*
X297356D01*
Y87660D01*
X297772Y87743D01*
X298295Y88092D01*
X298645Y88615D01*
X298728Y89032D01*
D02*
G37*
G36*
X291503Y89032D02*
X290131D01*
Y87660D01*
X290548Y87743D01*
X291071Y88092D01*
X291421Y88615D01*
X291503Y89032D01*
D02*
G37*
G36*
X289731D02*
X288359D01*
X288442Y88615D01*
X288791Y88092D01*
X289314Y87743D01*
X289731Y87660D01*
Y89032D01*
D02*
G37*
G36*
X296955Y89032D02*
X295583D01*
X295666Y88615D01*
X296016Y88092D01*
X296539Y87743D01*
X296955Y87660D01*
Y89032D01*
D02*
G37*
G36*
X268600Y102718D02*
X267866Y102572D01*
X267244Y102156D01*
X266828Y101534D01*
X266682Y100800D01*
X266709Y100665D01*
X266328Y100220D01*
X168200D01*
X167810Y100142D01*
X167479Y99921D01*
X142378Y74820D01*
X121400D01*
X121010Y74742D01*
X120679Y74521D01*
X113978Y67820D01*
X106981D01*
X106756Y68156D01*
X106134Y68572D01*
X105400Y68718D01*
X104666Y68572D01*
X104044Y68156D01*
X103628Y67534D01*
X103482Y66800D01*
X103628Y66066D01*
X104044Y65444D01*
X104395Y65209D01*
X104393Y64611D01*
X104039Y64375D01*
X103623Y63753D01*
X103478Y63019D01*
X103623Y62285D01*
X104039Y61663D01*
X104662Y61247D01*
X105395Y61101D01*
X106129Y61247D01*
X106752Y61663D01*
X106976Y61999D01*
X117819D01*
X118209Y62077D01*
X118540Y62298D01*
X120822Y64580D01*
X177600D01*
X177990Y64658D01*
X178321Y64879D01*
X182822Y69380D01*
X221978D01*
X226479Y64879D01*
X226810Y64658D01*
X227200Y64580D01*
X275600D01*
X275990Y64658D01*
X276321Y64879D01*
X280622Y69180D01*
X283680D01*
X286013Y66848D01*
X285934Y66451D01*
X286080Y65717D01*
X286496Y65094D01*
X286780Y64904D01*
Y58531D01*
X285958Y58191D01*
X285195Y57605D01*
X284609Y56842D01*
X284241Y55954D01*
X284116Y55000D01*
X284241Y54046D01*
X284609Y53158D01*
X285195Y52395D01*
X285958Y51809D01*
X286846Y51441D01*
X287800Y51316D01*
X288754Y51441D01*
X289642Y51809D01*
X290405Y52395D01*
X290991Y53158D01*
X291359Y54046D01*
X291484Y55000D01*
X291359Y55954D01*
X290991Y56842D01*
X290405Y57605D01*
X289642Y58191D01*
X288820Y58531D01*
Y64835D01*
X289208Y65094D01*
X289624Y65717D01*
X289770Y66451D01*
X289624Y67185D01*
X289208Y67807D01*
X288586Y68222D01*
X287852Y68369D01*
X287455Y68290D01*
X284823Y70921D01*
X284493Y71142D01*
X284103Y71220D01*
X280200D01*
X279810Y71142D01*
X279479Y70921D01*
X275178Y66620D01*
X227622D01*
X223121Y71121D01*
X222790Y71342D01*
X222400Y71420D01*
X182400D01*
X182010Y71342D01*
X181679Y71121D01*
X177178Y66620D01*
X120400D01*
X120010Y66542D01*
X119679Y66321D01*
X117397Y64038D01*
X106976D01*
X106752Y64375D01*
X106400Y64610D01*
X106403Y65207D01*
X106756Y65444D01*
X106981Y65780D01*
X114400D01*
X114790Y65858D01*
X115121Y66079D01*
X121822Y72780D01*
X142800D01*
X143190Y72858D01*
X143521Y73079D01*
X168622Y98180D01*
X180777D01*
X180929Y97680D01*
X180444Y97356D01*
X180028Y96734D01*
X179882Y96000D01*
X180028Y95266D01*
X180444Y94644D01*
X181066Y94228D01*
X181800Y94082D01*
X182534Y94228D01*
X183156Y94644D01*
X183572Y95266D01*
X183718Y96000D01*
X183572Y96734D01*
X183156Y97356D01*
X182671Y97680D01*
X182823Y98180D01*
X187979D01*
X188107Y97975D01*
X188193Y97680D01*
X187828Y97134D01*
X187682Y96400D01*
X187828Y95666D01*
X188244Y95044D01*
X188866Y94628D01*
X189600Y94482D01*
X190334Y94628D01*
X190956Y95044D01*
X191372Y95666D01*
X191518Y96400D01*
X191372Y97134D01*
X191007Y97680D01*
X191093Y97975D01*
X191221Y98180D01*
X267000D01*
X267080Y98196D01*
X267580Y97830D01*
Y94455D01*
X266846Y94359D01*
X265958Y93991D01*
X265195Y93405D01*
X264609Y92642D01*
X264241Y91754D01*
X264116Y90800D01*
X264241Y89846D01*
X264609Y88958D01*
X265195Y88195D01*
X265958Y87609D01*
X266846Y87241D01*
X267800Y87116D01*
X268754Y87241D01*
X269642Y87609D01*
X270405Y88195D01*
X270991Y88958D01*
X271359Y89846D01*
X271484Y90800D01*
X271359Y91754D01*
X270991Y92642D01*
X270405Y93405D01*
X269642Y93991D01*
X269620Y94000D01*
Y99219D01*
X269956Y99444D01*
X270372Y100066D01*
X270518Y100800D01*
X270372Y101534D01*
X269956Y102156D01*
X269334Y102572D01*
X268600Y102718D01*
D02*
G37*
G36*
X230000Y86420D02*
X226800D01*
X226410Y86342D01*
X226079Y86121D01*
X220797Y80839D01*
X220400Y80918D01*
X219666Y80772D01*
X219044Y80356D01*
X218628Y79734D01*
X218482Y79000D01*
X218628Y78266D01*
X219044Y77644D01*
X219666Y77228D01*
X220400Y77082D01*
X221134Y77228D01*
X221756Y77644D01*
X222172Y78266D01*
X222318Y79000D01*
X222239Y79397D01*
X226029Y83187D01*
X226490Y82941D01*
X226382Y82400D01*
X226528Y81666D01*
X226944Y81044D01*
X227566Y80628D01*
X228300Y80482D01*
X228447Y80511D01*
X230879Y78079D01*
X231210Y77858D01*
X231600Y77780D01*
X232978D01*
X233561Y77197D01*
X233377Y76674D01*
X232866Y76572D01*
X232244Y76156D01*
X231878Y75609D01*
X231636Y75454D01*
X231471Y75386D01*
X231288Y75381D01*
X230600Y75518D01*
X229866Y75372D01*
X229244Y74956D01*
X228828Y74334D01*
X228682Y73600D01*
X228828Y72866D01*
X229244Y72244D01*
X229866Y71828D01*
X230600Y71682D01*
X230997Y71761D01*
X232479Y70279D01*
X232810Y70058D01*
X233200Y69980D01*
X241400D01*
X241790Y70058D01*
X242121Y70279D01*
X244222Y72380D01*
X295345D01*
X301156Y66570D01*
X301082Y66200D01*
X301228Y65466D01*
X301644Y64844D01*
X302266Y64428D01*
X303000Y64282D01*
X303734Y64428D01*
X304356Y64844D01*
X304772Y65466D01*
X304918Y66200D01*
X304772Y66934D01*
X304356Y67556D01*
X303734Y67972D01*
X303000Y68118D01*
X302576Y68034D01*
X297291Y73318D01*
X297482Y73780D01*
X299378D01*
X306361Y66797D01*
X306282Y66400D01*
X306428Y65666D01*
X306844Y65044D01*
X307466Y64628D01*
X308200Y64482D01*
X308934Y64628D01*
X309556Y65044D01*
X309972Y65666D01*
X310118Y66400D01*
X309972Y67134D01*
X309556Y67756D01*
X308934Y68172D01*
X308200Y68318D01*
X307803Y68239D01*
X300521Y75521D01*
X300190Y75742D01*
X299800Y75820D01*
X242400D01*
X242010Y75742D01*
X241679Y75521D01*
X240143Y73985D01*
X239894Y74007D01*
X239504Y74530D01*
X239518Y74600D01*
X239372Y75334D01*
X238956Y75956D01*
X238334Y76372D01*
X237600Y76518D01*
X237203Y76439D01*
X234121Y79521D01*
X233790Y79742D01*
X233400Y79820D01*
X232022D01*
X230089Y81753D01*
X230218Y82400D01*
X230072Y83134D01*
X229981Y83270D01*
X230370Y83588D01*
X232302Y81656D01*
X232302Y81656D01*
X232679Y81279D01*
X233010Y81058D01*
X233400Y80980D01*
X240819D01*
X241044Y80644D01*
X241666Y80228D01*
X242400Y80082D01*
X243134Y80228D01*
X243756Y80644D01*
X244172Y81266D01*
X244318Y82000D01*
X244172Y82734D01*
X243756Y83356D01*
X243134Y83772D01*
X242400Y83918D01*
X241666Y83772D01*
X241044Y83356D01*
X240819Y83020D01*
X233822D01*
X233744Y83098D01*
X233744Y83098D01*
X230721Y86121D01*
X230390Y86342D01*
X230000Y86420D01*
D02*
G37*
G36*
X181600Y79918D02*
X180866Y79772D01*
X180244Y79356D01*
X179828Y78734D01*
X179682Y78000D01*
X179828Y77266D01*
X180244Y76644D01*
X180250Y76640D01*
X180158Y76100D01*
X179644Y75756D01*
X179228Y75134D01*
X179082Y74400D01*
X179228Y73666D01*
X179644Y73044D01*
X180266Y72628D01*
X181000Y72482D01*
X181734Y72628D01*
X182356Y73044D01*
X182772Y73666D01*
X182918Y74400D01*
X182772Y75134D01*
X182356Y75756D01*
X182350Y75760D01*
X182442Y76300D01*
X182956Y76644D01*
X183372Y77266D01*
X183518Y78000D01*
X183372Y78734D01*
X182956Y79356D01*
X182334Y79772D01*
X181600Y79918D01*
D02*
G37*
G36*
X300600Y53718D02*
X299866Y53572D01*
X299244Y53156D01*
X298828Y52534D01*
X298682Y51800D01*
X298828Y51066D01*
X299244Y50444D01*
X299866Y50028D01*
X300600Y49882D01*
X301334Y50028D01*
X301956Y50444D01*
X302372Y51066D01*
X302518Y51800D01*
X302372Y52534D01*
X301956Y53156D01*
X301334Y53572D01*
X300600Y53718D01*
D02*
G37*
G36*
X272581Y53539D02*
X271847Y53392D01*
X271224Y52977D01*
X270809Y52355D01*
X270662Y51621D01*
X270809Y50887D01*
X271224Y50264D01*
X271847Y49849D01*
X272581Y49703D01*
X273314Y49849D01*
X273937Y50264D01*
X274352Y50887D01*
X274498Y51621D01*
X274352Y52355D01*
X273937Y52977D01*
X273314Y53392D01*
X272581Y53539D01*
D02*
G37*
G36*
X218600Y50918D02*
X217866Y50772D01*
X217244Y50356D01*
X216828Y49734D01*
X216682Y49000D01*
X216828Y48266D01*
X217244Y47644D01*
X217866Y47228D01*
X218600Y47082D01*
X219334Y47228D01*
X219956Y47644D01*
X220372Y48266D01*
X220518Y49000D01*
X220372Y49734D01*
X219956Y50356D01*
X219334Y50772D01*
X218600Y50918D01*
D02*
G37*
G36*
X121981Y47539D02*
X121247Y47392D01*
X120624Y46977D01*
X120209Y46355D01*
X120062Y45621D01*
X120209Y44887D01*
X120624Y44264D01*
X121247Y43849D01*
X121981Y43703D01*
X122714Y43849D01*
X123337Y44264D01*
X123752Y44887D01*
X123898Y45621D01*
X123752Y46355D01*
X123337Y46977D01*
X122714Y47392D01*
X121981Y47539D01*
D02*
G37*
G36*
X39370Y49748D02*
X37747Y49620D01*
X36163Y49240D01*
X34659Y48617D01*
X33270Y47766D01*
X32032Y46708D01*
X30974Y45470D01*
X30123Y44081D01*
X29500Y42577D01*
X29120Y40993D01*
X28992Y39370D01*
X29120Y37747D01*
X29500Y36163D01*
X30123Y34659D01*
X30974Y33270D01*
X32032Y32032D01*
X33270Y30974D01*
X34659Y30123D01*
X36163Y29500D01*
X37747Y29120D01*
X39370Y28992D01*
X40993Y29120D01*
X42577Y29500D01*
X44081Y30123D01*
X45470Y30974D01*
X46708Y32032D01*
X47766Y33270D01*
X48617Y34659D01*
X49240Y36163D01*
X49620Y37747D01*
X49748Y39370D01*
X49620Y40993D01*
X49240Y42577D01*
X48617Y44081D01*
X47766Y45470D01*
X46708Y46708D01*
X45470Y47766D01*
X44081Y48617D01*
X42577Y49240D01*
X40993Y49620D01*
X39370Y49748D01*
D02*
G37*
G36*
X204035Y36471D02*
X203339Y36379D01*
X202690Y36110D01*
X202132Y35683D01*
X201705Y35125D01*
X201436Y34476D01*
X201344Y33779D01*
Y31024D01*
X201436Y30327D01*
X201705Y29678D01*
X202132Y29120D01*
X202690Y28693D01*
X203339Y28424D01*
X204035Y28332D01*
X204732Y28424D01*
X205381Y28693D01*
X205939Y29120D01*
X206366Y29678D01*
X206635Y30327D01*
X206727Y31024D01*
Y33779D01*
X206635Y34476D01*
X206366Y35125D01*
X205939Y35683D01*
X205381Y36110D01*
X204732Y36379D01*
X204035Y36471D01*
D02*
G37*
G36*
X181791D02*
X181095Y36379D01*
X180446Y36110D01*
X179888Y35683D01*
X179460Y35125D01*
X179192Y34476D01*
X179100Y33779D01*
Y31024D01*
X179192Y30327D01*
X179460Y29678D01*
X179888Y29120D01*
X180446Y28693D01*
X181095Y28424D01*
X181791Y28332D01*
X182488Y28424D01*
X183137Y28693D01*
X183695Y29120D01*
X184122Y29678D01*
X184391Y30327D01*
X184483Y31024D01*
Y33779D01*
X184391Y34476D01*
X184122Y35125D01*
X183695Y35683D01*
X183137Y36110D01*
X182488Y36379D01*
X181791Y36471D01*
D02*
G37*
%LPD*%
G36*
X52102Y195352D02*
X52152Y194587D01*
X52175Y194453D01*
X52202Y194342D01*
X52233Y194253D01*
X52269Y194188D01*
X52309Y194145D01*
X50891D01*
X50931Y194188D01*
X50967Y194253D01*
X50998Y194342D01*
X51025Y194453D01*
X51048Y194587D01*
X51081Y194924D01*
X51098Y195352D01*
X51100Y195600D01*
X52100D01*
X52102Y195352D01*
D02*
G37*
G36*
X278594Y120687D02*
X278626Y120327D01*
X278655Y120169D01*
X278692Y120026D01*
X278737Y119898D01*
X278790Y119784D01*
X278851Y119686D01*
X278921Y119602D01*
X278998Y119534D01*
X277581D01*
X277659Y119602D01*
X277728Y119686D01*
X277789Y119784D01*
X277843Y119898D01*
X277888Y120026D01*
X277924Y120169D01*
X277953Y120327D01*
X277973Y120500D01*
X277986Y120687D01*
X277990Y120890D01*
X278590D01*
X278594Y120687D01*
D02*
G37*
G36*
X278921Y117579D02*
X278851Y117508D01*
X278790Y117429D01*
X278737Y117344D01*
X278692Y117252D01*
X278655Y117153D01*
X278626Y117048D01*
X278606Y116935D01*
X278594Y116816D01*
X278590Y116690D01*
X277990D01*
X277986Y116816D01*
X277973Y116935D01*
X277953Y117048D01*
X277924Y117153D01*
X277888Y117252D01*
X277843Y117344D01*
X277789Y117429D01*
X277728Y117508D01*
X277659Y117579D01*
X277581Y117644D01*
X278998D01*
X278921Y117579D01*
D02*
G37*
G36*
X106412Y73650D02*
X106503Y73580D01*
X106614Y73519D01*
X106746Y73466D01*
X106897Y73421D01*
X107069Y73384D01*
X107260Y73356D01*
X107703Y73323D01*
X107955Y73319D01*
Y72719D01*
X107703Y72715D01*
X107260Y72682D01*
X107069Y72654D01*
X106897Y72617D01*
X106746Y72572D01*
X106614Y72519D01*
X106503Y72457D01*
X106412Y72388D01*
X106340Y72310D01*
Y73728D01*
X106412Y73650D01*
D02*
G37*
G36*
X67374Y122288D02*
X67431Y122269D01*
X67513Y122253D01*
X67622Y122239D01*
X67920Y122217D01*
X68835Y122200D01*
Y121000D01*
X68566Y120999D01*
X67431Y120931D01*
X67374Y120912D01*
X67345Y120891D01*
Y122309D01*
X67374Y122288D01*
D02*
G37*
G36*
X146871Y120856D02*
X146845Y120883D01*
X146792Y120908D01*
X146712Y120930D01*
X146606Y120948D01*
X146472Y120964D01*
X145910Y120994D01*
X145402Y121000D01*
X145738Y122200D01*
X147196Y122236D01*
X146871Y120856D01*
D02*
G37*
G36*
X273594Y120897D02*
X273626Y120454D01*
X273655Y120262D01*
X273692Y120091D01*
X273737Y119939D01*
X273790Y119808D01*
X273851Y119696D01*
X273921Y119605D01*
X273998Y119534D01*
X272581D01*
X272659Y119605D01*
X272728Y119696D01*
X272790Y119808D01*
X272843Y119939D01*
X272888Y120091D01*
X272924Y120262D01*
X272953Y120454D01*
X272986Y120897D01*
X272990Y121149D01*
X273590D01*
X273594Y120897D01*
D02*
G37*
G36*
X263594D02*
X263627Y120454D01*
X263655Y120262D01*
X263692Y120091D01*
X263737Y119939D01*
X263790Y119808D01*
X263851Y119696D01*
X263921Y119605D01*
X263998Y119534D01*
X262581D01*
X262659Y119605D01*
X262728Y119696D01*
X262790Y119808D01*
X262843Y119939D01*
X262888Y120091D01*
X262924Y120262D01*
X262953Y120454D01*
X262986Y120897D01*
X262990Y121149D01*
X263590D01*
X263594Y120897D01*
D02*
G37*
G36*
X262338Y117889D02*
X262268Y117967D01*
X262177Y118037D01*
X262066Y118099D01*
X261935Y118152D01*
X261784Y118197D01*
X261613Y118234D01*
X261422Y118263D01*
X261210Y118284D01*
X260727Y118300D01*
X260733Y118900D01*
X260985Y118904D01*
X261428Y118937D01*
X261620Y118965D01*
X261792Y119002D01*
X261943Y119046D01*
X262075Y119099D01*
X262187Y119160D01*
X262280Y119229D01*
X262352Y119306D01*
X262338Y117889D01*
D02*
G37*
G36*
X273123Y117420D02*
X273017Y117424D01*
X272904Y117409D01*
X272781Y117373D01*
X272651Y117318D01*
X272512Y117243D01*
X272365Y117147D01*
X272209Y117032D01*
X271873Y116742D01*
X271692Y116567D01*
X271268Y116991D01*
X271443Y117172D01*
X271733Y117508D01*
X271848Y117664D01*
X271943Y117811D01*
X272019Y117950D01*
X272074Y118081D01*
X272110Y118203D01*
X272125Y118316D01*
X272120Y118422D01*
X273123Y117420D01*
D02*
G37*
G36*
X103655Y83291D02*
X103584Y83369D01*
X103492Y83438D01*
X103381Y83500D01*
X103250Y83553D01*
X103098Y83598D01*
X102927Y83635D01*
X102735Y83663D01*
X102292Y83696D01*
X102040Y83700D01*
Y84300D01*
X102292Y84304D01*
X102735Y84337D01*
X102927Y84365D01*
X103098Y84402D01*
X103250Y84447D01*
X103381Y84500D01*
X103492Y84562D01*
X103584Y84631D01*
X103655Y84709D01*
Y83291D01*
D02*
G37*
G36*
X108816Y78431D02*
X108907Y78361D01*
X109019Y78300D01*
X109150Y78247D01*
X109302Y78202D01*
X109473Y78165D01*
X109665Y78137D01*
X110108Y78104D01*
X110360Y78100D01*
Y77500D01*
X110108Y77496D01*
X109665Y77463D01*
X109473Y77435D01*
X109302Y77398D01*
X109150Y77353D01*
X109019Y77300D01*
X108907Y77239D01*
X108816Y77169D01*
X108745Y77091D01*
Y78509D01*
X108816Y78431D01*
D02*
G37*
G36*
X297685Y65281D02*
X297580Y65286D01*
X297466Y65270D01*
X297344Y65235D01*
X297213Y65180D01*
X297074Y65104D01*
X296927Y65009D01*
X296772Y64894D01*
X296435Y64604D01*
X296254Y64429D01*
X295830Y64853D01*
X296005Y65034D01*
X296295Y65370D01*
X296410Y65526D01*
X296506Y65673D01*
X296581Y65812D01*
X296636Y65942D01*
X296672Y66065D01*
X296687Y66178D01*
X296683Y66284D01*
X297685Y65281D01*
D02*
G37*
G36*
X313483Y65434D02*
X313414Y65343D01*
X313352Y65232D01*
X313299Y65100D01*
X313254Y64949D01*
X313217Y64777D01*
X313189Y64586D01*
X313156Y64143D01*
X313152Y63891D01*
X312552D01*
X312548Y64143D01*
X312515Y64586D01*
X312487Y64777D01*
X312450Y64949D01*
X312405Y65100D01*
X312352Y65232D01*
X312290Y65343D01*
X312221Y65434D01*
X312143Y65506D01*
X313561D01*
X313483Y65434D01*
D02*
G37*
G36*
X282461Y65506D02*
X283561D01*
X283483Y65434D01*
X283414Y65343D01*
X283352Y65232D01*
X283299Y65100D01*
X283254Y64949D01*
X283217Y64777D01*
X283189Y64586D01*
X283156Y64143D01*
X283152Y63891D01*
X282552D01*
X282548Y64143D01*
X282515Y64586D01*
X282487Y64777D01*
X282450Y64949D01*
X282405Y65100D01*
X282352Y65232D01*
X282349Y65237D01*
X282344Y65235D01*
X282213Y65180D01*
X282074Y65104D01*
X281927Y65009D01*
X281771Y64894D01*
X281435Y64604D01*
X281254Y64429D01*
X280830Y64853D01*
X281005Y65034D01*
X281295Y65370D01*
X281410Y65526D01*
X281506Y65673D01*
X281581Y65812D01*
X281636Y65942D01*
X281672Y66065D01*
X281687Y66178D01*
X281683Y66284D01*
X282461Y65506D01*
D02*
G37*
G36*
X218618Y57514D02*
X218540Y57587D01*
X218442Y57653D01*
X218326Y57711D01*
X218190Y57761D01*
X218035Y57803D01*
X217860Y57838D01*
X217667Y57865D01*
X217222Y57896D01*
X216971Y57900D01*
X216919Y58500D01*
X217171Y58504D01*
X217613Y58538D01*
X217802Y58568D01*
X217970Y58606D01*
X218118Y58653D01*
X218244Y58709D01*
X218350Y58773D01*
X218435Y58845D01*
X218498Y58926D01*
X218618Y57514D01*
D02*
G37*
G36*
X203162Y58825D02*
X203255Y58757D01*
X203369Y58697D01*
X203502Y58644D01*
X203655Y58600D01*
X203827Y58564D01*
X204019Y58536D01*
X204463Y58504D01*
X204714Y58500D01*
X204733Y57900D01*
X204481Y57896D01*
X204039Y57863D01*
X203848Y57833D01*
X203677Y57796D01*
X203527Y57750D01*
X203397Y57696D01*
X203288Y57634D01*
X203199Y57564D01*
X203130Y57485D01*
X203088Y58901D01*
X203162Y58825D01*
D02*
G37*
G36*
X106412Y58650D02*
X106503Y58580D01*
X106614Y58519D01*
X106746Y58466D01*
X106897Y58421D01*
X107069Y58384D01*
X107260Y58356D01*
X107703Y58323D01*
X107955Y58319D01*
Y57719D01*
X107703Y57715D01*
X107260Y57682D01*
X107069Y57653D01*
X106897Y57617D01*
X106746Y57572D01*
X106614Y57519D01*
X106503Y57457D01*
X106412Y57388D01*
X106340Y57310D01*
Y58728D01*
X106412Y58650D01*
D02*
G37*
G36*
X210761Y55332D02*
X210764Y55230D01*
X210779Y55129D01*
X210805Y55027D01*
X210844Y54925D01*
X210894Y54823D01*
X210956Y54720D01*
X211030Y54618D01*
X211115Y54515D01*
X211212Y54412D01*
X210788Y53988D01*
X210685Y54085D01*
X210582Y54170D01*
X210480Y54244D01*
X210377Y54306D01*
X210275Y54356D01*
X210173Y54395D01*
X210071Y54421D01*
X209970Y54436D01*
X209868Y54439D01*
X209767Y54431D01*
X210769Y55433D01*
X210761Y55332D01*
D02*
G37*
G36*
X103385Y55460D02*
X103716Y55179D01*
X103863Y55074D01*
X103999Y54994D01*
X104123Y54937D01*
X104236Y54905D01*
X104337Y54897D01*
X104426Y54913D01*
X104503Y54953D01*
X104087Y53605D01*
X104047Y53702D01*
X103992Y53808D01*
X103922Y53922D01*
X103837Y54046D01*
X103623Y54319D01*
X103350Y54628D01*
X103017Y54973D01*
X103202Y55637D01*
X103385Y55460D01*
D02*
G37*
G36*
X251896Y50578D02*
X251987Y50508D01*
X252098Y50447D01*
X252230Y50394D01*
X252381Y50349D01*
X252553Y50312D01*
X252744Y50283D01*
X253188Y50251D01*
X253439Y50247D01*
Y49647D01*
X253188Y49643D01*
X252744Y49610D01*
X252553Y49581D01*
X252381Y49545D01*
X252230Y49499D01*
X252098Y49446D01*
X251987Y49385D01*
X251896Y49316D01*
X251824Y49238D01*
Y50655D01*
X251896Y50578D01*
D02*
G37*
G36*
X249935Y49238D02*
X249863Y49316D01*
X249772Y49385D01*
X249661Y49446D01*
X249529Y49499D01*
X249378Y49545D01*
X249206Y49581D01*
X249015Y49610D01*
X248571Y49643D01*
X248320Y49647D01*
Y50247D01*
X248571Y50251D01*
X249015Y50283D01*
X249206Y50312D01*
X249378Y50349D01*
X249529Y50394D01*
X249661Y50447D01*
X249772Y50508D01*
X249863Y50578D01*
X249935Y50655D01*
Y49238D01*
D02*
G37*
G36*
X226073Y47411D02*
X226041Y47496D01*
X225910Y47786D01*
X225890Y47818D01*
X225872Y47840D01*
X225856Y47853D01*
X225842Y47858D01*
Y48458D01*
X225887Y48461D01*
X225936Y48470D01*
X225989Y48486D01*
X226047Y48508D01*
X226108Y48536D01*
X226174Y48570D01*
X226317Y48657D01*
X226477Y48770D01*
X226073Y47411D01*
D02*
G37*
G36*
X69223Y48248D02*
X69315Y48178D01*
X69426Y48117D01*
X69557Y48064D01*
X69709Y48019D01*
X69880Y47982D01*
X70072Y47953D01*
X70515Y47921D01*
X70767Y47917D01*
Y47317D01*
X70515Y47313D01*
X70072Y47280D01*
X69880Y47251D01*
X69709Y47214D01*
X69557Y47169D01*
X69499Y47146D01*
X69523Y47095D01*
X69603Y46955D01*
X69703Y46807D01*
X69821Y46651D01*
X70114Y46315D01*
X70289Y46135D01*
X69911Y45665D01*
X69730Y45840D01*
X69393Y46128D01*
X69239Y46240D01*
X69093Y46331D01*
X68956Y46401D01*
X68828Y46450D01*
X68708Y46478D01*
X68598Y46485D01*
X68497Y46472D01*
X69152Y47282D01*
Y48325D01*
X69223Y48248D01*
D02*
G37*
G36*
X106031Y45384D02*
X105962Y45292D01*
X105900Y45181D01*
X105847Y45050D01*
X105802Y44898D01*
X105765Y44727D01*
X105737Y44535D01*
X105704Y44092D01*
X105700Y43840D01*
X105100D01*
X105096Y44092D01*
X105063Y44535D01*
X105035Y44727D01*
X104998Y44898D01*
X104953Y45050D01*
X104900Y45181D01*
X104839Y45292D01*
X104769Y45384D01*
X104691Y45455D01*
X106109D01*
X106031Y45384D01*
D02*
G37*
G36*
X103884Y40500D02*
X103284Y39900D01*
X102924Y39900D01*
X102588Y40412D01*
X103524Y40500D01*
X103884Y40500D01*
D02*
G37*
G36*
X298422Y39198D02*
X298247Y39017D01*
X297957Y38680D01*
X297842Y38525D01*
X297746Y38378D01*
X297671Y38239D01*
X297616Y38108D01*
X297580Y37986D01*
X297565Y37872D01*
X297569Y37767D01*
X296567Y38769D01*
X296672Y38765D01*
X296786Y38780D01*
X296908Y38816D01*
X297039Y38871D01*
X297178Y38946D01*
X297325Y39042D01*
X297481Y39157D01*
X297817Y39447D01*
X297998Y39622D01*
X298422Y39198D01*
D02*
G37*
G36*
X102022Y38998D02*
X101847Y38817D01*
X101557Y38480D01*
X101442Y38325D01*
X101346Y38178D01*
X101271Y38039D01*
X101216Y37908D01*
X101180Y37786D01*
X101165Y37672D01*
X101169Y37567D01*
X100167Y38569D01*
X100272Y38565D01*
X100386Y38580D01*
X100508Y38616D01*
X100639Y38671D01*
X100778Y38746D01*
X100925Y38842D01*
X101081Y38957D01*
X101417Y39247D01*
X101598Y39422D01*
X102022Y38998D01*
D02*
G37*
G36*
X98918Y36928D02*
X98879Y37012D01*
X98801Y37154D01*
X98762Y37212D01*
X98723Y37261D01*
X98684Y37301D01*
X98646Y37332D01*
X98606Y37354D01*
X98567Y37367D01*
X98528Y37372D01*
Y37972D01*
X98592Y37975D01*
X98657Y37985D01*
X98724Y38002D01*
X98793Y38025D01*
X98864Y38055D01*
X98936Y38092D01*
X99010Y38136D01*
X99086Y38186D01*
X99243Y38307D01*
X98918Y36928D01*
D02*
G37*
G36*
X297565Y37328D02*
X297580Y37214D01*
X297616Y37092D01*
X297671Y36961D01*
X297746Y36822D01*
X297842Y36675D01*
X297957Y36520D01*
X298247Y36183D01*
X298422Y36002D01*
X297998Y35578D01*
X297817Y35753D01*
X297481Y36043D01*
X297325Y36158D01*
X297178Y36254D01*
X297039Y36329D01*
X296908Y36384D01*
X296786Y36420D01*
X296672Y36435D01*
X296567Y36431D01*
X297569Y37433D01*
X297565Y37328D01*
D02*
G37*
G36*
X101016Y34231D02*
X101108Y34161D01*
X101219Y34100D01*
X101350Y34047D01*
X101502Y34002D01*
X101673Y33965D01*
X101865Y33937D01*
X102308Y33904D01*
X102560Y33900D01*
Y33300D01*
X102308Y33296D01*
X101865Y33263D01*
X101673Y33235D01*
X101502Y33198D01*
X101350Y33153D01*
X101219Y33100D01*
X101108Y33038D01*
X101016Y32969D01*
X100945Y32891D01*
Y34309D01*
X101016Y34231D01*
D02*
G37*
G36*
X99055Y32891D02*
X98984Y32969D01*
X98892Y33038D01*
X98781Y33100D01*
X98650Y33153D01*
X98498Y33198D01*
X98327Y33235D01*
X98135Y33263D01*
X97692Y33296D01*
X97440Y33300D01*
Y33900D01*
X97692Y33904D01*
X98135Y33937D01*
X98327Y33965D01*
X98498Y34002D01*
X98650Y34047D01*
X98781Y34100D01*
X98892Y34161D01*
X98984Y34231D01*
X99055Y34309D01*
Y32891D01*
D02*
G37*
G36*
X294783Y34447D02*
X295120Y34157D01*
X295275Y34042D01*
X295422Y33946D01*
X295561Y33871D01*
X295692Y33816D01*
X295814Y33780D01*
X295928Y33765D01*
X296033Y33769D01*
X295255Y32991D01*
Y31891D01*
X295184Y31969D01*
X295093Y32039D01*
X294981Y32100D01*
X294850Y32153D01*
X294698Y32198D01*
X294527Y32235D01*
X294335Y32263D01*
X293892Y32296D01*
X293640Y32300D01*
Y32900D01*
X293892Y32904D01*
X294335Y32937D01*
X294527Y32965D01*
X294698Y33002D01*
X294850Y33047D01*
X294981Y33100D01*
X294986Y33103D01*
X294984Y33108D01*
X294929Y33239D01*
X294854Y33378D01*
X294758Y33525D01*
X294643Y33680D01*
X294353Y34017D01*
X294178Y34198D01*
X294602Y34622D01*
X294783Y34447D01*
D02*
G37*
G36*
X212079Y37879D02*
X212410Y37658D01*
X212800Y37580D01*
X284578D01*
X290279Y31879D01*
X290610Y31658D01*
X291000Y31580D01*
X294619D01*
X294844Y31244D01*
X295466Y30828D01*
X296200Y30682D01*
X296934Y30828D01*
X297556Y31244D01*
X297972Y31866D01*
X298118Y32600D01*
X297972Y33334D01*
X297556Y33956D01*
X296934Y34372D01*
X296200Y34518D01*
X295803Y34439D01*
X294220Y36022D01*
Y36577D01*
X294720Y36729D01*
X295044Y36244D01*
X295666Y35828D01*
X296400Y35682D01*
X296797Y35761D01*
X298980Y33578D01*
Y31622D01*
X297378Y30020D01*
X289022D01*
X284521Y34521D01*
X284190Y34742D01*
X283800Y34820D01*
X279857D01*
X279806Y34830D01*
X211412D01*
X206721Y39521D01*
X206390Y39742D01*
X206000Y39820D01*
X175800D01*
X175410Y39742D01*
X175079Y39521D01*
X170178Y34620D01*
X128576D01*
X128357Y34766D01*
X127967Y34843D01*
X126326D01*
X125936Y34766D01*
X125717Y34620D01*
X101581D01*
X101356Y34956D01*
X100982Y35206D01*
Y35794D01*
X101356Y36044D01*
X101772Y36666D01*
X101918Y37400D01*
X101839Y37797D01*
X103222Y39180D01*
X145559D01*
X145826Y38680D01*
X145608Y38355D01*
X145463Y37621D01*
X145608Y36887D01*
X146024Y36264D01*
X146646Y35849D01*
X147380Y35703D01*
X148115Y35849D01*
X148737Y36264D01*
X149152Y36887D01*
X149298Y37621D01*
X149152Y38355D01*
X148935Y38680D01*
X149202Y39180D01*
X169800D01*
X170190Y39258D01*
X170521Y39479D01*
X173222Y42180D01*
X207778D01*
X212079Y37879D01*
D02*
G37*
G36*
X268209Y99855D02*
X269309D01*
X269231Y99784D01*
X269162Y99692D01*
X269100Y99581D01*
X269047Y99450D01*
X269002Y99298D01*
X268965Y99127D01*
X268937Y98935D01*
X268904Y98492D01*
X268900Y98240D01*
X268300D01*
X268296Y98492D01*
X268263Y98935D01*
X268235Y99127D01*
X268198Y99298D01*
X268153Y99450D01*
X268100Y99581D01*
X268091Y99596D01*
X267995Y99563D01*
X267875Y99506D01*
X267751Y99434D01*
X267622Y99346D01*
X267490Y99242D01*
X267353Y99123D01*
X267212Y98988D01*
X266788Y99412D01*
X266923Y99553D01*
X267146Y99822D01*
X267234Y99951D01*
X267306Y100075D01*
X267363Y100195D01*
X267403Y100311D01*
X267428Y100422D01*
X267437Y100530D01*
X267431Y100633D01*
X268209Y99855D01*
D02*
G37*
G36*
X286435Y68298D02*
X286771Y68007D01*
X286927Y67892D01*
X287074Y67797D01*
X287213Y67722D01*
X287344Y67666D01*
X287466Y67631D01*
X287580Y67615D01*
X287685Y67620D01*
X286683Y66618D01*
X286687Y66723D01*
X286672Y66837D01*
X286636Y66959D01*
X286581Y67089D01*
X286506Y67228D01*
X286410Y67375D01*
X286295Y67531D01*
X286005Y67868D01*
X285830Y68048D01*
X286254Y68473D01*
X286435Y68298D01*
D02*
G37*
G36*
X106416Y67431D02*
X106508Y67361D01*
X106619Y67300D01*
X106750Y67247D01*
X106902Y67202D01*
X107073Y67165D01*
X107265Y67137D01*
X107708Y67104D01*
X107960Y67100D01*
Y66500D01*
X107708Y66496D01*
X107265Y66463D01*
X107073Y66435D01*
X106902Y66398D01*
X106750Y66353D01*
X106619Y66300D01*
X106508Y66238D01*
X106416Y66169D01*
X106345Y66091D01*
Y67509D01*
X106416Y67431D01*
D02*
G37*
G36*
X288518Y65475D02*
X288439Y65408D01*
X288368Y65320D01*
X288305Y65212D01*
X288251Y65083D01*
X288205Y64933D01*
X288167Y64763D01*
X288138Y64573D01*
X288117Y64362D01*
X288100Y63879D01*
X287500Y63906D01*
X287496Y64157D01*
X287464Y64601D01*
X287436Y64794D01*
X287401Y64966D01*
X287357Y65120D01*
X287305Y65254D01*
X287246Y65368D01*
X287178Y65463D01*
X287102Y65538D01*
X288518Y65475D01*
D02*
G37*
G36*
X106412Y63650D02*
X106503Y63580D01*
X106614Y63519D01*
X106746Y63466D01*
X106897Y63421D01*
X107069Y63384D01*
X107260Y63356D01*
X107703Y63323D01*
X107955Y63319D01*
Y62719D01*
X107703Y62715D01*
X107260Y62682D01*
X107069Y62653D01*
X106897Y62617D01*
X106746Y62572D01*
X106614Y62519D01*
X106503Y62457D01*
X106412Y62388D01*
X106340Y62310D01*
Y63727D01*
X106412Y63650D01*
D02*
G37*
G36*
X241455Y81291D02*
X241384Y81369D01*
X241293Y81438D01*
X241181Y81500D01*
X241050Y81553D01*
X240898Y81598D01*
X240727Y81635D01*
X240535Y81663D01*
X240092Y81696D01*
X239840Y81700D01*
Y82300D01*
X240092Y82304D01*
X240535Y82337D01*
X240727Y82365D01*
X240898Y82402D01*
X241050Y82447D01*
X241181Y82500D01*
X241293Y82561D01*
X241384Y82631D01*
X241455Y82709D01*
Y81291D01*
D02*
G37*
G36*
X229400Y81928D02*
X229401Y81821D01*
X229425Y81704D01*
X229470Y81578D01*
X229537Y81443D01*
X229625Y81299D01*
X229735Y81145D01*
X229868Y80981D01*
X230197Y80627D01*
X229693Y80283D01*
X229513Y80457D01*
X229023Y80873D01*
X228875Y80976D01*
X228735Y81060D01*
X228603Y81127D01*
X228479Y81176D01*
X228363Y81207D01*
X228254Y81220D01*
X229420Y82026D01*
X229400Y81928D01*
D02*
G37*
G36*
X222422Y80598D02*
X222247Y80417D01*
X221957Y80080D01*
X221842Y79925D01*
X221746Y79778D01*
X221671Y79639D01*
X221616Y79508D01*
X221580Y79386D01*
X221565Y79272D01*
X221569Y79167D01*
X220567Y80169D01*
X220672Y80165D01*
X220786Y80180D01*
X220908Y80216D01*
X221039Y80271D01*
X221178Y80346D01*
X221325Y80442D01*
X221480Y80557D01*
X221817Y80847D01*
X221998Y81022D01*
X222422Y80598D01*
D02*
G37*
G36*
X236183Y76447D02*
X236520Y76157D01*
X236675Y76042D01*
X236822Y75946D01*
X236961Y75871D01*
X237092Y75816D01*
X237214Y75780D01*
X237328Y75765D01*
X237433Y75769D01*
X236431Y74767D01*
X236435Y74872D01*
X236420Y74986D01*
X236384Y75108D01*
X236329Y75239D01*
X236254Y75378D01*
X236158Y75525D01*
X236043Y75681D01*
X235753Y76017D01*
X235578Y76198D01*
X236002Y76622D01*
X236183Y76447D01*
D02*
G37*
G36*
X234736Y74424D02*
X234744Y74313D01*
X234773Y74193D01*
X234823Y74065D01*
X234894Y73928D01*
X234985Y73782D01*
X235098Y73627D01*
X235232Y73463D01*
X235561Y73109D01*
X235097Y72725D01*
X234916Y72900D01*
X234580Y73193D01*
X234424Y73310D01*
X234277Y73409D01*
X234137Y73489D01*
X234005Y73551D01*
X233882Y73593D01*
X233766Y73616D01*
X233659Y73620D01*
X234749Y74526D01*
X234736Y74424D01*
D02*
G37*
G36*
X231765Y73328D02*
X231780Y73214D01*
X231816Y73092D01*
X231871Y72961D01*
X231946Y72822D01*
X232042Y72675D01*
X232157Y72519D01*
X232447Y72183D01*
X232622Y72002D01*
X232198Y71578D01*
X232017Y71753D01*
X231680Y72043D01*
X231525Y72158D01*
X231378Y72254D01*
X231239Y72329D01*
X231108Y72384D01*
X230986Y72420D01*
X230872Y72435D01*
X230767Y72431D01*
X231769Y73433D01*
X231765Y73328D01*
D02*
G37*
G36*
X306783Y68247D02*
X307119Y67957D01*
X307275Y67842D01*
X307422Y67746D01*
X307561Y67671D01*
X307692Y67616D01*
X307814Y67580D01*
X307928Y67565D01*
X308033Y67569D01*
X307031Y66567D01*
X307035Y66672D01*
X307020Y66786D01*
X306984Y66908D01*
X306929Y67039D01*
X306854Y67178D01*
X306758Y67325D01*
X306643Y67480D01*
X306353Y67817D01*
X306178Y67998D01*
X306602Y68422D01*
X306783Y68247D01*
D02*
G37*
G36*
X301563Y68035D02*
X301899Y67745D01*
X302055Y67630D01*
X302202Y67536D01*
X302341Y67462D01*
X302471Y67407D01*
X302592Y67373D01*
X302706Y67360D01*
X302810Y67366D01*
X301828Y66344D01*
X301830Y66450D01*
X301813Y66564D01*
X301777Y66687D01*
X301720Y66818D01*
X301644Y66957D01*
X301548Y67104D01*
X301432Y67260D01*
X301141Y67596D01*
X300966Y67777D01*
X301382Y68210D01*
X301563Y68035D01*
D02*
G37*
D15*
X51600Y193200D02*
Y195600D01*
X59400Y203400D01*
X80800D01*
X110395Y175331D02*
X113720Y172006D01*
Y171850D02*
Y172006D01*
X108869Y175331D02*
X110395D01*
X80800Y203400D02*
X108869Y175331D01*
D16*
X220400Y79000D02*
X226800Y85400D01*
X230000D01*
X231600Y78800D02*
X233400D01*
X237600Y74600D01*
X228300Y82100D02*
X231600Y78800D01*
X230000Y85400D02*
X233023Y82377D01*
X233400Y82000D02*
X242400D01*
X233023Y82377D02*
Y82377D01*
Y82377D02*
X233400Y82000D01*
X233200Y71000D02*
X241400D01*
X230600Y73600D02*
X233200Y71000D01*
X242400Y74800D02*
X299800D01*
X308200Y66400D01*
X233446Y74800D02*
X235627Y72619D01*
X233446Y74800D02*
X233600D01*
X295767Y73400D02*
X302967Y66200D01*
X303000D01*
X267800Y90800D02*
X268600Y91600D01*
Y100800D01*
X124400Y84400D02*
X152000Y112000D01*
X266701D02*
X273290Y118589D01*
X152000Y112000D02*
X266701D01*
X151200Y118600D02*
X263279D01*
X145800Y113200D02*
X151200Y118600D01*
X263279D02*
X263290Y118589D01*
X117600Y84400D02*
X124400D01*
X138000Y113200D02*
X145800D01*
X132600Y79600D02*
X158400Y105400D01*
X267000D02*
X278290Y116690D01*
X158400Y105400D02*
X267000D01*
Y99200D02*
X268600Y100800D01*
X168200Y99200D02*
X267000D01*
X283800Y33800D02*
X288600Y29000D01*
X279806Y33810D02*
X279816Y33800D01*
X283800D01*
X206000Y38800D02*
X210990Y33810D01*
X279806D01*
X208200Y43200D02*
X212800Y38600D01*
X285000D02*
X291000Y32600D01*
X212800Y38600D02*
X285000D01*
X220400Y63400D02*
X224400Y59400D01*
X275801D01*
X282852Y66451D01*
X227200Y65600D02*
X275600D01*
X120400D02*
X177600D01*
X182400Y70400D02*
X222400D01*
X227200Y65600D01*
X177600D02*
X182400Y70400D01*
X117819Y63019D02*
X120400Y65600D01*
X185000Y63400D02*
X220400D01*
X105395Y58019D02*
X179619D01*
X185000Y63400D01*
X232653Y44800D02*
X237800Y49947D01*
X210400Y49800D02*
X215400Y44800D01*
X232653D01*
X100000Y49800D02*
X210400D01*
X237800Y49947D02*
X250880D01*
X92800Y57000D02*
X100000Y49800D01*
X102800Y40200D02*
X169800D01*
X172800Y43200D02*
X208200D01*
X169800Y40200D02*
X172800Y43200D01*
X102800Y40200D02*
X105400Y42800D01*
X100000Y37400D02*
X102800Y40200D01*
X175800Y38800D02*
X206000D01*
X170600Y33600D02*
X175800Y38800D01*
X128191Y33600D02*
X170600D01*
X127967Y33824D02*
X128191Y33600D01*
X126102D02*
X126326Y33824D01*
X127967D01*
X100000Y33600D02*
X126102D01*
X105395Y73019D02*
X113619D01*
X120200Y79600D02*
X132600D01*
X113619Y73019D02*
X120200Y79600D01*
X111000Y77800D02*
X117600Y84400D01*
X114400Y66800D02*
X121400Y73800D01*
X142800D02*
X168200Y99200D01*
X121400Y73800D02*
X142800D01*
X98400Y60014D02*
X104414Y54000D01*
X98400Y73600D02*
X138000Y113200D01*
X98400Y60014D02*
Y73600D01*
X92800Y57000D02*
Y80000D01*
X96800Y84000D02*
X104600D01*
X92800Y80000D02*
X96800Y84000D01*
X287800Y55000D02*
Y66399D01*
X287852Y66451D01*
X105395Y63019D02*
X117819D01*
X275600Y65600D02*
X280200Y70200D01*
X284103D01*
X287852Y66451D01*
X257453Y49947D02*
X257600Y49800D01*
X250880Y49947D02*
X257453D01*
X278200Y55200D02*
X282852Y59852D01*
Y66451D01*
X263290Y125290D02*
X263400Y125400D01*
X263290Y118589D02*
Y125290D01*
X272600Y125200D02*
X273290Y124510D01*
Y118589D02*
Y124510D01*
X278290Y120890D02*
X282200Y124800D01*
X278290Y118589D02*
Y120890D01*
X211000Y54200D02*
X219800D01*
X226843Y48158D02*
X227181Y47821D01*
X219800Y54200D02*
X225842Y48158D01*
X226843D01*
X209600Y55600D02*
X211000Y54200D01*
X68207Y47617D02*
X68384D01*
X82400Y33600D02*
X100000D01*
X68384Y47617D02*
X82400Y33600D01*
X68207Y47617D02*
X80709D01*
X88800Y46867D02*
Y47400D01*
Y46867D02*
X91251Y44416D01*
X91784D01*
X98528Y37672D01*
X99728D01*
X100000Y37400D01*
X80709Y47617D02*
X80926Y47400D01*
X105400Y42800D02*
Y46400D01*
X104414Y54000D02*
X105200D01*
X107800Y77800D02*
X111000D01*
X278290Y116690D02*
Y118589D01*
X105400Y66800D02*
X114400D01*
X243800Y73400D02*
X295767D01*
X241400Y71000D02*
X243800Y73400D01*
X240219Y72619D02*
X242400Y74800D01*
X235627Y72619D02*
X240219D01*
X296400Y37600D02*
X300000Y34000D01*
Y31200D02*
Y34000D01*
X297800Y29000D02*
X300000Y31200D01*
X288600Y29000D02*
X297800D01*
X291000Y32600D02*
X296200D01*
X293200Y61799D02*
X297852Y66451D01*
X293200Y35600D02*
Y61799D01*
Y35600D02*
X296200Y32600D01*
X296400Y37600D02*
X312852Y54052D01*
Y66451D01*
X228300Y82100D02*
Y82400D01*
X202200Y58200D02*
X219400D01*
X202165Y58165D02*
X202200Y58200D01*
X219400D02*
X219500Y58300D01*
D75*
X147800Y121600D02*
X148200Y121200D01*
X66400Y121600D02*
X147800D01*
D76*
X300768Y100069D02*
D03*
Y92844D02*
D03*
X297155Y103681D02*
D03*
Y96457D02*
D03*
Y89232D02*
D03*
X293543Y100069D02*
D03*
Y92844D02*
D03*
X289931Y103681D02*
D03*
Y96457D02*
D03*
Y89232D02*
D03*
X286319Y100069D02*
D03*
Y92844D02*
D03*
X299400Y119000D02*
D03*
X318000Y94800D02*
D03*
X138800Y54800D02*
D03*
X165000Y37200D02*
D03*
X54600Y60800D02*
D03*
X159800Y108600D02*
D03*
X147800Y69400D02*
D03*
X190400Y74200D02*
D03*
X230600Y73600D02*
D03*
X233600Y74800D02*
D03*
X308200Y66400D02*
D03*
X303000Y66200D02*
D03*
X214004Y102748D02*
D03*
X247300Y102111D02*
D03*
X198864Y115894D02*
D03*
X224930Y115246D02*
D03*
X216556Y109393D02*
D03*
X246644Y108710D02*
D03*
X264200Y108400D02*
D03*
X278290Y118589D02*
D03*
X312852Y66451D02*
D03*
X268600Y100800D02*
D03*
X263290Y118589D02*
D03*
X287852Y66451D02*
D03*
X297852D02*
D03*
X273290Y118589D02*
D03*
X282852Y66451D02*
D03*
X264000Y36000D02*
D03*
X170704Y102653D02*
D03*
X130357Y82685D02*
D03*
X144457Y97767D02*
D03*
X267462Y118848D02*
D03*
X247095Y116411D02*
D03*
X192031Y109864D02*
D03*
X202457Y102777D02*
D03*
X116386Y72272D02*
D03*
X116217Y79784D02*
D03*
X130432Y69024D02*
D03*
X99295Y43053D02*
D03*
X85052Y37062D02*
D03*
X130354Y36765D02*
D03*
X173907Y40558D02*
D03*
X150249Y45503D02*
D03*
X166066Y53060D02*
D03*
X162562Y62085D02*
D03*
X217571Y66514D02*
D03*
X266199Y70142D02*
D03*
X247818Y62104D02*
D03*
X249400Y55000D02*
D03*
X246400Y42000D02*
D03*
X202200Y47600D02*
D03*
X218600Y49000D02*
D03*
X323997Y205071D02*
D03*
X316123Y189323D02*
D03*
X323997Y173575D02*
D03*
X316123Y157827D02*
D03*
X300375Y220819D02*
D03*
X308249Y205071D02*
D03*
X300375Y189323D02*
D03*
X308249Y173575D02*
D03*
X300375Y157827D02*
D03*
X284627Y220819D02*
D03*
X292501Y205071D02*
D03*
X284627Y189323D02*
D03*
X292501Y173575D02*
D03*
X284627Y157827D02*
D03*
X268879D02*
D03*
X253131Y220819D02*
D03*
X261005Y205071D02*
D03*
X253131Y189323D02*
D03*
X261005Y173575D02*
D03*
X253131Y157827D02*
D03*
X237383Y220819D02*
D03*
X245257Y205071D02*
D03*
X237383Y189323D02*
D03*
X245257Y173575D02*
D03*
X237383Y157827D02*
D03*
X221635Y220819D02*
D03*
X229509Y205071D02*
D03*
X221635Y189323D02*
D03*
X229509Y173575D02*
D03*
X221635Y157827D02*
D03*
X205887D02*
D03*
X190139Y220819D02*
D03*
X198013Y205071D02*
D03*
X190139Y189323D02*
D03*
Y157827D02*
D03*
X174391D02*
D03*
Y126331D02*
D03*
Y94835D02*
D03*
X158643Y220819D02*
D03*
X166517Y205071D02*
D03*
X158643Y189323D02*
D03*
X166517Y173575D02*
D03*
X158643Y157827D02*
D03*
X166517Y142079D02*
D03*
X158643Y94835D02*
D03*
X166517Y79087D02*
D03*
Y47591D02*
D03*
X142895Y220819D02*
D03*
X150769Y205071D02*
D03*
X142895Y189323D02*
D03*
X150769Y173575D02*
D03*
X142895Y157827D02*
D03*
X150769Y142079D02*
D03*
X142895Y126331D02*
D03*
X127147Y220819D02*
D03*
X135021Y205071D02*
D03*
X127147Y189323D02*
D03*
X135021Y173575D02*
D03*
X127147Y157827D02*
D03*
X135021Y142079D02*
D03*
X127147Y31843D02*
D03*
X111399Y157827D02*
D03*
Y126331D02*
D03*
X119273Y110583D02*
D03*
X95651Y220819D02*
D03*
X103525Y205071D02*
D03*
Y142079D02*
D03*
Y110583D02*
D03*
X79903Y220819D02*
D03*
X87777Y205071D02*
D03*
Y173575D02*
D03*
Y110583D02*
D03*
X64154Y220819D02*
D03*
Y189323D02*
D03*
Y157827D02*
D03*
X72028Y110583D02*
D03*
X64154Y31843D02*
D03*
X56280Y205071D02*
D03*
X48406Y157827D02*
D03*
Y126331D02*
D03*
Y31843D02*
D03*
X40532Y205071D02*
D03*
X32658Y189323D02*
D03*
X40532Y173575D02*
D03*
X32658Y157827D02*
D03*
Y126331D02*
D03*
Y94835D02*
D03*
Y63339D02*
D03*
X86588Y159369D02*
D03*
X305038Y30341D02*
D03*
X283228Y44274D02*
D03*
X245972Y30447D02*
D03*
X213000Y50400D02*
D03*
X165669Y29451D02*
D03*
X147110Y29732D02*
D03*
X109854Y43496D02*
D03*
X85631Y30045D02*
D03*
X69068Y61267D02*
D03*
X54257Y134781D02*
D03*
X32733Y104732D02*
D03*
X143444Y106840D02*
D03*
X160886Y115577D02*
D03*
X144413Y81627D02*
D03*
X218098Y131545D02*
D03*
X303720Y133126D02*
D03*
X241635Y146324D02*
D03*
X215292Y146894D02*
D03*
X261136Y145640D02*
D03*
X205974Y128956D02*
D03*
X247990Y122884D02*
D03*
X229963Y135215D02*
D03*
X187200Y115200D02*
D03*
X193544Y142005D02*
D03*
X283295Y142993D02*
D03*
X317929Y110505D02*
D03*
X272800Y82800D02*
D03*
X319010Y76640D02*
D03*
X323859Y49467D02*
D03*
X278986Y31829D02*
D03*
X222763Y29738D02*
D03*
X184586Y57504D02*
D03*
X203670Y81031D02*
D03*
X185801Y89874D02*
D03*
X112000Y53800D02*
D03*
X124600Y91800D02*
D03*
X132600Y60200D02*
D03*
X53600Y75800D02*
D03*
X41200Y53600D02*
D03*
X52450Y40758D02*
D03*
X77200Y55000D02*
D03*
X85600Y72000D02*
D03*
X72400Y73400D02*
D03*
X86400Y90400D02*
D03*
X71600Y90800D02*
D03*
X318198Y149110D02*
D03*
X322998Y134310D02*
D03*
X189600Y96400D02*
D03*
X181800Y96000D02*
D03*
X181000Y74400D02*
D03*
X209600Y55600D02*
D03*
X227181Y47821D02*
D03*
X219500Y58300D02*
D03*
X237600Y74600D02*
D03*
X121981Y45621D02*
D03*
X147380Y37621D02*
D03*
X116181Y43421D02*
D03*
X73600Y39000D02*
D03*
X111781Y82621D02*
D03*
X52981Y90621D02*
D03*
X48981Y89621D02*
D03*
X239381Y93421D02*
D03*
X227980Y89021D02*
D03*
X235580Y94221D02*
D03*
X309400Y139800D02*
D03*
X300600Y51800D02*
D03*
X272581Y51621D02*
D03*
X232400Y31477D02*
D03*
X181600Y78000D02*
D03*
X105400Y46400D02*
D03*
X100000Y37400D02*
D03*
X68207Y47617D02*
D03*
X100000Y33600D02*
D03*
X105200Y54000D02*
D03*
X104600Y84000D02*
D03*
X107800Y77800D02*
D03*
X105400Y66800D02*
D03*
X296200Y32600D02*
D03*
X296400Y37600D02*
D03*
X250880Y49947D02*
D03*
X105395Y73019D02*
D03*
Y63019D02*
D03*
Y58019D02*
D03*
X242400Y82000D02*
D03*
X220400Y79000D02*
D03*
X228300Y82400D02*
D03*
X51600Y193200D02*
D03*
X202165Y58165D02*
D03*
X147953Y121329D02*
D03*
X66400Y121600D02*
D03*
D77*
X113720Y171850D02*
D03*
Y196850D02*
D03*
X177618D02*
D03*
X113720Y221850D02*
D03*
X177618D02*
D03*
Y171850D02*
D03*
X208208D02*
D03*
Y196850D02*
D03*
X272107D02*
D03*
X208208Y221850D02*
D03*
X272107D02*
D03*
Y171850D02*
D03*
D78*
X39370Y224410D02*
D03*
X314961Y39370D02*
D03*
Y224410D02*
D03*
X39370Y39370D02*
D03*
D79*
X204035Y32402D02*
D03*
X181791D02*
D03*
D80*
X299400Y124400D02*
D03*
X267800Y90800D02*
D03*
X287800Y55000D02*
D03*
X278200Y55200D02*
D03*
X257600Y49800D02*
D03*
X272600Y125200D02*
D03*
X282200Y124800D02*
D03*
X263400Y125400D02*
D03*
D81*
X80926Y47400D02*
D03*
X88800D02*
D03*
M02*
