G04*
G04 #@! TF.GenerationSoftware,Altium Limited,Altium Designer,21.9.2 (33)*
G04*
G04 Layer_Color=65535*
%FSLAX25Y25*%
%MOIN*%
G70*
G04*
G04 #@! TF.SameCoordinates,E153DD42-8A7D-485B-B93F-EA924BBF0D18*
G04*
G04*
G04 #@! TF.FilePolarity,Positive*
G04*
G01*
G75*
%ADD10C,0.00394*%
%ADD11C,0.00787*%
%ADD12C,0.00472*%
%ADD13C,0.00000*%
%ADD14C,0.00394*%
%ADD15C,0.00500*%
%ADD16C,0.01000*%
%ADD17C,0.00600*%
%ADD18C,0.00984*%
%ADD19C,0.00610*%
%ADD20C,0.00606*%
D10*
X316142Y233189D02*
D03*
D11*
X184843Y36024D02*
X184055D01*
X184843D01*
X177339Y73390D02*
X176551D01*
X177339D01*
X41472Y89909D02*
X40684D01*
X41472D01*
X323425Y131890D02*
X322638D01*
X323425D01*
X220902Y66405D02*
X220114D01*
X220902D01*
X165782Y33166D02*
X164995D01*
X165782D01*
X53574Y115232D02*
X52787D01*
X53574D01*
X213250Y70468D02*
X212462D01*
X213250D01*
X86402Y39406D02*
X85614D01*
X86402D01*
D12*
X279800Y50500D02*
X280152Y49652D01*
X281000Y49300D01*
X281849Y49652D01*
X282200Y50500D01*
X64800Y157000D02*
X65152Y156151D01*
X66000Y155800D01*
X66848Y156151D01*
X67200Y157000D01*
D13*
X97800Y40900D02*
X98151Y40051D01*
X99000Y39700D01*
X99849Y40051D01*
X100200Y40900D01*
D14*
X91900Y141900D02*
Y154695D01*
X102900Y142105D02*
Y154900D01*
X293202Y178450D02*
Y184750D01*
X298398Y178450D02*
Y184750D01*
X301202Y178250D02*
Y184550D01*
X306398Y178250D02*
Y184550D01*
X308802Y178450D02*
Y184750D01*
X313998Y178450D02*
Y184750D01*
X304002Y140050D02*
Y146350D01*
X309198Y140050D02*
Y146350D01*
X39980Y79760D02*
Y86059D01*
X45177Y79760D02*
Y86059D01*
X145532Y52008D02*
X149300D01*
X140808Y56732D02*
X145532Y52008D01*
X162068D02*
X166792Y56732D01*
X158300Y52008D02*
X162068D01*
X140808Y56732D02*
Y77992D01*
X148800D01*
X158800D02*
X166792D01*
Y56732D02*
Y77992D01*
X145498Y34150D02*
Y40450D01*
X140302Y34150D02*
Y40450D01*
X303198Y42050D02*
Y48350D01*
X298002Y42050D02*
Y48350D01*
X112802Y87450D02*
Y93750D01*
X117998Y87450D02*
Y93750D01*
X137692Y56932D02*
Y78192D01*
X129700D02*
X137692D01*
X111708D02*
X119700D01*
X111708Y56932D02*
Y78192D01*
X129200Y52208D02*
X132968D01*
X137692Y56932D01*
X111708D02*
X116432Y52208D01*
X120200D01*
X158300Y101608D02*
X166792D01*
X140808D02*
Y122868D01*
Y101608D02*
X149300D01*
X166792D02*
Y122868D01*
X145532Y127592D02*
X149300D01*
X140808Y122868D02*
X145532Y127592D01*
X162068D02*
X166792Y122868D01*
X158300Y127592D02*
X162068D01*
X111808Y101608D02*
Y122868D01*
Y101608D02*
X119800D01*
X129800D02*
X137792D01*
Y122868D01*
X116532Y127592D02*
X120300D01*
X111808Y122868D02*
X116532Y127592D01*
X133068D02*
X137792Y122868D01*
X129300Y127592D02*
X133068D01*
X95426Y120205D02*
Y133000D01*
X84426Y120000D02*
Y132795D01*
X38000Y138000D02*
Y150795D01*
X49000Y138205D02*
Y151000D01*
X215980Y36260D02*
Y42559D01*
X221177Y36260D02*
Y42559D01*
X222902Y36350D02*
Y42650D01*
X228098Y36350D02*
Y42650D01*
X248402Y36350D02*
Y42650D01*
X253598Y36350D02*
Y42650D01*
X316798Y140050D02*
Y146350D01*
X311602Y140050D02*
Y146350D01*
X324198Y139850D02*
Y146150D01*
X319002Y139850D02*
Y146150D01*
X190798Y63650D02*
Y69950D01*
X185602Y63650D02*
Y69950D01*
X176798Y63650D02*
Y69950D01*
X171602Y63650D02*
Y69950D01*
X113402Y31850D02*
Y38150D01*
X118598Y31850D02*
Y38150D01*
X35480Y62760D02*
Y69059D01*
X40677Y62760D02*
Y69059D01*
X46480Y93760D02*
Y100059D01*
X51676Y93760D02*
Y100059D01*
X46480Y79760D02*
Y86059D01*
X51676Y79760D02*
Y86059D01*
X171998Y34150D02*
Y40450D01*
X166802Y34150D02*
Y40450D01*
X68928Y123350D02*
Y129650D01*
X74124Y123350D02*
Y129650D01*
X39980Y108260D02*
Y114559D01*
X45177Y108260D02*
Y114559D01*
X79398Y163650D02*
Y169950D01*
X74202Y163650D02*
Y169950D01*
X83098Y32350D02*
Y38650D01*
X77902Y32350D02*
Y38650D01*
X71098Y32350D02*
Y38650D01*
X65902Y32350D02*
Y38650D01*
X229902Y36350D02*
Y42650D01*
X235098Y36350D02*
Y42650D01*
X255202Y36250D02*
Y42550D01*
X260398Y36250D02*
Y42550D01*
X238098Y97850D02*
Y104150D01*
X232902Y97850D02*
Y104150D01*
X218902Y97850D02*
Y104150D01*
X224098Y97850D02*
Y104150D01*
X231098Y97850D02*
Y104150D01*
X225902Y97850D02*
Y104150D01*
X192602Y63650D02*
Y69950D01*
X197798Y63650D02*
Y69950D01*
X178602Y63650D02*
Y69950D01*
X183798Y63650D02*
Y69950D01*
X239902Y97850D02*
Y104150D01*
X245098Y97850D02*
Y104150D01*
X145602Y86850D02*
Y93150D01*
X150798Y86850D02*
Y93150D01*
X138402Y86850D02*
Y93150D01*
X143598Y86850D02*
Y93150D01*
X131402Y86850D02*
Y93150D01*
X136598Y86850D02*
Y93150D01*
X45177Y93760D02*
Y100059D01*
X39980Y93760D02*
Y100059D01*
X105602Y87450D02*
Y93750D01*
X110798Y87450D02*
Y93750D01*
X48702Y180299D02*
Y186598D01*
X53898Y180299D02*
Y186598D01*
X106402Y144850D02*
Y151150D01*
X111598Y144850D02*
Y151150D01*
X76528Y123350D02*
Y129650D01*
X81724Y123350D02*
Y129650D01*
X30402Y141350D02*
Y147650D01*
X35598Y141350D02*
Y147650D01*
X59202Y163350D02*
Y169650D01*
X64398Y163350D02*
Y169650D01*
X83402Y144850D02*
Y151150D01*
X88598Y144850D02*
Y151150D01*
X65724Y123350D02*
Y129650D01*
X60527Y123350D02*
Y129650D01*
X56724Y123350D02*
Y129650D01*
X51528Y123350D02*
Y129650D01*
D15*
X173205Y98390D02*
X178087D01*
X173205Y84610D02*
Y98390D01*
X198795Y84610D02*
Y98390D01*
X193913D02*
X198795D01*
X252165Y127953D02*
X254724D01*
X252165Y118307D02*
Y127953D01*
Y57087D02*
Y66732D01*
Y57087D02*
X254724D01*
X223657Y50657D02*
X226020D01*
X223657D02*
Y53020D01*
Y67980D02*
Y70342D01*
X226020D01*
X243342Y50657D02*
Y53020D01*
X240980Y50657D02*
X243342D01*
Y67980D02*
Y70342D01*
X240980D02*
X243342D01*
X154601Y43009D02*
X157199D01*
X152750Y35981D02*
Y38619D01*
X154601Y31591D02*
X157199D01*
X64618Y44780D02*
X94539D01*
X64618Y116039D02*
X94539D01*
X207441Y98059D02*
Y101839D01*
X212559D01*
X207441Y89161D02*
Y92941D01*
Y89161D02*
X212559D01*
X207583Y116276D02*
X212701D01*
X207583Y112496D02*
Y116276D01*
Y103598D02*
Y107378D01*
Y103598D02*
X212701D01*
X215584Y59444D02*
Y64956D01*
X203616Y59444D02*
Y64956D01*
X215191Y59444D02*
X215584D01*
X215191Y64956D02*
X215584D01*
X203616Y59444D02*
X204009D01*
X203616Y64956D02*
X204009D01*
X65143Y180953D02*
Y185047D01*
X58057Y180953D02*
Y185047D01*
X50531Y65031D02*
Y67787D01*
X44625Y65031D02*
Y67787D01*
D16*
X224000Y80000D02*
X236500D01*
X224000Y92000D02*
X236500D01*
X225000Y132000D02*
X237500D01*
X225000Y120000D02*
X237500D01*
D17*
X274569Y29500D02*
Y31000D01*
Y29500D02*
X287431D01*
X274569Y34000D02*
Y36000D01*
Y39000D02*
Y41000D01*
Y44000D02*
Y46000D01*
Y49000D02*
Y50500D01*
X279800D01*
X287431Y34000D02*
Y36000D01*
Y29500D02*
Y31000D01*
Y39000D02*
Y41000D01*
Y44000D02*
Y46000D01*
X282200Y50500D02*
X287431D01*
Y49000D02*
Y50500D01*
X59569Y150500D02*
Y152500D01*
Y155500D02*
Y157000D01*
X64800D01*
X67200D02*
X72431D01*
Y136000D02*
Y137500D01*
X59569Y136000D02*
X72431D01*
X59569Y145500D02*
Y147500D01*
Y140500D02*
Y142500D01*
Y136000D02*
Y137500D01*
X72431Y140500D02*
Y142500D01*
Y145500D02*
Y147500D01*
Y150500D02*
Y152500D01*
Y155500D02*
Y157000D01*
X94500Y29100D02*
X103500D01*
X100200Y40900D02*
X103500D01*
X97800D02*
X100200D01*
X94500D02*
X97800D01*
D18*
X94112Y171184D02*
Y173152D01*
Y172168D01*
X100016D01*
Y171184D01*
Y173152D01*
Y176104D02*
X94112D01*
X100016Y180040D01*
X94112D01*
X187312Y168736D02*
Y166768D01*
X188296Y165784D01*
X192232D01*
X193216Y166768D01*
Y168736D01*
X192232Y169720D01*
X188296D01*
X187312Y168736D01*
Y171688D02*
X192232D01*
X193216Y172672D01*
Y174640D01*
X192232Y175624D01*
X187312D01*
Y177591D02*
Y181527D01*
Y179559D01*
X193216D01*
D19*
X104078Y180210D02*
Y182834D01*
X102766Y181522D02*
X105390D01*
X198878Y180210D02*
Y182834D01*
X197566Y181522D02*
X200190D01*
X217790Y77610D02*
X213854D01*
Y79578D01*
X214510Y80234D01*
X215822D01*
X216478Y79578D01*
Y77610D01*
Y78922D02*
X217790Y80234D01*
X214510Y84170D02*
X213854Y83514D01*
Y82202D01*
X214510Y81546D01*
X215166D01*
X215822Y82202D01*
Y83514D01*
X216478Y84170D01*
X217134D01*
X217790Y83514D01*
Y82202D01*
X217134Y81546D01*
X213854Y85482D02*
Y88105D01*
Y86794D01*
X217790D01*
X212854Y126610D02*
X216790D01*
Y128578D01*
X216134Y129234D01*
X215478D01*
X214822Y128578D01*
Y126610D01*
Y128578D01*
X214166Y129234D01*
X213510D01*
X212854Y128578D01*
Y126610D01*
Y130546D02*
Y133170D01*
Y131858D01*
X216790D01*
Y134482D02*
X212854D01*
X216790Y137106D01*
X212854D01*
X213510Y138417D02*
X212854Y139073D01*
Y140385D01*
X213510Y141041D01*
X216134D01*
X216790Y140385D01*
Y139073D01*
X216134Y138417D01*
X213510D01*
X267400Y52680D02*
X270024Y50056D01*
X267400D02*
X270024Y52680D01*
X267400Y51368D02*
X270024D01*
X268712Y50056D02*
Y52680D01*
X51500Y159280D02*
X54124Y156656D01*
X51500D02*
X54124Y159280D01*
X51500Y157968D02*
X54124D01*
X52812Y156656D02*
Y159280D01*
X299488Y30976D02*
X298832Y30320D01*
Y29008D01*
X299488Y28352D01*
X302112D01*
X302768Y29008D01*
Y30320D01*
X302112Y30976D01*
X302768Y34912D02*
Y32288D01*
X300144Y34912D01*
X299488D01*
X298832Y34256D01*
Y32944D01*
X299488Y32288D01*
Y36224D02*
X298832Y36880D01*
Y38192D01*
X299488Y38848D01*
X302112D01*
X302768Y38192D01*
Y36880D01*
X302112Y36224D01*
X299488D01*
X203632Y70520D02*
X207568D01*
Y72488D01*
X206912Y73144D01*
X204288D01*
X203632Y72488D01*
Y70520D01*
X207568Y76424D02*
X203632D01*
X205600Y74456D01*
Y77080D01*
X251432Y130120D02*
X254712D01*
X255368Y130776D01*
Y132088D01*
X254712Y132744D01*
X251432D01*
X255368Y136680D02*
Y134056D01*
X252744Y136680D01*
X252088D01*
X251432Y136024D01*
Y134712D01*
X252088Y134056D01*
X145288Y132304D02*
X144632Y131648D01*
Y130336D01*
X145288Y129680D01*
X147912D01*
X148568Y130336D01*
Y131648D01*
X147912Y132304D01*
X148568Y133616D02*
Y134928D01*
Y134272D01*
X144632D01*
X145288Y133616D01*
Y136896D02*
X144632Y137552D01*
Y138864D01*
X145288Y139520D01*
X145944D01*
X146600Y138864D01*
X147256Y139520D01*
X147912D01*
X148568Y138864D01*
Y137552D01*
X147912Y136896D01*
X147256D01*
X146600Y137552D01*
X145944Y136896D01*
X145288D01*
X146600Y137552D02*
Y138864D01*
X131288Y132504D02*
X130632Y131848D01*
Y130536D01*
X131288Y129880D01*
X133912D01*
X134568Y130536D01*
Y131848D01*
X133912Y132504D01*
X134568Y133816D02*
Y135128D01*
Y134472D01*
X130632D01*
X131288Y133816D01*
X130632Y137096D02*
Y139720D01*
X131288D01*
X133912Y137096D01*
X134568D01*
X108888Y48104D02*
X108232Y47448D01*
Y46136D01*
X108888Y45480D01*
X111512D01*
X112168Y46136D01*
Y47448D01*
X111512Y48104D01*
X112168Y49416D02*
Y50728D01*
Y50072D01*
X108232D01*
X108888Y49416D01*
X112168Y55320D02*
Y52696D01*
X109544Y55320D01*
X108888D01*
X108232Y54664D01*
Y53352D01*
X108888Y52696D01*
X139888Y49144D02*
X139232Y48488D01*
Y47176D01*
X139888Y46520D01*
X142512D01*
X143168Y47176D01*
Y48488D01*
X142512Y49144D01*
X139888Y50456D02*
X139232Y51112D01*
Y52424D01*
X139888Y53080D01*
X140544D01*
X141200Y52424D01*
X141856Y53080D01*
X142512D01*
X143168Y52424D01*
Y51112D01*
X142512Y50456D01*
X141856D01*
X141200Y51112D01*
X140544Y50456D01*
X139888D01*
X141200Y51112D02*
Y52424D01*
X51032Y160520D02*
X54312D01*
X54968Y161176D01*
Y162488D01*
X54312Y163144D01*
X51032D01*
X54312Y164456D02*
X54968Y165112D01*
Y166424D01*
X54312Y167080D01*
X51688D01*
X51032Y166424D01*
Y165112D01*
X51688Y164456D01*
X52344D01*
X53000Y165112D01*
Y167080D01*
X76968Y30252D02*
X73032D01*
Y32220D01*
X73688Y32876D01*
X75000D01*
X75656Y32220D01*
Y30252D01*
Y31564D02*
X76968Y32876D01*
Y36812D02*
Y34188D01*
X74344Y36812D01*
X73688D01*
X73032Y36156D01*
Y34844D01*
X73688Y34188D01*
X76312Y38124D02*
X76968Y38780D01*
Y40092D01*
X76312Y40748D01*
X73688D01*
X73032Y40092D01*
Y38780D01*
X73688Y38124D01*
X74344D01*
X75000Y38780D01*
Y40748D01*
X45032Y52376D02*
X45688D01*
X47000Y53688D01*
X45688Y55000D01*
X45032D01*
X47000Y53688D02*
X48968D01*
Y56312D02*
Y57624D01*
Y56968D01*
X45032D01*
X45688Y56312D01*
X217032Y49720D02*
X220312D01*
X220968Y50376D01*
Y51688D01*
X220312Y52344D01*
X217032D01*
X217688Y53656D02*
X217032Y54312D01*
Y55624D01*
X217688Y56280D01*
X218344D01*
X219000Y55624D01*
X219656Y56280D01*
X220312D01*
X220968Y55624D01*
Y54312D01*
X220312Y53656D01*
X219656D01*
X219000Y54312D01*
X218344Y53656D01*
X217688D01*
X219000Y54312D02*
Y55624D01*
X262232Y45120D02*
X265512D01*
X266168Y45776D01*
Y47088D01*
X265512Y47744D01*
X262232D01*
Y49056D02*
Y51680D01*
X262888D01*
X265512Y49056D01*
X266168D01*
X120032Y31720D02*
X123312D01*
X123968Y32376D01*
Y33688D01*
X123312Y34344D01*
X120032D01*
Y38280D02*
X120688Y36968D01*
X122000Y35656D01*
X123312D01*
X123968Y36312D01*
Y37624D01*
X123312Y38280D01*
X122656D01*
X122000Y37624D01*
Y35656D01*
X159632Y44120D02*
X162912D01*
X163568Y44776D01*
Y46088D01*
X162912Y46744D01*
X159632D01*
Y50680D02*
Y48056D01*
X161600D01*
X160944Y49368D01*
Y50024D01*
X161600Y50680D01*
X162912D01*
X163568Y50024D01*
Y48712D01*
X162912Y48056D01*
X51832Y44920D02*
X55112D01*
X55768Y45576D01*
Y46888D01*
X55112Y47544D01*
X51832D01*
X55768Y50824D02*
X51832D01*
X53800Y48856D01*
Y51480D01*
X173232Y100776D02*
X176512D01*
X177168Y101432D01*
Y102744D01*
X176512Y103400D01*
X173232D01*
X177168Y104712D02*
Y106024D01*
Y105368D01*
X173232D01*
X173888Y104712D01*
X63168Y30552D02*
X59232D01*
Y32520D01*
X59888Y33176D01*
X61200D01*
X61856Y32520D01*
Y30552D01*
Y31864D02*
X63168Y33176D01*
Y37112D02*
Y34488D01*
X60544Y37112D01*
X59888D01*
X59232Y36456D01*
Y35144D01*
X59888Y34488D01*
Y38424D02*
X59232Y39080D01*
Y40392D01*
X59888Y41048D01*
X60544D01*
X61200Y40392D01*
X61856Y41048D01*
X62512D01*
X63168Y40392D01*
Y39080D01*
X62512Y38424D01*
X61856D01*
X61200Y39080D01*
X60544Y38424D01*
X59888D01*
X61200Y39080D02*
Y40392D01*
X244968Y34252D02*
X241032D01*
Y36220D01*
X241688Y36876D01*
X243000D01*
X243656Y36220D01*
Y34252D01*
Y35564D02*
X244968Y36876D01*
Y40812D02*
Y38188D01*
X242344Y40812D01*
X241688D01*
X241032Y40156D01*
Y38844D01*
X241688Y38188D01*
X241032Y44748D02*
X241688Y43436D01*
X243000Y42124D01*
X244312D01*
X244968Y42780D01*
Y44092D01*
X244312Y44748D01*
X243656D01*
X243000Y44092D01*
Y42124D01*
X255952Y28632D02*
Y32568D01*
X257920D01*
X258576Y31912D01*
Y30600D01*
X257920Y29944D01*
X255952D01*
X257264D02*
X258576Y28632D01*
X262512D02*
X259888D01*
X262512Y31256D01*
Y31912D01*
X261856Y32568D01*
X260544D01*
X259888Y31912D01*
X266448Y32568D02*
X263824D01*
Y30600D01*
X265136Y31256D01*
X265792D01*
X266448Y30600D01*
Y29288D01*
X265792Y28632D01*
X264480D01*
X263824Y29288D01*
X237468Y107752D02*
X233532D01*
Y109720D01*
X234188Y110376D01*
X235500D01*
X236156Y109720D01*
Y107752D01*
Y109064D02*
X237468Y110376D01*
Y114312D02*
Y111688D01*
X234844Y114312D01*
X234188D01*
X233532Y113656D01*
Y112344D01*
X234188Y111688D01*
X237468Y117592D02*
X233532D01*
X235500Y115624D01*
Y118248D01*
X223468Y108252D02*
X219532D01*
Y110220D01*
X220188Y110876D01*
X221500D01*
X222156Y110220D01*
Y108252D01*
Y109564D02*
X223468Y110876D01*
Y114812D02*
Y112188D01*
X220844Y114812D01*
X220188D01*
X219532Y114156D01*
Y112844D01*
X220188Y112188D01*
Y116124D02*
X219532Y116780D01*
Y118092D01*
X220188Y118748D01*
X220844D01*
X221500Y118092D01*
Y117436D01*
Y118092D01*
X222156Y118748D01*
X222812D01*
X223468Y118092D01*
Y116780D01*
X222812Y116124D01*
X230468Y107908D02*
X226532D01*
Y109876D01*
X227188Y110532D01*
X228500D01*
X229156Y109876D01*
Y107908D01*
Y109220D02*
X230468Y110532D01*
Y114468D02*
Y111844D01*
X227844Y114468D01*
X227188D01*
X226532Y113812D01*
Y112500D01*
X227188Y111844D01*
X230468Y115780D02*
Y117092D01*
Y116436D01*
X226532D01*
X227188Y115780D01*
X197368Y49752D02*
X193432D01*
Y51720D01*
X194088Y52376D01*
X195400D01*
X196056Y51720D01*
Y49752D01*
Y51064D02*
X197368Y52376D01*
Y56312D02*
Y53688D01*
X194744Y56312D01*
X194088D01*
X193432Y55656D01*
Y54344D01*
X194088Y53688D01*
Y57624D02*
X193432Y58280D01*
Y59592D01*
X194088Y60248D01*
X196712D01*
X197368Y59592D01*
Y58280D01*
X196712Y57624D01*
X194088D01*
X183168Y50480D02*
X179232D01*
Y52448D01*
X179888Y53104D01*
X181200D01*
X181856Y52448D01*
Y50480D01*
Y51792D02*
X183168Y53104D01*
Y54416D02*
Y55728D01*
Y55072D01*
X179232D01*
X179888Y54416D01*
X182512Y57696D02*
X183168Y58352D01*
Y59664D01*
X182512Y60320D01*
X179888D01*
X179232Y59664D01*
Y58352D01*
X179888Y57696D01*
X180544D01*
X181200Y58352D01*
Y60320D01*
X244468Y107580D02*
X240532D01*
Y109548D01*
X241188Y110204D01*
X242500D01*
X243156Y109548D01*
Y107580D01*
Y108892D02*
X244468Y110204D01*
Y111516D02*
Y112828D01*
Y112172D01*
X240532D01*
X241188Y111516D01*
Y114796D02*
X240532Y115452D01*
Y116764D01*
X241188Y117420D01*
X241844D01*
X242500Y116764D01*
X243156Y117420D01*
X243812D01*
X244468Y116764D01*
Y115452D01*
X243812Y114796D01*
X243156D01*
X242500Y115452D01*
X241844Y114796D01*
X241188D01*
X242500Y115452D02*
Y116764D01*
X161968Y85480D02*
X158032D01*
Y87448D01*
X158688Y88104D01*
X160000D01*
X160656Y87448D01*
Y85480D01*
Y86792D02*
X161968Y88104D01*
Y89416D02*
Y90728D01*
Y90072D01*
X158032D01*
X158688Y89416D01*
X158032Y92696D02*
Y95320D01*
X158688D01*
X161312Y92696D01*
X161968D01*
X129768Y85480D02*
X125832D01*
Y87448D01*
X126488Y88104D01*
X127800D01*
X128456Y87448D01*
Y85480D01*
Y86792D02*
X129768Y88104D01*
Y89416D02*
Y90728D01*
Y90072D01*
X125832D01*
X126488Y89416D01*
X125832Y95320D02*
Y92696D01*
X127800D01*
X127144Y94008D01*
Y94664D01*
X127800Y95320D01*
X129112D01*
X129768Y94664D01*
Y93352D01*
X129112Y92696D01*
X156168Y85680D02*
X152232D01*
Y87648D01*
X152888Y88304D01*
X154200D01*
X154856Y87648D01*
Y85680D01*
Y86992D02*
X156168Y88304D01*
Y89616D02*
Y90928D01*
Y90272D01*
X152232D01*
X152888Y89616D01*
X156168Y94864D02*
X152232D01*
X154200Y92896D01*
Y95520D01*
X32968Y91280D02*
X29032D01*
Y93248D01*
X29688Y93904D01*
X31000D01*
X31656Y93248D01*
Y91280D01*
Y92592D02*
X32968Y93904D01*
Y95216D02*
Y96528D01*
Y95872D01*
X29032D01*
X29688Y95216D01*
Y98496D02*
X29032Y99152D01*
Y100464D01*
X29688Y101120D01*
X30344D01*
X31000Y100464D01*
Y99808D01*
Y100464D01*
X31656Y101120D01*
X32312D01*
X32968Y100464D01*
Y99152D01*
X32312Y98496D01*
X109968Y97080D02*
X106032D01*
Y99048D01*
X106688Y99704D01*
X108000D01*
X108656Y99048D01*
Y97080D01*
Y98392D02*
X109968Y99704D01*
Y101016D02*
Y102328D01*
Y101672D01*
X106032D01*
X106688Y101016D01*
X109968Y106920D02*
Y104296D01*
X107344Y106920D01*
X106688D01*
X106032Y106264D01*
Y104952D01*
X106688Y104296D01*
X53568Y190120D02*
X49632D01*
Y192088D01*
X50288Y192744D01*
X51600D01*
X52256Y192088D01*
Y190120D01*
Y191432D02*
X53568Y192744D01*
X52912Y194056D02*
X53568Y194712D01*
Y196024D01*
X52912Y196680D01*
X50288D01*
X49632Y196024D01*
Y194712D01*
X50288Y194056D01*
X50944D01*
X51600Y194712D01*
Y196680D01*
X110768Y154920D02*
X106832D01*
Y156888D01*
X107488Y157544D01*
X108800D01*
X109456Y156888D01*
Y154920D01*
Y156232D02*
X110768Y157544D01*
X107488Y158856D02*
X106832Y159512D01*
Y160824D01*
X107488Y161480D01*
X108144D01*
X108800Y160824D01*
X109456Y161480D01*
X110112D01*
X110768Y160824D01*
Y159512D01*
X110112Y158856D01*
X109456D01*
X108800Y159512D01*
X108144Y158856D01*
X107488D01*
X108800Y159512D02*
Y160824D01*
X100994Y122920D02*
X97058D01*
Y124888D01*
X97714Y125544D01*
X99026D01*
X99682Y124888D01*
Y122920D01*
Y124232D02*
X100994Y125544D01*
X97058Y126856D02*
Y129480D01*
X97714D01*
X100338Y126856D01*
X100994D01*
X34768Y151720D02*
X30832D01*
Y153688D01*
X31488Y154344D01*
X32800D01*
X33456Y153688D01*
Y151720D01*
Y153032D02*
X34768Y154344D01*
X30832Y158280D02*
Y155656D01*
X32800D01*
X32144Y156968D01*
Y157624D01*
X32800Y158280D01*
X34112D01*
X34768Y157624D01*
Y156312D01*
X34112Y155656D01*
X69368Y164120D02*
X65432D01*
Y166088D01*
X66088Y166744D01*
X67400D01*
X68056Y166088D01*
Y164120D01*
Y165432D02*
X69368Y166744D01*
Y170024D02*
X65432D01*
X67400Y168056D01*
Y170680D01*
X88168Y155120D02*
X84232D01*
Y157088D01*
X84888Y157744D01*
X86200D01*
X86856Y157088D01*
Y155120D01*
Y156432D02*
X88168Y157744D01*
X84888Y159056D02*
X84232Y159712D01*
Y161024D01*
X84888Y161680D01*
X85544D01*
X86200Y161024D01*
Y160368D01*
Y161024D01*
X86856Y161680D01*
X87512D01*
X88168Y161024D01*
Y159712D01*
X87512Y159056D01*
X45368Y123520D02*
X41432D01*
Y125488D01*
X42088Y126144D01*
X43400D01*
X44056Y125488D01*
Y123520D01*
Y124832D02*
X45368Y126144D01*
Y130080D02*
Y127456D01*
X42744Y130080D01*
X42088D01*
X41432Y129424D01*
Y128112D01*
X42088Y127456D01*
X40168Y123576D02*
X36232D01*
Y125544D01*
X36888Y126200D01*
X38200D01*
X38856Y125544D01*
Y123576D01*
Y124888D02*
X40168Y126200D01*
Y127512D02*
Y128824D01*
Y128168D01*
X36232D01*
X36888Y127512D01*
X204112Y87944D02*
X201488D01*
X200832Y87288D01*
Y85976D01*
X201488Y85320D01*
X204112D01*
X204768Y85976D01*
Y87288D01*
X203456Y86632D02*
X204768Y87944D01*
Y87288D02*
X204112Y87944D01*
X204768Y91880D02*
Y89256D01*
X202144Y91880D01*
X201488D01*
X200832Y91224D01*
Y89912D01*
X201488Y89256D01*
X203954Y115437D02*
X201330D01*
X200674Y114781D01*
Y113469D01*
X201330Y112813D01*
X203954D01*
X204610Y113469D01*
Y114781D01*
X203298Y114125D02*
X204610Y115437D01*
Y114781D02*
X203954Y115437D01*
X204610Y116749D02*
Y118061D01*
Y117405D01*
X200674D01*
X201330Y116749D01*
X30110Y79630D02*
X34046D01*
Y81598D01*
X33390Y82253D01*
X30766D01*
X30110Y81598D01*
Y79630D01*
X30766Y83565D02*
X30110Y84221D01*
Y85533D01*
X30766Y86189D01*
X31422D01*
X32078Y85533D01*
Y84877D01*
Y85533D01*
X32734Y86189D01*
X33390D01*
X34046Y85533D01*
Y84221D01*
X33390Y83565D01*
X211688Y37376D02*
X211032Y36720D01*
Y35408D01*
X211688Y34752D01*
X214312D01*
X214968Y35408D01*
Y36720D01*
X214312Y37376D01*
X214968Y41312D02*
Y38688D01*
X212344Y41312D01*
X211688D01*
X211032Y40656D01*
Y39344D01*
X211688Y38688D01*
X211032Y42624D02*
Y45248D01*
X211688D01*
X214312Y42624D01*
X214968D01*
X236688Y36876D02*
X236032Y36220D01*
Y34908D01*
X236688Y34252D01*
X239312D01*
X239968Y34908D01*
Y36220D01*
X239312Y36876D01*
X239968Y40812D02*
Y38188D01*
X237344Y40812D01*
X236688D01*
X236032Y40156D01*
Y38844D01*
X236688Y38188D01*
X236032Y44748D02*
X236688Y43436D01*
X238000Y42124D01*
X239312D01*
X239968Y42780D01*
Y44092D01*
X239312Y44748D01*
X238656D01*
X238000Y44092D01*
Y42124D01*
X246876Y31812D02*
X246220Y32468D01*
X244908D01*
X244252Y31812D01*
Y29188D01*
X244908Y28532D01*
X246220D01*
X246876Y29188D01*
X250812Y28532D02*
X248188D01*
X250812Y31156D01*
Y31812D01*
X250156Y32468D01*
X248844D01*
X248188Y31812D01*
X254748Y32468D02*
X252124D01*
Y30500D01*
X253436Y31156D01*
X254092D01*
X254748Y30500D01*
Y29188D01*
X254092Y28532D01*
X252780D01*
X252124Y29188D01*
X313288Y152525D02*
X312632Y151869D01*
Y150557D01*
X313288Y149901D01*
X315912D01*
X316568Y150557D01*
Y151869D01*
X315912Y152525D01*
X316568Y156461D02*
Y153837D01*
X313944Y156461D01*
X313288D01*
X312632Y155805D01*
Y154493D01*
X313288Y153837D01*
X316568Y159740D02*
X312632D01*
X314600Y157773D01*
Y160397D01*
X320288Y152376D02*
X319632Y151720D01*
Y150408D01*
X320288Y149752D01*
X322912D01*
X323568Y150408D01*
Y151720D01*
X322912Y152376D01*
X323568Y156312D02*
Y153688D01*
X320944Y156312D01*
X320288D01*
X319632Y155656D01*
Y154344D01*
X320288Y153688D01*
Y157624D02*
X319632Y158280D01*
Y159592D01*
X320288Y160248D01*
X320944D01*
X321600Y159592D01*
Y158936D01*
Y159592D01*
X322256Y160248D01*
X322912D01*
X323568Y159592D01*
Y158280D01*
X322912Y157624D01*
X187088Y52376D02*
X186432Y51720D01*
Y50408D01*
X187088Y49752D01*
X189712D01*
X190368Y50408D01*
Y51720D01*
X189712Y52376D01*
X190368Y56312D02*
Y53688D01*
X187744Y56312D01*
X187088D01*
X186432Y55656D01*
Y54344D01*
X187088Y53688D01*
X190368Y60248D02*
Y57624D01*
X187744Y60248D01*
X187088D01*
X186432Y59592D01*
Y58280D01*
X187088Y57624D01*
X173288Y54032D02*
X172632Y53376D01*
Y52064D01*
X173288Y51408D01*
X175912D01*
X176568Y52064D01*
Y53376D01*
X175912Y54032D01*
X176568Y57968D02*
Y55344D01*
X173944Y57968D01*
X173288D01*
X172632Y57312D01*
Y56000D01*
X173288Y55344D01*
X176568Y59280D02*
Y60592D01*
Y59936D01*
X172632D01*
X173288Y59280D01*
X125688Y32653D02*
X125032Y31997D01*
Y30685D01*
X125688Y30029D01*
X128312D01*
X128968Y30685D01*
Y31997D01*
X128312Y32653D01*
X128968Y33965D02*
Y35277D01*
Y34621D01*
X125032D01*
X125688Y33965D01*
X128312Y37245D02*
X128968Y37901D01*
Y39213D01*
X128312Y39869D01*
X125688D01*
X125032Y39213D01*
Y37901D01*
X125688Y37245D01*
X126344D01*
X127000Y37901D01*
Y39869D01*
X119688Y88104D02*
X119032Y87448D01*
Y86136D01*
X119688Y85480D01*
X122312D01*
X122968Y86136D01*
Y87448D01*
X122312Y88104D01*
X122968Y89416D02*
Y90728D01*
Y90072D01*
X119032D01*
X119688Y89416D01*
X119032Y95320D02*
X119688Y94008D01*
X121000Y92696D01*
X122312D01*
X122968Y93352D01*
Y94664D01*
X122312Y95320D01*
X121656D01*
X121000Y94664D01*
Y92696D01*
X30688Y63704D02*
X30032Y63048D01*
Y61736D01*
X30688Y61080D01*
X33312D01*
X33968Y61736D01*
Y63048D01*
X33312Y63704D01*
X33968Y65016D02*
Y66328D01*
Y65672D01*
X30032D01*
X30688Y65016D01*
X30032Y70920D02*
Y68296D01*
X32000D01*
X31344Y69608D01*
Y70264D01*
X32000Y70920D01*
X33312D01*
X33968Y70264D01*
Y68952D01*
X33312Y68296D01*
X35266Y94614D02*
X34610Y93958D01*
Y92646D01*
X35266Y91990D01*
X37890D01*
X38546Y92646D01*
Y93958D01*
X37890Y94614D01*
X38546Y95925D02*
Y97237D01*
Y96582D01*
X34610D01*
X35266Y95925D01*
X38546Y101173D02*
X34610D01*
X36578Y99205D01*
Y101829D01*
X35766Y80614D02*
X35110Y79958D01*
Y78646D01*
X35766Y77990D01*
X38390D01*
X39046Y78646D01*
Y79958D01*
X38390Y80614D01*
X39046Y81925D02*
Y83237D01*
Y82582D01*
X35110D01*
X35766Y81925D01*
Y85205D02*
X35110Y85861D01*
Y87173D01*
X35766Y87829D01*
X36422D01*
X37078Y87173D01*
Y86517D01*
Y87173D01*
X37734Y87829D01*
X38390D01*
X39046Y87173D01*
Y85861D01*
X38390Y85205D01*
X135288Y34504D02*
X134632Y33848D01*
Y32536D01*
X135288Y31880D01*
X137912D01*
X138568Y32536D01*
Y33848D01*
X137912Y34504D01*
X138568Y35816D02*
Y37128D01*
Y36472D01*
X134632D01*
X135288Y35816D01*
Y39096D02*
X134632Y39752D01*
Y41064D01*
X135288Y41720D01*
X137912D01*
X138568Y41064D01*
Y39752D01*
X137912Y39096D01*
X135288D01*
X168088Y46744D02*
X167432Y46088D01*
Y44776D01*
X168088Y44120D01*
X170712D01*
X171368Y44776D01*
Y46088D01*
X170712Y46744D01*
Y48056D02*
X171368Y48712D01*
Y50024D01*
X170712Y50680D01*
X168088D01*
X167432Y50024D01*
Y48712D01*
X168088Y48056D01*
X168744D01*
X169400Y48712D01*
Y50680D01*
X47288Y126144D02*
X46632Y125488D01*
Y124176D01*
X47288Y123520D01*
X49912D01*
X50568Y124176D01*
Y125488D01*
X49912Y126144D01*
X46632Y127456D02*
Y130080D01*
X47288D01*
X49912Y127456D01*
X50568D01*
X35288Y110744D02*
X34632Y110088D01*
Y108776D01*
X35288Y108120D01*
X37912D01*
X38568Y108776D01*
Y110088D01*
X37912Y110744D01*
X34632Y114680D02*
X35288Y113368D01*
X36600Y112056D01*
X37912D01*
X38568Y112712D01*
Y114024D01*
X37912Y114680D01*
X37256D01*
X36600Y114024D01*
Y112056D01*
X103114Y125144D02*
X102458Y124488D01*
Y123176D01*
X103114Y122520D01*
X105738D01*
X106394Y123176D01*
Y124488D01*
X105738Y125144D01*
X102458Y129080D02*
Y126456D01*
X104426D01*
X103770Y127768D01*
Y128424D01*
X104426Y129080D01*
X105738D01*
X106394Y128424D01*
Y127112D01*
X105738Y126456D01*
X40188Y156344D02*
X39532Y155688D01*
Y154376D01*
X40188Y153720D01*
X42812D01*
X43468Y154376D01*
Y155688D01*
X42812Y156344D01*
X43468Y159624D02*
X39532D01*
X41500Y157656D01*
Y160280D01*
X60088Y195544D02*
X59432Y194888D01*
Y193576D01*
X60088Y192920D01*
X62712D01*
X63368Y193576D01*
Y194888D01*
X62712Y195544D01*
X60088Y196856D02*
X59432Y197512D01*
Y198824D01*
X60088Y199480D01*
X60744D01*
X61400Y198824D01*
Y198168D01*
Y198824D01*
X62056Y199480D01*
X62712D01*
X63368Y198824D01*
Y197512D01*
X62712Y196856D01*
X96088Y160144D02*
X95432Y159488D01*
Y158176D01*
X96088Y157520D01*
X98712D01*
X99368Y158176D01*
Y159488D01*
X98712Y160144D01*
X99368Y164080D02*
Y161456D01*
X96744Y164080D01*
X96088D01*
X95432Y163424D01*
Y162112D01*
X96088Y161456D01*
X81488Y167000D02*
X80832Y166344D01*
Y165032D01*
X81488Y164376D01*
X84112D01*
X84768Y165032D01*
Y166344D01*
X84112Y167000D01*
X84768Y168312D02*
Y169624D01*
Y168968D01*
X80832D01*
X81488Y168312D01*
D20*
X297768Y188536D02*
X293832D01*
Y190504D01*
X294488Y191160D01*
X295800D01*
X296456Y190504D01*
Y188536D01*
Y189848D02*
X297768Y191160D01*
Y192472D02*
Y193784D01*
Y193128D01*
X293832D01*
X294488Y192472D01*
X297768Y195752D02*
Y197064D01*
Y196408D01*
X293832D01*
X294488Y195752D01*
X305968Y188280D02*
X302032D01*
Y190248D01*
X302688Y190904D01*
X304000D01*
X304656Y190248D01*
Y188280D01*
Y189592D02*
X305968Y190904D01*
Y192216D02*
Y193528D01*
Y192872D01*
X302032D01*
X302688Y192216D01*
Y195496D02*
X302032Y196152D01*
Y197464D01*
X302688Y198120D01*
X305312D01*
X305968Y197464D01*
Y196152D01*
X305312Y195496D01*
X302688D01*
X313568Y188320D02*
X309632D01*
Y190288D01*
X310288Y190944D01*
X311600D01*
X312256Y190288D01*
Y188320D01*
Y189632D02*
X313568Y190944D01*
X309632Y194880D02*
X310288Y193568D01*
X311600Y192256D01*
X312912D01*
X313568Y192912D01*
Y194224D01*
X312912Y194880D01*
X312256D01*
X311600Y194224D01*
Y192256D01*
X305183Y228097D02*
Y224161D01*
X307151D01*
X307807Y224817D01*
Y227441D01*
X307151Y228097D01*
X305183D01*
X309119Y224161D02*
X310431D01*
X309775D01*
Y228097D01*
X309119Y227441D01*
X305488Y152960D02*
X304832Y152304D01*
Y150992D01*
X305488Y150336D01*
X308112D01*
X308768Y150992D01*
Y152304D01*
X308112Y152960D01*
X308768Y154272D02*
Y155584D01*
Y154928D01*
X304832D01*
X305488Y154272D01*
X308768Y157552D02*
Y158864D01*
Y158208D01*
X304832D01*
X305488Y157552D01*
M02*
