G04*
G04 #@! TF.GenerationSoftware,Altium Limited,Altium Designer,20.1.12 (249)*
G04*
G04 Layer_Color=16711935*
%FSLAX25Y25*%
%MOIN*%
G70*
G04*
G04 #@! TF.SameCoordinates,C485F13E-52F4-4B27-BA2E-0FCDB629E99E*
G04*
G04*
G04 #@! TF.FilePolarity,Negative*
G04*
G01*
G75*
%ADD70C,0.02953*%
G04:AMPARAMS|DCode=71|XSize=226.38mil|YSize=84.65mil|CornerRadius=22.64mil|HoleSize=0mil|Usage=FLASHONLY|Rotation=90.000|XOffset=0mil|YOffset=0mil|HoleType=Round|Shape=RoundedRectangle|*
%AMROUNDEDRECTD71*
21,1,0.22638,0.03937,0,0,90.0*
21,1,0.18110,0.08465,0,0,90.0*
1,1,0.04528,0.01968,0.09055*
1,1,0.04528,0.01968,-0.09055*
1,1,0.04528,-0.01968,-0.09055*
1,1,0.04528,-0.01968,0.09055*
%
%ADD71ROUNDEDRECTD71*%
%ADD72C,0.19882*%
%ADD73O,0.04528X0.07284*%
%ADD82C,0.06496*%
%ADD83O,0.06496X0.10433*%
D70*
X300768Y100069D02*
D03*
Y92844D02*
D03*
X297155Y103681D02*
D03*
Y96457D02*
D03*
Y89232D02*
D03*
X293543Y100069D02*
D03*
Y92844D02*
D03*
X289931Y103681D02*
D03*
Y96457D02*
D03*
Y89232D02*
D03*
X286319Y100069D02*
D03*
Y92844D02*
D03*
D71*
X113720Y171850D02*
D03*
Y196850D02*
D03*
X177618D02*
D03*
X113720Y221850D02*
D03*
X177618D02*
D03*
Y171850D02*
D03*
X208208D02*
D03*
Y196850D02*
D03*
X272107D02*
D03*
X208208Y221850D02*
D03*
X272107D02*
D03*
Y171850D02*
D03*
D72*
X39370Y224410D02*
D03*
X314961Y39370D02*
D03*
Y224410D02*
D03*
X39370Y39370D02*
D03*
D73*
X204035Y32402D02*
D03*
X181791D02*
D03*
D82*
X299400Y124400D02*
D03*
X267800Y90800D02*
D03*
X287800Y55000D02*
D03*
X278200Y55200D02*
D03*
X257600Y49800D02*
D03*
X272600Y125200D02*
D03*
X282200Y124800D02*
D03*
X263400Y125400D02*
D03*
D83*
X80926Y47400D02*
D03*
X88800D02*
D03*
M02*
