G04*
G04 #@! TF.GenerationSoftware,Altium Limited,Altium Designer,21.9.2 (33)*
G04*
G04 Layer_Color=32896*
%FSLAX25Y25*%
%MOIN*%
G70*
G04*
G04 #@! TF.SameCoordinates,E153DD42-8A7D-485B-B93F-EA924BBF0D18*
G04*
G04*
G04 #@! TF.FilePolarity,Positive*
G04*
G01*
G75*
%ADD19C,0.00610*%
%ADD89C,0.01400*%
D19*
X298110Y137566D02*
X297454Y138222D01*
Y139534D01*
X298110Y140190D01*
X300734D01*
X301390Y139534D01*
Y138222D01*
X300734Y137566D01*
X299422D01*
Y138878D01*
X301390Y136254D02*
X297454D01*
X301390Y133630D01*
X297454D01*
Y132318D02*
X301390D01*
Y130350D01*
X300734Y129694D01*
X298110D01*
X297454Y130350D01*
Y132318D01*
X286110Y47966D02*
X285454Y48622D01*
Y49934D01*
X286110Y50590D01*
X286766D01*
X287422Y49934D01*
Y48622D01*
X288078Y47966D01*
X288734D01*
X289390Y48622D01*
Y49934D01*
X288734Y50590D01*
X289390Y44030D02*
Y46654D01*
X286766Y44030D01*
X286110D01*
X285454Y44686D01*
Y45998D01*
X286110Y46654D01*
X276910Y47766D02*
X276254Y48422D01*
Y49734D01*
X276910Y50390D01*
X277566D01*
X278222Y49734D01*
Y48422D01*
X278878Y47766D01*
X279534D01*
X280190Y48422D01*
Y49734D01*
X279534Y50390D01*
X280190Y46454D02*
Y45142D01*
Y45798D01*
X276254D01*
X276910Y46454D01*
X259590Y60990D02*
X255654D01*
Y59022D01*
X256310Y58366D01*
X257622D01*
X258278Y59022D01*
Y60990D01*
X259590Y54430D02*
Y57054D01*
X256966Y54430D01*
X256310D01*
X255654Y55086D01*
Y56398D01*
X256310Y57054D01*
X284590Y136590D02*
X280654D01*
Y134622D01*
X281310Y133966D01*
X282622D01*
X283278Y134622D01*
Y136590D01*
X280654Y130686D02*
Y131998D01*
X281310Y132654D01*
X283934D01*
X284590Y131998D01*
Y130686D01*
X283934Y130030D01*
X281310D01*
X280654Y130686D01*
X262110Y134166D02*
X261454Y134822D01*
Y136134D01*
X262110Y136790D01*
X262766D01*
X263422Y136134D01*
Y134822D01*
X264078Y134166D01*
X264734D01*
X265390Y134822D01*
Y136134D01*
X264734Y136790D01*
X262110Y132854D02*
X261454Y132198D01*
Y130886D01*
X262110Y130230D01*
X264734D01*
X265390Y130886D01*
Y132198D01*
X264734Y132854D01*
X262110D01*
X274390Y135590D02*
X270454D01*
Y133622D01*
X271110Y132966D01*
X272422D01*
X273078Y133622D01*
Y135590D01*
X274390Y131654D02*
Y130342D01*
Y130998D01*
X270454D01*
X271110Y131654D01*
X266054Y86590D02*
Y83966D01*
Y85278D01*
X269990D01*
X266710Y82654D02*
X266054Y81998D01*
Y80686D01*
X266710Y80030D01*
X269334D01*
X269990Y80686D01*
Y81998D01*
X269334Y82654D01*
X266710D01*
X225978Y134854D02*
X224666D01*
X224010Y135510D01*
Y138134D01*
X224666Y138790D01*
X225978D01*
X226634Y138134D01*
Y135510D01*
X225978Y134854D01*
X227946D02*
Y138134D01*
X228602Y138790D01*
X229914D01*
X230570Y138134D01*
Y134854D01*
X231882D02*
X234506D01*
X233194D01*
Y138790D01*
X235818D02*
Y134854D01*
X237785D01*
X238441Y135510D01*
Y136822D01*
X237785Y137478D01*
X235818D01*
X239753Y134854D02*
Y138134D01*
X240409Y138790D01*
X241721D01*
X242377Y138134D01*
Y134854D01*
X243689D02*
X246313D01*
X245001D01*
Y138790D01*
X132610Y134454D02*
X133922D01*
X133266D01*
Y138390D01*
X132610D01*
X133922D01*
X135890D02*
Y134454D01*
X138514Y138390D01*
Y134454D01*
X139826Y138390D02*
Y134454D01*
X141794D01*
X142450Y135110D01*
Y136422D01*
X141794Y137078D01*
X139826D01*
X143762Y134454D02*
Y137734D01*
X144418Y138390D01*
X145729D01*
X146385Y137734D01*
Y134454D01*
X147697D02*
X150321D01*
X149009D01*
Y138390D01*
X79310Y62566D02*
X78654Y63222D01*
Y64534D01*
X79310Y65190D01*
X79966D01*
X80622Y64534D01*
Y63222D01*
X81278Y62566D01*
X81934D01*
X82590Y63222D01*
Y64534D01*
X81934Y65190D01*
X79310Y58630D02*
X78654Y59286D01*
Y60598D01*
X79310Y61254D01*
X81934D01*
X82590Y60598D01*
Y59286D01*
X81934Y58630D01*
X78654Y57318D02*
X82590D01*
Y54694D01*
X87310Y62566D02*
X86654Y63222D01*
Y64534D01*
X87310Y65190D01*
X87966D01*
X88622Y64534D01*
Y63222D01*
X89278Y62566D01*
X89934D01*
X90590Y63222D01*
Y64534D01*
X89934Y65190D01*
X86654Y61254D02*
X90590D01*
Y59286D01*
X89934Y58630D01*
X87310D01*
X86654Y59286D01*
Y61254D01*
X90590Y57318D02*
X87966D01*
X86654Y56006D01*
X87966Y54694D01*
X90590D01*
X88622D01*
Y57318D01*
D89*
X36200Y74600D02*
X44197D01*
X41532Y77266D01*
X44197Y79932D01*
X36200D01*
X41532Y82597D02*
X37533D01*
X36200Y83930D01*
Y87929D01*
X41532D01*
X36200Y90595D02*
Y93261D01*
Y91928D01*
X44197D01*
Y90595D01*
X42865Y98592D02*
X41532D01*
Y97259D01*
Y99925D01*
Y98592D01*
X37533D01*
X36200Y99925D01*
Y103924D02*
Y106590D01*
Y105257D01*
X41532D01*
Y103924D01*
X40199Y110588D02*
Y115920D01*
X36200Y122584D02*
Y119919D01*
X37533Y118586D01*
X40199D01*
X41532Y119919D01*
Y122584D01*
X40199Y123917D01*
X38866D01*
Y118586D01*
X36200Y127916D02*
X42865D01*
X40199D01*
Y126583D01*
Y129249D01*
Y127916D01*
X42865D01*
X44197Y129249D01*
X36200Y134581D02*
X42865D01*
X40199D01*
Y133248D01*
Y135914D01*
Y134581D01*
X42865D01*
X44197Y135914D01*
X36200Y143911D02*
Y141245D01*
X37533Y139912D01*
X40199D01*
X41532Y141245D01*
Y143911D01*
X40199Y145244D01*
X38866D01*
Y139912D01*
X41532Y153241D02*
Y149242D01*
X40199Y147910D01*
X37533D01*
X36200Y149242D01*
Y153241D01*
X42865Y157240D02*
X41532D01*
Y155907D01*
Y158573D01*
Y157240D01*
X37533D01*
X36200Y158573D01*
X44197Y170569D02*
X38866D01*
X36200Y173235D01*
X38866Y175900D01*
X44197D01*
X36200Y178566D02*
Y181232D01*
Y179899D01*
X44197D01*
X42865Y178566D01*
X36200Y185231D02*
X37533D01*
Y186564D01*
X36200D01*
Y185231D01*
Y191895D02*
Y194561D01*
Y193228D01*
X44197D01*
X42865Y191895D01*
M02*
