G04*
G04 #@! TF.GenerationSoftware,Altium Limited,Altium Designer,21.9.2 (33)*
G04*
G04 Layer_Physical_Order=2*
G04 Layer_Color=36540*
%FSLAX25Y25*%
%MOIN*%
G70*
G04*
G04 #@! TF.SameCoordinates,E153DD42-8A7D-485B-B93F-EA924BBF0D18*
G04*
G04*
G04 #@! TF.FilePolarity,Positive*
G04*
G01*
G75*
%ADD84C,0.02362*%
G36*
X319691Y234432D02*
X321247Y234122D01*
X322713Y233515D01*
X324032Y232633D01*
X325154Y231511D01*
X326036Y230192D01*
X326643Y228726D01*
X326953Y227170D01*
Y226376D01*
X326953Y39368D01*
Y38582D01*
X326747Y37024D01*
X326341Y35505D01*
X325739Y34053D01*
X324953Y32691D01*
X323996Y31444D01*
X322884Y30333D01*
X321637Y29376D01*
X320276Y28590D01*
X318823Y27988D01*
X317305Y27581D01*
X315746Y27376D01*
X216141D01*
X216122Y27372D01*
X216102Y27375D01*
X215427Y27342D01*
X215369Y27327D01*
X215309D01*
X213985Y27064D01*
X213912Y27034D01*
X213834Y27018D01*
X212586Y26501D01*
X212521Y26457D01*
X212448Y26427D01*
X211325Y25677D01*
X211269Y25621D01*
X211203Y25577D01*
X210248Y24622D01*
X210204Y24556D01*
X210148Y24500D01*
X209398Y23377D01*
X209367Y23304D01*
X209323Y23238D01*
X208807Y21991D01*
X208791Y21913D01*
X208761Y21840D01*
X208497Y20515D01*
Y20456D01*
X208483Y20398D01*
X208450Y19723D01*
X208453Y19703D01*
X208449Y19683D01*
Y18305D01*
X208449Y18094D01*
X208366Y17678D01*
X208204Y17287D01*
X207969Y16935D01*
X207669Y16635D01*
X207317Y16400D01*
X206926Y16238D01*
X206511Y16156D01*
X206299D01*
X172834Y16156D01*
X172623Y16156D01*
X172207Y16238D01*
X171816Y16400D01*
X171464Y16635D01*
X171164Y16935D01*
X170929Y17287D01*
X170767Y17678D01*
X170684Y18094D01*
X170684Y19683D01*
X170680Y19703D01*
X170683Y19723D01*
X170650Y20398D01*
X170636Y20456D01*
Y20515D01*
X170372Y21840D01*
X170342Y21913D01*
X170326Y21991D01*
X169810Y23238D01*
X169766Y23304D01*
X169735Y23377D01*
X168985Y24500D01*
X168929Y24556D01*
X168885Y24622D01*
X167930Y25577D01*
X167864Y25621D01*
X167808Y25677D01*
X166685Y26427D01*
X166613Y26457D01*
X166547Y26501D01*
X165299Y27018D01*
X165221Y27034D01*
X165148Y27064D01*
X163824Y27327D01*
X163764D01*
X163706Y27342D01*
X163031Y27375D01*
X163011Y27372D01*
X162992Y27376D01*
X39370Y27376D01*
X38584D01*
X37025Y27581D01*
X35506Y27988D01*
X34054Y28590D01*
X32693Y29376D01*
X31446Y30333D01*
X30334Y31444D01*
X29377Y32691D01*
X28591Y34053D01*
X27989Y35505D01*
X27582Y37024D01*
X27377Y38582D01*
Y39368D01*
Y204723D01*
Y205509D01*
X27582Y207067D01*
X27989Y208586D01*
X28591Y210038D01*
X29377Y211400D01*
X30334Y212647D01*
X31446Y213758D01*
X32693Y214716D01*
X34054Y215502D01*
X35507Y216103D01*
X37025Y216510D01*
X38584Y216715D01*
X39370Y216715D01*
X76279Y216715D01*
X77065Y216715D01*
X78624Y216510D01*
X80142Y216103D01*
X81595Y215501D01*
X82956Y214716D01*
X84203Y213758D01*
X85315Y212647D01*
X86272Y211400D01*
X87058Y210038D01*
X87660Y208586D01*
X88066Y207067D01*
X88272Y205509D01*
X88272Y204723D01*
X88272Y196252D01*
X88275Y196233D01*
X88273Y196213D01*
X88315Y195345D01*
X88330Y195287D01*
Y195227D01*
X88669Y193524D01*
X88699Y193451D01*
X88714Y193374D01*
X89379Y191769D01*
X89423Y191703D01*
X89453Y191630D01*
X90418Y190187D01*
X90474Y190131D01*
X90517Y190065D01*
X91745Y188837D01*
X91811Y188793D01*
X91867Y188737D01*
X93311Y187773D01*
X93384Y187742D01*
X93450Y187698D01*
X95054Y187034D01*
X95132Y187018D01*
X95205Y186988D01*
X96908Y186649D01*
X96967D01*
X97025Y186635D01*
X97893Y186592D01*
X97913Y186595D01*
X97933Y186591D01*
X109153D01*
X109947Y186591D01*
X111503Y186282D01*
X112969Y185674D01*
X114288Y184793D01*
X115410Y183671D01*
X116292Y182351D01*
X116899Y180885D01*
X117209Y179329D01*
Y178536D01*
X117209Y150901D01*
X117212Y150881D01*
X117210Y150862D01*
X117252Y149993D01*
X117267Y149936D01*
Y149876D01*
X117605Y148173D01*
X117636Y148100D01*
X117651Y148022D01*
X118316Y146418D01*
X118360Y146352D01*
X118390Y146279D01*
X119355Y144835D01*
X119411Y144779D01*
X119455Y144714D01*
X120682Y143486D01*
X120748Y143442D01*
X120804Y143386D01*
X122248Y142421D01*
X122321Y142391D01*
X122387Y142347D01*
X123991Y141682D01*
X124069Y141667D01*
X124142Y141637D01*
X125845Y141298D01*
X125904D01*
X125962Y141284D01*
X126830Y141241D01*
X126850Y141244D01*
X126870Y141240D01*
X157775Y141240D01*
X157795Y141244D01*
X157815Y141241D01*
X158683Y141284D01*
X158741Y141298D01*
X158800D01*
X160503Y141637D01*
X160576Y141667D01*
X160654Y141682D01*
X162258Y142347D01*
X162324Y142391D01*
X162397Y142421D01*
X163841Y143386D01*
X163897Y143442D01*
X163962Y143486D01*
X165190Y144714D01*
X165234Y144779D01*
X165290Y144835D01*
X166255Y146279D01*
X166285Y146352D01*
X166329Y146418D01*
X166994Y148022D01*
X167009Y148100D01*
X167039Y148173D01*
X167378Y149876D01*
Y149936D01*
X167393Y149993D01*
X167435Y150862D01*
X167432Y150881D01*
X167436Y150901D01*
X167436Y178536D01*
X167436Y179329D01*
X167746Y180885D01*
X168353Y182351D01*
X169235Y183671D01*
X170357Y184793D01*
X171676Y185674D01*
X173142Y186282D01*
X174698Y186591D01*
X175492D01*
X203641Y186591D01*
X204435Y186591D01*
X205991Y186282D01*
X207457Y185674D01*
X208776Y184793D01*
X209898Y183671D01*
X210780Y182351D01*
X211387Y180885D01*
X211697Y179329D01*
Y178536D01*
X211697Y150901D01*
X211701Y150881D01*
X211698Y150862D01*
X211740Y149993D01*
X211755Y149936D01*
Y149876D01*
X212094Y148173D01*
X212124Y148100D01*
X212139Y148022D01*
X212804Y146418D01*
X212848Y146352D01*
X212878Y146279D01*
X213843Y144835D01*
X213899Y144779D01*
X213943Y144714D01*
X215171Y143486D01*
X215236Y143442D01*
X215292Y143386D01*
X216736Y142421D01*
X216809Y142391D01*
X216875Y142347D01*
X218479Y141682D01*
X218557Y141667D01*
X218630Y141637D01*
X220333Y141298D01*
X220392D01*
X220450Y141284D01*
X221319Y141241D01*
X221338Y141244D01*
X221358Y141240D01*
X252263Y141240D01*
X252283Y141244D01*
X252303Y141241D01*
X253171Y141284D01*
X253229Y141298D01*
X253288D01*
X254991Y141637D01*
X255064Y141667D01*
X255142Y141682D01*
X256746Y142347D01*
X256812Y142391D01*
X256885Y142421D01*
X258329Y143386D01*
X258385Y143442D01*
X258451Y143486D01*
X259679Y144714D01*
X259722Y144779D01*
X259778Y144835D01*
X260743Y146279D01*
X260773Y146352D01*
X260817Y146418D01*
X261482Y148022D01*
X261497Y148100D01*
X261528Y148173D01*
X261866Y149876D01*
Y149936D01*
X261881Y149993D01*
X261924Y150862D01*
X261920Y150881D01*
X261924Y150901D01*
Y174599D01*
Y175385D01*
X262130Y176943D01*
X262537Y178462D01*
X263138Y179914D01*
X263924Y181276D01*
X264881Y182523D01*
X265993Y183634D01*
X267240Y184591D01*
X268601Y185378D01*
X270054Y185979D01*
X271572Y186386D01*
X273131Y186591D01*
X281200Y186591D01*
X281220Y186595D01*
X281240Y186592D01*
X282108Y186635D01*
X282166Y186649D01*
X282225D01*
X283928Y186988D01*
X284001Y187018D01*
X284079Y187034D01*
X285683Y187698D01*
X285749Y187742D01*
X285822Y187773D01*
X287266Y188737D01*
X287322Y188793D01*
X287388Y188837D01*
X288616Y190065D01*
X288660Y190131D01*
X288715Y190187D01*
X289680Y191630D01*
X289710Y191703D01*
X289754Y191769D01*
X290419Y193374D01*
X290434Y193451D01*
X290465Y193524D01*
X290803Y195227D01*
Y195287D01*
X290818Y195345D01*
X290861Y196213D01*
X290858Y196233D01*
X290861Y196252D01*
Y226376D01*
X290861Y227170D01*
X291171Y228726D01*
X291778Y230192D01*
X292660Y231511D01*
X293782Y232633D01*
X295101Y233515D01*
X296567Y234122D01*
X298124Y234432D01*
X298917D01*
X318897Y234432D01*
X319691Y234432D01*
D02*
G37*
%LPC*%
G36*
X39874Y210644D02*
X38866D01*
X38788Y210628D01*
X38709D01*
X37720Y210432D01*
X37647Y210401D01*
X37570Y210386D01*
X36638Y210000D01*
X36572Y209956D01*
X36499Y209926D01*
X35661Y209366D01*
X35605Y209310D01*
X35539Y209266D01*
X34826Y208553D01*
X34783Y208487D01*
X34727Y208431D01*
X34166Y207593D01*
X34136Y207520D01*
X34092Y207454D01*
X33707Y206523D01*
X33691Y206445D01*
X33661Y206372D01*
X33464Y205383D01*
Y205304D01*
X33449Y205227D01*
Y204219D01*
X33464Y204141D01*
Y204062D01*
X33661Y203073D01*
X33691Y203000D01*
X33707Y202923D01*
X34092Y201991D01*
X34136Y201925D01*
X34166Y201852D01*
X34727Y201014D01*
X34783Y200958D01*
X34826Y200892D01*
X35539Y200180D01*
X35605Y200136D01*
X35661Y200080D01*
X36499Y199520D01*
X36572Y199489D01*
X36638Y199445D01*
X37570Y199060D01*
X37647Y199044D01*
X37720Y199014D01*
X38709Y198817D01*
X38788D01*
X38866Y198802D01*
X39874D01*
X39951Y198817D01*
X40030D01*
X41019Y199014D01*
X41092Y199044D01*
X41170Y199060D01*
X42101Y199445D01*
X42167Y199489D01*
X42240Y199520D01*
X43078Y200080D01*
X43134Y200136D01*
X43200Y200180D01*
X43913Y200892D01*
X43957Y200958D01*
X44013Y201014D01*
X44573Y201852D01*
X44603Y201925D01*
X44647Y201991D01*
X45033Y202923D01*
X45048Y203000D01*
X45079Y203073D01*
X45275Y204062D01*
Y204141D01*
X45291Y204219D01*
Y205227D01*
X45275Y205304D01*
Y205383D01*
X45079Y206372D01*
X45048Y206445D01*
X45033Y206523D01*
X44647Y207454D01*
X44603Y207520D01*
X44573Y207593D01*
X44013Y208431D01*
X43957Y208487D01*
X43913Y208553D01*
X43200Y209266D01*
X43134Y209310D01*
X43078Y209366D01*
X42240Y209926D01*
X42167Y209956D01*
X42101Y210000D01*
X41170Y210386D01*
X41092Y210401D01*
X41019Y210432D01*
X40030Y210628D01*
X39951D01*
X39874Y210644D01*
D02*
G37*
G36*
X196000Y176718D02*
X195266Y176572D01*
X194644Y176156D01*
X194228Y175534D01*
X194082Y174800D01*
X194228Y174066D01*
X194644Y173444D01*
X195266Y173028D01*
X196000Y172882D01*
X196734Y173028D01*
X197356Y173444D01*
X197772Y174066D01*
X197918Y174800D01*
X197772Y175534D01*
X197356Y176156D01*
X196734Y176572D01*
X196000Y176718D01*
D02*
G37*
G36*
X274421Y180520D02*
X273413D01*
X273335Y180504D01*
X273256D01*
X272267Y180307D01*
X272194Y180277D01*
X272117Y180262D01*
X271185Y179876D01*
X271120Y179832D01*
X271046Y179802D01*
X270208Y179242D01*
X270152Y179186D01*
X270087Y179142D01*
X269374Y178429D01*
X269330Y178363D01*
X269274Y178307D01*
X268714Y177469D01*
X268684Y177396D01*
X268640Y177330D01*
X268254Y176399D01*
X268238Y176321D01*
X268208Y176248D01*
X268011Y175259D01*
Y175180D01*
X267996Y175103D01*
Y174095D01*
X268011Y174017D01*
Y173938D01*
X268208Y172949D01*
X268238Y172876D01*
X268254Y172799D01*
X268640Y171867D01*
X268684Y171801D01*
X268714Y171728D01*
X269274Y170890D01*
X269330Y170834D01*
X269374Y170768D01*
X270087Y170055D01*
X270152Y170012D01*
X270208Y169956D01*
X271046Y169396D01*
X271120Y169365D01*
X271185Y169321D01*
X272117Y168936D01*
X272194Y168920D01*
X272267Y168890D01*
X273256Y168693D01*
X273335D01*
X273413Y168678D01*
X274421D01*
X274499Y168693D01*
X274578D01*
X275566Y168890D01*
X275640Y168920D01*
X275717Y168936D01*
X276648Y169321D01*
X276714Y169365D01*
X276787Y169396D01*
X277626Y169956D01*
X277681Y170012D01*
X277747Y170055D01*
X278460Y170768D01*
X278504Y170834D01*
X278560Y170890D01*
X279120Y171728D01*
X279150Y171801D01*
X279194Y171867D01*
X279580Y172799D01*
X279595Y172876D01*
X279626Y172949D01*
X279822Y173938D01*
Y174017D01*
X279838Y174095D01*
Y175103D01*
X279822Y175180D01*
Y175259D01*
X279626Y176248D01*
X279595Y176321D01*
X279580Y176399D01*
X279194Y177330D01*
X279150Y177396D01*
X279120Y177469D01*
X278560Y178307D01*
X278504Y178363D01*
X278460Y178429D01*
X277747Y179142D01*
X277681Y179186D01*
X277626Y179242D01*
X276787Y179802D01*
X276714Y179832D01*
X276648Y179876D01*
X275717Y180262D01*
X275640Y180277D01*
X275566Y180307D01*
X274578Y180504D01*
X274499D01*
X274421Y180520D01*
D02*
G37*
G36*
X82400Y164118D02*
X81666Y163972D01*
X81044Y163556D01*
X80628Y162934D01*
X80482Y162200D01*
X80628Y161466D01*
X81044Y160844D01*
X81666Y160428D01*
X82400Y160282D01*
X83134Y160428D01*
X83756Y160844D01*
X84172Y161466D01*
X84318Y162200D01*
X84172Y162934D01*
X83756Y163556D01*
X83134Y163972D01*
X82400Y164118D01*
D02*
G37*
G36*
X97600Y150718D02*
X96866Y150572D01*
X96244Y150156D01*
X95828Y149534D01*
X95682Y148800D01*
X95828Y148066D01*
X96244Y147444D01*
X96866Y147028D01*
X97600Y146882D01*
X98334Y147028D01*
X98956Y147444D01*
X99372Y148066D01*
X99518Y148800D01*
X99372Y149534D01*
X98956Y150156D01*
X98334Y150572D01*
X97600Y150718D01*
D02*
G37*
G36*
X297695Y147311D02*
X296961Y147165D01*
X296339Y146749D01*
X295923Y146127D01*
X295777Y145393D01*
X295923Y144659D01*
X296339Y144037D01*
X296961Y143621D01*
X297695Y143475D01*
X298429Y143621D01*
X299051Y144037D01*
X299467Y144659D01*
X299613Y145393D01*
X299467Y146127D01*
X299051Y146749D01*
X298429Y147165D01*
X297695Y147311D01*
D02*
G37*
G36*
X313800Y138267D02*
X313066Y138121D01*
X312444Y137705D01*
X312028Y137083D01*
X311882Y136349D01*
X312028Y135615D01*
X312444Y134993D01*
X313066Y134577D01*
X313800Y134431D01*
X314534Y134577D01*
X315156Y134993D01*
X315572Y135615D01*
X315718Y136349D01*
X315572Y137083D01*
X315156Y137705D01*
X314534Y138121D01*
X313800Y138267D01*
D02*
G37*
G36*
X116000Y130718D02*
X115266Y130572D01*
X114644Y130156D01*
X114228Y129534D01*
X114082Y128800D01*
X114228Y128066D01*
X114644Y127444D01*
X115266Y127028D01*
X116000Y126882D01*
X116734Y127028D01*
X117356Y127444D01*
X117772Y128066D01*
X117918Y128800D01*
X117772Y129534D01*
X117356Y130156D01*
X116734Y130572D01*
X116000Y130718D01*
D02*
G37*
G36*
X58526Y123518D02*
X57792Y123372D01*
X57170Y122956D01*
X56754Y122334D01*
X56608Y121600D01*
X56754Y120866D01*
X57170Y120244D01*
X57792Y119828D01*
X58526Y119682D01*
X59260Y119828D01*
X59882Y120244D01*
X60298Y120866D01*
X60444Y121600D01*
X60298Y122334D01*
X59882Y122956D01*
X59260Y123372D01*
X58526Y123518D01*
D02*
G37*
G36*
X147953Y123247D02*
X147219Y123101D01*
X146597Y122685D01*
X146181Y122063D01*
X146035Y121329D01*
X146181Y120595D01*
X146597Y119973D01*
X147219Y119557D01*
X147953Y119411D01*
X148687Y119557D01*
X149309Y119973D01*
X149725Y120595D01*
X149871Y121329D01*
X149725Y122063D01*
X149309Y122685D01*
X148687Y123101D01*
X147953Y123247D01*
D02*
G37*
G36*
X263200Y122118D02*
X262466Y121972D01*
X261844Y121556D01*
X261428Y120934D01*
X261282Y120200D01*
X261428Y119466D01*
X261844Y118844D01*
X262466Y118428D01*
X263200Y118282D01*
X263934Y118428D01*
X264556Y118844D01*
X264972Y119466D01*
X265118Y120200D01*
X264972Y120934D01*
X264556Y121556D01*
X263934Y121972D01*
X263200Y122118D01*
D02*
G37*
G36*
X278290Y120507D02*
X277556Y120361D01*
X276934Y119945D01*
X276518Y119323D01*
X276372Y118589D01*
X276518Y117855D01*
X276934Y117233D01*
X277556Y116817D01*
X278290Y116671D01*
X279024Y116817D01*
X279646Y117233D01*
X280062Y117855D01*
X280208Y118589D01*
X280062Y119323D01*
X279646Y119945D01*
X279024Y120361D01*
X278290Y120507D01*
D02*
G37*
G36*
X273290D02*
X272556Y120361D01*
X271934Y119945D01*
X271518Y119323D01*
X271372Y118589D01*
X271518Y117855D01*
X271934Y117233D01*
X272556Y116817D01*
X273290Y116671D01*
X274024Y116817D01*
X274646Y117233D01*
X275062Y117855D01*
X275208Y118589D01*
X275062Y119323D01*
X274646Y119945D01*
X274024Y120361D01*
X273290Y120507D01*
D02*
G37*
G36*
X297356Y105253D02*
Y103881D01*
X298728D01*
X298645Y104298D01*
X298295Y104821D01*
X297772Y105171D01*
X297356Y105253D01*
D02*
G37*
G36*
X296955D02*
X296539Y105171D01*
X296016Y104821D01*
X295666Y104298D01*
X295583Y103881D01*
X296955D01*
Y105253D01*
D02*
G37*
G36*
X290131D02*
Y103881D01*
X291503D01*
X291421Y104298D01*
X291071Y104821D01*
X290548Y105171D01*
X290131Y105253D01*
D02*
G37*
G36*
X289731D02*
X289314Y105171D01*
X288791Y104821D01*
X288442Y104298D01*
X288359Y103881D01*
X289731D01*
Y105253D01*
D02*
G37*
G36*
X298728Y103481D02*
X297356D01*
Y102109D01*
X297772Y102192D01*
X298295Y102541D01*
X298645Y103064D01*
X298728Y103481D01*
D02*
G37*
G36*
X291503Y103481D02*
X290131D01*
Y102109D01*
X290548Y102192D01*
X291071Y102541D01*
X291421Y103064D01*
X291503Y103481D01*
D02*
G37*
G36*
X289731D02*
X288359D01*
X288442Y103064D01*
X288791Y102541D01*
X289314Y102192D01*
X289731Y102109D01*
Y103481D01*
D02*
G37*
G36*
X296955Y103481D02*
X295583D01*
X295666Y103064D01*
X296016Y102541D01*
X296539Y102192D01*
X296955Y102109D01*
Y103481D01*
D02*
G37*
G36*
X300968Y101641D02*
Y100269D01*
X302340D01*
X302257Y100686D01*
X301908Y101209D01*
X301385Y101558D01*
X300968Y101641D01*
D02*
G37*
G36*
X300568D02*
X300151Y101558D01*
X299628Y101209D01*
X299278Y100686D01*
X299195Y100269D01*
X300568D01*
Y101641D01*
D02*
G37*
G36*
X293743D02*
Y100269D01*
X295116D01*
X295033Y100686D01*
X294683Y101209D01*
X294160Y101558D01*
X293743Y101641D01*
D02*
G37*
G36*
X293343D02*
X292926Y101558D01*
X292403Y101209D01*
X292054Y100686D01*
X291971Y100269D01*
X293343D01*
Y101641D01*
D02*
G37*
G36*
X286519D02*
Y100269D01*
X287891D01*
X287808Y100686D01*
X287459Y101209D01*
X286936Y101558D01*
X286519Y101641D01*
D02*
G37*
G36*
X286119D02*
X285702Y101558D01*
X285179Y101209D01*
X284829Y100686D01*
X284747Y100269D01*
X286119D01*
Y101641D01*
D02*
G37*
G36*
X268600Y102718D02*
X267866Y102572D01*
X267244Y102156D01*
X266828Y101534D01*
X266682Y100800D01*
X266828Y100066D01*
X267244Y99444D01*
X267866Y99028D01*
X268600Y98882D01*
X269334Y99028D01*
X269956Y99444D01*
X270372Y100066D01*
X270518Y100800D01*
X270372Y101534D01*
X269956Y102156D01*
X269334Y102572D01*
X268600Y102718D01*
D02*
G37*
G36*
X302340Y99869D02*
X300968D01*
Y98497D01*
X301385Y98580D01*
X301908Y98929D01*
X302257Y99452D01*
X302340Y99869D01*
D02*
G37*
G36*
X286119Y99869D02*
X284747D01*
X284829Y99452D01*
X285179Y98929D01*
X285702Y98580D01*
X286119Y98497D01*
Y99869D01*
D02*
G37*
G36*
X295116Y99869D02*
X293743D01*
Y98497D01*
X294160Y98580D01*
X294683Y98929D01*
X295033Y99452D01*
X295116Y99869D01*
D02*
G37*
G36*
X293343D02*
X291971D01*
X292054Y99452D01*
X292403Y98929D01*
X292926Y98580D01*
X293343Y98497D01*
Y99869D01*
D02*
G37*
G36*
X287891Y99869D02*
X286519D01*
Y98497D01*
X286936Y98580D01*
X287459Y98929D01*
X287808Y99452D01*
X287891Y99869D01*
D02*
G37*
G36*
X300568Y99869D02*
X299195D01*
X299278Y99452D01*
X299628Y98929D01*
X300151Y98580D01*
X300568Y98497D01*
Y99869D01*
D02*
G37*
G36*
X297356Y98029D02*
Y96657D01*
X298728D01*
X298645Y97074D01*
X298295Y97597D01*
X297772Y97946D01*
X297356Y98029D01*
D02*
G37*
G36*
X296955D02*
X296539Y97946D01*
X296016Y97597D01*
X295666Y97074D01*
X295583Y96657D01*
X296955D01*
Y98029D01*
D02*
G37*
G36*
X290131D02*
Y96657D01*
X291503D01*
X291421Y97074D01*
X291071Y97597D01*
X290548Y97946D01*
X290131Y98029D01*
D02*
G37*
G36*
X289731D02*
X289314Y97946D01*
X288791Y97597D01*
X288442Y97074D01*
X288359Y96657D01*
X289731D01*
Y98029D01*
D02*
G37*
G36*
X298728Y96257D02*
X297356D01*
Y94884D01*
X297772Y94967D01*
X298295Y95317D01*
X298645Y95840D01*
X298728Y96257D01*
D02*
G37*
G36*
X291503Y96257D02*
X290131D01*
Y94884D01*
X290548Y94967D01*
X291071Y95317D01*
X291421Y95840D01*
X291503Y96257D01*
D02*
G37*
G36*
X289731D02*
X288359D01*
X288442Y95840D01*
X288791Y95317D01*
X289314Y94967D01*
X289731Y94884D01*
Y96257D01*
D02*
G37*
G36*
X296955Y96257D02*
X295583D01*
X295666Y95840D01*
X296016Y95317D01*
X296539Y94967D01*
X296955Y94884D01*
Y96257D01*
D02*
G37*
G36*
X189600Y98318D02*
X188866Y98172D01*
X188244Y97756D01*
X187828Y97134D01*
X187682Y96400D01*
X187828Y95666D01*
X188244Y95044D01*
X188866Y94628D01*
X189600Y94482D01*
X190334Y94628D01*
X190956Y95044D01*
X191372Y95666D01*
X191518Y96400D01*
X191372Y97134D01*
X190956Y97756D01*
X190334Y98172D01*
X189600Y98318D01*
D02*
G37*
G36*
X181800Y97918D02*
X181066Y97772D01*
X180444Y97356D01*
X180028Y96734D01*
X179882Y96000D01*
X180028Y95266D01*
X180444Y94644D01*
X181066Y94228D01*
X181800Y94082D01*
X182534Y94228D01*
X183156Y94644D01*
X183572Y95266D01*
X183718Y96000D01*
X183572Y96734D01*
X183156Y97356D01*
X182534Y97772D01*
X181800Y97918D01*
D02*
G37*
G36*
X300968Y94417D02*
Y93045D01*
X302340D01*
X302257Y93461D01*
X301908Y93984D01*
X301385Y94334D01*
X300968Y94417D01*
D02*
G37*
G36*
X300568D02*
X300151Y94334D01*
X299628Y93984D01*
X299278Y93461D01*
X299195Y93045D01*
X300568D01*
Y94417D01*
D02*
G37*
G36*
X293743D02*
Y93045D01*
X295116D01*
X295033Y93461D01*
X294683Y93984D01*
X294160Y94334D01*
X293743Y94417D01*
D02*
G37*
G36*
X293343D02*
X292926Y94334D01*
X292403Y93984D01*
X292054Y93461D01*
X291971Y93045D01*
X293343D01*
Y94417D01*
D02*
G37*
G36*
X286519D02*
Y93045D01*
X287891D01*
X287808Y93461D01*
X287459Y93984D01*
X286936Y94334D01*
X286519Y94417D01*
D02*
G37*
G36*
X286119D02*
X285702Y94334D01*
X285179Y93984D01*
X284829Y93461D01*
X284747Y93045D01*
X286119D01*
Y94417D01*
D02*
G37*
G36*
X235580Y96139D02*
X234846Y95992D01*
X234224Y95577D01*
X233808Y94955D01*
X233663Y94221D01*
X233808Y93487D01*
X234224Y92864D01*
X234846Y92449D01*
X235580Y92303D01*
X236314Y92449D01*
X236937Y92864D01*
X237352Y93487D01*
X237498Y94221D01*
X237352Y94955D01*
X236937Y95577D01*
X236314Y95992D01*
X235580Y96139D01*
D02*
G37*
G36*
X302340Y92645D02*
X300968D01*
Y91272D01*
X301385Y91355D01*
X301908Y91705D01*
X302257Y92228D01*
X302340Y92645D01*
D02*
G37*
G36*
X286119Y92645D02*
X284747D01*
X284829Y92228D01*
X285179Y91705D01*
X285702Y91355D01*
X286119Y91272D01*
Y92645D01*
D02*
G37*
G36*
X295116Y92645D02*
X293743D01*
Y91272D01*
X294160Y91355D01*
X294683Y91705D01*
X295033Y92228D01*
X295116Y92645D01*
D02*
G37*
G36*
X293343D02*
X291971D01*
X292054Y92228D01*
X292403Y91705D01*
X292926Y91355D01*
X293343Y91272D01*
Y92645D01*
D02*
G37*
G36*
X287891Y92645D02*
X286519D01*
Y91272D01*
X286936Y91355D01*
X287459Y91705D01*
X287808Y92228D01*
X287891Y92645D01*
D02*
G37*
G36*
X300568Y92645D02*
X299195D01*
X299278Y92228D01*
X299628Y91705D01*
X300151Y91355D01*
X300568Y91272D01*
Y92645D01*
D02*
G37*
G36*
X297356Y90805D02*
Y89432D01*
X298728D01*
X298645Y89849D01*
X298295Y90372D01*
X297772Y90722D01*
X297356Y90805D01*
D02*
G37*
G36*
X296955D02*
X296539Y90722D01*
X296016Y90372D01*
X295666Y89849D01*
X295583Y89432D01*
X296955D01*
Y90805D01*
D02*
G37*
G36*
X290131D02*
Y89432D01*
X291503D01*
X291421Y89849D01*
X291071Y90372D01*
X290548Y90722D01*
X290131Y90805D01*
D02*
G37*
G36*
X289731D02*
X289314Y90722D01*
X288791Y90372D01*
X288442Y89849D01*
X288359Y89432D01*
X289731D01*
Y90805D01*
D02*
G37*
G36*
X48981Y91539D02*
X48246Y91392D01*
X47624Y90977D01*
X47208Y90355D01*
X47063Y89621D01*
X47208Y88887D01*
X47624Y88264D01*
X48246Y87849D01*
X48981Y87703D01*
X49714Y87849D01*
X50337Y88264D01*
X50752Y88887D01*
X50898Y89621D01*
X50752Y90355D01*
X50337Y90977D01*
X49714Y91392D01*
X48981Y91539D01*
D02*
G37*
G36*
X298728Y89032D02*
X297356D01*
Y87660D01*
X297772Y87743D01*
X298295Y88092D01*
X298645Y88615D01*
X298728Y89032D01*
D02*
G37*
G36*
X291503Y89032D02*
X290131D01*
Y87660D01*
X290548Y87743D01*
X291071Y88092D01*
X291421Y88615D01*
X291503Y89032D01*
D02*
G37*
G36*
X289731D02*
X288359D01*
X288442Y88615D01*
X288791Y88092D01*
X289314Y87743D01*
X289731Y87660D01*
Y89032D01*
D02*
G37*
G36*
X296955Y89032D02*
X295583D01*
X295666Y88615D01*
X296016Y88092D01*
X296539Y87743D01*
X296955Y87660D01*
Y89032D01*
D02*
G37*
G36*
X104600Y85918D02*
X103866Y85772D01*
X103244Y85356D01*
X102828Y84734D01*
X102682Y84000D01*
X102828Y83266D01*
X103244Y82644D01*
X103866Y82228D01*
X104600Y82082D01*
X105334Y82228D01*
X105956Y82644D01*
X106372Y83266D01*
X106518Y84000D01*
X106372Y84734D01*
X105956Y85356D01*
X105334Y85772D01*
X104600Y85918D01*
D02*
G37*
G36*
X111781Y84539D02*
X111047Y84392D01*
X110424Y83977D01*
X110009Y83355D01*
X109862Y82621D01*
X110009Y81887D01*
X110424Y81264D01*
X111047Y80849D01*
X111781Y80703D01*
X112514Y80849D01*
X113137Y81264D01*
X113552Y81887D01*
X113698Y82621D01*
X113552Y83355D01*
X113137Y83977D01*
X112514Y84392D01*
X111781Y84539D01*
D02*
G37*
G36*
X228300Y84318D02*
X227566Y84172D01*
X226944Y83756D01*
X226528Y83134D01*
X226382Y82400D01*
X226528Y81666D01*
X226944Y81044D01*
X227566Y80628D01*
X228300Y80482D01*
X229034Y80628D01*
X229656Y81044D01*
X230072Y81666D01*
X230218Y82400D01*
X230072Y83134D01*
X229656Y83756D01*
X229034Y84172D01*
X228300Y84318D01*
D02*
G37*
G36*
X242400Y83918D02*
X241666Y83772D01*
X241044Y83356D01*
X240628Y82734D01*
X240482Y82000D01*
X240628Y81266D01*
X241044Y80644D01*
X241666Y80228D01*
X242400Y80082D01*
X243134Y80228D01*
X243756Y80644D01*
X244172Y81266D01*
X244318Y82000D01*
X244172Y82734D01*
X243756Y83356D01*
X243134Y83772D01*
X242400Y83918D01*
D02*
G37*
G36*
X220400Y80918D02*
X219666Y80772D01*
X219044Y80356D01*
X218628Y79734D01*
X218482Y79000D01*
X218628Y78266D01*
X219044Y77644D01*
X219666Y77228D01*
X220400Y77082D01*
X221134Y77228D01*
X221756Y77644D01*
X222172Y78266D01*
X222318Y79000D01*
X222172Y79734D01*
X221756Y80356D01*
X221134Y80772D01*
X220400Y80918D01*
D02*
G37*
G36*
X107800Y79718D02*
X107066Y79572D01*
X106444Y79156D01*
X106028Y78534D01*
X105882Y77800D01*
X106028Y77066D01*
X106444Y76444D01*
X107066Y76028D01*
X107800Y75882D01*
X108534Y76028D01*
X109156Y76444D01*
X109572Y77066D01*
X109718Y77800D01*
X109572Y78534D01*
X109156Y79156D01*
X108534Y79572D01*
X107800Y79718D01*
D02*
G37*
G36*
X233600Y76718D02*
X232866Y76572D01*
X232244Y76156D01*
X231828Y75534D01*
X231373Y75346D01*
X231334Y75372D01*
X230600Y75518D01*
X229866Y75372D01*
X229244Y74956D01*
X228828Y74334D01*
X228682Y73600D01*
X228828Y72866D01*
X229244Y72244D01*
X229866Y71828D01*
X230600Y71682D01*
X231334Y71828D01*
X231956Y72244D01*
X232372Y72866D01*
X232827Y73054D01*
X232866Y73028D01*
X233600Y72882D01*
X234334Y73028D01*
X234956Y73444D01*
X235300Y73958D01*
X235744Y73933D01*
X235820Y73905D01*
X235828Y73866D01*
X236244Y73244D01*
X236866Y72828D01*
X237600Y72682D01*
X238334Y72828D01*
X238956Y73244D01*
X239372Y73866D01*
X239518Y74600D01*
X239372Y75334D01*
X238956Y75956D01*
X238334Y76372D01*
X237600Y76518D01*
X236866Y76372D01*
X236244Y75956D01*
X235900Y75442D01*
X235456Y75467D01*
X235380Y75495D01*
X235372Y75534D01*
X234956Y76156D01*
X234334Y76572D01*
X233600Y76718D01*
D02*
G37*
G36*
X181600Y79918D02*
X180866Y79772D01*
X180244Y79356D01*
X179828Y78734D01*
X179682Y78000D01*
X179828Y77266D01*
X180244Y76644D01*
X180250Y76640D01*
X180158Y76100D01*
X179644Y75756D01*
X179228Y75134D01*
X179082Y74400D01*
X179228Y73666D01*
X179644Y73044D01*
X180266Y72628D01*
X181000Y72482D01*
X181734Y72628D01*
X182356Y73044D01*
X182772Y73666D01*
X182918Y74400D01*
X182772Y75134D01*
X182356Y75756D01*
X182350Y75760D01*
X182442Y76300D01*
X182956Y76644D01*
X183372Y77266D01*
X183518Y78000D01*
X183372Y78734D01*
X182956Y79356D01*
X182334Y79772D01*
X181600Y79918D01*
D02*
G37*
G36*
X105395Y74937D02*
X104662Y74791D01*
X104039Y74375D01*
X103623Y73753D01*
X103478Y73019D01*
X103623Y72285D01*
X104039Y71663D01*
X104662Y71247D01*
X105395Y71101D01*
X106129Y71247D01*
X106752Y71663D01*
X107167Y72285D01*
X107313Y73019D01*
X107167Y73753D01*
X106752Y74375D01*
X106129Y74791D01*
X105395Y74937D01*
D02*
G37*
G36*
X312852Y68369D02*
X312118Y68222D01*
X311496Y67807D01*
X311080Y67185D01*
X310934Y66451D01*
X311080Y65717D01*
X311496Y65094D01*
X312118Y64679D01*
X312852Y64533D01*
X313586Y64679D01*
X314208Y65094D01*
X314624Y65717D01*
X314770Y66451D01*
X314624Y67185D01*
X314208Y67807D01*
X313586Y68222D01*
X312852Y68369D01*
D02*
G37*
G36*
X297852D02*
X297118Y68222D01*
X296496Y67807D01*
X296080Y67185D01*
X295934Y66451D01*
X296080Y65717D01*
X296496Y65094D01*
X297118Y64679D01*
X297852Y64533D01*
X298586Y64679D01*
X299208Y65094D01*
X299624Y65717D01*
X299770Y66451D01*
X299624Y67185D01*
X299208Y67807D01*
X298586Y68222D01*
X297852Y68369D01*
D02*
G37*
G36*
X287852D02*
X287118Y68222D01*
X286496Y67807D01*
X286080Y67185D01*
X285934Y66451D01*
X286080Y65717D01*
X286496Y65094D01*
X287118Y64679D01*
X287852Y64533D01*
X288586Y64679D01*
X289208Y65094D01*
X289624Y65717D01*
X289770Y66451D01*
X289624Y67185D01*
X289208Y67807D01*
X288586Y68222D01*
X287852Y68369D01*
D02*
G37*
G36*
X282852D02*
X282118Y68222D01*
X281496Y67807D01*
X281080Y67185D01*
X280934Y66451D01*
X281080Y65717D01*
X281496Y65094D01*
X282118Y64679D01*
X282852Y64533D01*
X283586Y64679D01*
X284208Y65094D01*
X284624Y65717D01*
X284770Y66451D01*
X284624Y67185D01*
X284208Y67807D01*
X283586Y68222D01*
X282852Y68369D01*
D02*
G37*
G36*
X308200Y68318D02*
X307466Y68172D01*
X306844Y67756D01*
X306428Y67134D01*
X306282Y66400D01*
X306428Y65666D01*
X306844Y65044D01*
X307466Y64628D01*
X308200Y64482D01*
X308934Y64628D01*
X309556Y65044D01*
X309972Y65666D01*
X310118Y66400D01*
X309972Y67134D01*
X309556Y67756D01*
X308934Y68172D01*
X308200Y68318D01*
D02*
G37*
G36*
X303000Y68118D02*
X302266Y67972D01*
X301644Y67556D01*
X301228Y66934D01*
X301082Y66200D01*
X301228Y65466D01*
X301644Y64844D01*
X302266Y64428D01*
X303000Y64282D01*
X303734Y64428D01*
X304356Y64844D01*
X304772Y65466D01*
X304918Y66200D01*
X304772Y66934D01*
X304356Y67556D01*
X303734Y67972D01*
X303000Y68118D01*
D02*
G37*
G36*
X105400Y68718D02*
X104666Y68572D01*
X104044Y68156D01*
X103628Y67534D01*
X103482Y66800D01*
X103628Y66066D01*
X104044Y65444D01*
X104395Y65209D01*
X104393Y64611D01*
X104039Y64375D01*
X103623Y63753D01*
X103478Y63019D01*
X103623Y62285D01*
X104039Y61663D01*
X104662Y61247D01*
X105395Y61101D01*
X106129Y61247D01*
X106752Y61663D01*
X107167Y62285D01*
X107313Y63019D01*
X107167Y63753D01*
X106752Y64375D01*
X106400Y64610D01*
X106403Y65207D01*
X106756Y65444D01*
X107172Y66066D01*
X107318Y66800D01*
X107172Y67534D01*
X106756Y68156D01*
X106134Y68572D01*
X105400Y68718D01*
D02*
G37*
G36*
X219500Y60218D02*
X218766Y60072D01*
X218144Y59656D01*
X217728Y59034D01*
X217582Y58300D01*
X217728Y57566D01*
X218144Y56944D01*
X218766Y56528D01*
X219500Y56382D01*
X220234Y56528D01*
X220856Y56944D01*
X221272Y57566D01*
X221418Y58300D01*
X221272Y59034D01*
X220856Y59656D01*
X220234Y60072D01*
X219500Y60218D01*
D02*
G37*
G36*
X202165Y60083D02*
X201431Y59936D01*
X200808Y59521D01*
X200393Y58899D01*
X200247Y58165D01*
X200393Y57431D01*
X200808Y56808D01*
X201431Y56393D01*
X202165Y56247D01*
X202899Y56393D01*
X203521Y56808D01*
X203937Y57431D01*
X204082Y58165D01*
X203937Y58899D01*
X203521Y59521D01*
X202899Y59936D01*
X202165Y60083D01*
D02*
G37*
G36*
X209600Y57518D02*
X208866Y57372D01*
X208244Y56956D01*
X207828Y56334D01*
X207682Y55600D01*
X207828Y54866D01*
X208244Y54244D01*
X208866Y53828D01*
X209600Y53682D01*
X210334Y53828D01*
X210956Y54244D01*
X211372Y54866D01*
X211518Y55600D01*
X211372Y56334D01*
X210956Y56956D01*
X210334Y57372D01*
X209600Y57518D01*
D02*
G37*
G36*
X105395Y59937D02*
X104662Y59791D01*
X104039Y59375D01*
X103623Y58753D01*
X103478Y58019D01*
X103623Y57285D01*
X104039Y56663D01*
X104577Y56304D01*
X104575Y55955D01*
X104524Y55783D01*
X104466Y55772D01*
X103844Y55356D01*
X103428Y54734D01*
X103282Y54000D01*
X103428Y53266D01*
X103844Y52644D01*
X104466Y52228D01*
X105200Y52082D01*
X105934Y52228D01*
X106556Y52644D01*
X106972Y53266D01*
X107118Y54000D01*
X106972Y54734D01*
X106556Y55356D01*
X106019Y55715D01*
X106021Y56064D01*
X106072Y56235D01*
X106129Y56247D01*
X106752Y56663D01*
X107167Y57285D01*
X107313Y58019D01*
X107167Y58753D01*
X106752Y59375D01*
X106129Y59791D01*
X105395Y59937D01*
D02*
G37*
G36*
X300600Y53718D02*
X299866Y53572D01*
X299244Y53156D01*
X298828Y52534D01*
X298682Y51800D01*
X298828Y51066D01*
X299244Y50444D01*
X299866Y50028D01*
X300600Y49882D01*
X301334Y50028D01*
X301956Y50444D01*
X302372Y51066D01*
X302518Y51800D01*
X302372Y52534D01*
X301956Y53156D01*
X301334Y53572D01*
X300600Y53718D01*
D02*
G37*
G36*
X272581Y53539D02*
X271847Y53392D01*
X271224Y52977D01*
X270809Y52355D01*
X270662Y51621D01*
X270809Y50887D01*
X271224Y50264D01*
X271847Y49849D01*
X272581Y49703D01*
X273314Y49849D01*
X273937Y50264D01*
X274352Y50887D01*
X274498Y51621D01*
X274352Y52355D01*
X273937Y52977D01*
X273314Y53392D01*
X272581Y53539D01*
D02*
G37*
G36*
X250880Y51865D02*
X250146Y51719D01*
X249523Y51303D01*
X249108Y50681D01*
X248962Y49947D01*
X249108Y49213D01*
X249523Y48590D01*
X250146Y48175D01*
X250880Y48029D01*
X251613Y48175D01*
X252236Y48590D01*
X252652Y49213D01*
X252798Y49947D01*
X252652Y50681D01*
X252236Y51303D01*
X251613Y51719D01*
X250880Y51865D01*
D02*
G37*
G36*
X218600Y50918D02*
X217866Y50772D01*
X217244Y50356D01*
X216828Y49734D01*
X216682Y49000D01*
X216828Y48266D01*
X217244Y47644D01*
X217866Y47228D01*
X218600Y47082D01*
X219334Y47228D01*
X219956Y47644D01*
X220372Y48266D01*
X220518Y49000D01*
X220372Y49734D01*
X219956Y50356D01*
X219334Y50772D01*
X218600Y50918D01*
D02*
G37*
G36*
X227181Y49738D02*
X226447Y49593D01*
X225824Y49177D01*
X225409Y48555D01*
X225262Y47821D01*
X225409Y47087D01*
X225824Y46464D01*
X226447Y46049D01*
X227181Y45903D01*
X227914Y46049D01*
X228537Y46464D01*
X228952Y47087D01*
X229098Y47821D01*
X228952Y48555D01*
X228537Y49177D01*
X227914Y49593D01*
X227181Y49738D01*
D02*
G37*
G36*
X68207Y49534D02*
X67473Y49389D01*
X66851Y48973D01*
X66435Y48351D01*
X66289Y47617D01*
X66435Y46883D01*
X66851Y46260D01*
X67473Y45845D01*
X68207Y45699D01*
X68941Y45845D01*
X69563Y46260D01*
X69979Y46883D01*
X70125Y47617D01*
X69979Y48351D01*
X69563Y48973D01*
X68941Y49389D01*
X68207Y49534D01*
D02*
G37*
G36*
X105400Y48318D02*
X104666Y48172D01*
X104044Y47756D01*
X103628Y47134D01*
X103482Y46400D01*
X103628Y45666D01*
X104044Y45044D01*
X104666Y44628D01*
X105400Y44482D01*
X106134Y44628D01*
X106756Y45044D01*
X107172Y45666D01*
X107318Y46400D01*
X107172Y47134D01*
X106756Y47756D01*
X106134Y48172D01*
X105400Y48318D01*
D02*
G37*
G36*
X121981Y47539D02*
X121247Y47392D01*
X120624Y46977D01*
X120209Y46355D01*
X120062Y45621D01*
X120209Y44887D01*
X120624Y44264D01*
X121247Y43849D01*
X121981Y43703D01*
X122714Y43849D01*
X123337Y44264D01*
X123752Y44887D01*
X123898Y45621D01*
X123752Y46355D01*
X123337Y46977D01*
X122714Y47392D01*
X121981Y47539D01*
D02*
G37*
G36*
X116181Y45338D02*
X115446Y45193D01*
X114824Y44777D01*
X114409Y44155D01*
X114262Y43421D01*
X114409Y42687D01*
X114824Y42064D01*
X115446Y41649D01*
X116181Y41503D01*
X116914Y41649D01*
X117537Y42064D01*
X117952Y42687D01*
X118098Y43421D01*
X117952Y44155D01*
X117537Y44777D01*
X116914Y45193D01*
X116181Y45338D01*
D02*
G37*
G36*
X73600Y40918D02*
X72866Y40772D01*
X72244Y40356D01*
X71828Y39734D01*
X71682Y39000D01*
X71828Y38266D01*
X72244Y37644D01*
X72866Y37228D01*
X73600Y37082D01*
X74334Y37228D01*
X74956Y37644D01*
X75372Y38266D01*
X75518Y39000D01*
X75372Y39734D01*
X74956Y40356D01*
X74334Y40772D01*
X73600Y40918D01*
D02*
G37*
G36*
X296400Y39518D02*
X295666Y39372D01*
X295044Y38956D01*
X294628Y38334D01*
X294482Y37600D01*
X294628Y36866D01*
X295044Y36244D01*
X295666Y35828D01*
X296400Y35682D01*
X297134Y35828D01*
X297756Y36244D01*
X298172Y36866D01*
X298318Y37600D01*
X298172Y38334D01*
X297756Y38956D01*
X297134Y39372D01*
X296400Y39518D01*
D02*
G37*
G36*
X147200Y39118D02*
X146466Y38972D01*
X145844Y38556D01*
X145428Y37934D01*
X145282Y37200D01*
X145428Y36466D01*
X145844Y35844D01*
X146466Y35428D01*
X147200Y35282D01*
X147934Y35428D01*
X148556Y35844D01*
X148972Y36466D01*
X149118Y37200D01*
X148972Y37934D01*
X148556Y38556D01*
X147934Y38972D01*
X147200Y39118D01*
D02*
G37*
G36*
X315464Y45289D02*
X314456D01*
X314379Y45274D01*
X314300D01*
X313311Y45077D01*
X313238Y45047D01*
X313160Y45032D01*
X312229Y44646D01*
X312163Y44602D01*
X312090Y44572D01*
X311252Y44012D01*
X311196Y43956D01*
X311130Y43912D01*
X310417Y43199D01*
X310373Y43133D01*
X310317Y43077D01*
X309757Y42239D01*
X309727Y42166D01*
X309683Y42100D01*
X309297Y41169D01*
X309282Y41091D01*
X309251Y41018D01*
X309055Y40029D01*
Y39950D01*
X309039Y39873D01*
Y38864D01*
X309055Y38787D01*
Y38708D01*
X309251Y37719D01*
X309282Y37646D01*
X309297Y37568D01*
X309683Y36637D01*
X309727Y36571D01*
X309757Y36498D01*
X310317Y35660D01*
X310373Y35604D01*
X310417Y35538D01*
X311130Y34825D01*
X311196Y34781D01*
X311252Y34725D01*
X312090Y34165D01*
X312163Y34135D01*
X312229Y34091D01*
X313160Y33705D01*
X313238Y33690D01*
X313311Y33660D01*
X314300Y33463D01*
X314379D01*
X314456Y33448D01*
X315464D01*
X315542Y33463D01*
X315621D01*
X316610Y33660D01*
X316683Y33690D01*
X316760Y33705D01*
X317692Y34091D01*
X317758Y34135D01*
X317831Y34165D01*
X318669Y34725D01*
X318725Y34781D01*
X318791Y34825D01*
X319503Y35538D01*
X319547Y35604D01*
X319603Y35660D01*
X320163Y36498D01*
X320194Y36571D01*
X320238Y36637D01*
X320623Y37568D01*
X320639Y37646D01*
X320669Y37719D01*
X320866Y38708D01*
Y38787D01*
X320881Y38864D01*
Y39873D01*
X320866Y39950D01*
Y40029D01*
X320669Y41018D01*
X320639Y41091D01*
X320623Y41169D01*
X320238Y42100D01*
X320194Y42166D01*
X320163Y42239D01*
X319603Y43077D01*
X319547Y43133D01*
X319503Y43199D01*
X318791Y43912D01*
X318725Y43956D01*
X318669Y44012D01*
X317831Y44572D01*
X317758Y44602D01*
X317692Y44646D01*
X316760Y45032D01*
X316683Y45047D01*
X316610Y45077D01*
X315621Y45274D01*
X315542D01*
X315464Y45289D01*
D02*
G37*
G36*
X39874D02*
X38866D01*
X38788Y45274D01*
X38709D01*
X37720Y45077D01*
X37647Y45047D01*
X37570Y45032D01*
X36638Y44646D01*
X36572Y44602D01*
X36499Y44572D01*
X35661Y44012D01*
X35605Y43956D01*
X35539Y43912D01*
X34826Y43199D01*
X34783Y43133D01*
X34727Y43077D01*
X34166Y42239D01*
X34136Y42166D01*
X34092Y42100D01*
X33707Y41169D01*
X33691Y41091D01*
X33661Y41018D01*
X33464Y40029D01*
Y39950D01*
X33449Y39873D01*
Y38864D01*
X33464Y38787D01*
Y38708D01*
X33661Y37719D01*
X33691Y37646D01*
X33707Y37568D01*
X34092Y36637D01*
X34136Y36571D01*
X34166Y36498D01*
X34727Y35660D01*
X34783Y35604D01*
X34826Y35538D01*
X35539Y34825D01*
X35605Y34781D01*
X35661Y34725D01*
X36499Y34165D01*
X36572Y34135D01*
X36638Y34091D01*
X37570Y33705D01*
X37647Y33690D01*
X37720Y33660D01*
X38709Y33463D01*
X38788D01*
X38866Y33448D01*
X39874D01*
X39951Y33463D01*
X40030D01*
X41019Y33660D01*
X41092Y33690D01*
X41170Y33705D01*
X42101Y34091D01*
X42167Y34135D01*
X42240Y34165D01*
X43078Y34725D01*
X43134Y34781D01*
X43200Y34825D01*
X43913Y35538D01*
X43957Y35604D01*
X44013Y35660D01*
X44573Y36498D01*
X44603Y36571D01*
X44647Y36637D01*
X45033Y37568D01*
X45048Y37646D01*
X45079Y37719D01*
X45275Y38708D01*
Y38787D01*
X45291Y38864D01*
Y39873D01*
X45275Y39950D01*
Y40029D01*
X45079Y41018D01*
X45048Y41091D01*
X45033Y41169D01*
X44647Y42100D01*
X44603Y42166D01*
X44573Y42239D01*
X44013Y43077D01*
X43957Y43133D01*
X43913Y43199D01*
X43200Y43912D01*
X43134Y43956D01*
X43078Y44012D01*
X42240Y44572D01*
X42167Y44602D01*
X42101Y44646D01*
X41170Y45032D01*
X41092Y45047D01*
X41019Y45077D01*
X40030Y45274D01*
X39951D01*
X39874Y45289D01*
D02*
G37*
G36*
X100000Y39318D02*
X99266Y39172D01*
X98644Y38756D01*
X98228Y38134D01*
X98082Y37400D01*
X98228Y36666D01*
X98644Y36044D01*
X99018Y35794D01*
Y35206D01*
X98644Y34956D01*
X98228Y34334D01*
X98082Y33600D01*
X98228Y32866D01*
X98644Y32244D01*
X99266Y31828D01*
X100000Y31682D01*
X100734Y31828D01*
X101356Y32244D01*
X101772Y32866D01*
X101918Y33600D01*
X101772Y34334D01*
X101356Y34956D01*
X100982Y35206D01*
Y35794D01*
X101356Y36044D01*
X101772Y36666D01*
X101918Y37400D01*
X101772Y38134D01*
X101356Y38756D01*
X100734Y39172D01*
X100000Y39318D01*
D02*
G37*
G36*
X296200Y34518D02*
X295466Y34372D01*
X294844Y33956D01*
X294428Y33334D01*
X294282Y32600D01*
X294428Y31866D01*
X294844Y31244D01*
X295466Y30828D01*
X296200Y30682D01*
X296934Y30828D01*
X297556Y31244D01*
X297972Y31866D01*
X298118Y32600D01*
X297972Y33334D01*
X297556Y33956D01*
X296934Y34372D01*
X296200Y34518D01*
D02*
G37*
G36*
X232400Y33395D02*
X231666Y33249D01*
X231044Y32833D01*
X230628Y32211D01*
X230482Y31477D01*
X230628Y30743D01*
X231044Y30121D01*
X231666Y29705D01*
X232400Y29559D01*
X233134Y29705D01*
X233756Y30121D01*
X234172Y30743D01*
X234318Y31477D01*
X234172Y32211D01*
X233756Y32833D01*
X233134Y33249D01*
X232400Y33395D01*
D02*
G37*
G36*
X197441Y31535D02*
X196673Y31382D01*
X196022Y30947D01*
X195587Y30296D01*
X195434Y29528D01*
X195587Y28760D01*
X196022Y28108D01*
X196673Y27673D01*
X197441Y27520D01*
X198209Y27673D01*
X198860Y28108D01*
X199295Y28760D01*
X199448Y29528D01*
X199295Y30296D01*
X198860Y30947D01*
X198209Y31382D01*
X197441Y31535D01*
D02*
G37*
G36*
X181693D02*
X180925Y31382D01*
X180274Y30947D01*
X179839Y30296D01*
X179686Y29528D01*
X179839Y28760D01*
X180274Y28108D01*
X180925Y27673D01*
X181693Y27520D01*
X182461Y27673D01*
X183112Y28108D01*
X183547Y28760D01*
X183700Y29528D01*
X183547Y30296D01*
X183112Y30947D01*
X182461Y31382D01*
X181693Y31535D01*
D02*
G37*
G36*
X200689Y25054D02*
X199992Y24962D01*
X199343Y24693D01*
X198786Y24265D01*
X198358Y23708D01*
X198089Y23059D01*
X197997Y22362D01*
Y19606D01*
X198089Y18910D01*
X198358Y18260D01*
X198786Y17703D01*
X199343Y17275D01*
X199992Y17007D01*
X200689Y16915D01*
X201386Y17007D01*
X202035Y17275D01*
X202592Y17703D01*
X203020Y18260D01*
X203289Y18910D01*
X203380Y19606D01*
Y22362D01*
X203289Y23059D01*
X203020Y23708D01*
X202592Y24265D01*
X202035Y24693D01*
X201386Y24962D01*
X200689Y25054D01*
D02*
G37*
G36*
X178445D02*
X177748Y24962D01*
X177099Y24693D01*
X176542Y24265D01*
X176114Y23708D01*
X175845Y23059D01*
X175753Y22362D01*
Y19606D01*
X175845Y18910D01*
X176114Y18260D01*
X176542Y17703D01*
X177099Y17275D01*
X177748Y17007D01*
X178445Y16915D01*
X179141Y17007D01*
X179791Y17275D01*
X180348Y17703D01*
X180776Y18260D01*
X181045Y18910D01*
X181136Y19606D01*
Y22362D01*
X181045Y23059D01*
X180776Y23708D01*
X180348Y24265D01*
X179791Y24693D01*
X179141Y24962D01*
X178445Y25054D01*
D02*
G37*
%LPD*%
D84*
X300768Y100069D02*
D03*
Y92844D02*
D03*
X297155Y103681D02*
D03*
Y96457D02*
D03*
Y89232D02*
D03*
X293543Y100069D02*
D03*
Y92844D02*
D03*
X289931Y103681D02*
D03*
Y96457D02*
D03*
Y89232D02*
D03*
X286319Y100069D02*
D03*
Y92844D02*
D03*
X192866Y128169D02*
D03*
X185400Y164400D02*
D03*
X152200Y134000D02*
D03*
X170796Y131266D02*
D03*
X160797Y131806D02*
D03*
X105600Y136400D02*
D03*
X32600Y161200D02*
D03*
X88400Y139800D02*
D03*
X52000Y172000D02*
D03*
X74200Y194800D02*
D03*
X75905Y180678D02*
D03*
X323181Y66821D02*
D03*
X207036Y23676D02*
D03*
X172918Y21975D02*
D03*
X209381Y170221D02*
D03*
X99800Y166400D02*
D03*
X78180Y206621D02*
D03*
X179750Y177501D02*
D03*
X276581Y148421D02*
D03*
X320981Y221621D02*
D03*
X323688Y205096D02*
D03*
X315814Y189348D02*
D03*
X323688Y173600D02*
D03*
X315814Y157852D02*
D03*
X300066Y189348D02*
D03*
X307940Y173600D02*
D03*
X292192Y205096D02*
D03*
Y173600D02*
D03*
X268570Y157852D02*
D03*
X205578D02*
D03*
X174082D02*
D03*
Y126356D02*
D03*
Y94860D02*
D03*
X166208Y142104D02*
D03*
X158334Y94860D02*
D03*
X166208Y79112D02*
D03*
X158334Y63364D02*
D03*
X142586Y126356D02*
D03*
X118964Y110608D02*
D03*
X87468Y173600D02*
D03*
Y110608D02*
D03*
X63846Y157852D02*
D03*
X71720Y142104D02*
D03*
Y110608D02*
D03*
X63846Y31868D02*
D03*
X55972Y205096D02*
D03*
X48098Y157852D02*
D03*
Y126356D02*
D03*
Y31868D02*
D03*
X32350Y189348D02*
D03*
X40224Y173600D02*
D03*
X32350Y126356D02*
D03*
Y94860D02*
D03*
Y63364D02*
D03*
Y31868D02*
D03*
X248800Y115000D02*
D03*
X293200Y77600D02*
D03*
X246800Y93200D02*
D03*
X298495Y159793D02*
D03*
X295400Y223000D02*
D03*
X308800Y191000D02*
D03*
X299400Y119000D02*
D03*
X318000Y94800D02*
D03*
X138800Y54800D02*
D03*
X165000Y37200D02*
D03*
X54600Y60800D02*
D03*
X159800Y108600D02*
D03*
X147800Y69400D02*
D03*
X190400Y74200D02*
D03*
X214004Y102748D02*
D03*
X198864Y115894D02*
D03*
X224930Y115246D02*
D03*
X216556Y109393D02*
D03*
X264200Y108400D02*
D03*
X264000Y36000D02*
D03*
X170704Y102653D02*
D03*
X130357Y82685D02*
D03*
X144457Y97767D02*
D03*
X267462Y118848D02*
D03*
X242000Y108800D02*
D03*
X192031Y109864D02*
D03*
X202457Y102777D02*
D03*
X116386Y72272D02*
D03*
X116217Y79784D02*
D03*
X130432Y69024D02*
D03*
X99295Y43053D02*
D03*
X85052Y37062D02*
D03*
X130354Y36765D02*
D03*
X173907Y40558D02*
D03*
X150249Y45503D02*
D03*
X166066Y53060D02*
D03*
X162562Y62085D02*
D03*
X217571Y66514D02*
D03*
X266199Y70142D02*
D03*
X247818Y62104D02*
D03*
X249400Y55000D02*
D03*
X246400Y42000D02*
D03*
X202200Y47600D02*
D03*
X305038Y30341D02*
D03*
X283228Y44274D02*
D03*
X245972Y30447D02*
D03*
X213000Y50400D02*
D03*
X165669Y29451D02*
D03*
X147110Y29732D02*
D03*
X109854Y43496D02*
D03*
X85631Y30045D02*
D03*
X69068Y61267D02*
D03*
X54257Y134781D02*
D03*
X32733Y104732D02*
D03*
X143444Y106840D02*
D03*
X160886Y115577D02*
D03*
X144413Y81627D02*
D03*
X218098Y131545D02*
D03*
X303720Y133126D02*
D03*
X251600Y136000D02*
D03*
X205974Y128956D02*
D03*
X247990Y122884D02*
D03*
X229963Y135215D02*
D03*
X187200Y115200D02*
D03*
X193544Y142005D02*
D03*
X283295Y142993D02*
D03*
X317929Y110505D02*
D03*
X272800Y82800D02*
D03*
X319010Y76640D02*
D03*
X323859Y49467D02*
D03*
X278986Y31829D02*
D03*
X222763Y29738D02*
D03*
X184586Y57504D02*
D03*
X203670Y81031D02*
D03*
X185801Y89874D02*
D03*
X112000Y53800D02*
D03*
X124600Y91800D02*
D03*
X132600Y60200D02*
D03*
X53600Y75800D02*
D03*
X41200Y53600D02*
D03*
X52450Y40758D02*
D03*
X77200Y55000D02*
D03*
X85600Y72000D02*
D03*
X72400Y73400D02*
D03*
X86400Y90400D02*
D03*
X71600Y90800D02*
D03*
X318198Y149110D02*
D03*
X322998Y134310D02*
D03*
X52981Y90621D02*
D03*
X239381Y93421D02*
D03*
X227980Y89021D02*
D03*
M02*
