G04*
G04 #@! TF.GenerationSoftware,Altium Limited,Altium Designer,20.1.12 (249)*
G04*
G04 Layer_Physical_Order=1*
G04 Layer_Color=255*
%FSLAX25Y25*%
%MOIN*%
G70*
G04*
G04 #@! TF.SameCoordinates,C485F13E-52F4-4B27-BA2E-0FCDB629E99E*
G04*
G04*
G04 #@! TF.FilePolarity,Positive*
G04*
G01*
G75*
%ADD15C,0.01000*%
%ADD16C,0.00600*%
%ADD18R,0.03543X0.07874*%
%ADD19R,0.07874X0.03543*%
%ADD20R,0.05236X0.05236*%
%ADD21R,0.06299X0.12598*%
%ADD22O,0.09843X0.05906*%
%ADD23R,0.03740X0.03543*%
G04:AMPARAMS|DCode=24|XSize=10.24mil|YSize=38.19mil|CornerRadius=2.56mil|HoleSize=0mil|Usage=FLASHONLY|Rotation=270.000|XOffset=0mil|YOffset=0mil|HoleType=Round|Shape=RoundedRectangle|*
%AMROUNDEDRECTD24*
21,1,0.01024,0.03307,0,0,270.0*
21,1,0.00512,0.03819,0,0,270.0*
1,1,0.00512,-0.01654,-0.00256*
1,1,0.00512,-0.01654,0.00256*
1,1,0.00512,0.01654,0.00256*
1,1,0.00512,0.01654,-0.00256*
%
%ADD24ROUNDEDRECTD24*%
G04:AMPARAMS|DCode=25|XSize=10.24mil|YSize=38.19mil|CornerRadius=2.56mil|HoleSize=0mil|Usage=FLASHONLY|Rotation=0.000|XOffset=0mil|YOffset=0mil|HoleType=Round|Shape=RoundedRectangle|*
%AMROUNDEDRECTD25*
21,1,0.01024,0.03307,0,0,0.0*
21,1,0.00512,0.03819,0,0,0.0*
1,1,0.00512,0.00256,-0.01654*
1,1,0.00512,-0.00256,-0.01654*
1,1,0.00512,-0.00256,0.01654*
1,1,0.00512,0.00256,0.01654*
%
%ADD25ROUNDEDRECTD25*%
%ADD26R,0.12402X0.12402*%
G04:AMPARAMS|DCode=27|XSize=47.64mil|YSize=23.23mil|CornerRadius=5.81mil|HoleSize=0mil|Usage=FLASHONLY|Rotation=180.000|XOffset=0mil|YOffset=0mil|HoleType=Round|Shape=RoundedRectangle|*
%AMROUNDEDRECTD27*
21,1,0.04764,0.01161,0,0,180.0*
21,1,0.03602,0.02323,0,0,180.0*
1,1,0.01161,-0.01801,0.00581*
1,1,0.01161,0.01801,0.00581*
1,1,0.01161,0.01801,-0.00581*
1,1,0.01161,-0.01801,-0.00581*
%
%ADD27ROUNDEDRECTD27*%
G04:AMPARAMS|DCode=28|XSize=80.71mil|YSize=23.23mil|CornerRadius=2.9mil|HoleSize=0mil|Usage=FLASHONLY|Rotation=0.000|XOffset=0mil|YOffset=0mil|HoleType=Round|Shape=RoundedRectangle|*
%AMROUNDEDRECTD28*
21,1,0.08071,0.01742,0,0,0.0*
21,1,0.07490,0.02323,0,0,0.0*
1,1,0.00581,0.03745,-0.00871*
1,1,0.00581,-0.03745,-0.00871*
1,1,0.00581,-0.03745,0.00871*
1,1,0.00581,0.03745,0.00871*
%
%ADD28ROUNDEDRECTD28*%
%ADD29R,0.04921X0.03543*%
%ADD30R,0.05800X0.02200*%
%ADD31R,0.03740X0.08465*%
%ADD32R,0.12795X0.08465*%
%ADD33R,0.09055X0.03543*%
G04:AMPARAMS|DCode=34|XSize=49.61mil|YSize=23.23mil|CornerRadius=2.9mil|HoleSize=0mil|Usage=FLASHONLY|Rotation=180.000|XOffset=0mil|YOffset=0mil|HoleType=Round|Shape=RoundedRectangle|*
%AMROUNDEDRECTD34*
21,1,0.04961,0.01742,0,0,180.0*
21,1,0.04380,0.02323,0,0,180.0*
1,1,0.00581,-0.02190,0.00871*
1,1,0.00581,0.02190,0.00871*
1,1,0.00581,0.02190,-0.00871*
1,1,0.00581,-0.02190,-0.00871*
%
%ADD34ROUNDEDRECTD34*%
G04:AMPARAMS|DCode=35|XSize=38.98mil|YSize=51.18mil|CornerRadius=2.92mil|HoleSize=0mil|Usage=FLASHONLY|Rotation=180.000|XOffset=0mil|YOffset=0mil|HoleType=Round|Shape=RoundedRectangle|*
%AMROUNDEDRECTD35*
21,1,0.03898,0.04534,0,0,180.0*
21,1,0.03313,0.05118,0,0,180.0*
1,1,0.00585,-0.01657,0.02267*
1,1,0.00585,0.01657,0.02267*
1,1,0.00585,0.01657,-0.02267*
1,1,0.00585,-0.01657,-0.02267*
%
%ADD35ROUNDEDRECTD35*%
G04:AMPARAMS|DCode=36|XSize=23.23mil|YSize=51.18mil|CornerRadius=1.74mil|HoleSize=0mil|Usage=FLASHONLY|Rotation=180.000|XOffset=0mil|YOffset=0mil|HoleType=Round|Shape=RoundedRectangle|*
%AMROUNDEDRECTD36*
21,1,0.02323,0.04770,0,0,180.0*
21,1,0.01974,0.05118,0,0,180.0*
1,1,0.00348,-0.00987,0.02385*
1,1,0.00348,0.00987,0.02385*
1,1,0.00348,0.00987,-0.02385*
1,1,0.00348,-0.00987,-0.02385*
%
%ADD36ROUNDEDRECTD36*%
%ADD37R,0.03937X0.04331*%
%ADD38R,0.07165X0.04764*%
%ADD39R,0.07480X0.04331*%
%ADD40R,0.06000X0.01800*%
%ADD41R,0.01575X0.05512*%
%ADD42R,0.08268X0.06299*%
%ADD43R,0.06890X0.07480*%
%ADD74C,0.01500*%
%ADD75C,0.01200*%
%ADD76C,0.02362*%
G04:AMPARAMS|DCode=77|XSize=220.47mil|YSize=78.74mil|CornerRadius=19.68mil|HoleSize=0mil|Usage=FLASHONLY|Rotation=90.000|XOffset=0mil|YOffset=0mil|HoleType=Round|Shape=RoundedRectangle|*
%AMROUNDEDRECTD77*
21,1,0.22047,0.03937,0,0,90.0*
21,1,0.18110,0.07874,0,0,90.0*
1,1,0.03937,0.01968,0.09055*
1,1,0.03937,0.01968,-0.09055*
1,1,0.03937,-0.01968,-0.09055*
1,1,0.03937,-0.01968,0.09055*
%
%ADD77ROUNDEDRECTD77*%
%ADD78C,0.19291*%
%ADD79O,0.03937X0.06693*%
G36*
X39370Y236402D02*
X314961D01*
X315747Y236402D01*
X317305Y236197D01*
X318824Y235790D01*
X320276Y235188D01*
X321638Y234402D01*
X322885Y233445D01*
X323996Y232334D01*
X324953Y231086D01*
X325739Y229725D01*
X326341Y228273D01*
X326748Y226754D01*
X326953Y225196D01*
Y224410D01*
Y39370D01*
Y38584D01*
X326748Y37025D01*
X326341Y35507D01*
X325739Y34054D01*
X324953Y32693D01*
X323996Y31446D01*
X322885Y30334D01*
X321638Y29377D01*
X320276Y28591D01*
X318824Y27990D01*
X317305Y27583D01*
X315747Y27378D01*
X38584D01*
X37025Y27583D01*
X35507Y27990D01*
X34054Y28591D01*
X32693Y29377D01*
X31446Y30334D01*
X30334Y31446D01*
X29377Y32693D01*
X28591Y34055D01*
X27990Y35507D01*
X27583Y37025D01*
X27378Y38584D01*
Y39370D01*
Y224410D01*
Y225196D01*
X27583Y226754D01*
X27990Y228273D01*
X28591Y229725D01*
X29377Y231086D01*
X30334Y232334D01*
X31446Y233445D01*
X32693Y234402D01*
X34055Y235188D01*
X35507Y235790D01*
X37025Y236197D01*
X38584Y236402D01*
X39370Y236402D01*
D02*
G37*
%LPC*%
G36*
X210177Y233320D02*
X208408D01*
Y222050D01*
X212592D01*
Y230906D01*
X212408Y231830D01*
X211885Y232613D01*
X211101Y233137D01*
X210177Y233320D01*
D02*
G37*
G36*
X115689D02*
X113920D01*
Y222050D01*
X118104D01*
Y230906D01*
X117920Y231830D01*
X117396Y232613D01*
X116613Y233137D01*
X115689Y233320D01*
D02*
G37*
G36*
X208009D02*
X206240D01*
X205316Y233137D01*
X204532Y232613D01*
X204009Y231830D01*
X203825Y230906D01*
Y222050D01*
X208009D01*
Y233320D01*
D02*
G37*
G36*
X113520D02*
X111752D01*
X110828Y233137D01*
X110044Y232613D01*
X109521Y231830D01*
X109337Y230906D01*
Y222050D01*
X113520D01*
Y233320D01*
D02*
G37*
G36*
X314961Y234787D02*
X313337Y234659D01*
X311754Y234279D01*
X310249Y233656D01*
X308861Y232805D01*
X307623Y231748D01*
X306565Y230509D01*
X305714Y229121D01*
X305091Y227616D01*
X304711Y226033D01*
X304583Y224410D01*
X304711Y222786D01*
X305091Y221203D01*
X305714Y219698D01*
X306565Y218310D01*
X307623Y217071D01*
X308861Y216014D01*
X310249Y215163D01*
X311754Y214540D01*
X313337Y214160D01*
X314961Y214032D01*
X316584Y214160D01*
X318167Y214540D01*
X319672Y215163D01*
X321060Y216014D01*
X322299Y217071D01*
X323356Y218310D01*
X324207Y219698D01*
X324830Y221203D01*
X325210Y222786D01*
X325338Y224410D01*
X325210Y226033D01*
X324830Y227616D01*
X324207Y229121D01*
X323356Y230509D01*
X322299Y231748D01*
X321060Y232805D01*
X319672Y233656D01*
X318167Y234279D01*
X316584Y234659D01*
X314961Y234787D01*
D02*
G37*
G36*
X39370D02*
X37747Y234659D01*
X36163Y234279D01*
X34659Y233656D01*
X33270Y232805D01*
X32032Y231748D01*
X30974Y230509D01*
X30123Y229121D01*
X29500Y227616D01*
X29120Y226033D01*
X28992Y224410D01*
X29120Y222786D01*
X29500Y221203D01*
X30123Y219698D01*
X30974Y218310D01*
X32032Y217071D01*
X33270Y216014D01*
X34659Y215163D01*
X36163Y214540D01*
X37747Y214160D01*
X39370Y214032D01*
X40993Y214160D01*
X42577Y214540D01*
X44081Y215163D01*
X45470Y216014D01*
X46708Y217071D01*
X47766Y218310D01*
X48617Y219698D01*
X49240Y221203D01*
X49620Y222786D01*
X49748Y224410D01*
X49620Y226033D01*
X49240Y227616D01*
X48617Y229121D01*
X47766Y230509D01*
X46708Y231748D01*
X45470Y232805D01*
X44081Y233656D01*
X42577Y234279D01*
X40993Y234659D01*
X39370Y234787D01*
D02*
G37*
G36*
X212592Y221650D02*
X208408D01*
Y210380D01*
X210177D01*
X211101Y210564D01*
X211885Y211088D01*
X212408Y211871D01*
X212592Y212795D01*
Y221650D01*
D02*
G37*
G36*
X208009D02*
X203825D01*
Y212795D01*
X204009Y211871D01*
X204532Y211088D01*
X205316Y210564D01*
X206240Y210380D01*
X208009D01*
Y221650D01*
D02*
G37*
G36*
X118104D02*
X113920D01*
Y210380D01*
X115689D01*
X116613Y210564D01*
X117396Y211088D01*
X117920Y211871D01*
X118104Y212795D01*
Y221650D01*
D02*
G37*
G36*
X113520D02*
X109337D01*
Y212795D01*
X109521Y211871D01*
X110044Y211088D01*
X110828Y210564D01*
X111752Y210380D01*
X113520D01*
Y221650D01*
D02*
G37*
G36*
X274075Y233597D02*
X270138D01*
X269441Y233505D01*
X268792Y233236D01*
X268235Y232809D01*
X267807Y232251D01*
X267538Y231602D01*
X267446Y230906D01*
Y212795D01*
X267538Y212099D01*
X267807Y211450D01*
X268235Y210892D01*
X268792Y210464D01*
X269441Y210195D01*
X270138Y210104D01*
X274075D01*
X274772Y210195D01*
X275421Y210464D01*
X275978Y210892D01*
X276406Y211450D01*
X276675Y212099D01*
X276766Y212795D01*
Y230906D01*
X276675Y231602D01*
X276406Y232251D01*
X275978Y232809D01*
X275421Y233236D01*
X274772Y233505D01*
X274075Y233597D01*
D02*
G37*
G36*
X179587D02*
X175650D01*
X174953Y233505D01*
X174304Y233236D01*
X173747Y232809D01*
X173319Y232251D01*
X173050Y231602D01*
X172958Y230906D01*
Y212795D01*
X173050Y212099D01*
X173319Y211450D01*
X173747Y210892D01*
X174304Y210464D01*
X174953Y210195D01*
X175650Y210104D01*
X179587D01*
X180283Y210195D01*
X180933Y210464D01*
X181490Y210892D01*
X181918Y211450D01*
X182187Y212099D01*
X182278Y212795D01*
Y230906D01*
X182187Y231602D01*
X181918Y232251D01*
X181490Y232809D01*
X180933Y233236D01*
X180283Y233505D01*
X179587Y233597D01*
D02*
G37*
G36*
X51600Y195118D02*
X50866Y194972D01*
X50244Y194556D01*
X49828Y193934D01*
X49682Y193200D01*
X49828Y192466D01*
X50244Y191844D01*
X50376Y191755D01*
Y190991D01*
X47317D01*
Y186924D01*
X44670D01*
Y188172D01*
X39530D01*
Y183228D01*
X44670D01*
Y184476D01*
X48191D01*
X48659Y184570D01*
X49044Y184827D01*
X55883D01*
Y190991D01*
X52824D01*
Y191755D01*
X52956Y191844D01*
X53372Y192466D01*
X53518Y193200D01*
X53372Y193934D01*
X52956Y194556D01*
X52334Y194972D01*
X51600Y195118D01*
D02*
G37*
G36*
X179587Y208597D02*
X175650D01*
X174953Y208505D01*
X174304Y208236D01*
X173747Y207809D01*
X173319Y207251D01*
X173050Y206602D01*
X172958Y205906D01*
Y187795D01*
X173050Y187099D01*
X173319Y186450D01*
X173492Y186223D01*
X173246Y185723D01*
X118093D01*
X117846Y186223D01*
X118020Y186450D01*
X118289Y187099D01*
X118380Y187795D01*
Y205906D01*
X118289Y206602D01*
X118020Y207251D01*
X117592Y207809D01*
X117035Y208236D01*
X116385Y208505D01*
X115689Y208597D01*
X111752D01*
X111055Y208505D01*
X110406Y208236D01*
X109849Y207809D01*
X109421Y207251D01*
X109152Y206602D01*
X109060Y205906D01*
Y187795D01*
X109152Y187099D01*
X109421Y186450D01*
X109594Y186223D01*
X109348Y185723D01*
X92658D01*
X92465Y185916D01*
X92068Y186182D01*
X91600Y186275D01*
X90170D01*
Y187523D01*
X85030D01*
Y186275D01*
X82828D01*
Y189787D01*
X72372D01*
Y184843D01*
X80715D01*
X80762Y184772D01*
X81348Y184186D01*
X81745Y183921D01*
X82213Y183828D01*
X85030D01*
Y182580D01*
X90170D01*
Y183828D01*
X91093D01*
X91286Y183635D01*
X91683Y183370D01*
X92151Y183276D01*
X109637D01*
X109798Y182920D01*
X109824Y182776D01*
X109421Y182251D01*
X109152Y181602D01*
X109060Y180905D01*
Y175297D01*
X105415D01*
X105159Y175916D01*
X104574Y176679D01*
X103811Y177265D01*
X102922Y177633D01*
X101969Y177758D01*
X98032D01*
X97078Y177633D01*
X96189Y177265D01*
X95426Y176679D01*
X94841Y175916D01*
X94473Y175028D01*
X94347Y174074D01*
X94473Y173120D01*
X94841Y172232D01*
X95426Y171469D01*
X96189Y170883D01*
X97078Y170515D01*
X98032Y170390D01*
X101969D01*
X102922Y170515D01*
X103811Y170883D01*
X104574Y171469D01*
X105159Y172232D01*
X105415Y172851D01*
X109060D01*
Y162795D01*
X109152Y162099D01*
X109421Y161450D01*
X109849Y160892D01*
X110406Y160464D01*
X111055Y160196D01*
X111752Y160104D01*
X115689D01*
X116385Y160196D01*
X117035Y160464D01*
X117592Y160892D01*
X118020Y161450D01*
X118289Y162099D01*
X118380Y162795D01*
Y180905D01*
X118289Y181602D01*
X118020Y182251D01*
X117617Y182776D01*
X117642Y182920D01*
X117804Y183276D01*
X173535D01*
X173696Y182920D01*
X173722Y182776D01*
X173319Y182251D01*
X173050Y181602D01*
X172958Y180905D01*
Y162795D01*
X173050Y162099D01*
X173319Y161450D01*
X173747Y160892D01*
X174304Y160464D01*
X174953Y160196D01*
X175650Y160104D01*
X179587D01*
X180283Y160196D01*
X180933Y160464D01*
X181490Y160892D01*
X181918Y161450D01*
X182187Y162099D01*
X182278Y162795D01*
Y180905D01*
X182187Y181602D01*
X181918Y182251D01*
X181515Y182776D01*
X181540Y182920D01*
X181702Y183276D01*
X201993D01*
X203648Y181622D01*
X203640Y181602D01*
X203548Y180905D01*
Y174898D01*
X199615D01*
X199359Y175516D01*
X198774Y176279D01*
X198011Y176865D01*
X197122Y177233D01*
X196168Y177358D01*
X192232D01*
X191278Y177233D01*
X190389Y176865D01*
X189626Y176279D01*
X189041Y175516D01*
X188673Y174628D01*
X188547Y173674D01*
X188673Y172721D01*
X189041Y171832D01*
X189626Y171069D01*
X190389Y170483D01*
X191278Y170115D01*
X192232Y169990D01*
X196168D01*
X197122Y170115D01*
X198011Y170483D01*
X198774Y171069D01*
X199359Y171832D01*
X199615Y172450D01*
X203548D01*
Y162795D01*
X203640Y162099D01*
X203909Y161450D01*
X204337Y160892D01*
X204894Y160464D01*
X205543Y160196D01*
X206240Y160104D01*
X210177D01*
X210874Y160196D01*
X211523Y160464D01*
X212080Y160892D01*
X212508Y161450D01*
X212777Y162099D01*
X212868Y162795D01*
Y180905D01*
X212777Y181602D01*
X212508Y182251D01*
X212080Y182809D01*
X211523Y183236D01*
X210874Y183505D01*
X210177Y183597D01*
X206240D01*
X205543Y183505D01*
X205318Y183412D01*
X203365Y185365D01*
X202968Y185630D01*
X202500Y185723D01*
X181991D01*
X181744Y186223D01*
X181918Y186450D01*
X182187Y187099D01*
X182278Y187795D01*
Y205906D01*
X182187Y206602D01*
X181918Y207251D01*
X181490Y207809D01*
X180933Y208236D01*
X180283Y208505D01*
X179587Y208597D01*
D02*
G37*
G36*
X274075D02*
X270138D01*
X269441Y208505D01*
X268792Y208236D01*
X268235Y207809D01*
X267807Y207251D01*
X267538Y206602D01*
X267446Y205906D01*
Y187795D01*
X267538Y187099D01*
X267807Y186450D01*
X268235Y185892D01*
X268792Y185464D01*
X269441Y185196D01*
X270138Y185104D01*
X274075D01*
X274772Y185196D01*
X275421Y185464D01*
X275978Y185892D01*
X276406Y186450D01*
X276675Y187099D01*
X276766Y187795D01*
Y205906D01*
X276675Y206602D01*
X276406Y207251D01*
X275978Y207809D01*
X275421Y208236D01*
X274772Y208505D01*
X274075Y208597D01*
D02*
G37*
G36*
X210177D02*
X206240D01*
X205543Y208505D01*
X204894Y208236D01*
X204337Y207809D01*
X203909Y207251D01*
X203640Y206602D01*
X203548Y205906D01*
Y187795D01*
X203640Y187099D01*
X203909Y186450D01*
X204337Y185892D01*
X204894Y185464D01*
X205543Y185196D01*
X206240Y185104D01*
X210177D01*
X210874Y185196D01*
X211523Y185464D01*
X212080Y185892D01*
X212508Y186450D01*
X212777Y187099D01*
X212868Y187795D01*
Y205906D01*
X212777Y206602D01*
X212508Y207251D01*
X212080Y207809D01*
X211523Y208236D01*
X210874Y208505D01*
X210177Y208597D01*
D02*
G37*
G36*
X44370Y181769D02*
X42300D01*
Y179798D01*
X44370D01*
Y181769D01*
D02*
G37*
G36*
X41900D02*
X39830D01*
Y179798D01*
X41900D01*
Y181769D01*
D02*
G37*
G36*
X89870Y181121D02*
X87800D01*
Y179149D01*
X89870D01*
Y181121D01*
D02*
G37*
G36*
X87400D02*
X85330D01*
Y179149D01*
X87400D01*
Y181121D01*
D02*
G37*
G36*
X44370Y179398D02*
X42300D01*
Y177426D01*
X44370D01*
Y179398D01*
D02*
G37*
G36*
X41900D02*
X39830D01*
Y177426D01*
X41900D01*
Y179398D01*
D02*
G37*
G36*
X89870Y178749D02*
X87800D01*
Y176777D01*
X89870D01*
Y178749D01*
D02*
G37*
G36*
X87400D02*
X85330D01*
Y176777D01*
X87400D01*
Y178749D01*
D02*
G37*
G36*
X81270Y170723D02*
X79200D01*
Y168751D01*
X81270D01*
Y170723D01*
D02*
G37*
G36*
X78800D02*
X76730D01*
Y168751D01*
X78800D01*
Y170723D01*
D02*
G37*
G36*
X101969Y169582D02*
X100200D01*
Y166400D01*
X105324D01*
X105235Y167075D01*
X104897Y167891D01*
X104360Y168591D01*
X103659Y169129D01*
X102844Y169466D01*
X101969Y169582D01*
D02*
G37*
G36*
X99800D02*
X98032D01*
X97156Y169466D01*
X96341Y169129D01*
X95640Y168591D01*
X95103Y167891D01*
X94765Y167075D01*
X94676Y166400D01*
X99800D01*
Y169582D01*
D02*
G37*
G36*
X81270Y168351D02*
X79200D01*
Y166379D01*
X81270D01*
Y168351D01*
D02*
G37*
G36*
X78800D02*
X76730D01*
Y166379D01*
X78800D01*
Y168351D01*
D02*
G37*
G36*
X55883Y179573D02*
X47317D01*
Y173409D01*
X51376D01*
Y171223D01*
X50030D01*
Y166279D01*
X55170D01*
Y171223D01*
X53824D01*
Y173409D01*
X55883D01*
Y179573D01*
D02*
G37*
G36*
X82828Y179157D02*
X72372D01*
Y174213D01*
X73364D01*
X73571Y173713D01*
X70881Y171023D01*
X67930D01*
Y166079D01*
X73070D01*
Y169030D01*
X76536Y172497D01*
X76857Y172976D01*
X76969Y173542D01*
Y174213D01*
X82828D01*
Y179157D01*
D02*
G37*
G36*
X196168Y169182D02*
X194400D01*
Y166000D01*
X199524D01*
X199435Y166675D01*
X199097Y167491D01*
X198560Y168191D01*
X197859Y168729D01*
X197044Y169067D01*
X196168Y169182D01*
D02*
G37*
G36*
X194000D02*
X192232D01*
X191356Y169067D01*
X190541Y168729D01*
X189840Y168191D01*
X189303Y167491D01*
X188965Y166675D01*
X188876Y166000D01*
X194000D01*
Y169182D01*
D02*
G37*
G36*
X105324Y166000D02*
X100200D01*
Y162818D01*
X101969D01*
X102844Y162934D01*
X103659Y163271D01*
X104360Y163809D01*
X104897Y164509D01*
X105235Y165325D01*
X105324Y166000D01*
D02*
G37*
G36*
X99800D02*
X94676D01*
X94765Y165325D01*
X95103Y164509D01*
X95640Y163809D01*
X96341Y163271D01*
X97156Y162934D01*
X98032Y162818D01*
X99800D01*
Y166000D01*
D02*
G37*
G36*
X199524Y165600D02*
X194400D01*
Y162418D01*
X196168D01*
X197044Y162533D01*
X197859Y162871D01*
X198560Y163409D01*
X199097Y164109D01*
X199435Y164925D01*
X199524Y165600D01*
D02*
G37*
G36*
X194000D02*
X188876D01*
X188965Y164925D01*
X189303Y164109D01*
X189840Y163409D01*
X190541Y162871D01*
X191356Y162533D01*
X192232Y162418D01*
X194000D01*
Y165600D01*
D02*
G37*
G36*
X274075Y183597D02*
X270138D01*
X269441Y183505D01*
X268792Y183236D01*
X268235Y182809D01*
X267807Y182251D01*
X267538Y181602D01*
X267446Y180905D01*
Y162795D01*
X267538Y162099D01*
X267807Y161450D01*
X268235Y160892D01*
X268792Y160464D01*
X269441Y160196D01*
X270138Y160104D01*
X274075D01*
X274772Y160196D01*
X275421Y160464D01*
X275978Y160892D01*
X276406Y161450D01*
X276675Y162099D01*
X276766Y162795D01*
Y180905D01*
X276675Y181602D01*
X276406Y182251D01*
X275978Y182809D01*
X275421Y183236D01*
X274772Y183505D01*
X274075Y183597D01*
D02*
G37*
G36*
X81570Y164920D02*
X76430D01*
Y159977D01*
X77501D01*
X77603Y159477D01*
X75693Y157567D01*
X75405Y157137D01*
X75304Y156630D01*
Y155800D01*
X73030D01*
Y152646D01*
X73030Y152408D01*
X72530Y152200D01*
X71724Y153007D01*
Y159977D01*
X73070D01*
Y164920D01*
X67930D01*
Y159977D01*
X69276D01*
Y152500D01*
X69370Y152032D01*
X69635Y151635D01*
X72535Y148735D01*
X72932Y148470D01*
X73030Y148450D01*
Y147200D01*
X75406D01*
Y145800D01*
X73030D01*
Y142200D01*
X80230D01*
Y145800D01*
X77853D01*
Y147200D01*
X80230D01*
Y150800D01*
X76148D01*
X76030Y150823D01*
X73907D01*
X73030Y151700D01*
X73237Y152200D01*
X73444Y152200D01*
X80230D01*
Y152674D01*
X85200D01*
X85707Y152775D01*
X86137Y153063D01*
X87949Y154875D01*
X105251D01*
X123475Y136651D01*
Y131526D01*
X120950D01*
Y117528D01*
X128650D01*
Y122423D01*
X129112Y122614D01*
X132675Y119051D01*
Y95523D01*
X131430D01*
Y90579D01*
X134597D01*
X135294Y89882D01*
X135103Y89420D01*
X131430D01*
Y84477D01*
X132522D01*
Y70800D01*
X132634Y70234D01*
X132955Y69755D01*
X148508Y54201D01*
X148988Y53881D01*
X149553Y53768D01*
X149950D01*
Y48074D01*
X154522D01*
Y41894D01*
X154022Y41844D01*
X153967Y42121D01*
X153684Y42544D01*
X153260Y42827D01*
X152760Y42927D01*
X149158D01*
X148658Y42827D01*
X148445Y42685D01*
X146465Y44665D01*
X146068Y44930D01*
X145600Y45024D01*
X139849D01*
X139381Y44930D01*
X138984Y44665D01*
X137141Y42823D01*
X133830D01*
Y37879D01*
X138970D01*
Y41191D01*
X140130Y42351D01*
X140630Y42144D01*
Y40551D01*
X142900D01*
Y40351D01*
X143100D01*
Y38179D01*
X144815D01*
X145064Y38179D01*
X145284Y37997D01*
X145391Y37532D01*
X145396Y37366D01*
X144774Y36744D01*
X144172D01*
X144053Y36720D01*
X140330D01*
Y31777D01*
X145470D01*
Y33025D01*
X147852D01*
Y32979D01*
X147951Y32479D01*
X148234Y32056D01*
X148658Y31773D01*
X149158Y31673D01*
X152760D01*
X153260Y31773D01*
X153684Y32056D01*
X153967Y32479D01*
X154066Y32979D01*
Y34141D01*
X153967Y34640D01*
X153684Y35064D01*
X153260Y35347D01*
X152760Y35446D01*
X149158D01*
X149147Y35444D01*
X149006Y35472D01*
X148451D01*
X148300Y35972D01*
X148737Y36264D01*
X149152Y36887D01*
X149298Y37621D01*
X149152Y38355D01*
X148929Y38689D01*
X149083Y39003D01*
X149220Y39154D01*
X152760D01*
X153260Y39253D01*
X153684Y39536D01*
X153967Y39960D01*
X154022Y40236D01*
X154522Y40187D01*
Y34479D01*
X154634Y33913D01*
X154955Y33433D01*
X155833Y32555D01*
X156313Y32234D01*
X156879Y32122D01*
X158072D01*
X158116Y32056D01*
X158540Y31773D01*
X159040Y31673D01*
X162642D01*
X163142Y31773D01*
X163566Y32056D01*
X163609Y32122D01*
X166830D01*
Y31777D01*
X171970D01*
Y32122D01*
X176400D01*
X176966Y32234D01*
X177445Y32555D01*
X178600Y33709D01*
X179100Y33502D01*
Y31024D01*
X179192Y30327D01*
X179460Y29678D01*
X179888Y29120D01*
X180446Y28693D01*
X181095Y28424D01*
X181791Y28332D01*
X182488Y28424D01*
X183137Y28693D01*
X183695Y29120D01*
X183839Y29309D01*
X184339Y29140D01*
Y28040D01*
X192629D01*
Y36920D01*
X188957D01*
X188766Y37382D01*
X188841Y37458D01*
X189161Y37937D01*
X189274Y38503D01*
Y39457D01*
X196960D01*
Y39757D01*
X197831D01*
Y42913D01*
Y46069D01*
X196960D01*
Y46369D01*
X194640D01*
X194511Y46869D01*
X199822Y52180D01*
X213400D01*
X213790Y52258D01*
X214121Y52479D01*
X217621Y55979D01*
X217842Y56310D01*
X217883Y56517D01*
X218288Y56744D01*
X218420Y56760D01*
X218766Y56528D01*
X219500Y56382D01*
X220234Y56528D01*
X220856Y56944D01*
X221445Y56925D01*
X221541Y56819D01*
Y56307D01*
X221615Y55934D01*
X221827Y55618D01*
Y55540D01*
X221615Y55223D01*
X221541Y54850D01*
Y54339D01*
X221615Y53966D01*
X221827Y53649D01*
X222143Y53438D01*
X222516Y53364D01*
X222946D01*
Y46831D01*
X223039Y46363D01*
X223304Y45966D01*
X223785Y45485D01*
X223594Y45023D01*
X222930D01*
Y43775D01*
X221148D01*
Y44932D01*
X219802D01*
Y47541D01*
X219956Y47644D01*
X220372Y48266D01*
X220518Y49000D01*
X220372Y49734D01*
X219956Y50356D01*
X219334Y50772D01*
X218600Y50918D01*
X217866Y50772D01*
X217244Y50356D01*
X216828Y49734D01*
X216682Y49000D01*
X216828Y48266D01*
X217244Y47644D01*
X217355Y47570D01*
Y44932D01*
X216008D01*
Y39989D01*
X221148D01*
Y41328D01*
X222930D01*
Y40080D01*
X228070D01*
Y45023D01*
X226804D01*
X226757Y45309D01*
X226747Y45523D01*
X227152Y45908D01*
X227181Y45903D01*
X227914Y46049D01*
X228537Y46464D01*
X228877Y46974D01*
X229431Y47127D01*
X231035Y45523D01*
X230828Y45023D01*
X229930D01*
Y40080D01*
X235070D01*
Y45023D01*
X233520D01*
Y45500D01*
X233442Y45890D01*
X233221Y46221D01*
X231401Y48041D01*
X231608Y48541D01*
X231787D01*
X232160Y48615D01*
X232477Y48827D01*
X232555D01*
X232871Y48615D01*
X233244Y48541D01*
X233756D01*
X234129Y48615D01*
X234445Y48827D01*
X234523D01*
X234840Y48615D01*
X235213Y48541D01*
X235724D01*
X236097Y48615D01*
X236414Y48827D01*
X236492D01*
X236808Y48615D01*
X237181Y48541D01*
X237693D01*
X238066Y48615D01*
X238382Y48827D01*
X238460D01*
X238777Y48615D01*
X239150Y48541D01*
X239661D01*
X240034Y48615D01*
X240351Y48827D01*
X240562Y49143D01*
X240636Y49516D01*
Y52823D01*
X240599Y53008D01*
X240614Y53039D01*
X240962Y53386D01*
X240992Y53401D01*
X241177Y53364D01*
X244484D01*
X244857Y53438D01*
X245173Y53649D01*
X245385Y53966D01*
X245459Y54339D01*
Y54850D01*
X245385Y55223D01*
X245173Y55540D01*
Y55618D01*
X245385Y55934D01*
X245459Y56307D01*
Y56819D01*
X245385Y57192D01*
X245194Y57547D01*
X245385Y57903D01*
X245459Y58276D01*
Y58787D01*
X245385Y59160D01*
X245173Y59477D01*
Y59555D01*
X245385Y59871D01*
X245459Y60244D01*
Y60756D01*
X245385Y61129D01*
X245173Y61445D01*
Y61523D01*
X245385Y61840D01*
X245459Y62213D01*
Y62724D01*
X245385Y63097D01*
X245194Y63453D01*
X245385Y63808D01*
X245459Y64181D01*
Y64693D01*
X245385Y65066D01*
X245173Y65382D01*
Y65460D01*
X245385Y65777D01*
X245459Y66150D01*
Y66661D01*
X245385Y67034D01*
X245173Y67351D01*
X244857Y67562D01*
X244484Y67636D01*
X241177D01*
X240992Y67599D01*
X240962Y67614D01*
X240614Y67962D01*
X240599Y67992D01*
X240636Y68177D01*
Y71484D01*
X240562Y71857D01*
X240351Y72173D01*
X240034Y72385D01*
X239661Y72459D01*
X239150D01*
X238777Y72385D01*
X238714Y72343D01*
X238604Y72411D01*
X238596Y73003D01*
X238956Y73244D01*
X239372Y73866D01*
X239518Y74600D01*
X239372Y75334D01*
X238956Y75956D01*
X238334Y76372D01*
X237600Y76518D01*
X236866Y76372D01*
X236244Y75956D01*
X235900Y75442D01*
X235456Y75467D01*
X235380Y75495D01*
X235372Y75534D01*
X234956Y76156D01*
X234334Y76572D01*
X233600Y76718D01*
X232866Y76572D01*
X232244Y76156D01*
X231878Y75609D01*
X231636Y75454D01*
X231471Y75386D01*
X231288Y75381D01*
X230653Y75507D01*
X230538Y75696D01*
X230433Y75995D01*
X232017Y77578D01*
X232027Y77585D01*
X232321Y77879D01*
X232542Y78210D01*
X232620Y78600D01*
Y78685D01*
X233082Y78877D01*
X234279Y77679D01*
X234610Y77458D01*
X235000Y77380D01*
X241778D01*
X246580Y72578D01*
Y66800D01*
X246658Y66410D01*
X246879Y66079D01*
X254624Y58334D01*
X254955Y58113D01*
X255345Y58035D01*
X255599D01*
Y54418D01*
X259723D01*
X259914Y53956D01*
X257079Y51121D01*
X256858Y50790D01*
X256780Y50400D01*
Y44923D01*
X255230D01*
Y40470D01*
X254730Y40263D01*
X253570Y41423D01*
Y45023D01*
X251899D01*
Y48366D01*
X252236Y48590D01*
X252652Y49213D01*
X252798Y49947D01*
X252652Y50681D01*
X252236Y51303D01*
X251613Y51719D01*
X250880Y51865D01*
X250146Y51719D01*
X249523Y51303D01*
X249108Y50681D01*
X248962Y49947D01*
X249108Y49213D01*
X249523Y48590D01*
X249860Y48366D01*
Y45023D01*
X248430D01*
Y40080D01*
X252030D01*
X252989Y39121D01*
X252782Y38620D01*
X251200D01*
Y36649D01*
X253270D01*
Y38132D01*
X253770Y38339D01*
X255010Y37099D01*
X255230Y36952D01*
Y33877D01*
X260370D01*
Y38820D01*
X256427D01*
X256328Y38840D01*
X256153D01*
X255514Y39480D01*
X255721Y39979D01*
X260370D01*
Y44923D01*
X258820D01*
Y49978D01*
X263260Y54418D01*
X265543Y54418D01*
X266042Y54418D01*
X270099D01*
X270543Y54418D01*
X271042Y54418D01*
X275099D01*
X275542Y54418D01*
X276043Y54418D01*
X280099D01*
X280542Y54418D01*
X281043Y54418D01*
X285099D01*
X285542Y54418D01*
X286042Y54418D01*
X290099D01*
X290543Y54418D01*
X291042Y54418D01*
X295099D01*
X295543Y54418D01*
X296042Y54418D01*
X300099D01*
X300542Y54418D01*
X301043Y54418D01*
X305099D01*
X305542Y54418D01*
X306043Y54418D01*
X310099D01*
X310542Y54418D01*
X311042Y54418D01*
X315099D01*
X315543Y54418D01*
X316042Y54418D01*
X320543Y54418D01*
X320918Y54718D01*
X321042Y54718D01*
X322871D01*
Y59055D01*
Y63392D01*
X321042D01*
X320918Y63392D01*
X320543Y63692D01*
X320524Y63692D01*
X316042D01*
X315599Y63692D01*
X315099Y63692D01*
X313872D01*
Y64869D01*
X314208Y65094D01*
X314624Y65717D01*
X314770Y66451D01*
X314624Y67185D01*
X314208Y67807D01*
X313586Y68222D01*
X312852Y68369D01*
X312118Y68222D01*
X311496Y67807D01*
X311080Y67185D01*
X310934Y66451D01*
X311080Y65717D01*
X311496Y65094D01*
X311832Y64869D01*
Y64046D01*
X311479Y63692D01*
X310599Y63692D01*
X310099Y63692D01*
X309220D01*
Y64819D01*
X309556Y65044D01*
X309972Y65666D01*
X310118Y66400D01*
X309972Y67134D01*
X309556Y67756D01*
X308934Y68172D01*
X308200Y68318D01*
X307466Y68172D01*
X306844Y67756D01*
X306428Y67134D01*
X306282Y66400D01*
X306428Y65666D01*
X306844Y65044D01*
X307180Y64819D01*
Y64046D01*
X306827Y63692D01*
X305599Y63692D01*
X305099Y63692D01*
X304020D01*
Y64619D01*
X304356Y64844D01*
X304772Y65466D01*
X304918Y66200D01*
X304772Y66934D01*
X304356Y67556D01*
X303734Y67972D01*
X303000Y68118D01*
X302266Y67972D01*
X301644Y67556D01*
X301228Y66934D01*
X301082Y66200D01*
X301228Y65466D01*
X301644Y64844D01*
X301980Y64619D01*
Y64046D01*
X301627Y63692D01*
X300599Y63692D01*
X300099Y63692D01*
X298872D01*
Y64869D01*
X299208Y65094D01*
X299624Y65717D01*
X299770Y66451D01*
X299624Y67185D01*
X299208Y67807D01*
X298586Y68222D01*
X297852Y68369D01*
X297118Y68222D01*
X296496Y67807D01*
X296080Y67185D01*
X295934Y66451D01*
X296080Y65717D01*
X296496Y65094D01*
X296832Y64869D01*
Y64046D01*
X296479Y63692D01*
X295599Y63692D01*
X295099Y63692D01*
X291042D01*
X290599Y63692D01*
X290099Y63692D01*
X288872D01*
Y64869D01*
X289208Y65094D01*
X289624Y65717D01*
X289770Y66451D01*
X289624Y67185D01*
X289208Y67807D01*
X288586Y68222D01*
X287852Y68369D01*
X287118Y68222D01*
X286496Y67807D01*
X286080Y67185D01*
X285934Y66451D01*
X286080Y65717D01*
X286496Y65094D01*
X286832Y64869D01*
Y64046D01*
X286479Y63692D01*
X285599Y63692D01*
X285099Y63692D01*
X283872D01*
Y64869D01*
X284208Y65094D01*
X284624Y65717D01*
X284770Y66451D01*
X284624Y67185D01*
X284208Y67807D01*
X283586Y68222D01*
X282852Y68369D01*
X282118Y68222D01*
X281496Y67807D01*
X281080Y67185D01*
X280934Y66451D01*
X281080Y65717D01*
X281496Y65094D01*
X281832Y64869D01*
Y64046D01*
X281479Y63692D01*
X280599Y63692D01*
X280099Y63692D01*
X276043D01*
X275599Y63692D01*
X275099Y63692D01*
X271042D01*
X270599Y63692D01*
X270099Y63692D01*
X266042D01*
X265599Y63692D01*
X265099Y63692D01*
X261042D01*
X260599Y63692D01*
Y63692D01*
X260542D01*
Y63692D01*
X255599D01*
Y60896D01*
X255137Y60705D01*
X248620Y67222D01*
Y73000D01*
X248542Y73390D01*
X248321Y73721D01*
X242921Y79121D01*
X242590Y79342D01*
X242200Y79420D01*
X235422D01*
X234766Y80076D01*
X234973Y80576D01*
X240739D01*
X240739Y80576D01*
X241219Y80527D01*
X241666Y80228D01*
X242400Y80082D01*
X243134Y80228D01*
X243756Y80644D01*
X244172Y81266D01*
X244318Y82000D01*
X244172Y82734D01*
X243756Y83356D01*
X243134Y83772D01*
X242623Y83874D01*
X242439Y84397D01*
X243221Y85179D01*
X243442Y85510D01*
X243520Y85900D01*
Y95477D01*
X245070D01*
Y96929D01*
X249084D01*
X249186Y96827D01*
X249497Y96619D01*
Y92991D01*
X249497Y92548D01*
X249497Y92048D01*
Y87991D01*
X249497Y87548D01*
X249497Y87048D01*
Y82991D01*
X249497Y82548D01*
X249497Y82048D01*
Y77991D01*
X249497Y77548D01*
X249497Y77048D01*
Y72991D01*
X249497Y72548D01*
X249497Y72048D01*
Y67548D01*
X258771D01*
Y72048D01*
X258771Y72491D01*
X258771Y72991D01*
Y77048D01*
X258771Y77491D01*
X258771Y77991D01*
Y82048D01*
X258771Y82491D01*
X258771Y82991D01*
Y87048D01*
X258771Y87491D01*
X258771Y87991D01*
Y92048D01*
X258771Y92491D01*
X258771Y92991D01*
Y96619D01*
X259082Y96827D01*
X259184Y96929D01*
X271349D01*
X271739Y97007D01*
X272070Y97228D01*
X289822Y114980D01*
X309200D01*
X309590Y115058D01*
X309921Y115279D01*
X313792Y119150D01*
X314013Y119481D01*
X314090Y119871D01*
Y120994D01*
X314444Y121347D01*
X315543Y121347D01*
X316042Y121347D01*
X320543Y121347D01*
X320918Y121647D01*
X321042Y121647D01*
X322871D01*
Y125984D01*
Y130321D01*
X321042D01*
X320918Y130321D01*
X320543Y130621D01*
X320524Y130621D01*
X319396D01*
Y135980D01*
X320893Y137477D01*
X324170D01*
Y142420D01*
X319030D01*
Y141274D01*
X317170D01*
Y142472D01*
X312030D01*
Y141325D01*
X310503D01*
X310134Y141572D01*
X309400Y141718D01*
X308666Y141572D01*
X308044Y141156D01*
X307628Y140534D01*
X307482Y139800D01*
X307628Y139066D01*
X308044Y138444D01*
X308666Y138028D01*
X309400Y137882D01*
X310134Y138028D01*
X310756Y138444D01*
X310910Y138674D01*
X312030D01*
Y137528D01*
X316574D01*
X316846Y137036D01*
X316745Y136529D01*
Y130975D01*
X316392Y130621D01*
X315599Y130621D01*
X315099Y130621D01*
X311042D01*
X310599Y130621D01*
X310099Y130621D01*
X306043D01*
X305599Y130621D01*
X305099Y130621D01*
X301043D01*
X300599Y130621D01*
X300099Y130621D01*
X296042D01*
X295599Y130621D01*
X295099Y130621D01*
X291042D01*
X290599Y130621D01*
X290099Y130621D01*
X286042D01*
X285599Y130621D01*
X285099Y130621D01*
X281043D01*
X280599Y130621D01*
X280099Y130621D01*
X276043D01*
X275599Y130621D01*
X275099Y130621D01*
X271042D01*
X270599Y130621D01*
X270099Y130621D01*
X269294D01*
Y131164D01*
X272307Y134177D01*
X292054D01*
X292522Y134270D01*
X292919Y134535D01*
X294772Y136388D01*
X297868D01*
Y142119D01*
X292531D01*
Y137608D01*
X291547Y136624D01*
X271800D01*
X271332Y136530D01*
X270935Y136265D01*
X267206Y132536D01*
X266940Y132139D01*
X266847Y131671D01*
Y130975D01*
X266494Y130621D01*
X265599Y130621D01*
X265099Y130621D01*
X261042D01*
X260599Y130621D01*
X260099Y130621D01*
X255599D01*
Y121347D01*
X260099D01*
X260542Y121347D01*
X261042Y121347D01*
X262270D01*
Y120170D01*
X261933Y119945D01*
X261518Y119323D01*
X261372Y118589D01*
X261518Y117855D01*
X261933Y117233D01*
X262556Y116817D01*
X263290Y116671D01*
X264024Y116817D01*
X264646Y117233D01*
X265062Y117855D01*
X265208Y118589D01*
X265062Y119323D01*
X264646Y119945D01*
X264309Y120170D01*
Y120994D01*
X264663Y121347D01*
X265543Y121347D01*
X266042Y121347D01*
X270099D01*
X270543Y121347D01*
X271042Y121347D01*
X272270D01*
Y120170D01*
X271934Y119945D01*
X271518Y119323D01*
X271372Y118589D01*
X271518Y117855D01*
X271934Y117233D01*
X272556Y116817D01*
X273290Y116671D01*
X274024Y116817D01*
X274646Y117233D01*
X275062Y117855D01*
X275208Y118589D01*
X275062Y119323D01*
X274646Y119945D01*
X274309Y120170D01*
Y120994D01*
X274663Y121347D01*
X275542Y121347D01*
X276043Y121347D01*
X277270D01*
Y120170D01*
X276934Y119945D01*
X276518Y119323D01*
X276372Y118589D01*
X276518Y117855D01*
X276934Y117233D01*
X277556Y116817D01*
X278290Y116671D01*
X279024Y116817D01*
X279646Y117233D01*
X280062Y117855D01*
X280208Y118589D01*
X280062Y119323D01*
X279646Y119945D01*
X279309Y120170D01*
Y120994D01*
X279663Y121347D01*
X280542Y121347D01*
X281043Y121347D01*
X285099D01*
X285542Y121347D01*
X286042Y121347D01*
X290099D01*
X290543Y121347D01*
X291042Y121347D01*
X295099D01*
X295543Y121347D01*
X296042Y121347D01*
X300099D01*
X300542Y121347D01*
X301043Y121347D01*
X305099D01*
X305542Y121347D01*
X306043Y121347D01*
X310099D01*
X310542Y121347D01*
X311042Y121347D01*
X312051D01*
Y120293D01*
X308778Y117020D01*
X289400D01*
X289010Y116942D01*
X288679Y116721D01*
X270926Y98968D01*
X270145D01*
X270001Y99330D01*
X269973Y99468D01*
X270372Y100066D01*
X270518Y100800D01*
X270372Y101534D01*
X269956Y102156D01*
X269334Y102572D01*
X268600Y102718D01*
X267866Y102572D01*
X267269Y102173D01*
X258921Y110521D01*
X258771Y110621D01*
X258771Y112491D01*
X258471Y112867D01*
X258471Y112991D01*
Y114820D01*
X254134D01*
X249797D01*
Y112991D01*
X249797Y112867D01*
X249497Y112491D01*
X249497Y112472D01*
Y107991D01*
X249497Y107548D01*
X249497Y107048D01*
Y102991D01*
X249497Y102548D01*
X249497Y102048D01*
Y98968D01*
X245070D01*
Y100420D01*
X241253D01*
X241061Y100882D01*
X241759Y101579D01*
X245070D01*
Y106523D01*
X240418D01*
X240234Y106523D01*
X239946Y106524D01*
X239729Y106634D01*
X239610Y107004D01*
X239598Y107130D01*
X239598Y107191D01*
Y120576D01*
X241739D01*
Y125519D01*
X235418D01*
Y124067D01*
X226582D01*
Y125519D01*
X220261D01*
Y124067D01*
X214447D01*
X214057Y123989D01*
X213726Y123768D01*
X205562Y115604D01*
X205342Y115274D01*
X205264Y114883D01*
Y111818D01*
X204094D01*
X203707Y111741D01*
X203380Y111522D01*
X203161Y111195D01*
X203084Y110808D01*
Y109066D01*
X203161Y108679D01*
X203380Y108352D01*
X203707Y108133D01*
X204094Y108056D01*
X208473D01*
X208860Y108133D01*
X209187Y108352D01*
X209406Y108679D01*
X209483Y109066D01*
Y110808D01*
X209406Y111195D01*
X209187Y111522D01*
X208860Y111741D01*
X208473Y111818D01*
X207303D01*
Y114461D01*
X214870Y122028D01*
X220261D01*
Y120576D01*
X226582D01*
Y122028D01*
X235418D01*
Y120576D01*
X237559D01*
Y107552D01*
X236530Y106523D01*
X232930D01*
Y102923D01*
X232000Y101993D01*
X231070Y102923D01*
Y106523D01*
X227470D01*
X219398Y114595D01*
X219067Y114816D01*
X218677Y114894D01*
X217170D01*
X217123Y115131D01*
X216904Y115459D01*
X216576Y115678D01*
X216190Y115755D01*
X211810D01*
X211424Y115678D01*
X211096Y115459D01*
X210877Y115131D01*
X210800Y114745D01*
Y113003D01*
X210877Y112617D01*
X211096Y112289D01*
X211424Y112070D01*
X211810Y111993D01*
X216190D01*
X216576Y112070D01*
X216904Y112289D01*
X217123Y112617D01*
X217170Y112854D01*
X218255D01*
X224098Y107011D01*
X223879Y106523D01*
X223649Y106523D01*
X218930D01*
Y105071D01*
X217247D01*
X217200Y105129D01*
Y106871D01*
X217123Y107257D01*
X216904Y107585D01*
X216576Y107804D01*
X216190Y107881D01*
X211810D01*
X211424Y107804D01*
X211096Y107585D01*
X210877Y107257D01*
X210800Y106871D01*
Y105129D01*
X210877Y104743D01*
X211096Y104415D01*
X211424Y104196D01*
X211810Y104119D01*
X214984D01*
X215005Y104013D01*
X215226Y103682D01*
X215578Y103330D01*
X215908Y103109D01*
X216299Y103032D01*
X218930D01*
Y101579D01*
X224070D01*
Y106068D01*
X224070Y106332D01*
X224558Y106551D01*
X225930Y105179D01*
Y101579D01*
X229530D01*
X230189Y100920D01*
X229982Y100420D01*
X225930D01*
Y95477D01*
X225930D01*
X225828Y95020D01*
X224172D01*
X224070Y95477D01*
X224070D01*
Y100420D01*
X220095D01*
X219913Y100457D01*
X217028D01*
X216981Y100695D01*
X216762Y101022D01*
X216435Y101241D01*
X216048Y101318D01*
X211668D01*
X211282Y101241D01*
X210954Y101022D01*
X210735Y100695D01*
X210659Y100308D01*
Y98566D01*
X210735Y98180D01*
X210954Y97852D01*
X211282Y97633D01*
X211668Y97556D01*
X216048D01*
X216435Y97633D01*
X216762Y97852D01*
X216981Y98180D01*
X217028Y98417D01*
X217668D01*
X217876Y97917D01*
X216178Y96220D01*
X211800D01*
X211410Y96142D01*
X211079Y95921D01*
X209841Y94683D01*
X209341Y94890D01*
Y96371D01*
X209265Y96758D01*
X209046Y97085D01*
X208718Y97304D01*
X208332Y97381D01*
X203952D01*
X203565Y97304D01*
X203238Y97085D01*
X203019Y96758D01*
X202942Y96371D01*
Y94629D01*
X203019Y94243D01*
X203238Y93915D01*
X203565Y93696D01*
X203952Y93619D01*
X205122D01*
Y90658D01*
X205200Y90268D01*
X205421Y89937D01*
X213032Y82326D01*
X213363Y82105D01*
X213753Y82028D01*
X219261D01*
Y80576D01*
X219110Y80401D01*
X219044Y80356D01*
X218628Y79734D01*
X218482Y79000D01*
X218628Y78266D01*
X219044Y77644D01*
X219666Y77228D01*
X220400Y77082D01*
X221134Y77228D01*
X221756Y77644D01*
X222172Y78266D01*
X222318Y79000D01*
X222239Y79397D01*
X222848Y80006D01*
X223069Y80337D01*
X223116Y80576D01*
X225582D01*
Y83023D01*
X226044Y83214D01*
X226461Y82797D01*
X226382Y82400D01*
X226528Y81666D01*
X226944Y81044D01*
X227566Y80628D01*
X228300Y80482D01*
X229034Y80628D01*
X229656Y81044D01*
X230072Y81666D01*
X230080Y81709D01*
X230580Y81659D01*
Y79026D01*
X226873Y75319D01*
X226653Y74988D01*
X226575Y74598D01*
Y72062D01*
X226438Y71857D01*
X226364Y71484D01*
Y68177D01*
X226401Y67992D01*
X226386Y67962D01*
X226039Y67614D01*
X226008Y67599D01*
X225823Y67636D01*
X222516D01*
X222143Y67562D01*
X221827Y67351D01*
X221615Y67034D01*
X221541Y66661D01*
Y66150D01*
X221615Y65777D01*
X221827Y65460D01*
Y65382D01*
X221615Y65066D01*
X221541Y64693D01*
Y64181D01*
X221615Y63808D01*
X221827Y63492D01*
X222043Y63197D01*
X221898Y62980D01*
X221898Y62980D01*
X221882Y62900D01*
X221847Y62724D01*
Y62669D01*
X224169D01*
Y62269D01*
X221847D01*
Y62213D01*
X221885Y62020D01*
X221839Y61874D01*
X221589Y61520D01*
X218100D01*
X217710Y61442D01*
X217379Y61221D01*
X216179Y60021D01*
X215958Y59690D01*
X215880Y59300D01*
Y57440D01*
X215758Y57356D01*
X215258Y57620D01*
Y60549D01*
X215190Y60891D01*
X214997Y61180D01*
X214708Y61373D01*
X214367Y61441D01*
X212392D01*
X212051Y61373D01*
X211762Y61180D01*
X211569Y60891D01*
X211078Y60988D01*
Y61000D01*
X210966Y61566D01*
X210645Y62045D01*
X208160Y64530D01*
Y65374D01*
X208048Y65940D01*
X207727Y66419D01*
X207699Y66448D01*
Y68620D01*
X207631Y68961D01*
X207438Y69251D01*
X207149Y69444D01*
X206808Y69512D01*
X204833D01*
X204492Y69444D01*
X204203Y69251D01*
X204010Y68961D01*
X203942Y68620D01*
Y66331D01*
X201212D01*
X197770Y69774D01*
Y72323D01*
X196534D01*
Y75150D01*
X197625D01*
Y82924D01*
X198045Y83344D01*
X198366Y83824D01*
X198478Y84390D01*
Y111400D01*
Y113154D01*
X198366Y113719D01*
X198045Y114199D01*
X193869Y118376D01*
Y121819D01*
X188531D01*
Y116088D01*
X191904D01*
X192003Y116022D01*
X192050Y116013D01*
X195522Y112541D01*
Y111400D01*
Y85015D01*
X192485D01*
Y75150D01*
X193577D01*
Y72323D01*
X192630D01*
Y67379D01*
X195982D01*
X196680Y66682D01*
X196488Y66220D01*
X192630D01*
Y64972D01*
X190770D01*
Y66220D01*
X185630D01*
Y61277D01*
X190770D01*
Y62525D01*
X192630D01*
Y61277D01*
X197279D01*
X197441Y61277D01*
X197833Y60841D01*
X197828Y60719D01*
X186750Y49641D01*
X186429Y49161D01*
X186317Y48595D01*
Y46369D01*
X186308D01*
Y39744D01*
X185808Y39461D01*
X185543Y39592D01*
Y46271D01*
X175875D01*
Y38572D01*
X178628D01*
X178819Y38110D01*
X175788Y35078D01*
X171970D01*
Y36720D01*
X166830D01*
Y35078D01*
X163544D01*
X163163Y35333D01*
X163137Y35420D01*
X163122Y35861D01*
X163349Y36012D01*
X163566Y36337D01*
X163642Y36719D01*
Y37100D01*
X160841D01*
Y37500D01*
X163642D01*
Y37881D01*
X163566Y38263D01*
X163349Y38588D01*
X163122Y38739D01*
X163137Y39180D01*
X163163Y39268D01*
X163566Y39536D01*
X163848Y39960D01*
X163948Y40459D01*
Y41621D01*
X163848Y42121D01*
X163566Y42544D01*
X163142Y42827D01*
X162642Y42927D01*
X159040D01*
X158540Y42827D01*
X158116Y42544D01*
X158099Y42519D01*
X157478D01*
Y48074D01*
X157650D01*
Y62072D01*
X149950D01*
Y57594D01*
X149488Y57402D01*
X135478Y71412D01*
Y84477D01*
X136570D01*
Y87953D01*
X137032Y88145D01*
X137893Y87283D01*
X138323Y86996D01*
X138430Y86975D01*
Y84477D01*
X143570D01*
Y89420D01*
X140272D01*
X140236Y89445D01*
X139728Y89546D01*
X139380D01*
X138846Y90079D01*
X139053Y90579D01*
X143570D01*
Y91828D01*
X145630D01*
Y90579D01*
X150770D01*
Y95523D01*
X149424D01*
Y110493D01*
X149788Y110858D01*
X150250Y110667D01*
Y104873D01*
X153600D01*
Y111372D01*
X150956D01*
X150765Y111834D01*
X154665Y115735D01*
X154930Y116132D01*
X155024Y116600D01*
Y117528D01*
X157650D01*
Y131526D01*
X149950D01*
Y122552D01*
X149398D01*
X149309Y122685D01*
X148687Y123101D01*
X147953Y123247D01*
X147219Y123101D01*
X146597Y122685D01*
X146181Y122063D01*
X146035Y121329D01*
X146181Y120595D01*
X146597Y119973D01*
X147219Y119557D01*
X147953Y119411D01*
X148687Y119557D01*
X149309Y119973D01*
X149398Y120105D01*
X149950D01*
Y117528D01*
X152385D01*
X152497Y117028D01*
X147335Y111865D01*
X147070Y111468D01*
X146976Y111000D01*
Y95523D01*
X145630D01*
Y94275D01*
X143570D01*
Y95523D01*
X138430D01*
Y91203D01*
X137930Y90996D01*
X136570Y92356D01*
Y95523D01*
X135326D01*
Y119600D01*
X135225Y120107D01*
X134937Y120537D01*
X130010Y125464D01*
X129580Y125751D01*
X129073Y125852D01*
X128650D01*
Y131526D01*
X126126D01*
Y137200D01*
X126025Y137707D01*
X125737Y138137D01*
X106737Y157137D01*
X106307Y157425D01*
X105800Y157526D01*
X87400D01*
X86893Y157425D01*
X86463Y157137D01*
X84651Y155325D01*
X80230D01*
Y155800D01*
X78382D01*
X78175Y156300D01*
X79937Y158063D01*
X80225Y158493D01*
X80326Y159000D01*
Y159977D01*
X81570D01*
Y164920D01*
D02*
G37*
G36*
X101728Y154287D02*
X91272D01*
Y153039D01*
X87764D01*
X87296Y152945D01*
X86899Y152680D01*
X86241Y152023D01*
X82930D01*
Y147080D01*
X88070D01*
Y150391D01*
X88271Y150592D01*
X91272D01*
Y149343D01*
X101728D01*
Y154287D01*
D02*
G37*
G36*
X316870Y148274D02*
X314800D01*
Y146302D01*
X316870D01*
Y148274D01*
D02*
G37*
G36*
X314400D02*
X312330D01*
Y146302D01*
X314400D01*
Y148274D01*
D02*
G37*
G36*
X323870Y148223D02*
X321800D01*
Y146251D01*
X323870D01*
Y148223D01*
D02*
G37*
G36*
X321400D02*
X319330D01*
Y146251D01*
X321400D01*
Y148223D01*
D02*
G37*
G36*
X55170Y165120D02*
X50030D01*
Y160177D01*
X55170D01*
X55170Y160177D01*
Y160177D01*
X55553Y159917D01*
X59311Y156159D01*
X58963Y155800D01*
X58473Y155800D01*
X51770D01*
Y152200D01*
X54147D01*
Y150800D01*
X51770D01*
X51770Y150800D01*
Y150800D01*
X51292Y150853D01*
X51153Y150945D01*
X50685Y151039D01*
X48728D01*
Y152287D01*
X38272D01*
Y147343D01*
X48728D01*
Y148591D01*
X50178D01*
X50635Y148135D01*
X51032Y147870D01*
X51500Y147776D01*
X51770D01*
Y147200D01*
X58970D01*
Y150800D01*
X56594D01*
Y152200D01*
X58970D01*
Y155300D01*
X58970Y155792D01*
X59329Y156141D01*
X60777Y154693D01*
Y147007D01*
X59470Y145700D01*
X58970Y145800D01*
Y145800D01*
X51770D01*
Y142200D01*
X58970D01*
Y142200D01*
X59470Y142300D01*
X60777Y140993D01*
Y132023D01*
X59430D01*
Y127079D01*
X64570D01*
Y132023D01*
X63223D01*
Y141500D01*
X63130Y141968D01*
X62865Y142365D01*
X61230Y144000D01*
X62865Y145635D01*
X63130Y146032D01*
X63223Y146500D01*
Y155200D01*
X63130Y155668D01*
X62865Y156065D01*
X56249Y162681D01*
X55853Y162946D01*
X55384Y163039D01*
X55170D01*
Y165120D01*
D02*
G37*
G36*
X316870Y145902D02*
X314800D01*
Y143931D01*
X316870D01*
Y145902D01*
D02*
G37*
G36*
X314400D02*
X312330D01*
Y143931D01*
X314400D01*
Y145902D01*
D02*
G37*
G36*
X323870Y145851D02*
X321800D01*
Y143879D01*
X323870D01*
Y145851D01*
D02*
G37*
G36*
X321400D02*
X319330D01*
Y143879D01*
X321400D01*
Y145851D01*
D02*
G37*
G36*
X297868Y148812D02*
X292531D01*
Y143081D01*
X297868D01*
Y144723D01*
X299430D01*
Y143180D01*
X304570D01*
Y148123D01*
X299430D01*
Y147170D01*
X297868D01*
Y148812D01*
D02*
G37*
G36*
X88070Y145921D02*
X82930D01*
Y142609D01*
X80730Y140409D01*
X80230Y140616D01*
Y140800D01*
X73030D01*
Y140039D01*
X72816D01*
X72347Y139946D01*
X71951Y139681D01*
X70135Y137865D01*
X69870Y137468D01*
X69776Y137000D01*
Y132023D01*
X68430D01*
Y127079D01*
X73570D01*
Y132023D01*
X72224D01*
Y136493D01*
X72657Y136927D01*
X73030Y137200D01*
Y137200D01*
X73030Y137200D01*
X80230D01*
Y137777D01*
X81051D01*
X81519Y137870D01*
X81916Y138135D01*
X83815Y140033D01*
X84276Y139842D01*
Y138700D01*
X84370Y138232D01*
X84635Y137835D01*
X87277Y135193D01*
Y132023D01*
X85930D01*
Y128454D01*
X85468Y128262D01*
X83649Y130081D01*
X83253Y130346D01*
X82784Y130439D01*
X82570D01*
Y132023D01*
X77430D01*
Y127079D01*
X82570D01*
Y127079D01*
X83009Y127261D01*
X84735Y125535D01*
X85132Y125270D01*
X85600Y125177D01*
X86230D01*
Y123649D01*
X90770D01*
Y125177D01*
X91400D01*
X91868Y125270D01*
X92265Y125535D01*
X93991Y127261D01*
X94430Y127079D01*
Y127079D01*
X99570D01*
Y132023D01*
X97724D01*
Y138713D01*
X101728D01*
Y143657D01*
X91272D01*
Y138713D01*
X95276D01*
Y132023D01*
X94430D01*
Y130439D01*
X94216D01*
X93748Y130346D01*
X93351Y130081D01*
X91532Y128262D01*
X91070Y128454D01*
Y132023D01*
X89723D01*
Y135700D01*
X89630Y136168D01*
X89365Y136565D01*
X86724Y139207D01*
Y140977D01*
X88070D01*
Y145921D01*
D02*
G37*
G36*
X304270Y141720D02*
X302200D01*
Y139749D01*
X304270D01*
Y141720D01*
D02*
G37*
G36*
X301800D02*
X299730D01*
Y139749D01*
X301800D01*
Y141720D01*
D02*
G37*
G36*
X58670Y140500D02*
X55570D01*
Y139200D01*
X58670D01*
Y140500D01*
D02*
G37*
G36*
X55170D02*
X52070D01*
Y139200D01*
X55170D01*
Y140500D01*
D02*
G37*
G36*
X58670Y138800D02*
X55570D01*
Y137500D01*
X58670D01*
Y138800D01*
D02*
G37*
G36*
X55170D02*
X52070D01*
Y137500D01*
X55170D01*
Y138800D01*
D02*
G37*
G36*
X304270Y139349D02*
X302200D01*
Y137377D01*
X304270D01*
Y139349D01*
D02*
G37*
G36*
X301800D02*
X299730D01*
Y137377D01*
X301800D01*
Y139349D01*
D02*
G37*
G36*
X35570Y150023D02*
X30430D01*
Y145080D01*
X33746D01*
X33755Y145066D01*
X34438Y144382D01*
X34247Y143921D01*
X30430D01*
Y138977D01*
X31776D01*
Y136000D01*
X31870Y135532D01*
X32135Y135135D01*
X41355Y125915D01*
Y116932D01*
X40008D01*
Y111989D01*
X45148D01*
Y113237D01*
X46508D01*
Y111938D01*
X51648D01*
Y116881D01*
X51901Y117277D01*
X75051D01*
X75519Y117370D01*
X75916Y117635D01*
X79259Y120977D01*
X82570D01*
Y125920D01*
X77430D01*
Y122609D01*
X74544Y119723D01*
X67878D01*
X67726Y120223D01*
X67756Y120244D01*
X68051Y120685D01*
X68430Y120977D01*
X73570D01*
Y125920D01*
X68430D01*
Y124639D01*
X68216D01*
X67747Y124546D01*
X67351Y124281D01*
X66557Y123487D01*
X66400Y123518D01*
X66243Y123487D01*
X65649Y124081D01*
X65253Y124346D01*
X64784Y124439D01*
X64570D01*
Y125920D01*
X59430D01*
Y120977D01*
X64570D01*
X64623Y120893D01*
X64628Y120866D01*
X65044Y120244D01*
X65074Y120223D01*
X64922Y119723D01*
X51000D01*
X50532Y119630D01*
X50135Y119365D01*
X48730Y117961D01*
X48465Y117563D01*
X48372Y117095D01*
Y116881D01*
X46508D01*
Y115684D01*
X45148D01*
Y116932D01*
X43802D01*
Y126422D01*
X43709Y126890D01*
X43443Y127287D01*
X34223Y136507D01*
Y138977D01*
X35570D01*
Y142597D01*
X36032Y142789D01*
X38030Y140791D01*
Y140707D01*
X38123Y140238D01*
X38272Y140015D01*
Y136713D01*
X48728D01*
Y141657D01*
X40405D01*
X40383Y141766D01*
X40118Y142163D01*
X35683Y146598D01*
X35570Y146768D01*
Y150023D01*
D02*
G37*
G36*
X241439Y131124D02*
X238779D01*
Y129153D01*
X241439D01*
Y131124D01*
D02*
G37*
G36*
X226282D02*
X223621D01*
Y129153D01*
X226282D01*
Y131124D01*
D02*
G37*
G36*
X238379D02*
X235718D01*
Y129153D01*
X238379D01*
Y131124D01*
D02*
G37*
G36*
X223221D02*
X220561D01*
Y129153D01*
X223221D01*
Y131124D01*
D02*
G37*
G36*
X241439Y128753D02*
X238779D01*
Y126781D01*
X241439D01*
Y128753D01*
D02*
G37*
G36*
X238379D02*
X235718D01*
Y126781D01*
X238379D01*
Y128753D01*
D02*
G37*
G36*
X226282D02*
X223621D01*
Y126781D01*
X226282D01*
Y128753D01*
D02*
G37*
G36*
X223221D02*
X220561D01*
Y126781D01*
X223221D01*
Y128753D01*
D02*
G37*
G36*
X193869Y128512D02*
X188531D01*
Y126677D01*
X186770D01*
Y127823D01*
X181630D01*
Y122880D01*
X186770D01*
Y124026D01*
X188531D01*
Y122781D01*
X193869D01*
Y128512D01*
D02*
G37*
G36*
X323271Y130321D02*
Y126184D01*
X325242D01*
Y130321D01*
X323271D01*
D02*
G37*
G36*
X325242Y125784D02*
X323271D01*
Y121647D01*
X325242D01*
Y125784D01*
D02*
G37*
G36*
X90770Y123249D02*
X88700D01*
Y121277D01*
X90770D01*
Y123249D01*
D02*
G37*
G36*
X88300D02*
X86230D01*
Y121277D01*
X88300D01*
Y123249D01*
D02*
G37*
G36*
X186470Y121421D02*
X184400D01*
Y119449D01*
X186470D01*
Y121421D01*
D02*
G37*
G36*
X184000D02*
X181930D01*
Y119449D01*
X184000D01*
Y121421D01*
D02*
G37*
G36*
X186470Y119049D02*
X184400D01*
Y117077D01*
X186470D01*
Y119049D01*
D02*
G37*
G36*
X184000D02*
X181930D01*
Y117077D01*
X184000D01*
Y119049D01*
D02*
G37*
G36*
X258471Y117191D02*
X254334D01*
Y115220D01*
X258471D01*
Y117191D01*
D02*
G37*
G36*
X253934D02*
X249797D01*
Y115220D01*
X253934D01*
Y117191D01*
D02*
G37*
G36*
X99570Y125920D02*
X94430D01*
Y120977D01*
X95776D01*
Y114790D01*
X94160D01*
X93773Y114713D01*
X93446Y114495D01*
X93227Y114167D01*
X93150Y113780D01*
Y112038D01*
X93227Y111652D01*
X93446Y111324D01*
X93773Y111106D01*
X94160Y111029D01*
X101650D01*
X102036Y111106D01*
X102364Y111324D01*
X102583Y111652D01*
X102660Y112038D01*
Y113780D01*
X102583Y114167D01*
X102364Y114495D01*
X102036Y114713D01*
X101650Y114790D01*
X98224D01*
Y120977D01*
X99570D01*
Y125920D01*
D02*
G37*
G36*
X64996Y114790D02*
X57506D01*
X57120Y114713D01*
X56792Y114495D01*
X56573Y114167D01*
X56497Y113780D01*
Y112038D01*
X56573Y111652D01*
X56792Y111324D01*
X57120Y111106D01*
X57506Y111029D01*
X60028D01*
Y109790D01*
X57506D01*
X57120Y109713D01*
X56792Y109494D01*
X56573Y109167D01*
X56567Y109133D01*
X51648D01*
Y110779D01*
X46508D01*
Y105835D01*
X51648D01*
Y106686D01*
X56567D01*
X56573Y106652D01*
X56792Y106324D01*
X57120Y106105D01*
X57506Y106029D01*
X64996D01*
X65383Y106105D01*
X65710Y106324D01*
X65929Y106652D01*
X66006Y107038D01*
Y108781D01*
X65929Y109167D01*
X65710Y109494D01*
X65383Y109713D01*
X64996Y109790D01*
X62475D01*
Y111029D01*
X64996D01*
X65383Y111106D01*
X65710Y111324D01*
X65929Y111652D01*
X66006Y112038D01*
Y113780D01*
X65929Y114167D01*
X65710Y114495D01*
X65383Y114713D01*
X64996Y114790D01*
D02*
G37*
G36*
X44848Y110530D02*
X42778D01*
Y108558D01*
X44848D01*
Y110530D01*
D02*
G37*
G36*
X42378D02*
X40308D01*
Y108558D01*
X42378D01*
Y110530D01*
D02*
G37*
G36*
X44848Y108158D02*
X42778D01*
Y106187D01*
X44848D01*
Y108158D01*
D02*
G37*
G36*
X42378D02*
X40308D01*
Y106187D01*
X42378D01*
Y108158D01*
D02*
G37*
G36*
X101650Y109790D02*
X94160D01*
X93773Y109713D01*
X93446Y109494D01*
X93227Y109167D01*
X93150Y108781D01*
Y107038D01*
X93227Y106652D01*
X93446Y106324D01*
X93773Y106105D01*
X94160Y106029D01*
X101650D01*
X102036Y106105D01*
X102364Y106324D01*
X102583Y106652D01*
X102660Y107038D01*
Y108781D01*
X102583Y109167D01*
X102364Y109494D01*
X102036Y109713D01*
X101650Y109790D01*
D02*
G37*
G36*
X300568Y106699D02*
X297750D01*
Y105569D01*
X297363Y105252D01*
X297356Y105253D01*
Y103681D01*
X296955D01*
Y105253D01*
X296948Y105252D01*
X296561Y105569D01*
Y106699D01*
X293743D01*
Y103681D01*
X293343D01*
Y106699D01*
X290525D01*
Y105569D01*
X290139Y105252D01*
X290131Y105253D01*
Y103681D01*
X289731D01*
Y105253D01*
X289723Y105252D01*
X289337Y105569D01*
Y106699D01*
X286519D01*
Y103681D01*
X286319D01*
Y103481D01*
X283301D01*
Y100663D01*
X284431D01*
X284748Y100277D01*
X284747Y100269D01*
X286319D01*
Y99869D01*
X284747D01*
X284748Y99861D01*
X284431Y99475D01*
X283301D01*
Y96657D01*
X286319D01*
Y96257D01*
X283301D01*
Y93439D01*
X284431D01*
X284748Y93052D01*
X284747Y93045D01*
X286319D01*
Y92645D01*
X284747D01*
X284748Y92637D01*
X284431Y92250D01*
X283301D01*
Y89432D01*
X286319D01*
Y89232D01*
X286519D01*
Y86214D01*
X289337D01*
Y87344D01*
X289723Y87661D01*
X289731Y87660D01*
Y89232D01*
X290131D01*
Y87660D01*
X290139Y87661D01*
X290525Y87344D01*
Y86214D01*
X293343D01*
Y89232D01*
X293743D01*
Y86214D01*
X296561D01*
Y87344D01*
X296948Y87661D01*
X296955Y87660D01*
Y89232D01*
X297356D01*
Y87660D01*
X297363Y87661D01*
X297750Y87344D01*
Y86214D01*
X300568D01*
Y89232D01*
X300768D01*
Y89432D01*
X303786D01*
Y92250D01*
X302656D01*
X302339Y92637D01*
X302340Y92645D01*
X300768D01*
Y93045D01*
X302340D01*
X302339Y93052D01*
X302656Y93439D01*
X303786D01*
Y96257D01*
X300768D01*
Y96657D01*
X303786D01*
Y99475D01*
X302656D01*
X302339Y99861D01*
X302340Y99869D01*
X300768D01*
Y100269D01*
X302340D01*
X302339Y100277D01*
X302656Y100663D01*
X303786D01*
Y103481D01*
X300768D01*
Y103681D01*
X300568D01*
Y106699D01*
D02*
G37*
G36*
X157350Y111372D02*
X154000D01*
Y104873D01*
X157350D01*
Y111372D01*
D02*
G37*
G36*
X128350D02*
X125000D01*
Y104873D01*
X128350D01*
Y111372D01*
D02*
G37*
G36*
X124600D02*
X121250D01*
Y104873D01*
X124600D01*
Y111372D01*
D02*
G37*
G36*
X303786Y106699D02*
X300968D01*
Y103881D01*
X303786D01*
Y106699D01*
D02*
G37*
G36*
X286119D02*
X283301D01*
Y103881D01*
X286119D01*
Y106699D01*
D02*
G37*
G36*
X64996Y104790D02*
X57506D01*
X57120Y104713D01*
X56792Y104495D01*
X56573Y104167D01*
X56567Y104133D01*
X52027D01*
X51559Y104040D01*
X51162Y103775D01*
X49833Y102446D01*
X49824Y102432D01*
X46508D01*
Y98314D01*
X46008Y98261D01*
X45261Y99007D01*
X45148Y99177D01*
Y102432D01*
X40008D01*
Y97489D01*
X43324D01*
X43333Y97475D01*
X44017Y96792D01*
X43825Y96330D01*
X40008D01*
Y91387D01*
X41355D01*
Y89121D01*
X39910D01*
Y83390D01*
X43843D01*
X44066Y82915D01*
X43859Y82615D01*
X43828Y82609D01*
X43558Y82428D01*
X39910D01*
Y76698D01*
X45247D01*
Y80549D01*
X45344Y80613D01*
X46308Y81578D01*
X46808Y81371D01*
Y80058D01*
X51348D01*
Y81307D01*
X51810Y81498D01*
X55751Y77557D01*
X56148Y77292D01*
X56497Y77223D01*
Y77038D01*
X56573Y76652D01*
X56792Y76324D01*
X57120Y76105D01*
X57506Y76029D01*
X64996D01*
X65383Y76105D01*
X65710Y76324D01*
X65929Y76652D01*
X66006Y77038D01*
Y78781D01*
X65929Y79167D01*
X65710Y79495D01*
X65383Y79713D01*
X64996Y79790D01*
X57506D01*
X57120Y79713D01*
X57081Y79688D01*
X52513Y84256D01*
X52693Y84783D01*
X52929Y84830D01*
X53326Y85096D01*
X54916Y86686D01*
X56567D01*
X56573Y86652D01*
X56792Y86324D01*
X57120Y86106D01*
X57506Y86029D01*
X64996D01*
X65383Y86106D01*
X65710Y86324D01*
X65929Y86652D01*
X66006Y87038D01*
Y88780D01*
X65929Y89167D01*
X65710Y89495D01*
X65383Y89713D01*
X64996Y89790D01*
X57506D01*
X57120Y89713D01*
X56792Y89495D01*
X56573Y89167D01*
X56567Y89133D01*
X54409D01*
X53941Y89040D01*
X53544Y88775D01*
X52148Y87379D01*
X51648Y87586D01*
Y88432D01*
X50979D01*
X50781Y88804D01*
X50761Y88932D01*
X50898Y89621D01*
X50752Y90355D01*
X50337Y90977D01*
X50023Y91187D01*
X50174Y91687D01*
X51348D01*
Y93658D01*
X49078D01*
Y94058D01*
X51348D01*
Y94768D01*
X51810Y94960D01*
X54725Y92044D01*
X55122Y91779D01*
X55591Y91686D01*
X56567D01*
X56573Y91652D01*
X56792Y91324D01*
X57120Y91106D01*
X57506Y91029D01*
X64996D01*
X65383Y91106D01*
X65710Y91324D01*
X65929Y91652D01*
X66006Y92038D01*
Y93780D01*
X65929Y94167D01*
X65710Y94494D01*
X65383Y94713D01*
X64996Y94790D01*
X57506D01*
X57120Y94713D01*
X56792Y94494D01*
X56580Y94176D01*
X56135Y94138D01*
X56095Y94135D01*
X52365Y97865D01*
X51968Y98130D01*
X51648Y98194D01*
Y100744D01*
X51762Y100914D01*
X52534Y101686D01*
X56567D01*
X56573Y101652D01*
X56792Y101324D01*
X57120Y101105D01*
X57506Y101029D01*
X64996D01*
X65383Y101105D01*
X65710Y101324D01*
X65929Y101652D01*
X66006Y102038D01*
Y103780D01*
X65929Y104167D01*
X65710Y104495D01*
X65383Y104713D01*
X64996Y104790D01*
D02*
G37*
G36*
X101650Y99484D02*
X98105D01*
Y98109D01*
X102354D01*
Y98781D01*
X102300Y99050D01*
X102148Y99278D01*
X101919Y99431D01*
X101650Y99484D01*
D02*
G37*
G36*
X97705D02*
X94160D01*
X93890Y99431D01*
X93662Y99278D01*
X93510Y99050D01*
X93456Y98781D01*
Y98109D01*
X97705D01*
Y99484D01*
D02*
G37*
G36*
X64996D02*
X61451D01*
Y98109D01*
X65700D01*
Y98781D01*
X65647Y99050D01*
X65494Y99278D01*
X65266Y99431D01*
X64996Y99484D01*
D02*
G37*
G36*
X61051D02*
X57506D01*
X57237Y99431D01*
X57009Y99278D01*
X56856Y99050D01*
X56802Y98781D01*
Y98109D01*
X61051D01*
Y99484D01*
D02*
G37*
G36*
X157350Y104473D02*
X154000D01*
Y97974D01*
X157350D01*
Y104473D01*
D02*
G37*
G36*
X153600D02*
X150250D01*
Y97974D01*
X153600D01*
Y104473D01*
D02*
G37*
G36*
X128350D02*
X125000D01*
Y97974D01*
X128350D01*
Y104473D01*
D02*
G37*
G36*
X124600D02*
X121250D01*
Y97974D01*
X124600D01*
Y104473D01*
D02*
G37*
G36*
X102354Y97709D02*
X98105D01*
Y96334D01*
X101650D01*
X101919Y96388D01*
X102148Y96541D01*
X102300Y96769D01*
X102354Y97038D01*
Y97709D01*
D02*
G37*
G36*
X97705D02*
X93456D01*
Y97038D01*
X93510Y96769D01*
X93662Y96541D01*
X93890Y96388D01*
X94160Y96334D01*
X97705D01*
Y97709D01*
D02*
G37*
G36*
X65700D02*
X61451D01*
Y96334D01*
X64996D01*
X65266Y96388D01*
X65494Y96541D01*
X65647Y96769D01*
X65700Y97038D01*
Y97709D01*
D02*
G37*
G36*
X61051D02*
X56802D01*
Y97038D01*
X56856Y96769D01*
X57009Y96541D01*
X57237Y96388D01*
X57506Y96334D01*
X61051D01*
Y97709D01*
D02*
G37*
G36*
X193098Y107850D02*
X178902D01*
Y97985D01*
X180474D01*
Y97377D01*
X180444Y97356D01*
X180028Y96734D01*
X179882Y96000D01*
X180028Y95266D01*
X180444Y94644D01*
X181066Y94228D01*
X181800Y94082D01*
X182534Y94228D01*
X183156Y94644D01*
X183572Y95266D01*
X183718Y96000D01*
X183572Y96734D01*
X183156Y97356D01*
X183125Y97377D01*
Y97985D01*
X187795D01*
X188063Y97485D01*
X187828Y97134D01*
X187682Y96400D01*
X187828Y95666D01*
X188244Y95044D01*
X188866Y94628D01*
X189600Y94482D01*
X190334Y94628D01*
X190956Y95044D01*
X191372Y95666D01*
X191518Y96400D01*
X191372Y97134D01*
X191137Y97485D01*
X191405Y97985D01*
X193098D01*
Y107850D01*
D02*
G37*
G36*
X101650Y94484D02*
X98105D01*
Y93109D01*
X102354D01*
Y93780D01*
X102300Y94050D01*
X102148Y94278D01*
X101919Y94431D01*
X101650Y94484D01*
D02*
G37*
G36*
X97705D02*
X94160D01*
X93890Y94431D01*
X93662Y94278D01*
X93510Y94050D01*
X93456Y93780D01*
Y93109D01*
X97705D01*
Y94484D01*
D02*
G37*
G36*
X102354Y92709D02*
X98105D01*
Y91334D01*
X101650D01*
X101919Y91388D01*
X102148Y91541D01*
X102300Y91769D01*
X102354Y92038D01*
Y92709D01*
D02*
G37*
G36*
X97705D02*
X93456D01*
Y92038D01*
X93510Y91769D01*
X93662Y91541D01*
X93890Y91388D01*
X94160Y91334D01*
X97705D01*
Y92709D01*
D02*
G37*
G36*
X101650Y104790D02*
X94160D01*
X93773Y104713D01*
X93446Y104495D01*
X93227Y104167D01*
X93150Y103780D01*
Y102038D01*
X93227Y101652D01*
X93446Y101324D01*
X93773Y101105D01*
X94160Y101029D01*
X101650D01*
X102036Y101105D01*
X102364Y101324D01*
X102957Y101312D01*
X106976Y97293D01*
Y96123D01*
X105630D01*
Y91180D01*
X110770D01*
Y92428D01*
X112830D01*
Y91180D01*
X117970D01*
Y96123D01*
X112830D01*
Y94875D01*
X110770D01*
Y96123D01*
X109423D01*
Y97800D01*
X109330Y98268D01*
X109065Y98665D01*
X103956Y103775D01*
X103559Y104040D01*
X103091Y104133D01*
X102590D01*
X102583Y104167D01*
X102364Y104495D01*
X102036Y104713D01*
X101650Y104790D01*
D02*
G37*
G36*
X110770Y90021D02*
X105630D01*
Y89133D01*
X102590D01*
X102583Y89167D01*
X102364Y89495D01*
X102036Y89713D01*
X101650Y89790D01*
X94160D01*
X93773Y89713D01*
X93446Y89495D01*
X93227Y89167D01*
X93150Y88780D01*
Y87038D01*
X93227Y86652D01*
X93446Y86324D01*
X93773Y86106D01*
X94160Y86029D01*
X101650D01*
X102036Y86106D01*
X102364Y86324D01*
X102583Y86652D01*
X102590Y86686D01*
X105630D01*
Y86130D01*
X105130Y85812D01*
X104600Y85918D01*
X103866Y85772D01*
X103244Y85356D01*
X102828Y84734D01*
X102823Y84708D01*
X102632Y84619D01*
X102282Y84549D01*
X102036Y84713D01*
X101650Y84790D01*
X94160D01*
X93773Y84713D01*
X93446Y84495D01*
X93227Y84167D01*
X93150Y83780D01*
Y82038D01*
X93227Y81652D01*
X93446Y81324D01*
X93773Y81106D01*
X94160Y81029D01*
X101650D01*
X102036Y81106D01*
X102364Y81324D01*
X102583Y81652D01*
X102660Y82038D01*
Y82267D01*
X103409D01*
X103717Y82328D01*
X103866Y82228D01*
X104600Y82082D01*
X105334Y82228D01*
X105956Y82644D01*
X106372Y83266D01*
X106518Y84000D01*
X106403Y84577D01*
X106698Y85077D01*
X108184D01*
Y84993D01*
X108277Y84525D01*
X108542Y84128D01*
X109894Y82776D01*
X109862Y82621D01*
X110009Y81887D01*
X110424Y81264D01*
X111047Y80849D01*
X111781Y80703D01*
X112514Y80849D01*
X113137Y81264D01*
X113552Y81887D01*
X113698Y82621D01*
X113552Y83355D01*
X113137Y83977D01*
X112514Y84392D01*
X111781Y84539D01*
X111623Y84507D01*
X110770Y85360D01*
Y90021D01*
D02*
G37*
G36*
X117670Y89720D02*
X115600D01*
Y87749D01*
X117670D01*
Y89720D01*
D02*
G37*
G36*
X115200D02*
X113130D01*
Y87749D01*
X115200D01*
Y89720D01*
D02*
G37*
G36*
X150470Y89121D02*
X148400D01*
Y87149D01*
X150470D01*
Y89121D01*
D02*
G37*
G36*
X148000D02*
X145930D01*
Y87149D01*
X148000D01*
Y89121D01*
D02*
G37*
G36*
X303786Y89032D02*
X300968D01*
Y86214D01*
X303786D01*
Y89032D01*
D02*
G37*
G36*
X286119Y89032D02*
X283301D01*
Y86214D01*
X286119D01*
Y89032D01*
D02*
G37*
G36*
X117670Y87349D02*
X115600D01*
Y85377D01*
X117670D01*
Y87349D01*
D02*
G37*
G36*
X115200D02*
X113130D01*
Y85377D01*
X115200D01*
Y87349D01*
D02*
G37*
G36*
X150470Y86749D02*
X148400D01*
Y84777D01*
X150470D01*
Y86749D01*
D02*
G37*
G36*
X148000D02*
X145930D01*
Y84777D01*
X148000D01*
Y86749D01*
D02*
G37*
G36*
X64996Y84484D02*
X61451D01*
Y83109D01*
X65700D01*
Y83780D01*
X65647Y84050D01*
X65494Y84278D01*
X65266Y84431D01*
X64996Y84484D01*
D02*
G37*
G36*
X61051D02*
X57506D01*
X57237Y84431D01*
X57009Y84278D01*
X56856Y84050D01*
X56802Y83780D01*
Y83109D01*
X61051D01*
Y84484D01*
D02*
G37*
G36*
X65700Y82709D02*
X61451D01*
Y81335D01*
X64996D01*
X65266Y81388D01*
X65494Y81541D01*
X65647Y81769D01*
X65700Y82038D01*
Y82709D01*
D02*
G37*
G36*
X61051D02*
X56802D01*
Y82038D01*
X56856Y81769D01*
X57009Y81541D01*
X57237Y81388D01*
X57506Y81335D01*
X61051D01*
Y82709D01*
D02*
G37*
G36*
X179215Y84715D02*
X177145D01*
Y80283D01*
X179215D01*
Y84715D01*
D02*
G37*
G36*
X176745D02*
X174675D01*
Y80283D01*
X176745D01*
Y84715D01*
D02*
G37*
G36*
X188570Y85015D02*
X183430D01*
Y79479D01*
X182930Y79374D01*
X182334Y79772D01*
X181600Y79918D01*
X180866Y79772D01*
X180244Y79356D01*
X179828Y78734D01*
X179743Y78309D01*
X179715Y78166D01*
X179251Y78211D01*
X179215Y78288D01*
Y79883D01*
X177145D01*
Y75450D01*
X178838D01*
X178929Y75376D01*
X179192Y74950D01*
X179082Y74400D01*
X179228Y73666D01*
X179644Y73044D01*
X179674Y73023D01*
Y72323D01*
X178630D01*
Y67379D01*
X183770D01*
Y72323D01*
X182325D01*
Y73023D01*
X182356Y73044D01*
X182772Y73666D01*
X182918Y74400D01*
X182772Y75134D01*
X182356Y75756D01*
X182350Y75760D01*
X182442Y76300D01*
X182930Y76626D01*
X183430Y76521D01*
Y75150D01*
X188570D01*
Y85015D01*
D02*
G37*
G36*
X51348Y79658D02*
X49278D01*
Y77687D01*
X51348D01*
Y79658D01*
D02*
G37*
G36*
X48878D02*
X46808D01*
Y77687D01*
X48878D01*
Y79658D01*
D02*
G37*
G36*
X101650Y79790D02*
X94160D01*
X93773Y79713D01*
X93446Y79495D01*
X93227Y79167D01*
X93150Y78781D01*
Y77038D01*
X93227Y76652D01*
X93446Y76324D01*
X93773Y76105D01*
X94160Y76029D01*
X101650D01*
X102036Y76105D01*
X102364Y76324D01*
X102583Y76652D01*
X102630Y76890D01*
X106146D01*
X106444Y76444D01*
X107066Y76028D01*
X107800Y75882D01*
X108534Y76028D01*
X109156Y76444D01*
X109572Y77066D01*
X109718Y77800D01*
X109572Y78534D01*
X109156Y79156D01*
X108534Y79572D01*
X107800Y79718D01*
X107066Y79572D01*
X106444Y79156D01*
X106292Y78929D01*
X102630D01*
X102583Y79167D01*
X102364Y79495D01*
X102036Y79713D01*
X101650Y79790D01*
D02*
G37*
G36*
X176745Y79883D02*
X174675D01*
Y75450D01*
X176745D01*
Y79883D01*
D02*
G37*
G36*
X128250Y81826D02*
X124900D01*
Y75327D01*
X128250D01*
Y81826D01*
D02*
G37*
G36*
X124500D02*
X121150D01*
Y75327D01*
X124500D01*
Y81826D01*
D02*
G37*
G36*
X157350Y81626D02*
X154000D01*
Y75127D01*
X157350D01*
Y81626D01*
D02*
G37*
G36*
X153600D02*
X150250D01*
Y75127D01*
X153600D01*
Y81626D01*
D02*
G37*
G36*
X105395Y74937D02*
X104662Y74791D01*
X104039Y74375D01*
X103814Y74038D01*
X102608D01*
X102583Y74167D01*
X102364Y74494D01*
X102036Y74713D01*
X101650Y74790D01*
X94160D01*
X93773Y74713D01*
X93446Y74494D01*
X93227Y74167D01*
X93150Y73781D01*
Y72038D01*
X93227Y71652D01*
X93446Y71324D01*
X93773Y71105D01*
X94160Y71029D01*
X101650D01*
X102036Y71105D01*
X102364Y71324D01*
X102583Y71652D01*
X102652Y71999D01*
X103814D01*
X104039Y71663D01*
X104662Y71247D01*
X105395Y71101D01*
X106129Y71247D01*
X106752Y71663D01*
X107167Y72285D01*
X107313Y73019D01*
X107167Y73753D01*
X106752Y74375D01*
X106129Y74791D01*
X105395Y74937D01*
D02*
G37*
G36*
X64996Y74790D02*
X57506D01*
X57120Y74713D01*
X56792Y74494D01*
X56573Y74167D01*
X56497Y73781D01*
Y72554D01*
X52018D01*
Y74196D01*
X43138D01*
Y70184D01*
X40648D01*
Y71432D01*
X35508D01*
Y66489D01*
X40648D01*
Y67737D01*
X43752D01*
X44220Y67830D01*
X44617Y68095D01*
X44987Y68465D01*
X52018D01*
Y70107D01*
X56809D01*
X56961Y69607D01*
X56792Y69494D01*
X56573Y69167D01*
X56567Y69133D01*
X53999D01*
X53531Y69040D01*
X53134Y68775D01*
X49726Y65367D01*
X49461Y64970D01*
X49368Y64502D01*
Y64354D01*
X43138D01*
Y58623D01*
X52018D01*
Y64198D01*
X54506Y66686D01*
X56567D01*
X56573Y66652D01*
X56792Y66324D01*
X57120Y66106D01*
X57506Y66029D01*
X64996D01*
X65383Y66106D01*
X65710Y66324D01*
X65929Y66652D01*
X66006Y67038D01*
Y68780D01*
X65929Y69167D01*
X65710Y69494D01*
X65383Y69713D01*
X64996Y69790D01*
X57885D01*
X57733Y70290D01*
X57995Y70465D01*
X58558Y71029D01*
X64996D01*
X65383Y71105D01*
X65710Y71324D01*
X65929Y71652D01*
X66006Y72038D01*
Y73781D01*
X65929Y74167D01*
X65710Y74494D01*
X65383Y74713D01*
X64996Y74790D01*
D02*
G37*
G36*
X190470Y72023D02*
X188400D01*
Y70051D01*
X190470D01*
Y72023D01*
D02*
G37*
G36*
X176470D02*
X174400D01*
Y70051D01*
X176470D01*
Y72023D01*
D02*
G37*
G36*
X174000D02*
X171930D01*
Y70051D01*
X174000D01*
Y72023D01*
D02*
G37*
G36*
X188000D02*
X185930D01*
Y70051D01*
X188000D01*
Y72023D01*
D02*
G37*
G36*
X128250Y74927D02*
X124900D01*
Y68428D01*
X128250D01*
Y74927D01*
D02*
G37*
G36*
X124500D02*
X121150D01*
Y68428D01*
X124500D01*
Y74927D01*
D02*
G37*
G36*
X157350Y74727D02*
X154000D01*
Y68228D01*
X157350D01*
Y74727D01*
D02*
G37*
G36*
X153600D02*
X150250D01*
Y68228D01*
X153600D01*
Y74727D01*
D02*
G37*
G36*
X101650Y69484D02*
X98105D01*
Y68109D01*
X102354D01*
Y68780D01*
X102300Y69050D01*
X102148Y69278D01*
X101919Y69431D01*
X101650Y69484D01*
D02*
G37*
G36*
X97705D02*
X94160D01*
X93890Y69431D01*
X93662Y69278D01*
X93510Y69050D01*
X93456Y68780D01*
Y68109D01*
X97705D01*
Y69484D01*
D02*
G37*
G36*
X190470Y69651D02*
X188400D01*
Y67680D01*
X190470D01*
Y69651D01*
D02*
G37*
G36*
X188000D02*
X185930D01*
Y67680D01*
X188000D01*
Y69651D01*
D02*
G37*
G36*
X176470D02*
X174400D01*
Y67680D01*
X176470D01*
Y69651D01*
D02*
G37*
G36*
X174000D02*
X171930D01*
Y67680D01*
X174000D01*
Y69651D01*
D02*
G37*
G36*
X105400Y68718D02*
X104666Y68572D01*
X104044Y68156D01*
X103771Y67748D01*
X103728D01*
X103338Y67670D01*
X103007Y67449D01*
X102854Y67296D01*
X102354Y67503D01*
Y67709D01*
X93456D01*
Y67038D01*
X93510Y66769D01*
X93542Y66720D01*
X93311Y66220D01*
X78600D01*
X78600Y66220D01*
X78210Y66142D01*
X77879Y65921D01*
X66355Y54397D01*
X65724Y54474D01*
X65710Y54495D01*
X65383Y54713D01*
X64996Y54790D01*
X57506D01*
X57120Y54713D01*
X56792Y54495D01*
X56573Y54167D01*
X56497Y53781D01*
Y52038D01*
X56573Y51652D01*
X56792Y51324D01*
X57120Y51105D01*
X57506Y51029D01*
X64996D01*
X65383Y51105D01*
X65710Y51324D01*
X65929Y51652D01*
X65977Y51890D01*
X66309D01*
X66700Y51968D01*
X67030Y52188D01*
X79022Y64180D01*
X92720D01*
X93150Y63780D01*
Y62038D01*
X93227Y61652D01*
X93446Y61324D01*
X93773Y61106D01*
X94160Y61029D01*
X101650D01*
X102036Y61106D01*
X102364Y61324D01*
X102583Y61652D01*
X102652Y61999D01*
X103814D01*
X104039Y61663D01*
X104662Y61247D01*
X105395Y61101D01*
X106129Y61247D01*
X106752Y61663D01*
X107167Y62285D01*
X107313Y63019D01*
X107167Y63753D01*
X106752Y64375D01*
X106400Y64610D01*
X106403Y65207D01*
X106756Y65444D01*
X107172Y66066D01*
X107318Y66800D01*
X107172Y67534D01*
X106756Y68156D01*
X106134Y68572D01*
X105400Y68718D01*
D02*
G37*
G36*
X214249Y69208D02*
X212792D01*
Y66435D01*
X214954D01*
Y68502D01*
X214901Y68772D01*
X214748Y69001D01*
X214519Y69154D01*
X214249Y69208D01*
D02*
G37*
G36*
X212392D02*
X210936D01*
X210665Y69154D01*
X210437Y69001D01*
X210283Y68772D01*
X210230Y68502D01*
Y66435D01*
X212392D01*
Y69208D01*
D02*
G37*
G36*
X183770Y66220D02*
X178630D01*
Y64972D01*
X176770D01*
Y66220D01*
X171630D01*
Y61277D01*
X176770D01*
Y62525D01*
X178630D01*
Y61277D01*
X183770D01*
Y66220D01*
D02*
G37*
G36*
X214954Y66035D02*
X212792D01*
Y63263D01*
X214249D01*
X214519Y63317D01*
X214748Y63470D01*
X214901Y63699D01*
X214954Y63969D01*
Y66035D01*
D02*
G37*
G36*
X212392D02*
X210230D01*
Y63969D01*
X210283Y63699D01*
X210437Y63470D01*
X210665Y63317D01*
X210936Y63263D01*
X212392D01*
Y66035D01*
D02*
G37*
G36*
X64996Y64484D02*
X61451D01*
Y63109D01*
X65700D01*
Y63780D01*
X65647Y64050D01*
X65494Y64278D01*
X65266Y64431D01*
X64996Y64484D01*
D02*
G37*
G36*
X61051D02*
X57506D01*
X57237Y64431D01*
X57009Y64278D01*
X56856Y64050D01*
X56802Y63780D01*
Y63109D01*
X61051D01*
Y64484D01*
D02*
G37*
G36*
X40348Y65030D02*
X38278D01*
Y63058D01*
X40348D01*
Y65030D01*
D02*
G37*
G36*
X37878D02*
X35808D01*
Y63058D01*
X37878D01*
Y65030D01*
D02*
G37*
G36*
X65700Y62709D02*
X61451D01*
Y61335D01*
X64996D01*
X65266Y61388D01*
X65494Y61541D01*
X65647Y61769D01*
X65700Y62038D01*
Y62709D01*
D02*
G37*
G36*
X61051D02*
X56802D01*
Y62038D01*
X56856Y61769D01*
X57009Y61541D01*
X57237Y61388D01*
X57506Y61335D01*
X61051D01*
Y62709D01*
D02*
G37*
G36*
X40348Y62658D02*
X38278D01*
Y60687D01*
X40348D01*
Y62658D01*
D02*
G37*
G36*
X37878D02*
X35808D01*
Y60687D01*
X37878D01*
Y62658D01*
D02*
G37*
G36*
X323271Y63392D02*
Y59255D01*
X325242D01*
Y63392D01*
X323271D01*
D02*
G37*
G36*
X105395Y59937D02*
X104662Y59791D01*
X104039Y59375D01*
X103814Y59039D01*
X102608D01*
X102583Y59167D01*
X102364Y59495D01*
X102036Y59713D01*
X101650Y59790D01*
X94160D01*
X93773Y59713D01*
X93446Y59495D01*
X93227Y59167D01*
X93150Y58780D01*
Y57038D01*
X93227Y56652D01*
X93446Y56324D01*
X93773Y56106D01*
X94160Y56029D01*
X101650D01*
X102036Y56106D01*
X102364Y56324D01*
X102583Y56652D01*
X102652Y56999D01*
X103814D01*
X104039Y56663D01*
X104577Y56304D01*
X104575Y55955D01*
X104524Y55783D01*
X104466Y55772D01*
X103844Y55356D01*
X103428Y54734D01*
X103290Y54039D01*
X102608D01*
X102583Y54167D01*
X102364Y54495D01*
X102036Y54713D01*
X101650Y54790D01*
X94160D01*
X93773Y54713D01*
X93446Y54495D01*
X93227Y54167D01*
X93150Y53781D01*
Y52038D01*
X93227Y51652D01*
X93446Y51324D01*
X93773Y51105D01*
X94160Y51029D01*
X101650D01*
X102036Y51105D01*
X102364Y51324D01*
X102583Y51652D01*
X102652Y51999D01*
X103967D01*
X104358Y52077D01*
X104557Y52210D01*
X105200Y52082D01*
X105934Y52228D01*
X106556Y52644D01*
X106972Y53266D01*
X107118Y54000D01*
X106972Y54734D01*
X106556Y55356D01*
X106019Y55715D01*
X106021Y56064D01*
X106072Y56235D01*
X106129Y56247D01*
X106752Y56663D01*
X107167Y57285D01*
X107313Y58019D01*
X107167Y58753D01*
X106752Y59375D01*
X106129Y59791D01*
X105395Y59937D01*
D02*
G37*
G36*
X64996Y59484D02*
X61451D01*
Y58109D01*
X65700D01*
Y58780D01*
X65647Y59050D01*
X65494Y59278D01*
X65266Y59431D01*
X64996Y59484D01*
D02*
G37*
G36*
X61051D02*
X57506D01*
X57237Y59431D01*
X57009Y59278D01*
X56856Y59050D01*
X56802Y58780D01*
Y58109D01*
X61051D01*
Y59484D01*
D02*
G37*
G36*
X65700Y57709D02*
X61451D01*
Y56335D01*
X64996D01*
X65266Y56388D01*
X65494Y56541D01*
X65647Y56769D01*
X65700Y57038D01*
Y57709D01*
D02*
G37*
G36*
X61051D02*
X56802D01*
Y57038D01*
X56856Y56769D01*
X57009Y56541D01*
X57237Y56388D01*
X57506Y56335D01*
X61051D01*
Y57709D01*
D02*
G37*
G36*
X325242Y58855D02*
X323271D01*
Y54718D01*
X325242D01*
Y58855D01*
D02*
G37*
G36*
X300600Y53718D02*
X299866Y53572D01*
X299244Y53156D01*
X298828Y52534D01*
X298682Y51800D01*
X298797Y51223D01*
X298502Y50723D01*
X298030D01*
Y48724D01*
X295230D01*
Y49300D01*
X288030D01*
Y45700D01*
X295230D01*
Y46277D01*
X298030D01*
Y45779D01*
X303170D01*
Y50723D01*
X302698D01*
X302403Y51223D01*
X302518Y51800D01*
X302372Y52534D01*
X301956Y53156D01*
X301334Y53572D01*
X300600Y53718D01*
D02*
G37*
G36*
X128550Y62272D02*
X120850D01*
Y48274D01*
X122171D01*
X122361Y47820D01*
X122082Y47518D01*
X121981Y47539D01*
X121247Y47392D01*
X120624Y46977D01*
X120209Y46355D01*
X120062Y45621D01*
X120209Y44887D01*
X120624Y44264D01*
X121247Y43849D01*
X121981Y43703D01*
X122714Y43849D01*
X123337Y44264D01*
X123752Y44887D01*
X123898Y45621D01*
X123867Y45777D01*
X125204Y47114D01*
X125325Y47195D01*
X125590Y47592D01*
X125683Y48060D01*
Y48274D01*
X128550D01*
Y62272D01*
D02*
G37*
G36*
X199219Y46069D02*
X198231D01*
Y43113D01*
X199219D01*
Y46069D01*
D02*
G37*
G36*
X294930Y44000D02*
X291830D01*
Y42700D01*
X294930D01*
Y44000D01*
D02*
G37*
G36*
X291430D02*
X288330D01*
Y42700D01*
X291430D01*
Y44000D01*
D02*
G37*
G36*
X302870Y44320D02*
X300800D01*
Y42349D01*
X302870D01*
Y44320D01*
D02*
G37*
G36*
X300400D02*
X298330D01*
Y42349D01*
X300400D01*
Y44320D01*
D02*
G37*
G36*
X294930Y42300D02*
X291830D01*
Y41000D01*
X294930D01*
Y42300D01*
D02*
G37*
G36*
X291430D02*
X288330D01*
Y41000D01*
X291430D01*
Y42300D01*
D02*
G37*
G36*
X171670Y42523D02*
X169600D01*
Y40551D01*
X171670D01*
Y42523D01*
D02*
G37*
G36*
X169200D02*
X167130D01*
Y40551D01*
X169200D01*
Y42523D01*
D02*
G37*
G36*
X116181Y45338D02*
X115446Y45193D01*
X114824Y44777D01*
X114409Y44155D01*
X114262Y43421D01*
X114409Y42687D01*
X114824Y42064D01*
X114957Y41976D01*
Y40523D01*
X113430D01*
Y40023D01*
X110700D01*
Y40400D01*
X103300D01*
Y37200D01*
X103600D01*
Y36500D01*
X110400D01*
Y37200D01*
X110700D01*
Y37576D01*
X113430D01*
Y35579D01*
X118570D01*
Y40523D01*
X117404D01*
Y41976D01*
X117537Y42064D01*
X117952Y42687D01*
X118098Y43421D01*
X117952Y44155D01*
X117537Y44777D01*
X116914Y45193D01*
X116181Y45338D01*
D02*
G37*
G36*
X302870Y41949D02*
X300800D01*
Y39977D01*
X302870D01*
Y41949D01*
D02*
G37*
G36*
X300400D02*
X298330D01*
Y39977D01*
X300400D01*
Y41949D01*
D02*
G37*
G36*
X199219Y42713D02*
X198231D01*
Y39757D01*
X199219D01*
Y42713D01*
D02*
G37*
G36*
X296400Y39518D02*
X295697Y39378D01*
X295230Y39300D01*
X295230Y39300D01*
X295230Y39300D01*
X288030D01*
Y35700D01*
X295230D01*
X295230Y35700D01*
X295730Y35815D01*
X296400Y35682D01*
X297134Y35828D01*
X297756Y36244D01*
X298172Y36866D01*
X298318Y37600D01*
X298172Y38334D01*
X297756Y38956D01*
X297134Y39372D01*
X296400Y39518D01*
D02*
G37*
G36*
X94400Y40100D02*
X91200D01*
Y39000D01*
X94400D01*
Y40100D01*
D02*
G37*
G36*
X90800D02*
X87600D01*
Y39000D01*
X90800D01*
Y40100D01*
D02*
G37*
G36*
X209952Y46271D02*
X200284D01*
Y38572D01*
X209952D01*
Y46271D01*
D02*
G37*
G36*
X171670Y40151D02*
X169600D01*
Y38179D01*
X171670D01*
Y40151D01*
D02*
G37*
G36*
X169200D02*
X167130D01*
Y38179D01*
X169200D01*
Y40151D01*
D02*
G37*
G36*
X142700D02*
X140630D01*
Y38179D01*
X142700D01*
Y40151D01*
D02*
G37*
G36*
X250800Y38620D02*
X248730D01*
Y36649D01*
X250800D01*
Y38620D01*
D02*
G37*
G36*
X227770D02*
X225700D01*
Y36649D01*
X227770D01*
Y38620D01*
D02*
G37*
G36*
X225300D02*
X223230D01*
Y36649D01*
X225300D01*
Y38620D01*
D02*
G37*
G36*
X101650Y49790D02*
X94160D01*
X93773Y49713D01*
X93446Y49494D01*
X93227Y49167D01*
X93220Y49133D01*
X88409D01*
X87941Y49040D01*
X87544Y48775D01*
X80792Y42022D01*
X80527Y41625D01*
X80434Y41157D01*
Y41023D01*
X77930D01*
Y36767D01*
X77430Y36560D01*
X75430Y38559D01*
X75518Y39000D01*
X75372Y39734D01*
X74956Y40356D01*
X74334Y40772D01*
X73600Y40918D01*
X72866Y40772D01*
X72244Y40356D01*
X71828Y39734D01*
X71682Y39000D01*
X71828Y38266D01*
X72132Y37811D01*
X71532Y37211D01*
X71070Y37402D01*
Y41023D01*
X69723D01*
Y46500D01*
X69979Y46883D01*
X70125Y47617D01*
X69979Y48351D01*
X69563Y48973D01*
X68941Y49389D01*
X68207Y49534D01*
X67473Y49389D01*
X67091Y49133D01*
X65936D01*
X65929Y49167D01*
X65710Y49494D01*
X65383Y49713D01*
X64996Y49790D01*
X57506D01*
X57120Y49713D01*
X56792Y49494D01*
X56573Y49167D01*
X56497Y48781D01*
Y47038D01*
X56573Y46652D01*
X56792Y46324D01*
X57120Y46106D01*
X57506Y46029D01*
X64996D01*
X65383Y46106D01*
X65710Y46324D01*
X65929Y46652D01*
X65936Y46686D01*
X66566D01*
X66851Y46260D01*
X67277Y45976D01*
Y41023D01*
X65930D01*
Y36079D01*
X69747D01*
X69938Y35618D01*
X69241Y34920D01*
X65930D01*
Y29977D01*
X71070D01*
Y33289D01*
X74155Y36374D01*
X77674Y32855D01*
X77930Y32684D01*
Y29977D01*
X83070D01*
Y34920D01*
X79347D01*
X79228Y34944D01*
X79046D01*
X78410Y35579D01*
X78617Y36079D01*
X83070D01*
Y40840D01*
X88916Y46686D01*
X93220D01*
X93227Y46652D01*
X93446Y46324D01*
X93773Y46106D01*
X94160Y46029D01*
X101650D01*
X102036Y46106D01*
X102364Y46324D01*
X102583Y46652D01*
X102648Y46980D01*
X103128D01*
X103509Y46535D01*
X103482Y46400D01*
X103628Y45666D01*
X104044Y45044D01*
X104666Y44628D01*
X105400Y44482D01*
X106134Y44628D01*
X106756Y45044D01*
X107172Y45666D01*
X107318Y46400D01*
X107172Y47134D01*
X106756Y47756D01*
X106134Y48172D01*
X105400Y48318D01*
X105003Y48239D01*
X104521Y48721D01*
X104190Y48942D01*
X103800Y49020D01*
X102612D01*
X102583Y49167D01*
X102364Y49494D01*
X102036Y49713D01*
X101650Y49790D01*
D02*
G37*
G36*
X220848Y38530D02*
X218778D01*
Y36558D01*
X220848D01*
Y38530D01*
D02*
G37*
G36*
X218378D02*
X216308D01*
Y36558D01*
X218378D01*
Y38530D01*
D02*
G37*
G36*
X94400Y38600D02*
X87600D01*
Y37500D01*
Y36500D01*
X94400D01*
Y37500D01*
Y38600D01*
D02*
G37*
G36*
X272581Y53539D02*
X271847Y53392D01*
X271224Y52977D01*
X270809Y52355D01*
X270662Y51621D01*
X270694Y51464D01*
X269609Y50379D01*
X269344Y49982D01*
X269251Y49514D01*
Y49300D01*
X266770D01*
Y45700D01*
X269147D01*
Y44300D01*
X266770D01*
Y40700D01*
X269147D01*
Y39300D01*
X266770D01*
Y35700D01*
X273970D01*
Y39300D01*
X271594D01*
Y40700D01*
X273970D01*
Y44300D01*
X271594D01*
Y45700D01*
X273970D01*
Y49300D01*
X273119D01*
X273070Y49800D01*
X273314Y49849D01*
X273937Y50264D01*
X274352Y50887D01*
X274498Y51621D01*
X274352Y52355D01*
X273937Y52977D01*
X273314Y53392D01*
X272581Y53539D01*
D02*
G37*
G36*
X138670Y36421D02*
X136600D01*
Y34449D01*
X138670D01*
Y36421D01*
D02*
G37*
G36*
X136200D02*
X134130D01*
Y34449D01*
X136200D01*
Y36421D01*
D02*
G37*
G36*
X253270Y36249D02*
X251200D01*
Y34277D01*
X253270D01*
Y36249D01*
D02*
G37*
G36*
X250800D02*
X248730D01*
Y34277D01*
X250800D01*
Y36249D01*
D02*
G37*
G36*
X227770D02*
X225700D01*
Y34277D01*
X227770D01*
Y36249D01*
D02*
G37*
G36*
X225300D02*
X223230D01*
Y34277D01*
X225300D01*
Y36249D01*
D02*
G37*
G36*
X220848Y36158D02*
X218778D01*
Y34187D01*
X220848D01*
Y36158D01*
D02*
G37*
G36*
X218378D02*
X216308D01*
Y34187D01*
X218378D01*
Y36158D01*
D02*
G37*
G36*
X94400Y36100D02*
X87600D01*
Y35000D01*
Y33900D01*
X94400D01*
Y35000D01*
Y36100D01*
D02*
G37*
G36*
X273670Y34000D02*
X270570D01*
Y32700D01*
X273670D01*
Y34000D01*
D02*
G37*
G36*
X270170D02*
X267070D01*
Y32700D01*
X270170D01*
Y34000D01*
D02*
G37*
G36*
X118270Y34121D02*
X116200D01*
Y32149D01*
X118270D01*
Y34121D01*
D02*
G37*
G36*
X115800D02*
X113730D01*
Y32149D01*
X115800D01*
Y34121D01*
D02*
G37*
G36*
X138670Y34049D02*
X136600D01*
Y32077D01*
X138670D01*
Y34049D01*
D02*
G37*
G36*
X136200D02*
X134130D01*
Y32077D01*
X136200D01*
Y34049D01*
D02*
G37*
G36*
X94400Y33500D02*
X87600D01*
Y32400D01*
Y31400D01*
X94400D01*
Y32400D01*
Y33500D01*
D02*
G37*
G36*
X273670Y32300D02*
X270570D01*
Y31000D01*
X273670D01*
Y32300D01*
D02*
G37*
G36*
X270170D02*
X267070D01*
Y31000D01*
X270170D01*
Y32300D01*
D02*
G37*
G36*
X296200Y34518D02*
X295466Y34372D01*
X295230Y34300D01*
X295230Y34300D01*
X295230Y34300D01*
X288030D01*
Y30700D01*
X295230D01*
X295230Y30700D01*
Y30700D01*
X295730Y30776D01*
X296200Y30682D01*
X296934Y30828D01*
X297556Y31244D01*
X297972Y31866D01*
X298118Y32600D01*
X297972Y33334D01*
X297556Y33956D01*
X296934Y34372D01*
X296200Y34518D01*
D02*
G37*
G36*
X94400Y31000D02*
X91200D01*
Y29900D01*
X94400D01*
Y31000D01*
D02*
G37*
G36*
X90800D02*
X87600D01*
Y29900D01*
X90800D01*
Y31000D01*
D02*
G37*
G36*
X118270Y31749D02*
X116200D01*
Y29777D01*
X118270D01*
Y31749D01*
D02*
G37*
G36*
X115800D02*
X113730D01*
Y29777D01*
X115800D01*
Y31749D01*
D02*
G37*
G36*
X100000Y39318D02*
X99266Y39172D01*
X98644Y38756D01*
X98228Y38134D01*
X98082Y37400D01*
X98161Y37003D01*
X95879Y34721D01*
X95658Y34390D01*
X95580Y34000D01*
Y33000D01*
X95658Y32610D01*
X95879Y32279D01*
X97679Y30479D01*
X98010Y30258D01*
X98400Y30180D01*
X103300D01*
Y29600D01*
X110700D01*
Y32100D01*
Y35300D01*
X110400D01*
Y36100D01*
X103600D01*
Y35300D01*
X103300D01*
Y34620D01*
X101581D01*
X101356Y34956D01*
X100982Y35206D01*
Y35794D01*
X101356Y36044D01*
X101772Y36666D01*
X101918Y37400D01*
X101772Y38134D01*
X101356Y38756D01*
X100734Y39172D01*
X100000Y39318D01*
D02*
G37*
G36*
X235070Y38921D02*
X229930D01*
Y33977D01*
X231276D01*
Y32989D01*
X231044Y32833D01*
X230628Y32211D01*
X230482Y31477D01*
X230628Y30743D01*
X231044Y30121D01*
X231666Y29705D01*
X232400Y29559D01*
X233134Y29705D01*
X233756Y30121D01*
X234172Y30743D01*
X234318Y31477D01*
X234172Y32211D01*
X233756Y32833D01*
X233734Y32849D01*
X233723Y32864D01*
Y33977D01*
X235070D01*
Y38921D01*
D02*
G37*
G36*
X314961Y49748D02*
X313337Y49620D01*
X311754Y49240D01*
X310249Y48617D01*
X308861Y47766D01*
X307623Y46708D01*
X306565Y45470D01*
X305714Y44081D01*
X305091Y42577D01*
X304711Y40993D01*
X304583Y39370D01*
X304711Y37747D01*
X305091Y36163D01*
X305714Y34659D01*
X306565Y33270D01*
X307623Y32032D01*
X308861Y30974D01*
X310249Y30123D01*
X311754Y29500D01*
X313337Y29120D01*
X314961Y28992D01*
X316584Y29120D01*
X318167Y29500D01*
X319672Y30123D01*
X321060Y30974D01*
X322299Y32032D01*
X323356Y33270D01*
X324207Y34659D01*
X324830Y36163D01*
X325210Y37747D01*
X325338Y39370D01*
X325210Y40993D01*
X324830Y42577D01*
X324207Y44081D01*
X323356Y45470D01*
X322299Y46708D01*
X321060Y47766D01*
X319672Y48617D01*
X318167Y49240D01*
X316584Y49620D01*
X314961Y49748D01*
D02*
G37*
G36*
X39370D02*
X37747Y49620D01*
X36163Y49240D01*
X34659Y48617D01*
X33270Y47766D01*
X32032Y46708D01*
X30974Y45470D01*
X30123Y44081D01*
X29500Y42577D01*
X29120Y40993D01*
X28992Y39370D01*
X29120Y37747D01*
X29500Y36163D01*
X30123Y34659D01*
X30974Y33270D01*
X32032Y32032D01*
X33270Y30974D01*
X34659Y30123D01*
X36163Y29500D01*
X37747Y29120D01*
X39370Y28992D01*
X40993Y29120D01*
X42577Y29500D01*
X44081Y30123D01*
X45470Y30974D01*
X46708Y32032D01*
X47766Y33270D01*
X48617Y34659D01*
X49240Y36163D01*
X49620Y37747D01*
X49748Y39370D01*
X49620Y40993D01*
X49240Y42577D01*
X48617Y44081D01*
X47766Y45470D01*
X46708Y46708D01*
X45470Y47766D01*
X44081Y48617D01*
X42577Y49240D01*
X40993Y49620D01*
X39370Y49748D01*
D02*
G37*
G36*
X201487Y36920D02*
X193198D01*
Y28040D01*
X201487D01*
Y29140D01*
X201987Y29309D01*
X202132Y29120D01*
X202690Y28693D01*
X203339Y28424D01*
X204035Y28332D01*
X204732Y28424D01*
X205381Y28693D01*
X205939Y29120D01*
X206366Y29678D01*
X206635Y30327D01*
X206727Y31024D01*
Y33779D01*
X206635Y34476D01*
X206366Y35125D01*
X205939Y35683D01*
X205381Y36110D01*
X204732Y36379D01*
X204035Y36471D01*
X203339Y36379D01*
X202690Y36110D01*
X202132Y35683D01*
X201987Y35494D01*
X201487Y35664D01*
Y36920D01*
D02*
G37*
%LPD*%
G36*
X52269Y192211D02*
X52233Y192143D01*
X52202Y192051D01*
X52175Y191933D01*
X52152Y191791D01*
X52119Y191434D01*
X52102Y190978D01*
X52100Y190713D01*
X51100D01*
X51098Y190978D01*
X51048Y191791D01*
X51025Y191933D01*
X50998Y192051D01*
X50967Y192143D01*
X50931Y192211D01*
X50891Y192255D01*
X52309D01*
X52269Y192211D01*
D02*
G37*
G36*
X310237Y140647D02*
X310290Y140637D01*
X310370Y140629D01*
X310772Y140609D01*
X311686Y140600D01*
X311929Y139400D01*
X311661Y139399D01*
X310614Y139332D01*
X310533Y139311D01*
X310479Y139288D01*
X310451Y139262D01*
X310211Y140658D01*
X310237Y140647D01*
D02*
G37*
G36*
X148942Y121998D02*
X149010Y121962D01*
X149103Y121931D01*
X149220Y121904D01*
X149362Y121881D01*
X149720Y121848D01*
X150176Y121831D01*
X150441Y121829D01*
Y120829D01*
X150176Y120827D01*
X149362Y120777D01*
X149220Y120754D01*
X149103Y120727D01*
X149010Y120695D01*
X148942Y120660D01*
X148898Y120620D01*
Y122038D01*
X148942Y121998D01*
D02*
G37*
G36*
X278594Y120897D02*
X278626Y120454D01*
X278655Y120262D01*
X278692Y120091D01*
X278737Y119939D01*
X278790Y119808D01*
X278851Y119696D01*
X278921Y119605D01*
X278998Y119534D01*
X277581D01*
X277659Y119605D01*
X277728Y119696D01*
X277789Y119808D01*
X277843Y119939D01*
X277888Y120091D01*
X277924Y120262D01*
X277953Y120454D01*
X277986Y120897D01*
X277990Y121149D01*
X278590D01*
X278594Y120897D01*
D02*
G37*
G36*
X273594D02*
X273626Y120454D01*
X273655Y120262D01*
X273692Y120091D01*
X273737Y119939D01*
X273790Y119808D01*
X273851Y119696D01*
X273921Y119605D01*
X273998Y119534D01*
X272581D01*
X272659Y119605D01*
X272728Y119696D01*
X272790Y119808D01*
X272843Y119939D01*
X272888Y120091D01*
X272924Y120262D01*
X272953Y120454D01*
X272986Y120897D01*
X272990Y121149D01*
X273590D01*
X273594Y120897D01*
D02*
G37*
G36*
X263594D02*
X263627Y120454D01*
X263655Y120262D01*
X263692Y120091D01*
X263737Y119939D01*
X263790Y119808D01*
X263851Y119696D01*
X263921Y119605D01*
X263998Y119534D01*
X262581D01*
X262659Y119605D01*
X262728Y119696D01*
X262790Y119808D01*
X262843Y119939D01*
X262888Y120091D01*
X262924Y120262D01*
X262953Y120454D01*
X262986Y120897D01*
X262990Y121149D01*
X263590D01*
X263594Y120897D01*
D02*
G37*
G36*
X267655Y100091D02*
X267595Y100169D01*
X267435Y100353D01*
X267388Y100398D01*
X267344Y100435D01*
X267303Y100463D01*
X267266Y100484D01*
X267231Y100496D01*
X267200Y100500D01*
Y101100D01*
X267231Y101104D01*
X267266Y101116D01*
X267303Y101137D01*
X267344Y101165D01*
X267388Y101202D01*
X267435Y101247D01*
X267539Y101362D01*
X267595Y101431D01*
X267655Y101509D01*
Y100091D01*
D02*
G37*
G36*
X266479Y100079D02*
X266810Y99858D01*
X266919Y99836D01*
X267204Y99407D01*
X267019Y98968D01*
X258771D01*
Y102048D01*
X258771Y102491D01*
X258771Y102991D01*
Y107080D01*
X259271Y107287D01*
X266479Y100079D01*
D02*
G37*
G36*
X236003Y96477D02*
X236057Y95666D01*
X236082Y95525D01*
X236110Y95410D01*
X236144Y95318D01*
X236182Y95252D01*
X236224Y95211D01*
X234810Y95116D01*
X234846Y95161D01*
X234879Y95231D01*
X234908Y95325D01*
X234932Y95443D01*
X234953Y95586D01*
X234984Y95945D01*
X235001Y96667D01*
X236001Y96741D01*
X236003Y96477D01*
D02*
G37*
G36*
X239930Y99098D02*
Y95477D01*
X241480D01*
Y86322D01*
X240677Y85519D01*
X234418D01*
Y81183D01*
X233976Y80992D01*
X233620Y81279D01*
Y92869D01*
X234120Y93021D01*
X234224Y92864D01*
X234846Y92449D01*
X235580Y92303D01*
X236314Y92449D01*
X236937Y92864D01*
X237352Y93487D01*
X237498Y94221D01*
X237352Y94955D01*
X237298Y95036D01*
X237534Y95477D01*
X238070D01*
Y98077D01*
X238138Y98090D01*
X238534Y98355D01*
X239468Y99289D01*
X239930Y99098D01*
D02*
G37*
G36*
X230580Y83141D02*
X230080Y83091D01*
X230072Y83134D01*
X229656Y83756D01*
X229034Y84172D01*
X228300Y84318D01*
X227903Y84239D01*
X225421Y86721D01*
X225282Y86814D01*
Y88753D01*
X222421D01*
Y88953D01*
X222221D01*
Y91124D01*
X219673D01*
X219400Y91558D01*
X220822Y92980D01*
X226800D01*
X227190Y93058D01*
X227521Y93279D01*
X229150Y94908D01*
X229371Y95239D01*
X229418Y95477D01*
X230580D01*
Y83141D01*
D02*
G37*
G36*
X226883Y84247D02*
X227220Y83957D01*
X227375Y83842D01*
X227522Y83746D01*
X227661Y83671D01*
X227792Y83616D01*
X227914Y83580D01*
X228028Y83565D01*
X228133Y83569D01*
X227131Y82567D01*
X227135Y82672D01*
X227120Y82786D01*
X227084Y82908D01*
X227029Y83039D01*
X226954Y83178D01*
X226858Y83325D01*
X226743Y83481D01*
X226453Y83817D01*
X226278Y83998D01*
X226702Y84422D01*
X226883Y84247D01*
D02*
G37*
G36*
X241455Y81291D02*
X241384Y81369D01*
X241293Y81438D01*
X241181Y81500D01*
X241050Y81553D01*
X240898Y81598D01*
X240727Y81635D01*
X240535Y81663D01*
X240092Y81696D01*
X239840Y81700D01*
Y82300D01*
X240092Y82304D01*
X240535Y82337D01*
X240727Y82365D01*
X240898Y82402D01*
X241050Y82447D01*
X241181Y82500D01*
X241293Y82561D01*
X241384Y82631D01*
X241455Y82709D01*
Y81291D01*
D02*
G37*
G36*
X222339Y80515D02*
X222180Y80350D01*
X221916Y80040D01*
X221812Y79895D01*
X221726Y79757D01*
X221658Y79625D01*
X221608Y79501D01*
X221577Y79383D01*
X221564Y79272D01*
X221569Y79167D01*
X220567Y80169D01*
X220672Y80164D01*
X220783Y80177D01*
X220901Y80208D01*
X221025Y80258D01*
X221157Y80326D01*
X221295Y80412D01*
X221440Y80516D01*
X221591Y80639D01*
X221915Y80939D01*
X222339Y80515D01*
D02*
G37*
G36*
X237158Y73505D02*
X237063Y73530D01*
X236959Y73532D01*
X236845Y73513D01*
X236721Y73471D01*
X236588Y73407D01*
X236445Y73320D01*
X236292Y73211D01*
X236129Y73080D01*
X235775Y72751D01*
X235459Y73283D01*
X235633Y73462D01*
X236052Y73951D01*
X236157Y74099D01*
X236245Y74238D01*
X236316Y74370D01*
X236369Y74494D01*
X236406Y74610D01*
X236425Y74718D01*
X237158Y73505D01*
D02*
G37*
G36*
X234231Y73784D02*
X234161Y73692D01*
X234100Y73581D01*
X234047Y73450D01*
X234002Y73298D01*
X233965Y73127D01*
X233937Y72935D01*
X233904Y72492D01*
X233900Y72240D01*
X233300D01*
X233296Y72492D01*
X233263Y72935D01*
X233235Y73127D01*
X233198Y73298D01*
X233153Y73450D01*
X233100Y73581D01*
X233038Y73692D01*
X232969Y73784D01*
X232891Y73855D01*
X234309D01*
X234231Y73784D01*
D02*
G37*
G36*
X231663Y73070D02*
X231639Y72987D01*
X231624Y72909D01*
X231616Y72834D01*
X231617Y72765D01*
X231626Y72699D01*
X231643Y72638D01*
X231668Y72581D01*
X231702Y72529D01*
X231744Y72481D01*
X231319Y72056D01*
X231254Y72117D01*
X231185Y72172D01*
X231111Y72222D01*
X231034Y72267D01*
X230952Y72307D01*
X230866Y72341D01*
X230776Y72370D01*
X230682Y72393D01*
X230584Y72412D01*
X230482Y72425D01*
X231695Y73158D01*
X231663Y73070D01*
D02*
G37*
G36*
X313483Y65434D02*
X313414Y65343D01*
X313352Y65232D01*
X313299Y65100D01*
X313254Y64949D01*
X313217Y64777D01*
X313189Y64586D01*
X313156Y64143D01*
X313152Y63891D01*
X312552D01*
X312548Y64143D01*
X312515Y64586D01*
X312487Y64777D01*
X312450Y64949D01*
X312405Y65100D01*
X312352Y65232D01*
X312290Y65343D01*
X312221Y65434D01*
X312143Y65506D01*
X313561D01*
X313483Y65434D01*
D02*
G37*
G36*
X298483D02*
X298413Y65343D01*
X298352Y65232D01*
X298299Y65100D01*
X298254Y64949D01*
X298217Y64777D01*
X298189Y64586D01*
X298156Y64143D01*
X298152Y63891D01*
X297552D01*
X297548Y64143D01*
X297515Y64586D01*
X297487Y64777D01*
X297450Y64949D01*
X297405Y65100D01*
X297352Y65232D01*
X297290Y65343D01*
X297221Y65434D01*
X297143Y65506D01*
X298561D01*
X298483Y65434D01*
D02*
G37*
G36*
X288483D02*
X288414Y65343D01*
X288352Y65232D01*
X288299Y65100D01*
X288254Y64949D01*
X288217Y64777D01*
X288189Y64586D01*
X288156Y64143D01*
X288152Y63891D01*
X287552D01*
X287548Y64143D01*
X287515Y64586D01*
X287487Y64777D01*
X287450Y64949D01*
X287405Y65100D01*
X287352Y65232D01*
X287290Y65343D01*
X287221Y65434D01*
X287143Y65506D01*
X288561D01*
X288483Y65434D01*
D02*
G37*
G36*
X283483D02*
X283414Y65343D01*
X283352Y65232D01*
X283299Y65100D01*
X283254Y64949D01*
X283217Y64777D01*
X283189Y64586D01*
X283156Y64143D01*
X283152Y63891D01*
X282552D01*
X282548Y64143D01*
X282515Y64586D01*
X282487Y64777D01*
X282450Y64949D01*
X282405Y65100D01*
X282352Y65232D01*
X282290Y65343D01*
X282221Y65434D01*
X282143Y65506D01*
X283561D01*
X283483Y65434D01*
D02*
G37*
G36*
X308831Y65384D02*
X308762Y65292D01*
X308700Y65181D01*
X308647Y65050D01*
X308602Y64898D01*
X308565Y64727D01*
X308537Y64535D01*
X308504Y64092D01*
X308500Y63840D01*
X307900D01*
X307896Y64092D01*
X307863Y64535D01*
X307835Y64727D01*
X307798Y64898D01*
X307753Y65050D01*
X307700Y65181D01*
X307639Y65292D01*
X307569Y65384D01*
X307491Y65455D01*
X308909D01*
X308831Y65384D01*
D02*
G37*
G36*
X303631Y65184D02*
X303561Y65092D01*
X303500Y64981D01*
X303447Y64850D01*
X303402Y64698D01*
X303365Y64527D01*
X303337Y64335D01*
X303304Y63892D01*
X303300Y63640D01*
X302700D01*
X302696Y63892D01*
X302663Y64335D01*
X302635Y64527D01*
X302598Y64698D01*
X302553Y64850D01*
X302500Y64981D01*
X302438Y65092D01*
X302369Y65184D01*
X302291Y65255D01*
X303709D01*
X303631Y65184D01*
D02*
G37*
G36*
X200404Y66118D02*
X200539Y66010D01*
X200680Y65915D01*
X200826Y65832D01*
X200977Y65762D01*
X201133Y65705D01*
X201294Y65660D01*
X201461Y65628D01*
X201633Y65609D01*
X201811Y65603D01*
X202250Y64103D01*
X202079Y64094D01*
X201926Y64067D01*
X201791Y64022D01*
X201674Y63959D01*
X201575Y63878D01*
X201494Y63779D01*
X201431Y63662D01*
X201386Y63527D01*
X201359Y63374D01*
X201350Y63203D01*
X199850Y63642D01*
X199844Y63819D01*
X199825Y63992D01*
X199793Y64158D01*
X199748Y64320D01*
X199691Y64476D01*
X199621Y64627D01*
X199538Y64773D01*
X199443Y64913D01*
X199335Y65049D01*
X199214Y65179D01*
X200274Y66239D01*
X200404Y66118D01*
D02*
G37*
G36*
X220516Y58931D02*
X220607Y58862D01*
X220719Y58800D01*
X220850Y58747D01*
X221002Y58702D01*
X221173Y58665D01*
X221365Y58637D01*
X221808Y58604D01*
X222060Y58600D01*
Y58000D01*
X221808Y57996D01*
X221365Y57963D01*
X221173Y57935D01*
X221002Y57898D01*
X220850Y57853D01*
X220719Y57800D01*
X220607Y57739D01*
X220516Y57669D01*
X220445Y57591D01*
Y59009D01*
X220516Y58931D01*
D02*
G37*
G36*
X203181Y58796D02*
X203272Y58726D01*
X203383Y58665D01*
X203515Y58612D01*
X203666Y58567D01*
X203838Y58530D01*
X204029Y58501D01*
X204473Y58469D01*
X204724Y58465D01*
Y57865D01*
X204473Y57860D01*
X204029Y57828D01*
X203838Y57799D01*
X203666Y57762D01*
X203515Y57717D01*
X203383Y57664D01*
X203272Y57603D01*
X203181Y57534D01*
X203109Y57456D01*
Y58873D01*
X203181Y58796D01*
D02*
G37*
G36*
X201997Y56995D02*
X201892Y57000D01*
X201779Y56984D01*
X201656Y56949D01*
X201526Y56894D01*
X201387Y56818D01*
X201240Y56723D01*
X201084Y56608D01*
X200748Y56318D01*
X200567Y56142D01*
X200143Y56567D01*
X200318Y56748D01*
X200608Y57084D01*
X200723Y57240D01*
X200818Y57387D01*
X200894Y57526D01*
X200949Y57656D01*
X200984Y57779D01*
X201000Y57892D01*
X200995Y57998D01*
X201997Y56995D01*
D02*
G37*
G36*
X215150Y55374D02*
X215362Y54738D01*
X214726Y54950D01*
X214471Y55205D01*
X214895Y55629D01*
X215150Y55374D01*
D02*
G37*
G36*
X227894Y50179D02*
X227897Y49931D01*
X227939Y49288D01*
X227965Y49107D01*
X228032Y48796D01*
X228074Y48667D01*
X228122Y48553D01*
X228175Y48457D01*
X226848Y48954D01*
X226933Y48992D01*
X227009Y49054D01*
X227076Y49140D01*
X227134Y49250D01*
X227183Y49384D01*
X227223Y49542D01*
X227254Y49724D01*
X227277Y49930D01*
X227294Y50414D01*
X227894Y50179D01*
D02*
G37*
G36*
X251511Y48930D02*
X251441Y48839D01*
X251380Y48728D01*
X251327Y48596D01*
X251282Y48445D01*
X251245Y48273D01*
X251216Y48082D01*
X251184Y47639D01*
X251180Y47387D01*
X250580D01*
X250575Y47639D01*
X250543Y48082D01*
X250514Y48273D01*
X250477Y48445D01*
X250432Y48596D01*
X250379Y48728D01*
X250318Y48839D01*
X250249Y48930D01*
X250171Y49002D01*
X251588D01*
X251511Y48930D01*
D02*
G37*
G36*
X219291Y48042D02*
X219251Y47999D01*
X219214Y47931D01*
X219182Y47839D01*
X219155Y47722D01*
X219131Y47581D01*
X219097Y47223D01*
X219080Y46768D01*
X219078Y46503D01*
X218078Y46523D01*
X218076Y46788D01*
X218027Y47602D01*
X218005Y47745D01*
X217978Y47862D01*
X217947Y47956D01*
X217913Y48024D01*
X217874Y48068D01*
X219291Y48042D01*
D02*
G37*
G36*
X147213Y36451D02*
X147155Y36449D01*
X147081Y36425D01*
X146994Y36382D01*
X146891Y36318D01*
X146775Y36234D01*
X146498Y36005D01*
X146164Y35694D01*
X145975Y35508D01*
X145268Y36215D01*
X145454Y36404D01*
X145994Y37015D01*
X146078Y37132D01*
X146142Y37234D01*
X146185Y37321D01*
X146209Y37395D01*
X146211Y37454D01*
X147213Y36451D01*
D02*
G37*
%LPC*%
G36*
X240439Y91124D02*
X237779D01*
Y89153D01*
X240439D01*
Y91124D01*
D02*
G37*
G36*
X237379D02*
X234718D01*
Y89153D01*
X237379D01*
Y91124D01*
D02*
G37*
G36*
X240439Y88753D02*
X237779D01*
Y86781D01*
X240439D01*
Y88753D01*
D02*
G37*
G36*
X237379D02*
X234718D01*
Y86781D01*
X237379D01*
Y88753D01*
D02*
G37*
G36*
X225282Y91124D02*
X222621D01*
Y89153D01*
X225282D01*
Y91124D01*
D02*
G37*
%LPD*%
G36*
X60631Y144424D02*
X60555Y144339D01*
X60496Y144255D01*
X60453Y144170D01*
X60428Y144085D01*
X60419Y144000D01*
X60428Y143915D01*
X60453Y143830D01*
X60496Y143745D01*
X60555Y143661D01*
X60631Y143576D01*
X59717Y143076D01*
X59631Y143156D01*
X59540Y143228D01*
X59447Y143292D01*
X59350Y143347D01*
X59249Y143394D01*
X59145Y143432D01*
X59037Y143462D01*
X58926Y143483D01*
X58811Y143496D01*
X58693Y143500D01*
Y144500D01*
X58811Y144504D01*
X58926Y144517D01*
X59037Y144538D01*
X59145Y144568D01*
X59249Y144606D01*
X59350Y144653D01*
X59447Y144708D01*
X59540Y144772D01*
X59631Y144844D01*
X59717Y144924D01*
X60631Y144424D01*
D02*
G37*
G36*
X68512Y123005D02*
X68326Y122817D01*
X67787Y122206D01*
X67702Y122089D01*
X67639Y121987D01*
X67595Y121899D01*
X67572Y121826D01*
X67569Y121767D01*
X66567Y122769D01*
X66626Y122772D01*
X66699Y122795D01*
X66787Y122839D01*
X66889Y122902D01*
X67006Y122987D01*
X67282Y123216D01*
X67616Y123527D01*
X67805Y123712D01*
X68512Y123005D01*
D02*
G37*
G36*
X65299Y123411D02*
X65830Y122951D01*
X65934Y122880D01*
X66026Y122826D01*
X66106Y122789D01*
X66176Y122771D01*
X66233Y122769D01*
X65231Y121767D01*
X65229Y121825D01*
X65211Y121894D01*
X65174Y121974D01*
X65121Y122066D01*
X65049Y122170D01*
X64960Y122285D01*
X64731Y122550D01*
X64431Y122862D01*
X65138Y123569D01*
X65299Y123411D01*
D02*
G37*
G36*
X49659Y88638D02*
X49624Y88570D01*
X49593Y88477D01*
X49566Y88359D01*
X49543Y88217D01*
X49510Y87859D01*
X49493Y87403D01*
X49491Y87138D01*
X48491Y87128D01*
X48489Y87393D01*
X48439Y88206D01*
X48415Y88348D01*
X48388Y88465D01*
X48356Y88558D01*
X48321Y88626D01*
X48281Y88669D01*
X49698Y88682D01*
X49659Y88638D01*
D02*
G37*
G36*
X190201Y98566D02*
X190269Y97431D01*
X190288Y97374D01*
X190309Y97345D01*
X188891D01*
X188912Y97374D01*
X188930Y97431D01*
X188947Y97513D01*
X188961Y97622D01*
X188983Y97920D01*
X189000Y98835D01*
X190200D01*
X190201Y98566D01*
D02*
G37*
G36*
X182401Y98166D02*
X182469Y97031D01*
X182488Y96974D01*
X182509Y96945D01*
X181091D01*
X181112Y96974D01*
X181131Y97031D01*
X181147Y97113D01*
X181161Y97222D01*
X181183Y97520D01*
X181200Y98435D01*
X182400D01*
X182401Y98166D01*
D02*
G37*
G36*
X104106Y82927D02*
X104023Y82964D01*
X103769Y83063D01*
X103724Y83076D01*
X103687Y83083D01*
X103658Y83085D01*
X103636Y83082D01*
X103622Y83074D01*
X103197Y83498D01*
X103228Y83534D01*
X103257Y83576D01*
X103285Y83625D01*
X103310Y83682D01*
X103335Y83746D01*
X103357Y83817D01*
X103398Y83981D01*
X103432Y84174D01*
X104106Y82927D01*
D02*
G37*
G36*
X110563Y84547D02*
X111174Y84007D01*
X111291Y83923D01*
X111393Y83859D01*
X111480Y83816D01*
X111554Y83793D01*
X111613Y83790D01*
X110611Y82787D01*
X110608Y82846D01*
X110585Y82919D01*
X110542Y83007D01*
X110478Y83109D01*
X110394Y83226D01*
X110164Y83502D01*
X109854Y83836D01*
X109668Y84025D01*
X110374Y84733D01*
X110563Y84547D01*
D02*
G37*
G36*
X182574Y78688D02*
X182631Y78670D01*
X182713Y78653D01*
X182822Y78639D01*
X183120Y78617D01*
X184035Y78600D01*
Y77400D01*
X183766Y77399D01*
X182631Y77330D01*
X182574Y77312D01*
X182545Y77291D01*
Y78709D01*
X182574Y78688D01*
D02*
G37*
G36*
X181688Y73426D02*
X181669Y73369D01*
X181653Y73287D01*
X181639Y73178D01*
X181617Y72880D01*
X181600Y71965D01*
X180400D01*
X180399Y72234D01*
X180331Y73369D01*
X180312Y73426D01*
X180291Y73455D01*
X181709D01*
X181688Y73426D01*
D02*
G37*
G36*
X106793Y77182D02*
X106730Y77263D01*
X106647Y77336D01*
X106541Y77400D01*
X106415Y77456D01*
X106268Y77503D01*
X106100Y77541D01*
X105911Y77571D01*
X105701Y77592D01*
X105217Y77609D01*
X105275Y78209D01*
X105526Y78213D01*
X105970Y78244D01*
X106164Y78271D01*
X106338Y78305D01*
X106494Y78348D01*
X106630Y78398D01*
X106748Y78455D01*
X106846Y78520D01*
X106925Y78593D01*
X106793Y77182D01*
D02*
G37*
G36*
X104451Y72310D02*
X104379Y72388D01*
X104288Y72457D01*
X104176Y72519D01*
X104045Y72572D01*
X103894Y72617D01*
X103722Y72654D01*
X103531Y72682D01*
X103087Y72715D01*
X102836Y72719D01*
Y73319D01*
X103087Y73323D01*
X103531Y73356D01*
X103722Y73384D01*
X103894Y73421D01*
X104045Y73466D01*
X104176Y73519D01*
X104288Y73580D01*
X104379Y73650D01*
X104451Y73728D01*
Y72310D01*
D02*
G37*
G36*
X104500Y66035D02*
X104432Y66110D01*
X104362Y66177D01*
X104290Y66236D01*
X104216Y66287D01*
X104140Y66330D01*
X104062Y66366D01*
X103982Y66393D01*
X103899Y66413D01*
X103815Y66425D01*
X103728Y66428D01*
Y67028D01*
X103809Y67033D01*
X103886Y67045D01*
X103961Y67066D01*
X104034Y67096D01*
X104104Y67134D01*
X104171Y67180D01*
X104235Y67235D01*
X104297Y67298D01*
X104357Y67370D01*
X104414Y67450D01*
X104500Y66035D01*
D02*
G37*
G36*
X104451Y62310D02*
X104379Y62388D01*
X104288Y62457D01*
X104176Y62519D01*
X104045Y62572D01*
X103894Y62617D01*
X103722Y62653D01*
X103531Y62682D01*
X103087Y62715D01*
X102836Y62719D01*
Y63319D01*
X103087Y63323D01*
X103531Y63356D01*
X103722Y63384D01*
X103894Y63421D01*
X104045Y63466D01*
X104176Y63519D01*
X104288Y63580D01*
X104379Y63650D01*
X104451Y63727D01*
Y62310D01*
D02*
G37*
G36*
Y57310D02*
X104379Y57388D01*
X104288Y57457D01*
X104176Y57519D01*
X104045Y57572D01*
X103894Y57617D01*
X103722Y57653D01*
X103531Y57682D01*
X103087Y57715D01*
X102836Y57719D01*
Y58319D01*
X103087Y58323D01*
X103531Y58356D01*
X103722Y58384D01*
X103894Y58421D01*
X104045Y58466D01*
X104176Y58519D01*
X104288Y58580D01*
X104379Y58650D01*
X104451Y58728D01*
Y57310D01*
D02*
G37*
G36*
X104859Y52869D02*
X104767Y52894D01*
X104680Y52912D01*
X104599Y52924D01*
X104523Y52928D01*
X104452Y52925D01*
X104387Y52915D01*
X104327Y52899D01*
X104272Y52875D01*
X104223Y52844D01*
X104180Y52807D01*
X103755Y53231D01*
X103805Y53285D01*
X103849Y53345D01*
X103888Y53410D01*
X103922Y53480D01*
X103951Y53555D01*
X103974Y53636D01*
X103993Y53722D01*
X104007Y53813D01*
X104016Y53909D01*
X104019Y54011D01*
X104859Y52869D01*
D02*
G37*
G36*
X301269Y50811D02*
X301234Y50743D01*
X301202Y50651D01*
X301175Y50533D01*
X301152Y50391D01*
X301119Y50034D01*
X301102Y49578D01*
X301100Y49313D01*
X300100D01*
X300098Y49578D01*
X300048Y50391D01*
X300025Y50533D01*
X299998Y50651D01*
X299967Y50743D01*
X299931Y50811D01*
X299891Y50855D01*
X301309D01*
X301269Y50811D01*
D02*
G37*
G36*
X124093Y47026D02*
X123907Y46837D01*
X123367Y46226D01*
X123283Y46110D01*
X123219Y46007D01*
X123176Y45920D01*
X123152Y45847D01*
X123150Y45788D01*
X122148Y46790D01*
X122206Y46793D01*
X122280Y46816D01*
X122367Y46859D01*
X122470Y46923D01*
X122586Y47007D01*
X122863Y47236D01*
X123197Y47547D01*
X123386Y47733D01*
X124093Y47026D01*
D02*
G37*
G36*
X116850Y42432D02*
X116814Y42364D01*
X116783Y42271D01*
X116756Y42154D01*
X116733Y42012D01*
X116699Y41654D01*
X116683Y41198D01*
X116681Y40933D01*
X115681D01*
X115678Y41198D01*
X115628Y42012D01*
X115605Y42154D01*
X115578Y42271D01*
X115547Y42364D01*
X115512Y42432D01*
X115472Y42476D01*
X116889D01*
X116850Y42432D01*
D02*
G37*
G36*
X295518Y36814D02*
X295440Y36887D01*
X295342Y36953D01*
X295226Y37011D01*
X295090Y37061D01*
X294935Y37104D01*
X294760Y37138D01*
X294567Y37165D01*
X294122Y37196D01*
X293871Y37200D01*
X293819Y37800D01*
X294071Y37804D01*
X294513Y37838D01*
X294702Y37868D01*
X294870Y37907D01*
X295018Y37953D01*
X295144Y38009D01*
X295250Y38073D01*
X295335Y38145D01*
X295398Y38226D01*
X295518Y36814D01*
D02*
G37*
G36*
X67116Y47164D02*
X67083Y47211D01*
X67024Y47253D01*
X66939Y47289D01*
X66829Y47321D01*
X66693Y47348D01*
X66531Y47370D01*
X66131Y47400D01*
X65627Y47409D01*
X65914Y48409D01*
X66181Y48411D01*
X67354Y48491D01*
X67423Y48513D01*
X67467Y48537D01*
X67116Y47164D01*
D02*
G37*
G36*
X104153Y48077D02*
X104422Y47854D01*
X104551Y47766D01*
X104675Y47694D01*
X104795Y47637D01*
X104911Y47597D01*
X105022Y47572D01*
X105130Y47563D01*
X105233Y47569D01*
X104231Y46567D01*
X104237Y46670D01*
X104228Y46778D01*
X104203Y46889D01*
X104163Y47005D01*
X104106Y47125D01*
X104034Y47249D01*
X103946Y47378D01*
X103842Y47510D01*
X103723Y47647D01*
X103588Y47788D01*
X104012Y48212D01*
X104153Y48077D01*
D02*
G37*
G36*
X69104Y46833D02*
X69082Y46764D01*
X69063Y46670D01*
X69046Y46552D01*
X69020Y46241D01*
X69001Y45590D01*
X69000Y45324D01*
X68000Y45036D01*
X67998Y45301D01*
X67939Y46102D01*
X67912Y46238D01*
X67880Y46349D01*
X67843Y46433D01*
X67801Y46492D01*
X67755Y46525D01*
X69128Y46877D01*
X69104Y46833D01*
D02*
G37*
G36*
X74703Y38541D02*
X74717Y38469D01*
X74752Y38382D01*
X74809Y38280D01*
X74888Y38165D01*
X74987Y38034D01*
X75251Y37729D01*
X75600Y37366D01*
X74729Y36823D01*
X74540Y37011D01*
X73938Y37539D01*
X73932Y37466D01*
X73930Y37379D01*
X72930D01*
X72928Y37498D01*
X72903Y37803D01*
X72888Y37886D01*
X72870Y37960D01*
X72848Y38026D01*
X72823Y38082D01*
X72794Y38129D01*
X72763Y38167D01*
X73818Y38013D01*
X74711Y38598D01*
X74703Y38541D01*
D02*
G37*
G36*
X272413Y50451D02*
X272355Y50449D01*
X272281Y50425D01*
X272194Y50382D01*
X272091Y50318D01*
X271975Y50234D01*
X271698Y50005D01*
X271364Y49694D01*
X271175Y49508D01*
X270468Y50215D01*
X270654Y50404D01*
X271194Y51015D01*
X271278Y51131D01*
X271342Y51234D01*
X271385Y51321D01*
X271409Y51395D01*
X271411Y51454D01*
X272413Y50451D01*
D02*
G37*
G36*
X295319Y31814D02*
X295240Y31887D01*
X295142Y31953D01*
X295026Y32011D01*
X294890Y32061D01*
X294735Y32103D01*
X294560Y32138D01*
X294367Y32165D01*
X293922Y32196D01*
X293671Y32200D01*
X293619Y32800D01*
X293871Y32804D01*
X294313Y32838D01*
X294502Y32868D01*
X294670Y32906D01*
X294818Y32953D01*
X294944Y33009D01*
X295050Y33073D01*
X295135Y33145D01*
X295198Y33226D01*
X295319Y31814D01*
D02*
G37*
G36*
X99833Y36231D02*
X99728Y36235D01*
X99614Y36220D01*
X99492Y36184D01*
X99361Y36129D01*
X99222Y36054D01*
X99075Y35958D01*
X98919Y35843D01*
X98583Y35553D01*
X98402Y35378D01*
X97978Y35802D01*
X98153Y35983D01*
X98443Y36320D01*
X98558Y36475D01*
X98654Y36622D01*
X98729Y36761D01*
X98784Y36892D01*
X98820Y37014D01*
X98835Y37128D01*
X98831Y37233D01*
X99833Y36231D01*
D02*
G37*
G36*
X101016Y34231D02*
X101108Y34161D01*
X101219Y34100D01*
X101350Y34047D01*
X101502Y34002D01*
X101673Y33965D01*
X101865Y33937D01*
X102308Y33904D01*
X102560Y33900D01*
Y33300D01*
X102308Y33296D01*
X101865Y33263D01*
X101673Y33235D01*
X101502Y33198D01*
X101350Y33153D01*
X101219Y33100D01*
X101108Y33038D01*
X101016Y32969D01*
X100945Y32891D01*
Y34309D01*
X101016Y34231D01*
D02*
G37*
G36*
X233000Y33912D02*
X233002Y33647D01*
X233067Y32687D01*
X233091Y32568D01*
X233119Y32474D01*
X233151Y32404D01*
X233186Y32359D01*
X231774Y32479D01*
X231817Y32520D01*
X231855Y32585D01*
X231889Y32676D01*
X231919Y32791D01*
X231943Y32931D01*
X231964Y33096D01*
X231991Y33501D01*
X232000Y34006D01*
X233000Y33912D01*
D02*
G37*
D15*
X218578Y42461D02*
Y49000D01*
X208208Y172400D02*
Y178791D01*
X194200Y173674D02*
X206934D01*
X208208Y172400D01*
X111497Y174074D02*
X113720Y171850D01*
X100000Y174074D02*
X111497D01*
X302000Y145651D02*
X302244Y145895D01*
X295200Y145947D02*
X301705D01*
X302000Y145651D01*
X174200Y63749D02*
X181200D01*
X188200D02*
X195200D01*
X224169Y54594D02*
Y56563D01*
X231532Y62468D02*
X233500Y60500D01*
X224169Y62468D02*
X231532D01*
X121981Y45621D02*
X124420Y48060D01*
X124460D01*
Y55033D02*
X124700Y55273D01*
X124460Y48060D02*
Y55033D01*
X136400Y40351D02*
X136498D01*
X137770Y41623D01*
Y41721D01*
X139849Y43800D01*
X145600D01*
X147997Y41403D01*
X150596D02*
X150959Y41040D01*
X147997Y41403D02*
X150596D01*
X142900Y34249D02*
X149006D01*
X149695Y33560D01*
X150959D01*
X142900Y34249D02*
X144172Y35520D01*
X145280D01*
X147380Y37621D01*
X116000Y38051D02*
X116181Y38232D01*
Y43421D01*
X73430Y38830D02*
X78539Y33720D01*
X79228D02*
X80500Y32449D01*
X78539Y33720D02*
X79228D01*
X68500Y32449D02*
X68598D01*
X69870Y33720D01*
Y33819D01*
X73430Y37379D01*
Y38830D01*
X109407Y84993D02*
X111800Y82600D01*
X108200Y87549D02*
X109407Y86342D01*
Y84993D02*
Y86342D01*
X48991Y86047D02*
X49078Y85961D01*
X48991Y86047D02*
Y89610D01*
X48981Y89621D02*
X48991Y89610D01*
X235500Y97949D02*
X236772Y99221D01*
X237669D01*
X241130Y102681D01*
Y102779D01*
X242402Y104051D01*
X242500D01*
X235500Y97949D02*
X235501Y97948D01*
Y94300D02*
Y97948D01*
Y94300D02*
X235580Y94221D01*
X300600Y48251D02*
Y51800D01*
X299849Y47500D02*
X300600Y48251D01*
X291630Y47500D02*
X299849D01*
X270370Y42500D02*
Y47500D01*
X270474Y47604D01*
Y49514D01*
X272581Y51621D01*
X232500Y32216D02*
Y36449D01*
X67914Y47909D02*
X68500Y47324D01*
Y38551D02*
Y47324D01*
Y37926D02*
Y38551D01*
X218669Y42551D02*
X225500D01*
X218578Y42461D02*
X218669Y42551D01*
X225500D02*
Y45500D01*
X224169Y46831D02*
X225500Y45500D01*
X224169Y46831D02*
Y54594D01*
X270370Y37500D02*
Y42500D01*
X269870Y43000D02*
X270370Y42500D01*
X92151Y184500D02*
X202500D01*
X87600Y185051D02*
X91600D01*
X92151Y184500D01*
X77600Y187315D02*
X80356D01*
X81628Y186043D01*
Y185637D02*
Y186043D01*
Y185637D02*
X82213Y185051D01*
X87600D01*
X62000Y146500D02*
Y155200D01*
X52600Y162649D02*
X53433Y161816D01*
X55384D01*
X62000Y155200D01*
X107000Y38800D02*
X115251D01*
X116000Y38051D01*
X141000Y93051D02*
X148200D01*
X153800Y123978D02*
Y124527D01*
Y116600D02*
Y123978D01*
X148200Y111000D02*
X153800Y116600D01*
X148200Y93051D02*
Y111000D01*
X151150Y121329D02*
X153800Y123978D01*
X147953Y121329D02*
X151150D01*
X70967Y123416D02*
X71000Y123449D01*
X68216Y123416D02*
X70967D01*
X66400Y121600D02*
X68216Y123416D01*
X62000Y123449D02*
X62233Y123216D01*
X64784D01*
X66400Y121600D01*
X108200Y93651D02*
X115400D01*
X108200D02*
Y97800D01*
X103091Y102909D02*
X108200Y97800D01*
X97905Y102909D02*
X103091D01*
X97905Y87909D02*
X107839D01*
X108200Y87549D01*
X44297Y81478D02*
X44478D01*
X47689Y84689D01*
X47807D02*
X49078Y85961D01*
X47689Y84689D02*
X47807D01*
X49078Y85961D02*
X49176D01*
X52461D01*
X49176D02*
X50448Y84689D01*
Y84591D02*
Y84689D01*
Y84591D02*
X56616Y78422D01*
X60738D01*
X61251Y77909D01*
X268071Y131671D02*
X271800Y135400D01*
X292054D02*
X295654Y139000D01*
X271800Y135400D02*
X292054D01*
X268071Y125984D02*
Y131671D01*
X97000Y113571D02*
Y123449D01*
Y113571D02*
X97661Y112909D01*
X97905D01*
X85402Y143449D02*
X85500D01*
X84130Y142177D02*
X85402Y143449D01*
X84130Y142079D02*
Y142177D01*
X81051Y139000D02*
X84130Y142079D01*
X76630Y139000D02*
X81051D01*
X87764Y151815D02*
X96500D01*
X86870Y150921D02*
X87764Y151815D01*
X86870Y150823D02*
Y150921D01*
X85598Y149551D02*
X86870Y150823D01*
X85500Y149551D02*
X85598D01*
X96500Y130051D02*
X97000Y129551D01*
X96500Y130051D02*
Y141185D01*
X85500Y138700D02*
Y143449D01*
Y138700D02*
X88500Y135700D01*
Y129551D02*
Y135700D01*
X82784Y129216D02*
X85600Y126400D01*
X91400D02*
X94216Y129216D01*
X85600Y126400D02*
X91400D01*
X80000Y129551D02*
X80335Y129216D01*
X82784D01*
X94216Y129216D02*
X96665D01*
X97000Y129551D01*
X51600Y187909D02*
Y193700D01*
X42100Y185700D02*
X48191D01*
X50399Y187909D01*
X51600D01*
X202500Y184500D02*
X208208Y178791D01*
X52600Y168751D02*
Y175491D01*
X51600Y176491D02*
X52600Y175491D01*
X59500Y144000D02*
X62000Y146500D01*
X55370Y144000D02*
X59500D01*
X70500Y152500D02*
Y162449D01*
Y152500D02*
X73400Y149600D01*
X76030D02*
X76630Y149000D01*
X73400Y149600D02*
X76030D01*
X76630Y144000D02*
Y149000D01*
X76446Y138816D02*
X76630Y139000D01*
X72816Y138816D02*
X76446D01*
X71000Y137000D02*
X72816Y138816D01*
X71000Y129551D02*
Y137000D01*
X79902Y123449D02*
X80000D01*
X78630Y122177D02*
X79902Y123449D01*
X78630Y122079D02*
Y122177D01*
X75051Y118500D02*
X78630Y122079D01*
X51000Y118500D02*
X75051D01*
X49595Y117095D02*
X51000Y118500D01*
X49078Y114409D02*
X49595Y114927D01*
Y117095D01*
X62000Y129551D02*
Y141500D01*
X59500Y144000D02*
X62000Y141500D01*
X55370Y149000D02*
Y154000D01*
X51500Y149000D02*
X55370D01*
X50685Y149815D02*
X51500Y149000D01*
X43500Y149815D02*
X50685D01*
X33000Y136000D02*
Y141449D01*
Y136000D02*
X42578Y126422D01*
Y114461D02*
Y126422D01*
Y114461D02*
X49027D01*
X49078Y114409D01*
X61251Y107909D02*
Y112909D01*
X81657Y41157D02*
X88409Y47909D01*
X80500Y38551D02*
X81657Y39708D01*
Y41157D01*
X61251Y47909D02*
X67914D01*
X44338Y69546D02*
Y69665D01*
X43752Y68961D02*
X44338Y69546D01*
X42578Y79563D02*
Y79760D01*
X44297Y81478D01*
X42676Y99961D02*
X44198Y98439D01*
X42578Y99961D02*
X42676D01*
X44198Y98340D02*
Y98439D01*
Y98340D02*
X45539Y97000D01*
X34620Y145931D02*
Y146029D01*
X33098Y147551D02*
X34620Y146029D01*
X33000Y147551D02*
X33098D01*
X50591Y63153D02*
Y64502D01*
X53999Y67909D01*
X49176Y99961D02*
X50698Y101482D01*
Y101581D01*
X49078Y99961D02*
X49176D01*
X49078Y108307D02*
X49476Y107909D01*
X40775Y139185D02*
X43500D01*
X58377Y72909D02*
X61251D01*
X57716Y72248D02*
X58377Y72909D01*
X57716Y71917D02*
Y72248D01*
X57130Y71331D02*
X57716Y71917D01*
X42578Y86256D02*
Y93858D01*
X44338Y69665D02*
X46003Y71331D01*
X48926Y61488D02*
X50591Y63153D01*
X52461Y85961D02*
X54409Y87909D01*
X50698Y101581D02*
X52027Y102909D01*
X47578Y61488D02*
X48926D01*
X53999Y67909D02*
X61251D01*
X38078Y68961D02*
X43752D01*
X47578Y71331D02*
X57130D01*
X46003D02*
X47578D01*
X54409Y87909D02*
X61251D01*
X55591Y92909D02*
X61251D01*
X45539Y97000D02*
X51500D01*
X49476Y107909D02*
X61251D01*
X39253Y140707D02*
Y141298D01*
Y140707D02*
X40775Y139185D01*
X88409Y47909D02*
X97905D01*
X51500Y97000D02*
X55591Y92909D01*
X52027Y102909D02*
X61251D01*
X34620Y145931D02*
X39253Y141298D01*
D16*
X230200Y73600D02*
X231532Y72268D01*
X230200Y73600D02*
X230600D01*
X233500Y69831D02*
X233600Y69931D01*
Y74800D01*
X231532Y69831D02*
Y72268D01*
X227594Y69831D02*
Y74598D01*
X231302Y78306D01*
X231306D02*
X231600Y78600D01*
X231302Y78306D02*
X231306D01*
X308071Y59055D02*
X308200Y59184D01*
Y66400D01*
X302852Y59211D02*
X303000Y59359D01*
Y66200D01*
X273290Y118589D02*
Y125828D01*
X258200Y109800D02*
X267200Y100800D01*
X282852Y59211D02*
Y66451D01*
X278290Y118589D02*
Y125828D01*
X263290Y118589D02*
Y125828D01*
X267200Y100800D02*
X268600D01*
X254290Y110239D02*
X254729Y109800D01*
X312852Y59211D02*
Y66451D01*
X297852Y59211D02*
Y66451D01*
X254729Y109800D02*
X258200D01*
X287852Y59211D02*
Y66451D01*
X271349Y97949D02*
X289400Y116000D01*
X258762Y97949D02*
X271349D01*
X249907Y97548D02*
X258361D01*
X249506Y97949D02*
X249907Y97548D01*
X258361D02*
X258762Y97949D01*
X242500D02*
X249506D01*
X289400Y116000D02*
X309200D01*
X215150Y54950D02*
X216900Y56700D01*
X213400Y53200D02*
X215150Y54950D01*
X213380Y58165D02*
X214241Y57303D01*
Y55859D02*
Y57303D01*
Y55859D02*
X215150Y54950D01*
X199400Y53200D02*
X213400D01*
X193401Y47201D02*
X199400Y53200D01*
X227200Y48000D02*
X227594Y48395D01*
Y51169D01*
X231478Y69884D02*
X231532Y69831D01*
X235400Y69899D02*
Y72800D01*
X237200Y74600D01*
X235400Y69899D02*
X235469Y69831D01*
X237200Y74600D02*
X237600D01*
X223938Y58300D02*
X224169Y58531D01*
X219500Y58300D02*
X223938D01*
X214447Y123047D02*
X223421D01*
X206283Y114883D02*
X214447Y123047D01*
X206283Y109937D02*
Y114883D01*
X214000Y113874D02*
X218677D01*
X226930Y105621D01*
X98156Y53019D02*
X103967D01*
X104948Y54000D01*
X105200D01*
X103800Y48000D02*
X105400Y46400D01*
X98175Y48000D02*
X103800D01*
X98451Y82909D02*
X98828Y83286D01*
X103409D01*
X104123Y84000D01*
X104600D01*
X97905Y77909D02*
X107691D01*
X107800Y77800D01*
X66309Y52909D02*
X78600Y65200D01*
X78600Y65200D02*
X102200D01*
X78600Y65200D02*
X78600Y65200D01*
X102200D02*
X103728Y66728D01*
X105328D02*
X105400Y66800D01*
X103728Y66728D02*
X105328D01*
X98156Y63019D02*
X105395D01*
X61251Y52909D02*
X66309D01*
X98400Y31200D02*
X107000D01*
X96600Y33000D02*
X98400Y31200D01*
X96600Y33000D02*
Y34000D01*
X100000Y37400D01*
X106900Y33600D02*
X107000Y33700D01*
X100000Y33600D02*
X106900D01*
X291630Y37500D02*
X296300D01*
X296400Y37600D01*
X291630Y32500D02*
X296100D01*
X250880Y42707D02*
Y49947D01*
X98156Y58019D02*
X105395D01*
X98156Y73019D02*
X105395D01*
X256328Y37821D02*
X257800Y36349D01*
X255731Y37821D02*
X256328D01*
X252570Y40981D02*
X255731Y37821D01*
X252570Y40981D02*
Y41080D01*
X251098Y42551D02*
X252570Y41080D01*
X251000Y42551D02*
X251098D01*
X257800Y50400D02*
X263071Y55671D01*
X257800Y42451D02*
Y50400D01*
X263071Y55671D02*
Y59055D01*
X213753Y83047D02*
X222421D01*
X222127Y82753D02*
X222421Y83047D01*
X222127Y80727D02*
Y82753D01*
X237579Y83047D02*
X238626Y82000D01*
X242400D01*
X220400Y79000D02*
X222127Y80727D01*
X224700Y86000D02*
X228300Y82400D01*
X213600Y86000D02*
X224700D01*
X209400Y90200D02*
X213600Y86000D01*
X209400Y90200D02*
Y92800D01*
X211800Y95200D01*
X216600D01*
X219081Y97681D01*
X221233D02*
X221500Y97949D01*
X219081Y97681D02*
X221233D01*
X313071Y119871D02*
Y125984D01*
X309200Y116000D02*
X313071Y119871D01*
X255345Y59055D02*
X258071D01*
X247600Y66800D02*
Y73000D01*
Y66800D02*
X255345Y59055D01*
X242200Y78400D02*
X247600Y73000D01*
X235000Y78400D02*
X242200D01*
X232600Y80800D02*
X235000Y78400D01*
X232600Y80800D02*
Y101151D01*
X235402Y104051D02*
X235500D01*
X233930Y102579D02*
X235402Y104051D01*
X233930Y102481D02*
Y102579D01*
X232600Y101151D02*
X233930Y102481D01*
X231600Y78600D02*
Y100951D01*
X228500Y104051D02*
X228598D01*
X230070Y102579D01*
Y102481D02*
Y102579D01*
Y102481D02*
X231600Y100951D01*
X228402Y104051D02*
X228500D01*
X226930Y105523D02*
X228402Y104051D01*
X226930Y105523D02*
Y105621D01*
X216299Y104051D02*
X221500D01*
X215947Y104403D02*
X216299Y104051D01*
X215947Y104403D02*
Y105139D01*
X215086Y106000D02*
X215947Y105139D01*
X214000Y106000D02*
X215086D01*
X206142Y90658D02*
X213753Y83047D01*
X206142Y90658D02*
Y95500D01*
X242500Y85900D02*
Y97949D01*
X240588Y83988D02*
X242500Y85900D01*
X237579Y83047D02*
X238519Y83988D01*
X240588D01*
X213858Y99437D02*
X219913D01*
X221402Y97949D01*
X221500D01*
X228429Y97878D02*
X228500Y97949D01*
X228429Y95629D02*
Y97878D01*
X226800Y94000D02*
X228429Y95629D01*
X220400Y94000D02*
X226800D01*
X217963Y91563D02*
X220400Y94000D01*
X213858Y91563D02*
X217963D01*
X223421Y123047D02*
X238579D01*
Y107130D02*
Y123047D01*
X237070Y105621D02*
X238579Y107130D01*
X237070Y105523D02*
Y105621D01*
X235598Y104051D02*
X237070Y105523D01*
X235500Y104051D02*
X235598D01*
X232500Y42551D02*
Y45500D01*
X229563Y48437D02*
X232500Y45500D01*
X229563Y48437D02*
Y51169D01*
X218100Y60500D02*
X224169D01*
X216900Y59300D02*
X218100Y60500D01*
X216900Y56700D02*
Y59300D01*
X193401Y43401D02*
Y47201D01*
X192913Y42913D02*
X193401Y43401D01*
X202165Y58165D02*
X205820D01*
X190354Y46354D02*
X202165Y58165D01*
X190354Y42913D02*
Y46354D01*
D18*
X323071Y125984D02*
D03*
X318071D02*
D03*
X313071D02*
D03*
X308071D02*
D03*
X303071D02*
D03*
X298071D02*
D03*
X293071D02*
D03*
X288071D02*
D03*
X283071D02*
D03*
X278071D02*
D03*
X273071D02*
D03*
X268071D02*
D03*
X263071D02*
D03*
X258071D02*
D03*
Y59055D02*
D03*
X263071D02*
D03*
X268071D02*
D03*
X273071D02*
D03*
X278071D02*
D03*
X283071D02*
D03*
X288071D02*
D03*
X293071D02*
D03*
X298071D02*
D03*
X303071D02*
D03*
X308071D02*
D03*
X313071D02*
D03*
X318071D02*
D03*
X323071D02*
D03*
D19*
X254134Y115020D02*
D03*
Y110020D02*
D03*
Y105020D02*
D03*
Y100020D02*
D03*
Y95020D02*
D03*
Y90020D02*
D03*
Y85020D02*
D03*
Y80020D02*
D03*
Y75020D02*
D03*
Y70020D02*
D03*
D20*
X300768Y103681D02*
D03*
Y96457D02*
D03*
Y89232D02*
D03*
X293543Y103681D02*
D03*
Y96457D02*
D03*
Y89232D02*
D03*
X286319Y103681D02*
D03*
Y96457D02*
D03*
Y89232D02*
D03*
D21*
X153800Y74927D02*
D03*
Y55073D02*
D03*
X124700Y55273D02*
D03*
Y75127D02*
D03*
X153800Y124527D02*
D03*
Y104673D02*
D03*
X124800Y124527D02*
D03*
Y104673D02*
D03*
D22*
X194200Y173674D02*
D03*
Y165800D02*
D03*
X100000Y174074D02*
D03*
Y166200D02*
D03*
D23*
X302000Y139549D02*
D03*
Y145651D02*
D03*
X136400Y40351D02*
D03*
Y34249D02*
D03*
X142900Y40351D02*
D03*
Y34249D02*
D03*
X300600Y48251D02*
D03*
Y42149D02*
D03*
X115400Y87549D02*
D03*
Y93651D02*
D03*
X218578Y36358D02*
D03*
Y42461D02*
D03*
X225500Y36449D02*
D03*
Y42551D02*
D03*
X251000Y36449D02*
D03*
Y42551D02*
D03*
X314600Y146102D02*
D03*
Y140000D02*
D03*
X321600Y146051D02*
D03*
Y139949D02*
D03*
X188200Y69851D02*
D03*
Y63749D02*
D03*
X174200Y69851D02*
D03*
Y63749D02*
D03*
X116000Y31949D02*
D03*
Y38051D02*
D03*
X38078Y62858D02*
D03*
Y68961D02*
D03*
X49078Y93858D02*
D03*
Y99961D02*
D03*
Y79858D02*
D03*
Y85961D02*
D03*
X169400Y40351D02*
D03*
Y34249D02*
D03*
X88500Y123449D02*
D03*
Y129551D02*
D03*
X42578Y108358D02*
D03*
Y114461D02*
D03*
X79000Y168551D02*
D03*
Y162449D02*
D03*
X80500Y38551D02*
D03*
Y32449D02*
D03*
X68500Y38551D02*
D03*
Y32449D02*
D03*
X232500Y36449D02*
D03*
Y42551D02*
D03*
X257800Y36349D02*
D03*
Y42451D02*
D03*
X235500Y104051D02*
D03*
Y97949D02*
D03*
X221500D02*
D03*
Y104051D02*
D03*
X228500D02*
D03*
Y97949D02*
D03*
X195200Y63749D02*
D03*
Y69851D02*
D03*
X181200Y63749D02*
D03*
Y69851D02*
D03*
X242500Y97949D02*
D03*
Y104051D02*
D03*
X148200Y86949D02*
D03*
Y93051D02*
D03*
X184200Y125351D02*
D03*
Y119249D02*
D03*
X141000Y86949D02*
D03*
Y93051D02*
D03*
X134000Y86949D02*
D03*
Y93051D02*
D03*
X42578Y99961D02*
D03*
Y93858D02*
D03*
X108200Y87549D02*
D03*
Y93651D02*
D03*
X97000Y129551D02*
D03*
Y123449D02*
D03*
X49078Y108307D02*
D03*
Y114409D02*
D03*
X42100Y179598D02*
D03*
Y185700D02*
D03*
X87600Y178949D02*
D03*
Y185051D02*
D03*
X85500Y143449D02*
D03*
Y149551D02*
D03*
X80000Y129551D02*
D03*
Y123449D02*
D03*
X33000Y141449D02*
D03*
Y147551D02*
D03*
X52600Y162649D02*
D03*
Y168751D02*
D03*
X70500Y168551D02*
D03*
Y162449D02*
D03*
X71000Y129551D02*
D03*
Y123449D02*
D03*
X62000Y129551D02*
D03*
Y123449D02*
D03*
D24*
X224169Y54594D02*
D03*
Y56563D02*
D03*
Y58531D02*
D03*
Y62468D02*
D03*
Y66405D02*
D03*
Y60500D02*
D03*
Y64437D02*
D03*
X242831Y54594D02*
D03*
Y56563D02*
D03*
Y62468D02*
D03*
Y58531D02*
D03*
Y60500D02*
D03*
Y64437D02*
D03*
Y66405D02*
D03*
D25*
X229563Y51169D02*
D03*
X227594D02*
D03*
X229563Y69831D02*
D03*
X227594D02*
D03*
X231532Y51169D02*
D03*
X235469D02*
D03*
X233500D02*
D03*
X239405D02*
D03*
X237437D02*
D03*
Y69831D02*
D03*
X239405D02*
D03*
X231532D02*
D03*
X235469D02*
D03*
X233500D02*
D03*
D26*
Y60500D02*
D03*
D27*
X160841Y41040D02*
D03*
Y37300D02*
D03*
Y33560D02*
D03*
X150959Y41040D02*
D03*
Y33560D02*
D03*
D28*
X61251Y52909D02*
D03*
Y47909D02*
D03*
Y57909D02*
D03*
Y72909D02*
D03*
Y62909D02*
D03*
Y67909D02*
D03*
Y77909D02*
D03*
Y92909D02*
D03*
Y82909D02*
D03*
Y97909D02*
D03*
Y102909D02*
D03*
Y87909D02*
D03*
Y107909D02*
D03*
Y112909D02*
D03*
X97905Y47909D02*
D03*
Y57909D02*
D03*
Y52909D02*
D03*
Y62909D02*
D03*
Y67909D02*
D03*
Y107909D02*
D03*
Y102909D02*
D03*
Y112909D02*
D03*
Y82909D02*
D03*
Y72909D02*
D03*
Y77909D02*
D03*
Y97909D02*
D03*
Y87909D02*
D03*
Y92909D02*
D03*
D29*
X222421Y83047D02*
D03*
Y88953D02*
D03*
X237579D02*
D03*
Y83047D02*
D03*
X238579Y123047D02*
D03*
Y128953D02*
D03*
X223421D02*
D03*
Y123047D02*
D03*
D30*
X270370Y32500D02*
D03*
Y37500D02*
D03*
Y42500D02*
D03*
Y47500D02*
D03*
X291630Y32500D02*
D03*
Y37500D02*
D03*
Y42500D02*
D03*
Y47500D02*
D03*
X76630Y154000D02*
D03*
Y149000D02*
D03*
Y144000D02*
D03*
Y139000D02*
D03*
X55370Y154000D02*
D03*
Y149000D02*
D03*
Y144000D02*
D03*
Y139000D02*
D03*
D31*
X195055Y80083D02*
D03*
X176945D02*
D03*
X186000D02*
D03*
D32*
Y102917D02*
D03*
D33*
X96500Y151815D02*
D03*
Y141185D02*
D03*
X43500Y139185D02*
D03*
Y149815D02*
D03*
X77600Y187315D02*
D03*
Y176685D02*
D03*
D34*
X213858Y99437D02*
D03*
Y91563D02*
D03*
X206142Y95500D02*
D03*
X206283Y109937D02*
D03*
X214000Y113874D02*
D03*
Y106000D02*
D03*
D35*
X212592Y66235D02*
D03*
D36*
X205820D02*
D03*
Y58165D02*
D03*
X213380D02*
D03*
D37*
X191200Y125646D02*
D03*
Y118954D02*
D03*
X42578Y86256D02*
D03*
Y79563D02*
D03*
X295200Y139253D02*
D03*
Y145947D02*
D03*
D38*
X51600Y176491D02*
D03*
Y187909D02*
D03*
D39*
X47578Y61488D02*
D03*
Y71331D02*
D03*
D40*
X107000Y38800D02*
D03*
Y36300D02*
D03*
Y33700D02*
D03*
Y31200D02*
D03*
X91000D02*
D03*
Y33700D02*
D03*
Y36300D02*
D03*
Y38800D02*
D03*
D41*
X195473Y42913D02*
D03*
X192913D02*
D03*
X198031D02*
D03*
X190354D02*
D03*
X187795D02*
D03*
D42*
X205118Y42421D02*
D03*
X180709D02*
D03*
D43*
X197343Y32480D02*
D03*
X188484D02*
D03*
D74*
X156879Y33600D02*
X176400D01*
X205820Y66235D02*
X206682Y65374D01*
X153627Y55247D02*
X153800Y55073D01*
X156000Y52873D01*
Y41000D02*
Y52873D01*
X197000Y84390D02*
Y111400D01*
X191200Y118757D02*
Y118954D01*
Y118757D02*
X192569Y117388D01*
X192765D01*
X197000Y113154D01*
Y111400D02*
Y113154D01*
X195055Y69996D02*
X195200Y69851D01*
X195055Y69996D02*
Y82445D01*
X206682Y63918D02*
X209600Y61000D01*
Y55600D02*
Y61000D01*
X206682Y63918D02*
Y65374D01*
X156000Y34479D02*
Y41000D01*
X156040Y41040D02*
X160841D01*
X156000Y41000D02*
X156040Y41040D01*
X156000Y34479D02*
X156879Y33600D01*
X176400D02*
X180600Y37800D01*
X195055Y82445D02*
X197000Y84390D01*
X71620Y169671D02*
X75491Y173542D01*
X70500Y168551D02*
X70598D01*
X71620Y169573D01*
Y169671D01*
X75491Y173542D02*
Y175663D01*
X76512Y176685D01*
X77600D01*
X205820Y65264D02*
Y66235D01*
X205409Y64853D02*
X205820Y65264D01*
X200600Y64853D02*
X205409D01*
X195551Y69902D02*
X200600Y64853D01*
Y61400D02*
Y64853D01*
X187795Y48595D02*
X200600Y61400D01*
X187795Y42913D02*
Y48595D01*
X180600Y37800D02*
X187092D01*
X187795Y38503D02*
Y42913D01*
X187092Y37800D02*
X187795Y38503D01*
X149553Y55247D02*
X153627D01*
X134000Y70800D02*
X149553Y55247D01*
X134000Y70800D02*
Y86949D01*
D75*
X185948Y102917D02*
X189600Y99265D01*
X181000Y70851D02*
X182000Y69851D01*
X309600Y140000D02*
X314600D01*
X309400Y139800D02*
X309600Y140000D01*
X320428Y138777D02*
X321600Y139949D01*
X320319Y138777D02*
X320428D01*
X318071Y136529D02*
X320319Y138777D01*
X314600Y140000D02*
X314651Y139949D01*
X321600D01*
X318071Y125984D02*
Y136529D01*
X184200Y125351D02*
X190905D01*
X191200Y125646D01*
X189600Y96400D02*
Y99265D01*
X181800Y98905D02*
X185813Y102917D01*
X181800Y96000D02*
Y98905D01*
X181000Y70851D02*
Y74400D01*
X232400Y31477D02*
Y31555D01*
X232781Y31935D01*
X232500Y32216D02*
X232781Y31935D01*
X181600Y78000D02*
X184730D01*
X186000Y79270D01*
Y80083D01*
X185813Y102917D02*
X185948D01*
X124800Y124527D02*
X129073D01*
X134000Y119600D01*
Y93051D02*
Y119600D01*
Y93051D02*
X134098D01*
X135370Y91780D01*
Y91681D02*
Y91780D01*
Y91681D02*
X138831Y88221D01*
X139728D01*
X141000Y86949D01*
X76630Y154000D02*
X85200D01*
X87400Y156200D02*
X105800D01*
X85200Y154000D02*
X87400Y156200D01*
X105800D02*
X124800Y137200D01*
Y124527D02*
Y137200D01*
X79000Y159000D02*
Y162449D01*
X76630Y156630D02*
X79000Y159000D01*
X76630Y154000D02*
Y156630D01*
D76*
X300768Y100069D02*
D03*
Y92844D02*
D03*
X297155Y103681D02*
D03*
Y96457D02*
D03*
Y89232D02*
D03*
X293543Y100069D02*
D03*
Y92844D02*
D03*
X289931Y103681D02*
D03*
Y96457D02*
D03*
Y89232D02*
D03*
X286319Y100069D02*
D03*
Y92844D02*
D03*
X299400Y119000D02*
D03*
X318000Y94800D02*
D03*
X138800Y54800D02*
D03*
X165000Y37200D02*
D03*
X54600Y60800D02*
D03*
X159800Y108600D02*
D03*
X147800Y69400D02*
D03*
X190400Y74200D02*
D03*
X230600Y73600D02*
D03*
X233600Y74800D02*
D03*
X308200Y66400D02*
D03*
X303000Y66200D02*
D03*
X214004Y102748D02*
D03*
X247300Y102111D02*
D03*
X198864Y115894D02*
D03*
X224930Y115246D02*
D03*
X216556Y109393D02*
D03*
X246644Y108710D02*
D03*
X264200Y108400D02*
D03*
X278290Y118589D02*
D03*
X312852Y66451D02*
D03*
X268600Y100800D02*
D03*
X263290Y118589D02*
D03*
X287852Y66451D02*
D03*
X297852D02*
D03*
X273290Y118589D02*
D03*
X282852Y66451D02*
D03*
X264000Y36000D02*
D03*
X170704Y102653D02*
D03*
X130357Y82685D02*
D03*
X144457Y97767D02*
D03*
X267462Y118848D02*
D03*
X247095Y116411D02*
D03*
X192031Y109864D02*
D03*
X202457Y102777D02*
D03*
X116386Y72272D02*
D03*
X116217Y79784D02*
D03*
X130432Y69024D02*
D03*
X99295Y43053D02*
D03*
X85052Y37062D02*
D03*
X130354Y36765D02*
D03*
X173907Y40558D02*
D03*
X150249Y45503D02*
D03*
X166066Y53060D02*
D03*
X162562Y62085D02*
D03*
X217571Y66514D02*
D03*
X266199Y70142D02*
D03*
X247818Y62104D02*
D03*
X249400Y55000D02*
D03*
X246400Y42000D02*
D03*
X202200Y47600D02*
D03*
X218600Y49000D02*
D03*
X323997Y205071D02*
D03*
X316123Y189323D02*
D03*
X323997Y173575D02*
D03*
X316123Y157827D02*
D03*
X300375Y220819D02*
D03*
X308249Y205071D02*
D03*
X300375Y189323D02*
D03*
X308249Y173575D02*
D03*
X300375Y157827D02*
D03*
X284627Y220819D02*
D03*
X292501Y205071D02*
D03*
X284627Y189323D02*
D03*
X292501Y173575D02*
D03*
X284627Y157827D02*
D03*
X268879D02*
D03*
X253131Y220819D02*
D03*
X261005Y205071D02*
D03*
X253131Y189323D02*
D03*
X261005Y173575D02*
D03*
X253131Y157827D02*
D03*
X237383Y220819D02*
D03*
X245257Y205071D02*
D03*
X237383Y189323D02*
D03*
X245257Y173575D02*
D03*
X237383Y157827D02*
D03*
X221635Y220819D02*
D03*
X229509Y205071D02*
D03*
X221635Y189323D02*
D03*
X229509Y173575D02*
D03*
X221635Y157827D02*
D03*
X205887D02*
D03*
X190139Y220819D02*
D03*
X198013Y205071D02*
D03*
X190139Y189323D02*
D03*
Y157827D02*
D03*
X174391D02*
D03*
Y126331D02*
D03*
Y94835D02*
D03*
X158643Y220819D02*
D03*
X166517Y205071D02*
D03*
X158643Y189323D02*
D03*
X166517Y173575D02*
D03*
X158643Y157827D02*
D03*
X166517Y142079D02*
D03*
X158643Y94835D02*
D03*
X166517Y79087D02*
D03*
Y47591D02*
D03*
X142895Y220819D02*
D03*
X150769Y205071D02*
D03*
X142895Y189323D02*
D03*
X150769Y173575D02*
D03*
X142895Y157827D02*
D03*
X150769Y142079D02*
D03*
X142895Y126331D02*
D03*
X127147Y220819D02*
D03*
X135021Y205071D02*
D03*
X127147Y189323D02*
D03*
X135021Y173575D02*
D03*
X127147Y157827D02*
D03*
X135021Y142079D02*
D03*
X127147Y31843D02*
D03*
X111399Y157827D02*
D03*
Y126331D02*
D03*
X119273Y110583D02*
D03*
X95651Y220819D02*
D03*
X103525Y205071D02*
D03*
Y142079D02*
D03*
Y110583D02*
D03*
X79903Y220819D02*
D03*
X87777Y205071D02*
D03*
Y173575D02*
D03*
Y110583D02*
D03*
X64154Y220819D02*
D03*
Y189323D02*
D03*
Y157827D02*
D03*
X72028Y110583D02*
D03*
X64154Y31843D02*
D03*
X56280Y205071D02*
D03*
X48406Y157827D02*
D03*
Y126331D02*
D03*
Y31843D02*
D03*
X40532Y205071D02*
D03*
X32658Y189323D02*
D03*
X40532Y173575D02*
D03*
X32658Y157827D02*
D03*
Y126331D02*
D03*
Y94835D02*
D03*
Y63339D02*
D03*
X86588Y159369D02*
D03*
X305038Y30341D02*
D03*
X283228Y44274D02*
D03*
X245972Y30447D02*
D03*
X213000Y50400D02*
D03*
X165669Y29451D02*
D03*
X147110Y29732D02*
D03*
X109854Y43496D02*
D03*
X85631Y30045D02*
D03*
X69068Y61267D02*
D03*
X54257Y134781D02*
D03*
X32733Y104732D02*
D03*
X143444Y106840D02*
D03*
X160886Y115577D02*
D03*
X144413Y81627D02*
D03*
X218098Y131545D02*
D03*
X303720Y133126D02*
D03*
X241635Y146324D02*
D03*
X215292Y146894D02*
D03*
X261136Y145640D02*
D03*
X205974Y128956D02*
D03*
X247990Y122884D02*
D03*
X229963Y135215D02*
D03*
X187200Y115200D02*
D03*
X193544Y142005D02*
D03*
X283295Y142993D02*
D03*
X317929Y110505D02*
D03*
X272800Y82800D02*
D03*
X319010Y76640D02*
D03*
X323859Y49467D02*
D03*
X278986Y31829D02*
D03*
X222763Y29738D02*
D03*
X184586Y57504D02*
D03*
X203670Y81031D02*
D03*
X185801Y89874D02*
D03*
X112000Y53800D02*
D03*
X124600Y91800D02*
D03*
X132600Y60200D02*
D03*
X53600Y75800D02*
D03*
X41200Y53600D02*
D03*
X52450Y40758D02*
D03*
X77200Y55000D02*
D03*
X85600Y72000D02*
D03*
X72400Y73400D02*
D03*
X86400Y90400D02*
D03*
X71600Y90800D02*
D03*
X318198Y149110D02*
D03*
X322998Y134310D02*
D03*
X189600Y96400D02*
D03*
X181800Y96000D02*
D03*
X181000Y74400D02*
D03*
X209600Y55600D02*
D03*
X227181Y47821D02*
D03*
X219500Y58300D02*
D03*
X237600Y74600D02*
D03*
X121981Y45621D02*
D03*
X147380Y37621D02*
D03*
X116181Y43421D02*
D03*
X73600Y39000D02*
D03*
X111781Y82621D02*
D03*
X52981Y90621D02*
D03*
X48981Y89621D02*
D03*
X239381Y93421D02*
D03*
X227980Y89021D02*
D03*
X235580Y94221D02*
D03*
X309400Y139800D02*
D03*
X300600Y51800D02*
D03*
X272581Y51621D02*
D03*
X232400Y31477D02*
D03*
X181600Y78000D02*
D03*
X105400Y46400D02*
D03*
X100000Y37400D02*
D03*
X68207Y47617D02*
D03*
X100000Y33600D02*
D03*
X105200Y54000D02*
D03*
X104600Y84000D02*
D03*
X107800Y77800D02*
D03*
X105400Y66800D02*
D03*
X296200Y32600D02*
D03*
X296400Y37600D02*
D03*
X250880Y49947D02*
D03*
X105395Y73019D02*
D03*
Y63019D02*
D03*
Y58019D02*
D03*
X242400Y82000D02*
D03*
X220400Y79000D02*
D03*
X228300Y82400D02*
D03*
X51600Y193200D02*
D03*
X202165Y58165D02*
D03*
X147953Y121329D02*
D03*
X66400Y121600D02*
D03*
D77*
X113720Y171850D02*
D03*
Y196850D02*
D03*
X177618D02*
D03*
X113720Y221850D02*
D03*
X177618D02*
D03*
Y171850D02*
D03*
X208208D02*
D03*
Y196850D02*
D03*
X272107D02*
D03*
X208208Y221850D02*
D03*
X272107D02*
D03*
Y171850D02*
D03*
D78*
X39370Y224410D02*
D03*
X314961Y39370D02*
D03*
Y224410D02*
D03*
X39370Y39370D02*
D03*
D79*
X204035Y32402D02*
D03*
X181791D02*
D03*
M02*
