G04*
G04 #@! TF.GenerationSoftware,Altium Limited,Altium Designer,20.1.12 (249)*
G04*
G04 Layer_Color=32896*
%FSLAX25Y25*%
%MOIN*%
G70*
G04*
G04 #@! TF.SameCoordinates,C485F13E-52F4-4B27-BA2E-0FCDB629E99E*
G04*
G04*
G04 #@! TF.FilePolarity,Positive*
G04*
G01*
G75*
%ADD15C,0.01000*%
D15*
X26575Y39370D02*
X26614Y38366D01*
X26732Y37369D01*
X26928Y36383D01*
X27201Y35416D01*
X27549Y34473D01*
X27969Y33561D01*
X28460Y32685D01*
X29019Y31849D01*
X29640Y31060D01*
X30322Y30322D01*
X31060Y29640D01*
X31849Y29019D01*
X32685Y28460D01*
X33561Y27969D01*
X34473Y27549D01*
X35416Y27201D01*
X36383Y26928D01*
X37369Y26732D01*
X38366Y26614D01*
X39370Y26575D01*
X314961D02*
X315965Y26614D01*
X316962Y26732D01*
X317948Y26928D01*
X318915Y27201D01*
X319857Y27549D01*
X320770Y27969D01*
X321646Y28460D01*
X322481Y29019D01*
X323271Y29640D01*
X324008Y30322D01*
X324690Y31060D01*
X325312Y31849D01*
X325870Y32685D01*
X326361Y33561D01*
X326782Y34473D01*
X327130Y35416D01*
X327402Y36383D01*
X327598Y37369D01*
X327716Y38366D01*
X327756Y39370D01*
Y224410D02*
X327716Y225413D01*
X327598Y226411D01*
X327402Y227396D01*
X327130Y228363D01*
X326782Y229306D01*
X326361Y230218D01*
X325870Y231095D01*
X325312Y231930D01*
X324690Y232719D01*
X324008Y233457D01*
X323271Y234139D01*
X322481Y234761D01*
X321646Y235319D01*
X320770Y235810D01*
X319857Y236231D01*
X318915Y236578D01*
X317948Y236851D01*
X316962Y237047D01*
X315965Y237165D01*
X314961Y237205D01*
X39370D02*
X38366Y237165D01*
X37369Y237047D01*
X36383Y236851D01*
X35416Y236578D01*
X34473Y236231D01*
X33561Y235810D01*
X32685Y235319D01*
X31849Y234761D01*
X31060Y234139D01*
X30322Y233457D01*
X29640Y232719D01*
X29019Y231930D01*
X28460Y231095D01*
X27969Y230218D01*
X27549Y229306D01*
X27201Y228363D01*
X26928Y227396D01*
X26732Y226411D01*
X26614Y225413D01*
X26575Y224410D01*
X39370Y237205D02*
X314961D01*
X39370Y26575D02*
X314961D01*
X26575Y39370D02*
Y224410D01*
X327756Y39370D02*
Y224410D01*
M02*
