G04*
G04 #@! TF.GenerationSoftware,Altium Limited,Altium Designer,20.1.12 (249)*
G04*
G04 Layer_Color=32896*
%FSLAX25Y25*%
%MOIN*%
G70*
G04*
G04 #@! TF.SameCoordinates,C485F13E-52F4-4B27-BA2E-0FCDB629E99E*
G04*
G04*
G04 #@! TF.FilePolarity,Positive*
G04*
G01*
G75*
%ADD15C,0.01000*%
%ADD17C,0.00610*%
D15*
X35200Y84200D02*
X41198D01*
X39199Y86199D01*
X41198Y88199D01*
X35200D01*
X39199Y90198D02*
X36200D01*
X35200Y91198D01*
Y94197D01*
X39199D01*
X35200Y96196D02*
Y98195D01*
Y97196D01*
X41198D01*
Y96196D01*
X40198Y102194D02*
X39199D01*
Y101195D01*
Y103194D01*
Y102194D01*
X36200D01*
X35200Y103194D01*
Y106193D02*
Y108192D01*
Y107193D01*
X39199D01*
Y106193D01*
X38199Y111191D02*
Y115190D01*
X35200Y120188D02*
Y118189D01*
X36200Y117189D01*
X38199D01*
X39199Y118189D01*
Y120188D01*
X38199Y121188D01*
X37199D01*
Y117189D01*
X35200Y124187D02*
X40198D01*
X38199D01*
Y123187D01*
Y125187D01*
Y124187D01*
X40198D01*
X41198Y125187D01*
X35200Y129185D02*
X40198D01*
X38199D01*
Y128186D01*
Y130185D01*
Y129185D01*
X40198D01*
X41198Y130185D01*
X35200Y136183D02*
Y134184D01*
X36200Y133184D01*
X38199D01*
X39199Y134184D01*
Y136183D01*
X38199Y137183D01*
X37199D01*
Y133184D01*
X39199Y143181D02*
Y140182D01*
X38199Y139182D01*
X36200D01*
X35200Y140182D01*
Y143181D01*
X40198Y146180D02*
X39199D01*
Y145180D01*
Y147180D01*
Y146180D01*
X36200D01*
X35200Y147180D01*
X41198Y156177D02*
X37199D01*
X35200Y158176D01*
X37199Y160175D01*
X41198D01*
X35200Y162175D02*
Y164174D01*
Y163174D01*
X41198D01*
X40198Y162175D01*
X35200Y167173D02*
X36200D01*
Y168173D01*
X35200D01*
Y167173D01*
X40198Y172171D02*
X41198Y173171D01*
Y175171D01*
X40198Y176170D01*
X36200D01*
X35200Y175171D01*
Y173171D01*
X36200Y172171D01*
X40198D01*
D17*
X298110Y137566D02*
X297454Y138222D01*
Y139534D01*
X298110Y140190D01*
X300734D01*
X301390Y139534D01*
Y138222D01*
X300734Y137566D01*
X299422D01*
Y138878D01*
X301390Y136254D02*
X297454D01*
X301390Y133630D01*
X297454D01*
Y132318D02*
X301390D01*
Y130350D01*
X300734Y129694D01*
X298110D01*
X297454Y130350D01*
Y132318D01*
X286110Y47966D02*
X285454Y48622D01*
Y49934D01*
X286110Y50590D01*
X286766D01*
X287422Y49934D01*
Y48622D01*
X288078Y47966D01*
X288734D01*
X289390Y48622D01*
Y49934D01*
X288734Y50590D01*
X289390Y44030D02*
Y46654D01*
X286766Y44030D01*
X286110D01*
X285454Y44686D01*
Y45998D01*
X286110Y46654D01*
X276910Y47766D02*
X276254Y48422D01*
Y49734D01*
X276910Y50390D01*
X277566D01*
X278222Y49734D01*
Y48422D01*
X278878Y47766D01*
X279534D01*
X280190Y48422D01*
Y49734D01*
X279534Y50390D01*
X280190Y46454D02*
Y45142D01*
Y45798D01*
X276254D01*
X276910Y46454D01*
X259590Y60990D02*
X255654D01*
Y59022D01*
X256310Y58366D01*
X257622D01*
X258278Y59022D01*
Y60990D01*
X259590Y54430D02*
Y57054D01*
X256966Y54430D01*
X256310D01*
X255654Y55086D01*
Y56398D01*
X256310Y57054D01*
X284590Y136590D02*
X280654D01*
Y134622D01*
X281310Y133966D01*
X282622D01*
X283278Y134622D01*
Y136590D01*
X280654Y130686D02*
Y131998D01*
X281310Y132654D01*
X283934D01*
X284590Y131998D01*
Y130686D01*
X283934Y130030D01*
X281310D01*
X280654Y130686D01*
X262110Y134166D02*
X261454Y134822D01*
Y136134D01*
X262110Y136790D01*
X262766D01*
X263422Y136134D01*
Y134822D01*
X264078Y134166D01*
X264734D01*
X265390Y134822D01*
Y136134D01*
X264734Y136790D01*
X262110Y132854D02*
X261454Y132198D01*
Y130886D01*
X262110Y130230D01*
X264734D01*
X265390Y130886D01*
Y132198D01*
X264734Y132854D01*
X262110D01*
X274390Y135590D02*
X270454D01*
Y133622D01*
X271110Y132966D01*
X272422D01*
X273078Y133622D01*
Y135590D01*
X274390Y131654D02*
Y130342D01*
Y130998D01*
X270454D01*
X271110Y131654D01*
X266054Y86590D02*
Y83966D01*
Y85278D01*
X269990D01*
X266710Y82654D02*
X266054Y81998D01*
Y80686D01*
X266710Y80030D01*
X269334D01*
X269990Y80686D01*
Y81998D01*
X269334Y82654D01*
X266710D01*
X230978Y227454D02*
X229666D01*
X229010Y228110D01*
Y230734D01*
X229666Y231390D01*
X230978D01*
X231634Y230734D01*
Y228110D01*
X230978Y227454D01*
X232946D02*
Y230734D01*
X233602Y231390D01*
X234914D01*
X235570Y230734D01*
Y227454D01*
X236882D02*
X239506D01*
X238194D01*
Y231390D01*
X240817D02*
Y227454D01*
X242785D01*
X243441Y228110D01*
Y229422D01*
X242785Y230078D01*
X240817D01*
X244753Y227454D02*
Y230734D01*
X245409Y231390D01*
X246721D01*
X247377Y230734D01*
Y227454D01*
X248689D02*
X251313D01*
X250001D01*
Y231390D01*
X136810Y227854D02*
X138122D01*
X137466D01*
Y231790D01*
X136810D01*
X138122D01*
X140090D02*
Y227854D01*
X142714Y231790D01*
Y227854D01*
X144026Y231790D02*
Y227854D01*
X145994D01*
X146650Y228510D01*
Y229822D01*
X145994Y230478D01*
X144026D01*
X147961Y227854D02*
Y231134D01*
X148617Y231790D01*
X149929D01*
X150585Y231134D01*
Y227854D01*
X151897D02*
X154521D01*
X153209D01*
Y231790D01*
X79310Y62566D02*
X78654Y63222D01*
Y64534D01*
X79310Y65190D01*
X79966D01*
X80622Y64534D01*
Y63222D01*
X81278Y62566D01*
X81934D01*
X82590Y63222D01*
Y64534D01*
X81934Y65190D01*
X79310Y58630D02*
X78654Y59286D01*
Y60598D01*
X79310Y61254D01*
X81934D01*
X82590Y60598D01*
Y59286D01*
X81934Y58630D01*
X78654Y57318D02*
X82590D01*
Y54694D01*
X87310Y62566D02*
X86654Y63222D01*
Y64534D01*
X87310Y65190D01*
X87966D01*
X88622Y64534D01*
Y63222D01*
X89278Y62566D01*
X89934D01*
X90590Y63222D01*
Y64534D01*
X89934Y65190D01*
X86654Y61254D02*
X90590D01*
Y59286D01*
X89934Y58630D01*
X87310D01*
X86654Y59286D01*
Y61254D01*
X90590Y57318D02*
X87966D01*
X86654Y56006D01*
X87966Y54694D01*
X90590D01*
X88622D01*
Y57318D01*
M02*
