G04*
G04 #@! TF.GenerationSoftware,Altium Limited,Altium Designer,21.9.2 (33)*
G04*
G04 Layer_Color=8388736*
%FSLAX25Y25*%
%MOIN*%
G70*
G04*
G04 #@! TF.SameCoordinates,E153DD42-8A7D-485B-B93F-EA924BBF0D18*
G04*
G04*
G04 #@! TF.FilePolarity,Negative*
G04*
G01*
G75*
%ADD49R,0.09646X0.04134*%
%ADD50R,0.02756X0.01929*%
%ADD51R,0.02756X0.03661*%
%ADD52O,0.10433X0.06496*%
%ADD53R,0.07480X0.08071*%
%ADD54R,0.02165X0.06102*%
%ADD55R,0.08858X0.06890*%
%ADD56R,0.13386X0.09055*%
%ADD57R,0.04331X0.09055*%
%ADD58R,0.04331X0.04134*%
%ADD59R,0.04528X0.04921*%
%ADD60R,0.04134X0.08465*%
%ADD61R,0.08465X0.04134*%
%ADD62R,0.05827X0.05827*%
%ADD63R,0.06890X0.13189*%
G04:AMPARAMS|DCode=64|XSize=16.14mil|YSize=44.1mil|CornerRadius=5.51mil|HoleSize=0mil|Usage=FLASHONLY|Rotation=270.000|XOffset=0mil|YOffset=0mil|HoleType=Round|Shape=RoundedRectangle|*
%AMROUNDEDRECTD64*
21,1,0.01614,0.03307,0,0,270.0*
21,1,0.00512,0.04410,0,0,270.0*
1,1,0.01102,-0.01654,-0.00256*
1,1,0.01102,-0.01654,0.00256*
1,1,0.01102,0.01654,0.00256*
1,1,0.01102,0.01654,-0.00256*
%
%ADD64ROUNDEDRECTD64*%
G04:AMPARAMS|DCode=65|XSize=16.14mil|YSize=44.1mil|CornerRadius=5.51mil|HoleSize=0mil|Usage=FLASHONLY|Rotation=0.000|XOffset=0mil|YOffset=0mil|HoleType=Round|Shape=RoundedRectangle|*
%AMROUNDEDRECTD65*
21,1,0.01614,0.03307,0,0,0.0*
21,1,0.00512,0.04410,0,0,0.0*
1,1,0.01102,0.00256,-0.01654*
1,1,0.01102,-0.00256,-0.01654*
1,1,0.01102,-0.00256,0.01654*
1,1,0.01102,0.00256,0.01654*
%
%ADD65ROUNDEDRECTD65*%
%ADD66R,0.12992X0.12992*%
G04:AMPARAMS|DCode=67|XSize=53.54mil|YSize=29.13mil|CornerRadius=8.76mil|HoleSize=0mil|Usage=FLASHONLY|Rotation=180.000|XOffset=0mil|YOffset=0mil|HoleType=Round|Shape=RoundedRectangle|*
%AMROUNDEDRECTD67*
21,1,0.05354,0.01161,0,0,180.0*
21,1,0.03602,0.02913,0,0,180.0*
1,1,0.01752,-0.01801,0.00581*
1,1,0.01752,0.01801,0.00581*
1,1,0.01752,0.01801,-0.00581*
1,1,0.01752,-0.01801,-0.00581*
%
%ADD67ROUNDEDRECTD67*%
G04:AMPARAMS|DCode=68|XSize=86.61mil|YSize=29.13mil|CornerRadius=5.86mil|HoleSize=0mil|Usage=FLASHONLY|Rotation=0.000|XOffset=0mil|YOffset=0mil|HoleType=Round|Shape=RoundedRectangle|*
%AMROUNDEDRECTD68*
21,1,0.08661,0.01742,0,0,0.0*
21,1,0.07490,0.02913,0,0,0.0*
1,1,0.01171,0.03745,-0.00871*
1,1,0.01171,-0.03745,-0.00871*
1,1,0.01171,-0.03745,0.00871*
1,1,0.01171,0.03745,0.00871*
%
%ADD68ROUNDEDRECTD68*%
%ADD69R,0.05512X0.04134*%
%ADD70R,0.06391X0.02791*%
G04:AMPARAMS|DCode=71|XSize=55.51mil|YSize=29.13mil|CornerRadius=5.86mil|HoleSize=0mil|Usage=FLASHONLY|Rotation=180.000|XOffset=0mil|YOffset=0mil|HoleType=Round|Shape=RoundedRectangle|*
%AMROUNDEDRECTD71*
21,1,0.05551,0.01742,0,0,180.0*
21,1,0.04380,0.02913,0,0,180.0*
1,1,0.01171,-0.02190,0.00871*
1,1,0.01171,0.02190,0.00871*
1,1,0.01171,0.02190,-0.00871*
1,1,0.01171,-0.02190,-0.00871*
%
%ADD71ROUNDEDRECTD71*%
G04:AMPARAMS|DCode=72|XSize=44.88mil|YSize=57.09mil|CornerRadius=5.88mil|HoleSize=0mil|Usage=FLASHONLY|Rotation=180.000|XOffset=0mil|YOffset=0mil|HoleType=Round|Shape=RoundedRectangle|*
%AMROUNDEDRECTD72*
21,1,0.04488,0.04534,0,0,180.0*
21,1,0.03313,0.05709,0,0,180.0*
1,1,0.01175,-0.01657,0.02267*
1,1,0.01175,0.01657,0.02267*
1,1,0.01175,0.01657,-0.02267*
1,1,0.01175,-0.01657,-0.02267*
%
%ADD72ROUNDEDRECTD72*%
G04:AMPARAMS|DCode=73|XSize=29.13mil|YSize=57.09mil|CornerRadius=4.7mil|HoleSize=0mil|Usage=FLASHONLY|Rotation=180.000|XOffset=0mil|YOffset=0mil|HoleType=Round|Shape=RoundedRectangle|*
%AMROUNDEDRECTD73*
21,1,0.02913,0.04770,0,0,180.0*
21,1,0.01974,0.05709,0,0,180.0*
1,1,0.00939,-0.00987,0.02385*
1,1,0.00939,0.00987,0.02385*
1,1,0.00939,0.00987,-0.02385*
1,1,0.00939,-0.00987,-0.02385*
%
%ADD73ROUNDEDRECTD73*%
%ADD74R,0.07756X0.05354*%
%ADD75R,0.08071X0.04921*%
%ADD76R,0.06591X0.02391*%
%ADD77O,0.04528X0.07284*%
%ADD78C,0.00591*%
%ADD79C,0.02953*%
D49*
X97400Y143085D02*
D03*
Y153715D02*
D03*
X89926Y131815D02*
D03*
Y121185D02*
D03*
X43500Y139185D02*
D03*
Y149815D02*
D03*
D50*
X309350Y231929D02*
D03*
X306004D02*
D03*
D51*
X313287Y232795D02*
D03*
X302067D02*
D03*
D52*
X108000Y175075D02*
D03*
Y167201D02*
D03*
X202200Y175075D02*
D03*
Y167201D02*
D03*
D53*
X193996Y21063D02*
D03*
X185138D02*
D03*
D54*
X184449Y31496D02*
D03*
X194685D02*
D03*
X189567D02*
D03*
X192126D02*
D03*
X187008D02*
D03*
D55*
X201772Y31004D02*
D03*
X177362D02*
D03*
D56*
X186000Y102917D02*
D03*
D57*
Y80083D02*
D03*
X176945D02*
D03*
X195055D02*
D03*
D58*
X295800Y178549D02*
D03*
Y184651D02*
D03*
X303800Y178349D02*
D03*
Y184451D02*
D03*
X311400Y178549D02*
D03*
Y184651D02*
D03*
X306600Y140149D02*
D03*
Y146251D02*
D03*
X142900Y40351D02*
D03*
Y34249D02*
D03*
X300600Y48251D02*
D03*
Y42149D02*
D03*
X115400Y87549D02*
D03*
Y93651D02*
D03*
X218578Y36358D02*
D03*
Y42461D02*
D03*
X225500Y36449D02*
D03*
Y42551D02*
D03*
X251000Y36449D02*
D03*
Y42551D02*
D03*
X314200Y146251D02*
D03*
Y140149D02*
D03*
X321600Y146051D02*
D03*
Y139949D02*
D03*
X188200Y69851D02*
D03*
Y63749D02*
D03*
X174200Y69851D02*
D03*
Y63749D02*
D03*
X116000Y31949D02*
D03*
Y38051D02*
D03*
X38078Y62858D02*
D03*
Y68961D02*
D03*
X49078Y93858D02*
D03*
Y99961D02*
D03*
Y79858D02*
D03*
Y85961D02*
D03*
X169400Y40351D02*
D03*
Y34249D02*
D03*
X71526Y123449D02*
D03*
Y129551D02*
D03*
X42578Y108358D02*
D03*
Y114461D02*
D03*
X76800Y169851D02*
D03*
Y163749D02*
D03*
X80500Y38551D02*
D03*
Y32449D02*
D03*
X68500Y38551D02*
D03*
Y32449D02*
D03*
X232500Y36449D02*
D03*
Y42551D02*
D03*
X257800Y36349D02*
D03*
Y42451D02*
D03*
X235500Y104051D02*
D03*
Y97949D02*
D03*
X221500D02*
D03*
Y104051D02*
D03*
X228500D02*
D03*
Y97949D02*
D03*
X195200Y63749D02*
D03*
Y69851D02*
D03*
X181200Y63749D02*
D03*
Y69851D02*
D03*
X242500Y97949D02*
D03*
Y104051D02*
D03*
X148200Y86949D02*
D03*
Y93051D02*
D03*
X141000Y86949D02*
D03*
Y93051D02*
D03*
X134000Y86949D02*
D03*
Y93051D02*
D03*
X42578Y99961D02*
D03*
Y93858D02*
D03*
X108200Y87549D02*
D03*
Y93651D02*
D03*
X51300Y180398D02*
D03*
Y186500D02*
D03*
X109000Y144949D02*
D03*
Y151051D02*
D03*
X79126Y123449D02*
D03*
Y129551D02*
D03*
X33000Y141449D02*
D03*
Y147551D02*
D03*
X61800Y163449D02*
D03*
Y169551D02*
D03*
X86000Y144949D02*
D03*
Y151051D02*
D03*
X63126Y129551D02*
D03*
Y123449D02*
D03*
X54126Y129551D02*
D03*
Y123449D02*
D03*
D59*
X42578Y79563D02*
D03*
Y86256D02*
D03*
D60*
X323071Y125984D02*
D03*
X318071D02*
D03*
X313071D02*
D03*
X308071D02*
D03*
X303071D02*
D03*
X298071D02*
D03*
X293071D02*
D03*
X288071D02*
D03*
X283071D02*
D03*
X278071D02*
D03*
X273071D02*
D03*
X268071D02*
D03*
X263071D02*
D03*
X258071D02*
D03*
Y59055D02*
D03*
X263071D02*
D03*
X268071D02*
D03*
X273071D02*
D03*
X278071D02*
D03*
X283071D02*
D03*
X288071D02*
D03*
X293071D02*
D03*
X298071D02*
D03*
X303071D02*
D03*
X308071D02*
D03*
X313071D02*
D03*
X318071D02*
D03*
X323071D02*
D03*
D61*
X254134Y115020D02*
D03*
Y110020D02*
D03*
Y105020D02*
D03*
Y100020D02*
D03*
Y95020D02*
D03*
Y90020D02*
D03*
Y85020D02*
D03*
Y80020D02*
D03*
Y75020D02*
D03*
Y70020D02*
D03*
D62*
X300768Y103681D02*
D03*
Y96457D02*
D03*
Y89232D02*
D03*
X293543Y103681D02*
D03*
Y96457D02*
D03*
Y89232D02*
D03*
X286319Y103681D02*
D03*
Y96457D02*
D03*
Y89232D02*
D03*
D63*
X153800Y74927D02*
D03*
Y55073D02*
D03*
X124700Y55273D02*
D03*
Y75127D02*
D03*
X153800Y124527D02*
D03*
Y104673D02*
D03*
X124800Y124527D02*
D03*
Y104673D02*
D03*
D64*
X224169Y54594D02*
D03*
Y56563D02*
D03*
Y58531D02*
D03*
Y62468D02*
D03*
Y66405D02*
D03*
Y60500D02*
D03*
Y64437D02*
D03*
X242831Y54594D02*
D03*
Y56563D02*
D03*
Y62468D02*
D03*
Y58531D02*
D03*
Y60500D02*
D03*
Y64437D02*
D03*
Y66405D02*
D03*
D65*
X229563Y51169D02*
D03*
X227594D02*
D03*
X229563Y69831D02*
D03*
X227594D02*
D03*
X231532Y51169D02*
D03*
X235469D02*
D03*
X233500D02*
D03*
X239405D02*
D03*
X237437D02*
D03*
Y69831D02*
D03*
X239405D02*
D03*
X231532D02*
D03*
X235469D02*
D03*
X233500D02*
D03*
D66*
Y60500D02*
D03*
D67*
X160841Y41040D02*
D03*
Y37300D02*
D03*
Y33560D02*
D03*
X150959Y41040D02*
D03*
Y33560D02*
D03*
D68*
X61251Y52909D02*
D03*
Y47909D02*
D03*
Y57909D02*
D03*
Y72909D02*
D03*
Y62909D02*
D03*
Y67909D02*
D03*
Y77909D02*
D03*
Y92909D02*
D03*
Y82909D02*
D03*
Y97909D02*
D03*
Y102909D02*
D03*
Y87909D02*
D03*
Y107909D02*
D03*
Y112909D02*
D03*
X97905Y47909D02*
D03*
Y57909D02*
D03*
Y52909D02*
D03*
Y62909D02*
D03*
Y67909D02*
D03*
Y107909D02*
D03*
Y102909D02*
D03*
Y112909D02*
D03*
Y82909D02*
D03*
Y72909D02*
D03*
Y77909D02*
D03*
Y97909D02*
D03*
Y87909D02*
D03*
Y92909D02*
D03*
D69*
X222421Y83047D02*
D03*
Y88953D02*
D03*
X237579D02*
D03*
Y83047D02*
D03*
X238579Y123047D02*
D03*
Y128953D02*
D03*
X223421D02*
D03*
Y123047D02*
D03*
D70*
X270370Y32500D02*
D03*
Y37500D02*
D03*
Y42500D02*
D03*
Y47500D02*
D03*
X291630Y32500D02*
D03*
Y37500D02*
D03*
Y42500D02*
D03*
Y47500D02*
D03*
X76630Y154000D02*
D03*
Y149000D02*
D03*
Y144000D02*
D03*
Y139000D02*
D03*
X55370Y154000D02*
D03*
Y149000D02*
D03*
Y144000D02*
D03*
Y139000D02*
D03*
D71*
X213858Y99437D02*
D03*
Y91563D02*
D03*
X206142Y95500D02*
D03*
X206283Y109937D02*
D03*
X214000Y113874D02*
D03*
Y106000D02*
D03*
D72*
X212592Y66235D02*
D03*
D73*
X205820D02*
D03*
Y58165D02*
D03*
X213380D02*
D03*
D74*
X61600Y177291D02*
D03*
Y188709D02*
D03*
D75*
X47578Y61488D02*
D03*
Y71331D02*
D03*
D76*
X107000Y38800D02*
D03*
Y36300D02*
D03*
Y33700D02*
D03*
Y31200D02*
D03*
X91000D02*
D03*
Y33700D02*
D03*
Y36300D02*
D03*
Y38800D02*
D03*
D77*
X200689Y20984D02*
D03*
X178445D02*
D03*
D78*
X181693Y29528D02*
D03*
X197441D02*
D03*
D79*
X300768Y100069D02*
D03*
Y92844D02*
D03*
X297155Y103681D02*
D03*
Y96457D02*
D03*
Y89232D02*
D03*
X293543Y100069D02*
D03*
Y92844D02*
D03*
X289931Y103681D02*
D03*
Y96457D02*
D03*
Y89232D02*
D03*
X286319Y100069D02*
D03*
Y92844D02*
D03*
M02*
