G04*
G04 #@! TF.GenerationSoftware,Altium Limited,Altium Designer,20.1.12 (249)*
G04*
G04 Layer_Physical_Order=2*
G04 Layer_Color=36540*
%FSLAX25Y25*%
%MOIN*%
G70*
G04*
G04 #@! TF.SameCoordinates,C485F13E-52F4-4B27-BA2E-0FCDB629E99E*
G04*
G04*
G04 #@! TF.FilePolarity,Positive*
G04*
G01*
G75*
%ADD76C,0.02362*%
G04:AMPARAMS|DCode=77|XSize=220.47mil|YSize=78.74mil|CornerRadius=19.68mil|HoleSize=0mil|Usage=FLASHONLY|Rotation=90.000|XOffset=0mil|YOffset=0mil|HoleType=Round|Shape=RoundedRectangle|*
%AMROUNDEDRECTD77*
21,1,0.22047,0.03937,0,0,90.0*
21,1,0.18110,0.07874,0,0,90.0*
1,1,0.03937,0.01968,0.09055*
1,1,0.03937,0.01968,-0.09055*
1,1,0.03937,-0.01968,-0.09055*
1,1,0.03937,-0.01968,0.09055*
%
%ADD77ROUNDEDRECTD77*%
G36*
X39370Y236402D02*
X314961D01*
X315747Y236402D01*
X317305Y236197D01*
X318824Y235790D01*
X320276Y235188D01*
X321638Y234402D01*
X322885Y233445D01*
X323996Y232334D01*
X324953Y231086D01*
X325739Y229725D01*
X326341Y228273D01*
X326748Y226754D01*
X326953Y225196D01*
Y224410D01*
Y39370D01*
Y38584D01*
X326748Y37025D01*
X326341Y35507D01*
X325739Y34054D01*
X324953Y32693D01*
X323996Y31446D01*
X322885Y30334D01*
X321638Y29377D01*
X320276Y28591D01*
X318824Y27990D01*
X317305Y27583D01*
X315747Y27378D01*
X38584D01*
X37025Y27583D01*
X35507Y27990D01*
X34054Y28591D01*
X32693Y29377D01*
X31446Y30334D01*
X30334Y31446D01*
X29377Y32693D01*
X28591Y34055D01*
X27990Y35507D01*
X27583Y37025D01*
X27378Y38584D01*
Y39370D01*
Y224410D01*
Y225196D01*
X27583Y226754D01*
X27990Y228273D01*
X28591Y229725D01*
X29377Y231086D01*
X30334Y232334D01*
X31446Y233445D01*
X32693Y234402D01*
X34055Y235188D01*
X35507Y235790D01*
X37025Y236197D01*
X38584Y236402D01*
X39370Y236402D01*
D02*
G37*
%LPC*%
G36*
X210177Y233320D02*
X208408D01*
Y222050D01*
X212592D01*
Y230906D01*
X212408Y231830D01*
X211885Y232613D01*
X211101Y233137D01*
X210177Y233320D01*
D02*
G37*
G36*
X115689D02*
X113920D01*
Y222050D01*
X118104D01*
Y230906D01*
X117920Y231830D01*
X117396Y232613D01*
X116613Y233137D01*
X115689Y233320D01*
D02*
G37*
G36*
X208009D02*
X206240D01*
X205316Y233137D01*
X204532Y232613D01*
X204009Y231830D01*
X203825Y230906D01*
Y222050D01*
X208009D01*
Y233320D01*
D02*
G37*
G36*
X113520D02*
X111752D01*
X110828Y233137D01*
X110044Y232613D01*
X109521Y231830D01*
X109337Y230906D01*
Y222050D01*
X113520D01*
Y233320D01*
D02*
G37*
G36*
X314961Y234787D02*
X313337Y234659D01*
X311754Y234279D01*
X310249Y233656D01*
X308861Y232805D01*
X307623Y231748D01*
X306565Y230509D01*
X305714Y229121D01*
X305091Y227616D01*
X304711Y226033D01*
X304583Y224410D01*
X304711Y222786D01*
X305091Y221203D01*
X305714Y219698D01*
X306565Y218310D01*
X307623Y217071D01*
X308861Y216014D01*
X310249Y215163D01*
X311754Y214540D01*
X313337Y214160D01*
X314961Y214032D01*
X316584Y214160D01*
X318167Y214540D01*
X319672Y215163D01*
X321060Y216014D01*
X322299Y217071D01*
X323356Y218310D01*
X324207Y219698D01*
X324830Y221203D01*
X325210Y222786D01*
X325338Y224410D01*
X325210Y226033D01*
X324830Y227616D01*
X324207Y229121D01*
X323356Y230509D01*
X322299Y231748D01*
X321060Y232805D01*
X319672Y233656D01*
X318167Y234279D01*
X316584Y234659D01*
X314961Y234787D01*
D02*
G37*
G36*
X39370D02*
X37747Y234659D01*
X36163Y234279D01*
X34659Y233656D01*
X33270Y232805D01*
X32032Y231748D01*
X30974Y230509D01*
X30123Y229121D01*
X29500Y227616D01*
X29120Y226033D01*
X28992Y224410D01*
X29120Y222786D01*
X29500Y221203D01*
X30123Y219698D01*
X30974Y218310D01*
X32032Y217071D01*
X33270Y216014D01*
X34659Y215163D01*
X36163Y214540D01*
X37747Y214160D01*
X39370Y214032D01*
X40993Y214160D01*
X42577Y214540D01*
X44081Y215163D01*
X45470Y216014D01*
X46708Y217071D01*
X47766Y218310D01*
X48617Y219698D01*
X49240Y221203D01*
X49620Y222786D01*
X49748Y224410D01*
X49620Y226033D01*
X49240Y227616D01*
X48617Y229121D01*
X47766Y230509D01*
X46708Y231748D01*
X45470Y232805D01*
X44081Y233656D01*
X42577Y234279D01*
X40993Y234659D01*
X39370Y234787D01*
D02*
G37*
G36*
X212592Y221650D02*
X208408D01*
Y210380D01*
X210177D01*
X211101Y210564D01*
X211885Y211088D01*
X212408Y211871D01*
X212592Y212795D01*
Y221650D01*
D02*
G37*
G36*
X208009D02*
X203825D01*
Y212795D01*
X204009Y211871D01*
X204532Y211088D01*
X205316Y210564D01*
X206240Y210380D01*
X208009D01*
Y221650D01*
D02*
G37*
G36*
X118104D02*
X113920D01*
Y210380D01*
X115689D01*
X116613Y210564D01*
X117396Y211088D01*
X117920Y211871D01*
X118104Y212795D01*
Y221650D01*
D02*
G37*
G36*
X113520D02*
X109337D01*
Y212795D01*
X109521Y211871D01*
X110044Y211088D01*
X110828Y210564D01*
X111752Y210380D01*
X113520D01*
Y221650D01*
D02*
G37*
G36*
X274075Y233597D02*
X270138D01*
X269441Y233505D01*
X268792Y233236D01*
X268235Y232809D01*
X267807Y232251D01*
X267538Y231602D01*
X267446Y230906D01*
Y212795D01*
X267538Y212099D01*
X267807Y211450D01*
X268235Y210892D01*
X268792Y210464D01*
X269441Y210195D01*
X270138Y210104D01*
X274075D01*
X274772Y210195D01*
X275421Y210464D01*
X275978Y210892D01*
X276406Y211450D01*
X276675Y212099D01*
X276766Y212795D01*
Y230906D01*
X276675Y231602D01*
X276406Y232251D01*
X275978Y232809D01*
X275421Y233236D01*
X274772Y233505D01*
X274075Y233597D01*
D02*
G37*
G36*
X179587D02*
X175650D01*
X174953Y233505D01*
X174304Y233236D01*
X173747Y232809D01*
X173319Y232251D01*
X173050Y231602D01*
X172958Y230906D01*
Y212795D01*
X173050Y212099D01*
X173319Y211450D01*
X173747Y210892D01*
X174304Y210464D01*
X174953Y210195D01*
X175650Y210104D01*
X179587D01*
X180283Y210195D01*
X180933Y210464D01*
X181490Y210892D01*
X181918Y211450D01*
X182187Y212099D01*
X182278Y212795D01*
Y230906D01*
X182187Y231602D01*
X181918Y232251D01*
X181490Y232809D01*
X180933Y233236D01*
X180283Y233505D01*
X179587Y233597D01*
D02*
G37*
G36*
X51600Y195118D02*
X50866Y194972D01*
X50244Y194556D01*
X49828Y193934D01*
X49682Y193200D01*
X49828Y192466D01*
X50244Y191844D01*
X50866Y191428D01*
X51600Y191282D01*
X52334Y191428D01*
X52956Y191844D01*
X53372Y192466D01*
X53518Y193200D01*
X53372Y193934D01*
X52956Y194556D01*
X52334Y194972D01*
X51600Y195118D01*
D02*
G37*
G36*
X274075Y208597D02*
X270138D01*
X269441Y208505D01*
X268792Y208236D01*
X268235Y207809D01*
X267807Y207251D01*
X267538Y206602D01*
X267446Y205906D01*
Y187795D01*
X267538Y187099D01*
X267807Y186450D01*
X268235Y185892D01*
X268792Y185464D01*
X269441Y185196D01*
X270138Y185104D01*
X274075D01*
X274772Y185196D01*
X275421Y185464D01*
X275978Y185892D01*
X276406Y186450D01*
X276675Y187099D01*
X276766Y187795D01*
Y205906D01*
X276675Y206602D01*
X276406Y207251D01*
X275978Y207809D01*
X275421Y208236D01*
X274772Y208505D01*
X274075Y208597D01*
D02*
G37*
G36*
X210177D02*
X206240D01*
X205543Y208505D01*
X204894Y208236D01*
X204337Y207809D01*
X203909Y207251D01*
X203640Y206602D01*
X203548Y205906D01*
Y187795D01*
X203640Y187099D01*
X203909Y186450D01*
X204337Y185892D01*
X204894Y185464D01*
X205543Y185196D01*
X206240Y185104D01*
X210177D01*
X210874Y185196D01*
X211523Y185464D01*
X212080Y185892D01*
X212508Y186450D01*
X212777Y187099D01*
X212868Y187795D01*
Y205906D01*
X212777Y206602D01*
X212508Y207251D01*
X212080Y207809D01*
X211523Y208236D01*
X210874Y208505D01*
X210177Y208597D01*
D02*
G37*
G36*
X179587D02*
X175650D01*
X174953Y208505D01*
X174304Y208236D01*
X173747Y207809D01*
X173319Y207251D01*
X173050Y206602D01*
X172958Y205906D01*
Y187795D01*
X173050Y187099D01*
X173319Y186450D01*
X173747Y185892D01*
X174304Y185464D01*
X174953Y185196D01*
X175650Y185104D01*
X179587D01*
X180283Y185196D01*
X180933Y185464D01*
X181490Y185892D01*
X181918Y186450D01*
X182187Y187099D01*
X182278Y187795D01*
Y205906D01*
X182187Y206602D01*
X181918Y207251D01*
X181490Y207809D01*
X180933Y208236D01*
X180283Y208505D01*
X179587Y208597D01*
D02*
G37*
G36*
X115689D02*
X111752D01*
X111055Y208505D01*
X110406Y208236D01*
X109849Y207809D01*
X109421Y207251D01*
X109152Y206602D01*
X109060Y205906D01*
Y187795D01*
X109152Y187099D01*
X109421Y186450D01*
X109849Y185892D01*
X110406Y185464D01*
X111055Y185196D01*
X111752Y185104D01*
X115689D01*
X116385Y185196D01*
X117035Y185464D01*
X117592Y185892D01*
X118020Y186450D01*
X118289Y187099D01*
X118380Y187795D01*
Y205906D01*
X118289Y206602D01*
X118020Y207251D01*
X117592Y207809D01*
X117035Y208236D01*
X116385Y208505D01*
X115689Y208597D01*
D02*
G37*
G36*
X274075Y183597D02*
X270138D01*
X269441Y183505D01*
X268792Y183236D01*
X268235Y182809D01*
X267807Y182251D01*
X267538Y181602D01*
X267446Y180905D01*
Y162795D01*
X267538Y162099D01*
X267807Y161450D01*
X268235Y160892D01*
X268792Y160464D01*
X269441Y160196D01*
X270138Y160104D01*
X274075D01*
X274772Y160196D01*
X275421Y160464D01*
X275978Y160892D01*
X276406Y161450D01*
X276675Y162099D01*
X276766Y162795D01*
Y180905D01*
X276675Y181602D01*
X276406Y182251D01*
X275978Y182809D01*
X275421Y183236D01*
X274772Y183505D01*
X274075Y183597D01*
D02*
G37*
G36*
X210177D02*
X206240D01*
X205543Y183505D01*
X204894Y183236D01*
X204337Y182809D01*
X203909Y182251D01*
X203640Y181602D01*
X203548Y180905D01*
Y162795D01*
X203640Y162099D01*
X203909Y161450D01*
X204337Y160892D01*
X204894Y160464D01*
X205543Y160196D01*
X206240Y160104D01*
X210177D01*
X210874Y160196D01*
X211523Y160464D01*
X212080Y160892D01*
X212508Y161450D01*
X212777Y162099D01*
X212868Y162795D01*
Y180905D01*
X212777Y181602D01*
X212508Y182251D01*
X212080Y182809D01*
X211523Y183236D01*
X210874Y183505D01*
X210177Y183597D01*
D02*
G37*
G36*
X179587D02*
X175650D01*
X174953Y183505D01*
X174304Y183236D01*
X173747Y182809D01*
X173319Y182251D01*
X173050Y181602D01*
X172958Y180905D01*
Y162795D01*
X173050Y162099D01*
X173319Y161450D01*
X173747Y160892D01*
X174304Y160464D01*
X174953Y160196D01*
X175650Y160104D01*
X179587D01*
X180283Y160196D01*
X180933Y160464D01*
X181490Y160892D01*
X181918Y161450D01*
X182187Y162099D01*
X182278Y162795D01*
Y180905D01*
X182187Y181602D01*
X181918Y182251D01*
X181490Y182809D01*
X180933Y183236D01*
X180283Y183505D01*
X179587Y183597D01*
D02*
G37*
G36*
X115689D02*
X111752D01*
X111055Y183505D01*
X110406Y183236D01*
X109849Y182809D01*
X109421Y182251D01*
X109152Y181602D01*
X109060Y180905D01*
Y162795D01*
X109152Y162099D01*
X109421Y161450D01*
X109849Y160892D01*
X110406Y160464D01*
X111055Y160196D01*
X111752Y160104D01*
X115689D01*
X116385Y160196D01*
X117035Y160464D01*
X117592Y160892D01*
X118020Y161450D01*
X118289Y162099D01*
X118380Y162795D01*
Y180905D01*
X118289Y181602D01*
X118020Y182251D01*
X117592Y182809D01*
X117035Y183236D01*
X116385Y183505D01*
X115689Y183597D01*
D02*
G37*
G36*
X309400Y141718D02*
X308666Y141572D01*
X308044Y141156D01*
X307628Y140534D01*
X307482Y139800D01*
X307628Y139066D01*
X308044Y138444D01*
X308666Y138028D01*
X309400Y137882D01*
X310134Y138028D01*
X310756Y138444D01*
X311172Y139066D01*
X311318Y139800D01*
X311172Y140534D01*
X310756Y141156D01*
X310134Y141572D01*
X309400Y141718D01*
D02*
G37*
G36*
X66400Y123518D02*
X65666Y123372D01*
X65044Y122956D01*
X64628Y122334D01*
X64482Y121600D01*
X64628Y120866D01*
X65044Y120244D01*
X65666Y119828D01*
X66400Y119682D01*
X67134Y119828D01*
X67756Y120244D01*
X68172Y120866D01*
X68318Y121600D01*
X68172Y122334D01*
X67756Y122956D01*
X67134Y123372D01*
X66400Y123518D01*
D02*
G37*
G36*
X147953Y123247D02*
X147219Y123101D01*
X146597Y122685D01*
X146181Y122063D01*
X146035Y121329D01*
X146181Y120595D01*
X146597Y119973D01*
X147219Y119557D01*
X147953Y119411D01*
X148687Y119557D01*
X149309Y119973D01*
X149725Y120595D01*
X149871Y121329D01*
X149725Y122063D01*
X149309Y122685D01*
X148687Y123101D01*
X147953Y123247D01*
D02*
G37*
G36*
X278290Y120507D02*
X277556Y120361D01*
X276934Y119945D01*
X276518Y119323D01*
X276372Y118589D01*
X276518Y117855D01*
X276934Y117233D01*
X277556Y116817D01*
X278290Y116671D01*
X279024Y116817D01*
X279646Y117233D01*
X280062Y117855D01*
X280208Y118589D01*
X280062Y119323D01*
X279646Y119945D01*
X279024Y120361D01*
X278290Y120507D01*
D02*
G37*
G36*
X273290D02*
X272556Y120361D01*
X271934Y119945D01*
X271518Y119323D01*
X271372Y118589D01*
X271518Y117855D01*
X271934Y117233D01*
X272556Y116817D01*
X273290Y116671D01*
X274024Y116817D01*
X274646Y117233D01*
X275062Y117855D01*
X275208Y118589D01*
X275062Y119323D01*
X274646Y119945D01*
X274024Y120361D01*
X273290Y120507D01*
D02*
G37*
G36*
X263290D02*
X262556Y120361D01*
X261933Y119945D01*
X261518Y119323D01*
X261372Y118589D01*
X261518Y117855D01*
X261933Y117233D01*
X262556Y116817D01*
X263290Y116671D01*
X264024Y116817D01*
X264646Y117233D01*
X265062Y117855D01*
X265208Y118589D01*
X265062Y119323D01*
X264646Y119945D01*
X264024Y120361D01*
X263290Y120507D01*
D02*
G37*
G36*
X297356Y105253D02*
Y103881D01*
X298728D01*
X298645Y104298D01*
X298295Y104821D01*
X297772Y105171D01*
X297356Y105253D01*
D02*
G37*
G36*
X296955D02*
X296539Y105171D01*
X296016Y104821D01*
X295666Y104298D01*
X295583Y103881D01*
X296955D01*
Y105253D01*
D02*
G37*
G36*
X290131D02*
Y103881D01*
X291503D01*
X291421Y104298D01*
X291071Y104821D01*
X290548Y105171D01*
X290131Y105253D01*
D02*
G37*
G36*
X289731D02*
X289314Y105171D01*
X288791Y104821D01*
X288442Y104298D01*
X288359Y103881D01*
X289731D01*
Y105253D01*
D02*
G37*
G36*
X298728Y103481D02*
X297356D01*
Y102109D01*
X297772Y102192D01*
X298295Y102541D01*
X298645Y103064D01*
X298728Y103481D01*
D02*
G37*
G36*
X291503Y103481D02*
X290131D01*
Y102109D01*
X290548Y102192D01*
X291071Y102541D01*
X291421Y103064D01*
X291503Y103481D01*
D02*
G37*
G36*
X289731D02*
X288359D01*
X288442Y103064D01*
X288791Y102541D01*
X289314Y102192D01*
X289731Y102109D01*
Y103481D01*
D02*
G37*
G36*
X296955Y103481D02*
X295583D01*
X295666Y103064D01*
X296016Y102541D01*
X296539Y102192D01*
X296955Y102109D01*
Y103481D01*
D02*
G37*
G36*
X300968Y101641D02*
Y100269D01*
X302340D01*
X302257Y100686D01*
X301908Y101209D01*
X301385Y101558D01*
X300968Y101641D01*
D02*
G37*
G36*
X300568D02*
X300151Y101558D01*
X299628Y101209D01*
X299278Y100686D01*
X299195Y100269D01*
X300568D01*
Y101641D01*
D02*
G37*
G36*
X293743D02*
Y100269D01*
X295116D01*
X295033Y100686D01*
X294683Y101209D01*
X294160Y101558D01*
X293743Y101641D01*
D02*
G37*
G36*
X293343D02*
X292926Y101558D01*
X292403Y101209D01*
X292054Y100686D01*
X291971Y100269D01*
X293343D01*
Y101641D01*
D02*
G37*
G36*
X286519D02*
Y100269D01*
X287891D01*
X287808Y100686D01*
X287459Y101209D01*
X286936Y101558D01*
X286519Y101641D01*
D02*
G37*
G36*
X286119D02*
X285702Y101558D01*
X285179Y101209D01*
X284829Y100686D01*
X284747Y100269D01*
X286119D01*
Y101641D01*
D02*
G37*
G36*
X268600Y102718D02*
X267866Y102572D01*
X267244Y102156D01*
X266828Y101534D01*
X266682Y100800D01*
X266828Y100066D01*
X267244Y99444D01*
X267866Y99028D01*
X268600Y98882D01*
X269334Y99028D01*
X269956Y99444D01*
X270372Y100066D01*
X270518Y100800D01*
X270372Y101534D01*
X269956Y102156D01*
X269334Y102572D01*
X268600Y102718D01*
D02*
G37*
G36*
X302340Y99869D02*
X300968D01*
Y98497D01*
X301385Y98580D01*
X301908Y98929D01*
X302257Y99452D01*
X302340Y99869D01*
D02*
G37*
G36*
X286119Y99869D02*
X284747D01*
X284829Y99452D01*
X285179Y98929D01*
X285702Y98580D01*
X286119Y98497D01*
Y99869D01*
D02*
G37*
G36*
X295116Y99869D02*
X293743D01*
Y98497D01*
X294160Y98580D01*
X294683Y98929D01*
X295033Y99452D01*
X295116Y99869D01*
D02*
G37*
G36*
X293343D02*
X291971D01*
X292054Y99452D01*
X292403Y98929D01*
X292926Y98580D01*
X293343Y98497D01*
Y99869D01*
D02*
G37*
G36*
X287891Y99869D02*
X286519D01*
Y98497D01*
X286936Y98580D01*
X287459Y98929D01*
X287808Y99452D01*
X287891Y99869D01*
D02*
G37*
G36*
X300568Y99869D02*
X299195D01*
X299278Y99452D01*
X299628Y98929D01*
X300151Y98580D01*
X300568Y98497D01*
Y99869D01*
D02*
G37*
G36*
X297356Y98029D02*
Y96657D01*
X298728D01*
X298645Y97074D01*
X298295Y97597D01*
X297772Y97946D01*
X297356Y98029D01*
D02*
G37*
G36*
X296955D02*
X296539Y97946D01*
X296016Y97597D01*
X295666Y97074D01*
X295583Y96657D01*
X296955D01*
Y98029D01*
D02*
G37*
G36*
X290131D02*
Y96657D01*
X291503D01*
X291421Y97074D01*
X291071Y97597D01*
X290548Y97946D01*
X290131Y98029D01*
D02*
G37*
G36*
X289731D02*
X289314Y97946D01*
X288791Y97597D01*
X288442Y97074D01*
X288359Y96657D01*
X289731D01*
Y98029D01*
D02*
G37*
G36*
X298728Y96257D02*
X297356D01*
Y94884D01*
X297772Y94967D01*
X298295Y95317D01*
X298645Y95840D01*
X298728Y96257D01*
D02*
G37*
G36*
X291503Y96257D02*
X290131D01*
Y94884D01*
X290548Y94967D01*
X291071Y95317D01*
X291421Y95840D01*
X291503Y96257D01*
D02*
G37*
G36*
X289731D02*
X288359D01*
X288442Y95840D01*
X288791Y95317D01*
X289314Y94967D01*
X289731Y94884D01*
Y96257D01*
D02*
G37*
G36*
X296955Y96257D02*
X295583D01*
X295666Y95840D01*
X296016Y95317D01*
X296539Y94967D01*
X296955Y94884D01*
Y96257D01*
D02*
G37*
G36*
X189600Y98318D02*
X188866Y98172D01*
X188244Y97756D01*
X187828Y97134D01*
X187682Y96400D01*
X187828Y95666D01*
X188244Y95044D01*
X188866Y94628D01*
X189600Y94482D01*
X190334Y94628D01*
X190956Y95044D01*
X191372Y95666D01*
X191518Y96400D01*
X191372Y97134D01*
X190956Y97756D01*
X190334Y98172D01*
X189600Y98318D01*
D02*
G37*
G36*
X181800Y97918D02*
X181066Y97772D01*
X180444Y97356D01*
X180028Y96734D01*
X179882Y96000D01*
X180028Y95266D01*
X180444Y94644D01*
X181066Y94228D01*
X181800Y94082D01*
X182534Y94228D01*
X183156Y94644D01*
X183572Y95266D01*
X183718Y96000D01*
X183572Y96734D01*
X183156Y97356D01*
X182534Y97772D01*
X181800Y97918D01*
D02*
G37*
G36*
X300968Y94417D02*
Y93045D01*
X302340D01*
X302257Y93461D01*
X301908Y93984D01*
X301385Y94334D01*
X300968Y94417D01*
D02*
G37*
G36*
X300568D02*
X300151Y94334D01*
X299628Y93984D01*
X299278Y93461D01*
X299195Y93045D01*
X300568D01*
Y94417D01*
D02*
G37*
G36*
X293743D02*
Y93045D01*
X295116D01*
X295033Y93461D01*
X294683Y93984D01*
X294160Y94334D01*
X293743Y94417D01*
D02*
G37*
G36*
X293343D02*
X292926Y94334D01*
X292403Y93984D01*
X292054Y93461D01*
X291971Y93045D01*
X293343D01*
Y94417D01*
D02*
G37*
G36*
X286519D02*
Y93045D01*
X287891D01*
X287808Y93461D01*
X287459Y93984D01*
X286936Y94334D01*
X286519Y94417D01*
D02*
G37*
G36*
X286119D02*
X285702Y94334D01*
X285179Y93984D01*
X284829Y93461D01*
X284747Y93045D01*
X286119D01*
Y94417D01*
D02*
G37*
G36*
X235580Y96139D02*
X234846Y95992D01*
X234224Y95577D01*
X233808Y94955D01*
X233663Y94221D01*
X233808Y93487D01*
X234224Y92864D01*
X234846Y92449D01*
X235580Y92303D01*
X236314Y92449D01*
X236937Y92864D01*
X237352Y93487D01*
X237498Y94221D01*
X237352Y94955D01*
X236937Y95577D01*
X236314Y95992D01*
X235580Y96139D01*
D02*
G37*
G36*
X302340Y92645D02*
X300968D01*
Y91272D01*
X301385Y91355D01*
X301908Y91705D01*
X302257Y92228D01*
X302340Y92645D01*
D02*
G37*
G36*
X286119Y92645D02*
X284747D01*
X284829Y92228D01*
X285179Y91705D01*
X285702Y91355D01*
X286119Y91272D01*
Y92645D01*
D02*
G37*
G36*
X295116Y92645D02*
X293743D01*
Y91272D01*
X294160Y91355D01*
X294683Y91705D01*
X295033Y92228D01*
X295116Y92645D01*
D02*
G37*
G36*
X293343D02*
X291971D01*
X292054Y92228D01*
X292403Y91705D01*
X292926Y91355D01*
X293343Y91272D01*
Y92645D01*
D02*
G37*
G36*
X287891Y92645D02*
X286519D01*
Y91272D01*
X286936Y91355D01*
X287459Y91705D01*
X287808Y92228D01*
X287891Y92645D01*
D02*
G37*
G36*
X300568Y92645D02*
X299195D01*
X299278Y92228D01*
X299628Y91705D01*
X300151Y91355D01*
X300568Y91272D01*
Y92645D01*
D02*
G37*
G36*
X297356Y90805D02*
Y89432D01*
X298728D01*
X298645Y89849D01*
X298295Y90372D01*
X297772Y90722D01*
X297356Y90805D01*
D02*
G37*
G36*
X296955D02*
X296539Y90722D01*
X296016Y90372D01*
X295666Y89849D01*
X295583Y89432D01*
X296955D01*
Y90805D01*
D02*
G37*
G36*
X290131D02*
Y89432D01*
X291503D01*
X291421Y89849D01*
X291071Y90372D01*
X290548Y90722D01*
X290131Y90805D01*
D02*
G37*
G36*
X289731D02*
X289314Y90722D01*
X288791Y90372D01*
X288442Y89849D01*
X288359Y89432D01*
X289731D01*
Y90805D01*
D02*
G37*
G36*
X48981Y91539D02*
X48246Y91392D01*
X47624Y90977D01*
X47208Y90355D01*
X47063Y89621D01*
X47208Y88887D01*
X47624Y88264D01*
X48246Y87849D01*
X48981Y87703D01*
X49714Y87849D01*
X50337Y88264D01*
X50752Y88887D01*
X50898Y89621D01*
X50752Y90355D01*
X50337Y90977D01*
X49714Y91392D01*
X48981Y91539D01*
D02*
G37*
G36*
X298728Y89032D02*
X297356D01*
Y87660D01*
X297772Y87743D01*
X298295Y88092D01*
X298645Y88615D01*
X298728Y89032D01*
D02*
G37*
G36*
X291503Y89032D02*
X290131D01*
Y87660D01*
X290548Y87743D01*
X291071Y88092D01*
X291421Y88615D01*
X291503Y89032D01*
D02*
G37*
G36*
X289731D02*
X288359D01*
X288442Y88615D01*
X288791Y88092D01*
X289314Y87743D01*
X289731Y87660D01*
Y89032D01*
D02*
G37*
G36*
X296955Y89032D02*
X295583D01*
X295666Y88615D01*
X296016Y88092D01*
X296539Y87743D01*
X296955Y87660D01*
Y89032D01*
D02*
G37*
G36*
X104600Y85918D02*
X103866Y85772D01*
X103244Y85356D01*
X102828Y84734D01*
X102682Y84000D01*
X102828Y83266D01*
X103244Y82644D01*
X103866Y82228D01*
X104600Y82082D01*
X105334Y82228D01*
X105956Y82644D01*
X106372Y83266D01*
X106518Y84000D01*
X106372Y84734D01*
X105956Y85356D01*
X105334Y85772D01*
X104600Y85918D01*
D02*
G37*
G36*
X111781Y84539D02*
X111047Y84392D01*
X110424Y83977D01*
X110009Y83355D01*
X109862Y82621D01*
X110009Y81887D01*
X110424Y81264D01*
X111047Y80849D01*
X111781Y80703D01*
X112514Y80849D01*
X113137Y81264D01*
X113552Y81887D01*
X113698Y82621D01*
X113552Y83355D01*
X113137Y83977D01*
X112514Y84392D01*
X111781Y84539D01*
D02*
G37*
G36*
X228300Y84318D02*
X227566Y84172D01*
X226944Y83756D01*
X226528Y83134D01*
X226382Y82400D01*
X226528Y81666D01*
X226944Y81044D01*
X227566Y80628D01*
X228300Y80482D01*
X229034Y80628D01*
X229656Y81044D01*
X230072Y81666D01*
X230218Y82400D01*
X230072Y83134D01*
X229656Y83756D01*
X229034Y84172D01*
X228300Y84318D01*
D02*
G37*
G36*
X242400Y83918D02*
X241666Y83772D01*
X241044Y83356D01*
X240628Y82734D01*
X240482Y82000D01*
X240628Y81266D01*
X241044Y80644D01*
X241666Y80228D01*
X242400Y80082D01*
X243134Y80228D01*
X243756Y80644D01*
X244172Y81266D01*
X244318Y82000D01*
X244172Y82734D01*
X243756Y83356D01*
X243134Y83772D01*
X242400Y83918D01*
D02*
G37*
G36*
X220400Y80918D02*
X219666Y80772D01*
X219044Y80356D01*
X218628Y79734D01*
X218482Y79000D01*
X218628Y78266D01*
X219044Y77644D01*
X219666Y77228D01*
X220400Y77082D01*
X221134Y77228D01*
X221756Y77644D01*
X222172Y78266D01*
X222318Y79000D01*
X222172Y79734D01*
X221756Y80356D01*
X221134Y80772D01*
X220400Y80918D01*
D02*
G37*
G36*
X107800Y79718D02*
X107066Y79572D01*
X106444Y79156D01*
X106028Y78534D01*
X105882Y77800D01*
X106028Y77066D01*
X106444Y76444D01*
X107066Y76028D01*
X107800Y75882D01*
X108534Y76028D01*
X109156Y76444D01*
X109572Y77066D01*
X109718Y77800D01*
X109572Y78534D01*
X109156Y79156D01*
X108534Y79572D01*
X107800Y79718D01*
D02*
G37*
G36*
X233600Y76718D02*
X232866Y76572D01*
X232244Y76156D01*
X231828Y75534D01*
X231373Y75346D01*
X231334Y75372D01*
X230600Y75518D01*
X229866Y75372D01*
X229244Y74956D01*
X228828Y74334D01*
X228682Y73600D01*
X228828Y72866D01*
X229244Y72244D01*
X229866Y71828D01*
X230600Y71682D01*
X231334Y71828D01*
X231956Y72244D01*
X232372Y72866D01*
X232827Y73054D01*
X232866Y73028D01*
X233600Y72882D01*
X234334Y73028D01*
X234956Y73444D01*
X235300Y73958D01*
X235744Y73933D01*
X235820Y73905D01*
X235828Y73866D01*
X236244Y73244D01*
X236866Y72828D01*
X237600Y72682D01*
X238334Y72828D01*
X238956Y73244D01*
X239372Y73866D01*
X239518Y74600D01*
X239372Y75334D01*
X238956Y75956D01*
X238334Y76372D01*
X237600Y76518D01*
X236866Y76372D01*
X236244Y75956D01*
X235900Y75442D01*
X235456Y75467D01*
X235380Y75495D01*
X235372Y75534D01*
X234956Y76156D01*
X234334Y76572D01*
X233600Y76718D01*
D02*
G37*
G36*
X181600Y79918D02*
X180866Y79772D01*
X180244Y79356D01*
X179828Y78734D01*
X179682Y78000D01*
X179828Y77266D01*
X180244Y76644D01*
X180250Y76640D01*
X180158Y76100D01*
X179644Y75756D01*
X179228Y75134D01*
X179082Y74400D01*
X179228Y73666D01*
X179644Y73044D01*
X180266Y72628D01*
X181000Y72482D01*
X181734Y72628D01*
X182356Y73044D01*
X182772Y73666D01*
X182918Y74400D01*
X182772Y75134D01*
X182356Y75756D01*
X182350Y75760D01*
X182442Y76300D01*
X182956Y76644D01*
X183372Y77266D01*
X183518Y78000D01*
X183372Y78734D01*
X182956Y79356D01*
X182334Y79772D01*
X181600Y79918D01*
D02*
G37*
G36*
X105395Y74937D02*
X104662Y74791D01*
X104039Y74375D01*
X103623Y73753D01*
X103478Y73019D01*
X103623Y72285D01*
X104039Y71663D01*
X104662Y71247D01*
X105395Y71101D01*
X106129Y71247D01*
X106752Y71663D01*
X107167Y72285D01*
X107313Y73019D01*
X107167Y73753D01*
X106752Y74375D01*
X106129Y74791D01*
X105395Y74937D01*
D02*
G37*
G36*
X312852Y68369D02*
X312118Y68222D01*
X311496Y67807D01*
X311080Y67185D01*
X310934Y66451D01*
X311080Y65717D01*
X311496Y65094D01*
X312118Y64679D01*
X312852Y64533D01*
X313586Y64679D01*
X314208Y65094D01*
X314624Y65717D01*
X314770Y66451D01*
X314624Y67185D01*
X314208Y67807D01*
X313586Y68222D01*
X312852Y68369D01*
D02*
G37*
G36*
X297852D02*
X297118Y68222D01*
X296496Y67807D01*
X296080Y67185D01*
X295934Y66451D01*
X296080Y65717D01*
X296496Y65094D01*
X297118Y64679D01*
X297852Y64533D01*
X298586Y64679D01*
X299208Y65094D01*
X299624Y65717D01*
X299770Y66451D01*
X299624Y67185D01*
X299208Y67807D01*
X298586Y68222D01*
X297852Y68369D01*
D02*
G37*
G36*
X287852D02*
X287118Y68222D01*
X286496Y67807D01*
X286080Y67185D01*
X285934Y66451D01*
X286080Y65717D01*
X286496Y65094D01*
X287118Y64679D01*
X287852Y64533D01*
X288586Y64679D01*
X289208Y65094D01*
X289624Y65717D01*
X289770Y66451D01*
X289624Y67185D01*
X289208Y67807D01*
X288586Y68222D01*
X287852Y68369D01*
D02*
G37*
G36*
X282852D02*
X282118Y68222D01*
X281496Y67807D01*
X281080Y67185D01*
X280934Y66451D01*
X281080Y65717D01*
X281496Y65094D01*
X282118Y64679D01*
X282852Y64533D01*
X283586Y64679D01*
X284208Y65094D01*
X284624Y65717D01*
X284770Y66451D01*
X284624Y67185D01*
X284208Y67807D01*
X283586Y68222D01*
X282852Y68369D01*
D02*
G37*
G36*
X308200Y68318D02*
X307466Y68172D01*
X306844Y67756D01*
X306428Y67134D01*
X306282Y66400D01*
X306428Y65666D01*
X306844Y65044D01*
X307466Y64628D01*
X308200Y64482D01*
X308934Y64628D01*
X309556Y65044D01*
X309972Y65666D01*
X310118Y66400D01*
X309972Y67134D01*
X309556Y67756D01*
X308934Y68172D01*
X308200Y68318D01*
D02*
G37*
G36*
X303000Y68118D02*
X302266Y67972D01*
X301644Y67556D01*
X301228Y66934D01*
X301082Y66200D01*
X301228Y65466D01*
X301644Y64844D01*
X302266Y64428D01*
X303000Y64282D01*
X303734Y64428D01*
X304356Y64844D01*
X304772Y65466D01*
X304918Y66200D01*
X304772Y66934D01*
X304356Y67556D01*
X303734Y67972D01*
X303000Y68118D01*
D02*
G37*
G36*
X105400Y68718D02*
X104666Y68572D01*
X104044Y68156D01*
X103628Y67534D01*
X103482Y66800D01*
X103628Y66066D01*
X104044Y65444D01*
X104395Y65209D01*
X104393Y64611D01*
X104039Y64375D01*
X103623Y63753D01*
X103478Y63019D01*
X103623Y62285D01*
X104039Y61663D01*
X104662Y61247D01*
X105395Y61101D01*
X106129Y61247D01*
X106752Y61663D01*
X107167Y62285D01*
X107313Y63019D01*
X107167Y63753D01*
X106752Y64375D01*
X106400Y64610D01*
X106403Y65207D01*
X106756Y65444D01*
X107172Y66066D01*
X107318Y66800D01*
X107172Y67534D01*
X106756Y68156D01*
X106134Y68572D01*
X105400Y68718D01*
D02*
G37*
G36*
X219500Y60218D02*
X218766Y60072D01*
X218144Y59656D01*
X217728Y59034D01*
X217582Y58300D01*
X217728Y57566D01*
X218144Y56944D01*
X218766Y56528D01*
X219500Y56382D01*
X220234Y56528D01*
X220856Y56944D01*
X221272Y57566D01*
X221418Y58300D01*
X221272Y59034D01*
X220856Y59656D01*
X220234Y60072D01*
X219500Y60218D01*
D02*
G37*
G36*
X202165Y60083D02*
X201431Y59936D01*
X200808Y59521D01*
X200393Y58899D01*
X200247Y58165D01*
X200393Y57431D01*
X200808Y56808D01*
X201431Y56393D01*
X202165Y56247D01*
X202899Y56393D01*
X203521Y56808D01*
X203937Y57431D01*
X204082Y58165D01*
X203937Y58899D01*
X203521Y59521D01*
X202899Y59936D01*
X202165Y60083D01*
D02*
G37*
G36*
X209600Y57518D02*
X208866Y57372D01*
X208244Y56956D01*
X207828Y56334D01*
X207682Y55600D01*
X207828Y54866D01*
X208244Y54244D01*
X208866Y53828D01*
X209600Y53682D01*
X210334Y53828D01*
X210956Y54244D01*
X211372Y54866D01*
X211518Y55600D01*
X211372Y56334D01*
X210956Y56956D01*
X210334Y57372D01*
X209600Y57518D01*
D02*
G37*
G36*
X105395Y59937D02*
X104662Y59791D01*
X104039Y59375D01*
X103623Y58753D01*
X103478Y58019D01*
X103623Y57285D01*
X104039Y56663D01*
X104577Y56304D01*
X104575Y55955D01*
X104524Y55783D01*
X104466Y55772D01*
X103844Y55356D01*
X103428Y54734D01*
X103282Y54000D01*
X103428Y53266D01*
X103844Y52644D01*
X104466Y52228D01*
X105200Y52082D01*
X105934Y52228D01*
X106556Y52644D01*
X106972Y53266D01*
X107118Y54000D01*
X106972Y54734D01*
X106556Y55356D01*
X106019Y55715D01*
X106021Y56064D01*
X106072Y56235D01*
X106129Y56247D01*
X106752Y56663D01*
X107167Y57285D01*
X107313Y58019D01*
X107167Y58753D01*
X106752Y59375D01*
X106129Y59791D01*
X105395Y59937D01*
D02*
G37*
G36*
X300600Y53718D02*
X299866Y53572D01*
X299244Y53156D01*
X298828Y52534D01*
X298682Y51800D01*
X298828Y51066D01*
X299244Y50444D01*
X299866Y50028D01*
X300600Y49882D01*
X301334Y50028D01*
X301956Y50444D01*
X302372Y51066D01*
X302518Y51800D01*
X302372Y52534D01*
X301956Y53156D01*
X301334Y53572D01*
X300600Y53718D01*
D02*
G37*
G36*
X272581Y53539D02*
X271847Y53392D01*
X271224Y52977D01*
X270809Y52355D01*
X270662Y51621D01*
X270809Y50887D01*
X271224Y50264D01*
X271847Y49849D01*
X272581Y49703D01*
X273314Y49849D01*
X273937Y50264D01*
X274352Y50887D01*
X274498Y51621D01*
X274352Y52355D01*
X273937Y52977D01*
X273314Y53392D01*
X272581Y53539D01*
D02*
G37*
G36*
X250880Y51865D02*
X250146Y51719D01*
X249523Y51303D01*
X249108Y50681D01*
X248962Y49947D01*
X249108Y49213D01*
X249523Y48590D01*
X250146Y48175D01*
X250880Y48029D01*
X251613Y48175D01*
X252236Y48590D01*
X252652Y49213D01*
X252798Y49947D01*
X252652Y50681D01*
X252236Y51303D01*
X251613Y51719D01*
X250880Y51865D01*
D02*
G37*
G36*
X218600Y50918D02*
X217866Y50772D01*
X217244Y50356D01*
X216828Y49734D01*
X216682Y49000D01*
X216828Y48266D01*
X217244Y47644D01*
X217866Y47228D01*
X218600Y47082D01*
X219334Y47228D01*
X219956Y47644D01*
X220372Y48266D01*
X220518Y49000D01*
X220372Y49734D01*
X219956Y50356D01*
X219334Y50772D01*
X218600Y50918D01*
D02*
G37*
G36*
X227181Y49738D02*
X226447Y49593D01*
X225824Y49177D01*
X225409Y48555D01*
X225262Y47821D01*
X225409Y47087D01*
X225824Y46464D01*
X226447Y46049D01*
X227181Y45903D01*
X227914Y46049D01*
X228537Y46464D01*
X228952Y47087D01*
X229098Y47821D01*
X228952Y48555D01*
X228537Y49177D01*
X227914Y49593D01*
X227181Y49738D01*
D02*
G37*
G36*
X68207Y49534D02*
X67473Y49389D01*
X66851Y48973D01*
X66435Y48351D01*
X66289Y47617D01*
X66435Y46883D01*
X66851Y46260D01*
X67473Y45845D01*
X68207Y45699D01*
X68941Y45845D01*
X69563Y46260D01*
X69979Y46883D01*
X70125Y47617D01*
X69979Y48351D01*
X69563Y48973D01*
X68941Y49389D01*
X68207Y49534D01*
D02*
G37*
G36*
X105400Y48318D02*
X104666Y48172D01*
X104044Y47756D01*
X103628Y47134D01*
X103482Y46400D01*
X103628Y45666D01*
X104044Y45044D01*
X104666Y44628D01*
X105400Y44482D01*
X106134Y44628D01*
X106756Y45044D01*
X107172Y45666D01*
X107318Y46400D01*
X107172Y47134D01*
X106756Y47756D01*
X106134Y48172D01*
X105400Y48318D01*
D02*
G37*
G36*
X121981Y47539D02*
X121247Y47392D01*
X120624Y46977D01*
X120209Y46355D01*
X120062Y45621D01*
X120209Y44887D01*
X120624Y44264D01*
X121247Y43849D01*
X121981Y43703D01*
X122714Y43849D01*
X123337Y44264D01*
X123752Y44887D01*
X123898Y45621D01*
X123752Y46355D01*
X123337Y46977D01*
X122714Y47392D01*
X121981Y47539D01*
D02*
G37*
G36*
X116181Y45338D02*
X115446Y45193D01*
X114824Y44777D01*
X114409Y44155D01*
X114262Y43421D01*
X114409Y42687D01*
X114824Y42064D01*
X115446Y41649D01*
X116181Y41503D01*
X116914Y41649D01*
X117537Y42064D01*
X117952Y42687D01*
X118098Y43421D01*
X117952Y44155D01*
X117537Y44777D01*
X116914Y45193D01*
X116181Y45338D01*
D02*
G37*
G36*
X73600Y40918D02*
X72866Y40772D01*
X72244Y40356D01*
X71828Y39734D01*
X71682Y39000D01*
X71828Y38266D01*
X72244Y37644D01*
X72866Y37228D01*
X73600Y37082D01*
X74334Y37228D01*
X74956Y37644D01*
X75372Y38266D01*
X75518Y39000D01*
X75372Y39734D01*
X74956Y40356D01*
X74334Y40772D01*
X73600Y40918D01*
D02*
G37*
G36*
X147380Y39538D02*
X146646Y39393D01*
X146024Y38977D01*
X145608Y38355D01*
X145463Y37621D01*
X145608Y36887D01*
X146024Y36264D01*
X146646Y35849D01*
X147380Y35703D01*
X148115Y35849D01*
X148737Y36264D01*
X149152Y36887D01*
X149298Y37621D01*
X149152Y38355D01*
X148737Y38977D01*
X148115Y39393D01*
X147380Y39538D01*
D02*
G37*
G36*
X296400Y39518D02*
X295666Y39372D01*
X295044Y38956D01*
X294628Y38334D01*
X294482Y37600D01*
X294628Y36866D01*
X295044Y36244D01*
X295666Y35828D01*
X296400Y35682D01*
X297134Y35828D01*
X297756Y36244D01*
X298172Y36866D01*
X298318Y37600D01*
X298172Y38334D01*
X297756Y38956D01*
X297134Y39372D01*
X296400Y39518D01*
D02*
G37*
G36*
X100000Y39318D02*
X99266Y39172D01*
X98644Y38756D01*
X98228Y38134D01*
X98082Y37400D01*
X98228Y36666D01*
X98644Y36044D01*
X99018Y35794D01*
Y35206D01*
X98644Y34956D01*
X98228Y34334D01*
X98082Y33600D01*
X98228Y32866D01*
X98644Y32244D01*
X99266Y31828D01*
X100000Y31682D01*
X100734Y31828D01*
X101356Y32244D01*
X101772Y32866D01*
X101918Y33600D01*
X101772Y34334D01*
X101356Y34956D01*
X100982Y35206D01*
Y35794D01*
X101356Y36044D01*
X101772Y36666D01*
X101918Y37400D01*
X101772Y38134D01*
X101356Y38756D01*
X100734Y39172D01*
X100000Y39318D01*
D02*
G37*
G36*
X296200Y34518D02*
X295466Y34372D01*
X294844Y33956D01*
X294428Y33334D01*
X294282Y32600D01*
X294428Y31866D01*
X294844Y31244D01*
X295466Y30828D01*
X296200Y30682D01*
X296934Y30828D01*
X297556Y31244D01*
X297972Y31866D01*
X298118Y32600D01*
X297972Y33334D01*
X297556Y33956D01*
X296934Y34372D01*
X296200Y34518D01*
D02*
G37*
G36*
X232400Y33395D02*
X231666Y33249D01*
X231044Y32833D01*
X230628Y32211D01*
X230482Y31477D01*
X230628Y30743D01*
X231044Y30121D01*
X231666Y29705D01*
X232400Y29559D01*
X233134Y29705D01*
X233756Y30121D01*
X234172Y30743D01*
X234318Y31477D01*
X234172Y32211D01*
X233756Y32833D01*
X233134Y33249D01*
X232400Y33395D01*
D02*
G37*
G36*
X314961Y49748D02*
X313337Y49620D01*
X311754Y49240D01*
X310249Y48617D01*
X308861Y47766D01*
X307623Y46708D01*
X306565Y45470D01*
X305714Y44081D01*
X305091Y42577D01*
X304711Y40993D01*
X304583Y39370D01*
X304711Y37747D01*
X305091Y36163D01*
X305714Y34659D01*
X306565Y33270D01*
X307623Y32032D01*
X308861Y30974D01*
X310249Y30123D01*
X311754Y29500D01*
X313337Y29120D01*
X314961Y28992D01*
X316584Y29120D01*
X318167Y29500D01*
X319672Y30123D01*
X321060Y30974D01*
X322299Y32032D01*
X323356Y33270D01*
X324207Y34659D01*
X324830Y36163D01*
X325210Y37747D01*
X325338Y39370D01*
X325210Y40993D01*
X324830Y42577D01*
X324207Y44081D01*
X323356Y45470D01*
X322299Y46708D01*
X321060Y47766D01*
X319672Y48617D01*
X318167Y49240D01*
X316584Y49620D01*
X314961Y49748D01*
D02*
G37*
G36*
X39370D02*
X37747Y49620D01*
X36163Y49240D01*
X34659Y48617D01*
X33270Y47766D01*
X32032Y46708D01*
X30974Y45470D01*
X30123Y44081D01*
X29500Y42577D01*
X29120Y40993D01*
X28992Y39370D01*
X29120Y37747D01*
X29500Y36163D01*
X30123Y34659D01*
X30974Y33270D01*
X32032Y32032D01*
X33270Y30974D01*
X34659Y30123D01*
X36163Y29500D01*
X37747Y29120D01*
X39370Y28992D01*
X40993Y29120D01*
X42577Y29500D01*
X44081Y30123D01*
X45470Y30974D01*
X46708Y32032D01*
X47766Y33270D01*
X48617Y34659D01*
X49240Y36163D01*
X49620Y37747D01*
X49748Y39370D01*
X49620Y40993D01*
X49240Y42577D01*
X48617Y44081D01*
X47766Y45470D01*
X46708Y46708D01*
X45470Y47766D01*
X44081Y48617D01*
X42577Y49240D01*
X40993Y49620D01*
X39370Y49748D01*
D02*
G37*
G36*
X204035Y36471D02*
X203339Y36379D01*
X202690Y36110D01*
X202132Y35683D01*
X201705Y35125D01*
X201436Y34476D01*
X201344Y33779D01*
Y31024D01*
X201436Y30327D01*
X201705Y29678D01*
X202132Y29120D01*
X202690Y28693D01*
X203339Y28424D01*
X204035Y28332D01*
X204732Y28424D01*
X205381Y28693D01*
X205939Y29120D01*
X206366Y29678D01*
X206635Y30327D01*
X206727Y31024D01*
Y33779D01*
X206635Y34476D01*
X206366Y35125D01*
X205939Y35683D01*
X205381Y36110D01*
X204732Y36379D01*
X204035Y36471D01*
D02*
G37*
G36*
X181791D02*
X181095Y36379D01*
X180446Y36110D01*
X179888Y35683D01*
X179460Y35125D01*
X179192Y34476D01*
X179100Y33779D01*
Y31024D01*
X179192Y30327D01*
X179460Y29678D01*
X179888Y29120D01*
X180446Y28693D01*
X181095Y28424D01*
X181791Y28332D01*
X182488Y28424D01*
X183137Y28693D01*
X183695Y29120D01*
X184122Y29678D01*
X184391Y30327D01*
X184483Y31024D01*
Y33779D01*
X184391Y34476D01*
X184122Y35125D01*
X183695Y35683D01*
X183137Y36110D01*
X182488Y36379D01*
X181791Y36471D01*
D02*
G37*
%LPD*%
D76*
X300768Y100069D02*
D03*
Y92844D02*
D03*
X297155Y103681D02*
D03*
Y96457D02*
D03*
Y89232D02*
D03*
X293543Y100069D02*
D03*
Y92844D02*
D03*
X289931Y103681D02*
D03*
Y96457D02*
D03*
Y89232D02*
D03*
X286319Y100069D02*
D03*
Y92844D02*
D03*
X299400Y119000D02*
D03*
X318000Y94800D02*
D03*
X138800Y54800D02*
D03*
X165000Y37200D02*
D03*
X54600Y60800D02*
D03*
X159800Y108600D02*
D03*
X147800Y69400D02*
D03*
X190400Y74200D02*
D03*
X214004Y102748D02*
D03*
X247300Y102111D02*
D03*
X198864Y115894D02*
D03*
X224930Y115246D02*
D03*
X216556Y109393D02*
D03*
X246644Y108710D02*
D03*
X264200Y108400D02*
D03*
X264000Y36000D02*
D03*
X170704Y102653D02*
D03*
X130357Y82685D02*
D03*
X144457Y97767D02*
D03*
X267462Y118848D02*
D03*
X247095Y116411D02*
D03*
X192031Y109864D02*
D03*
X202457Y102777D02*
D03*
X116386Y72272D02*
D03*
X116217Y79784D02*
D03*
X130432Y69024D02*
D03*
X99295Y43053D02*
D03*
X85052Y37062D02*
D03*
X130354Y36765D02*
D03*
X173907Y40558D02*
D03*
X150249Y45503D02*
D03*
X166066Y53060D02*
D03*
X162562Y62085D02*
D03*
X217571Y66514D02*
D03*
X266199Y70142D02*
D03*
X247818Y62104D02*
D03*
X249400Y55000D02*
D03*
X246400Y42000D02*
D03*
X202200Y47600D02*
D03*
X323997Y205071D02*
D03*
X316123Y189323D02*
D03*
X323997Y173575D02*
D03*
X316123Y157827D02*
D03*
X300375Y220819D02*
D03*
X308249Y205071D02*
D03*
X300375Y189323D02*
D03*
X308249Y173575D02*
D03*
X300375Y157827D02*
D03*
X284627Y220819D02*
D03*
X292501Y205071D02*
D03*
X284627Y189323D02*
D03*
X292501Y173575D02*
D03*
X284627Y157827D02*
D03*
X268879D02*
D03*
X253131Y220819D02*
D03*
X261005Y205071D02*
D03*
X253131Y189323D02*
D03*
X261005Y173575D02*
D03*
X253131Y157827D02*
D03*
X237383Y220819D02*
D03*
X245257Y205071D02*
D03*
X237383Y189323D02*
D03*
X245257Y173575D02*
D03*
X237383Y157827D02*
D03*
X221635Y220819D02*
D03*
X229509Y205071D02*
D03*
X221635Y189323D02*
D03*
X229509Y173575D02*
D03*
X221635Y157827D02*
D03*
X205887D02*
D03*
X190139Y220819D02*
D03*
X198013Y205071D02*
D03*
X190139Y189323D02*
D03*
Y157827D02*
D03*
X174391D02*
D03*
Y126331D02*
D03*
Y94835D02*
D03*
X158643Y220819D02*
D03*
X166517Y205071D02*
D03*
X158643Y189323D02*
D03*
X166517Y173575D02*
D03*
X158643Y157827D02*
D03*
X166517Y142079D02*
D03*
X158643Y94835D02*
D03*
X166517Y79087D02*
D03*
Y47591D02*
D03*
X142895Y220819D02*
D03*
X150769Y205071D02*
D03*
X142895Y189323D02*
D03*
X150769Y173575D02*
D03*
X142895Y157827D02*
D03*
X150769Y142079D02*
D03*
X142895Y126331D02*
D03*
X127147Y220819D02*
D03*
X135021Y205071D02*
D03*
X127147Y189323D02*
D03*
X135021Y173575D02*
D03*
X127147Y157827D02*
D03*
X135021Y142079D02*
D03*
X127147Y31843D02*
D03*
X111399Y157827D02*
D03*
Y126331D02*
D03*
X119273Y110583D02*
D03*
X95651Y220819D02*
D03*
X103525Y205071D02*
D03*
Y142079D02*
D03*
Y110583D02*
D03*
X79903Y220819D02*
D03*
X87777Y205071D02*
D03*
Y173575D02*
D03*
Y110583D02*
D03*
X64154Y220819D02*
D03*
Y189323D02*
D03*
Y157827D02*
D03*
X72028Y110583D02*
D03*
X64154Y31843D02*
D03*
X56280Y205071D02*
D03*
X48406Y157827D02*
D03*
Y126331D02*
D03*
Y31843D02*
D03*
X40532Y205071D02*
D03*
X32658Y189323D02*
D03*
X40532Y173575D02*
D03*
X32658Y157827D02*
D03*
Y126331D02*
D03*
Y94835D02*
D03*
Y63339D02*
D03*
X86588Y159369D02*
D03*
X305038Y30341D02*
D03*
X283228Y44274D02*
D03*
X245972Y30447D02*
D03*
X213000Y50400D02*
D03*
X165669Y29451D02*
D03*
X147110Y29732D02*
D03*
X109854Y43496D02*
D03*
X85631Y30045D02*
D03*
X69068Y61267D02*
D03*
X54257Y134781D02*
D03*
X32733Y104732D02*
D03*
X143444Y106840D02*
D03*
X160886Y115577D02*
D03*
X144413Y81627D02*
D03*
X218098Y131545D02*
D03*
X303720Y133126D02*
D03*
X241635Y146324D02*
D03*
X215292Y146894D02*
D03*
X261136Y145640D02*
D03*
X205974Y128956D02*
D03*
X247990Y122884D02*
D03*
X229963Y135215D02*
D03*
X187200Y115200D02*
D03*
X193544Y142005D02*
D03*
X283295Y142993D02*
D03*
X317929Y110505D02*
D03*
X272800Y82800D02*
D03*
X319010Y76640D02*
D03*
X323859Y49467D02*
D03*
X278986Y31829D02*
D03*
X222763Y29738D02*
D03*
X184586Y57504D02*
D03*
X203670Y81031D02*
D03*
X185801Y89874D02*
D03*
X112000Y53800D02*
D03*
X124600Y91800D02*
D03*
X132600Y60200D02*
D03*
X53600Y75800D02*
D03*
X41200Y53600D02*
D03*
X52450Y40758D02*
D03*
X77200Y55000D02*
D03*
X85600Y72000D02*
D03*
X72400Y73400D02*
D03*
X86400Y90400D02*
D03*
X71600Y90800D02*
D03*
X318198Y149110D02*
D03*
X322998Y134310D02*
D03*
X52981Y90621D02*
D03*
X239381Y93421D02*
D03*
X227980Y89021D02*
D03*
D77*
X113720Y221850D02*
D03*
X208208D02*
D03*
M02*
