G04*
G04 #@! TF.GenerationSoftware,Altium Limited,Altium Designer,21.9.2 (33)*
G04*
G04 Layer_Color=32896*
%FSLAX25Y25*%
%MOIN*%
G70*
G04*
G04 #@! TF.SameCoordinates,E153DD42-8A7D-485B-B93F-EA924BBF0D18*
G04*
G04*
G04 #@! TF.FilePolarity,Positive*
G04*
G01*
G75*
%ADD90C,0.00050*%
D90*
X169881Y18305D02*
X170026Y17393D01*
X170445Y16570D01*
X171099Y15917D01*
X171922Y15497D01*
X172834Y15353D01*
X206299D02*
X207211Y15497D01*
X208034Y15917D01*
X208688Y16570D01*
X209107Y17393D01*
X209252Y18305D01*
X118011Y178536D02*
X117956Y179527D01*
X117789Y180507D01*
X117514Y181461D01*
X117134Y182379D01*
X116654Y183249D01*
X116079Y184059D01*
X115417Y184800D01*
X114676Y185461D01*
X113866Y186036D01*
X112997Y186517D01*
X112079Y186897D01*
X111124Y187172D01*
X110145Y187338D01*
X109153Y187394D01*
X175492D02*
X174500Y187338D01*
X173521Y187172D01*
X172566Y186897D01*
X171648Y186517D01*
X170779Y186036D01*
X169969Y185461D01*
X169228Y184800D01*
X168566Y184059D01*
X167991Y183249D01*
X167511Y182379D01*
X167131Y181461D01*
X166856Y180507D01*
X166689Y179527D01*
X166633Y178536D01*
X157775Y142043D02*
X158767Y142098D01*
X159746Y142265D01*
X160701Y142540D01*
X161619Y142920D01*
X162488Y143400D01*
X163298Y143975D01*
X164039Y144637D01*
X164701Y145378D01*
X165276Y146188D01*
X165756Y147057D01*
X166136Y147975D01*
X166411Y148930D01*
X166578Y149909D01*
X166633Y150901D01*
X118011Y150901D02*
X118067Y149909D01*
X118234Y148930D01*
X118509Y147975D01*
X118889Y147057D01*
X119369Y146188D01*
X119944Y145378D01*
X120606Y144637D01*
X121347Y143975D01*
X122157Y143400D01*
X123026Y142920D01*
X123944Y142540D01*
X124899Y142265D01*
X125878Y142098D01*
X126870Y142043D01*
X169881Y19683D02*
X169811Y20664D01*
X169602Y21624D01*
X169259Y22546D01*
X168788Y23408D01*
X168199Y24195D01*
X167504Y24890D01*
X166717Y25479D01*
X165854Y25951D01*
X164933Y26294D01*
X163972Y26503D01*
X162992Y26573D01*
X216141D02*
X215161Y26503D01*
X214200Y26294D01*
X213279Y25951D01*
X212416Y25479D01*
X211630Y24890D01*
X210934Y24195D01*
X210345Y23408D01*
X209874Y22546D01*
X209531Y21624D01*
X209322Y20664D01*
X209252Y19683D01*
X320078Y39368D02*
X319980Y40367D01*
X319689Y41327D01*
X319216Y42212D01*
X318579Y42987D01*
X317804Y43624D01*
X316919Y44097D01*
X315959Y44388D01*
X314960Y44486D01*
X313962Y44388D01*
X313002Y44097D01*
X312117Y43624D01*
X311341Y42987D01*
X310705Y42212D01*
X310232Y41327D01*
X309941Y40367D01*
X309842Y39368D01*
X309941Y38370D01*
X310232Y37410D01*
X310705Y36525D01*
X311341Y35749D01*
X312117Y35113D01*
X313002Y34640D01*
X313962Y34349D01*
X314960Y34250D01*
X315959Y34349D01*
X316919Y34640D01*
X317804Y35113D01*
X318579Y35749D01*
X319216Y36525D01*
X319689Y37410D01*
X319980Y38370D01*
X320078Y39368D01*
X314960Y26573D02*
X315964Y26613D01*
X316962Y26731D01*
X317947Y26927D01*
X318914Y27199D01*
X319857Y27547D01*
X320769Y27968D01*
X321646Y28459D01*
X322481Y29017D01*
X323270Y29639D01*
X324008Y30321D01*
X324690Y31059D01*
X325312Y31848D01*
X325870Y32683D01*
X326361Y33560D01*
X326782Y34472D01*
X327129Y35414D01*
X327402Y36381D01*
X327598Y37367D01*
X327716Y38364D01*
X327755Y39368D01*
X26574D02*
X26614Y38364D01*
X26732Y37367D01*
X26928Y36381D01*
X27201Y35414D01*
X27548Y34472D01*
X27969Y33560D01*
X28460Y32683D01*
X29018Y31848D01*
X29640Y31059D01*
X30322Y30321D01*
X31060Y29639D01*
X31849Y29017D01*
X32684Y28459D01*
X33561Y27968D01*
X34473Y27547D01*
X35416Y27199D01*
X36383Y26927D01*
X37368Y26731D01*
X38366Y26613D01*
X39370Y26573D01*
X44488Y39368D02*
X44390Y40367D01*
X44098Y41327D01*
X43625Y42212D01*
X42989Y42987D01*
X42213Y43624D01*
X41328Y44097D01*
X40368Y44388D01*
X39370Y44486D01*
X38371Y44388D01*
X37411Y44097D01*
X36526Y43624D01*
X35751Y42987D01*
X35114Y42212D01*
X34641Y41327D01*
X34350Y40367D01*
X34252Y39368D01*
X34350Y38370D01*
X34641Y37410D01*
X35114Y36525D01*
X35751Y35749D01*
X36526Y35113D01*
X37411Y34640D01*
X38371Y34349D01*
X39370Y34250D01*
X40368Y34349D01*
X41328Y34640D01*
X42213Y35113D01*
X42989Y35749D01*
X43625Y36525D01*
X44098Y37410D01*
X44390Y38370D01*
X44488Y39368D01*
X89074Y196252D02*
X89130Y195260D01*
X89297Y194281D01*
X89571Y193326D01*
X89952Y192409D01*
X90432Y191539D01*
X91007Y190729D01*
X91669Y189989D01*
X92410Y189327D01*
X93220Y188752D01*
X94089Y188271D01*
X95007Y187891D01*
X95961Y187616D01*
X96941Y187450D01*
X97933Y187394D01*
X89074Y204723D02*
X89035Y205727D01*
X88917Y206724D01*
X88721Y207710D01*
X88448Y208677D01*
X88100Y209619D01*
X87680Y210532D01*
X87189Y211408D01*
X86631Y212244D01*
X86009Y213033D01*
X85327Y213770D01*
X84589Y214452D01*
X83800Y215074D01*
X82965Y215633D01*
X82088Y216124D01*
X81176Y216544D01*
X80233Y216892D01*
X79266Y217164D01*
X78281Y217360D01*
X77283Y217479D01*
X76279Y217518D01*
X44488Y204723D02*
X44390Y205721D01*
X44098Y206681D01*
X43625Y207566D01*
X42989Y208342D01*
X42213Y208978D01*
X41328Y209451D01*
X40368Y209742D01*
X39370Y209841D01*
X38371Y209742D01*
X37411Y209451D01*
X36526Y208978D01*
X35751Y208342D01*
X35114Y207566D01*
X34641Y206681D01*
X34350Y205721D01*
X34252Y204723D01*
X34350Y203724D01*
X34641Y202764D01*
X35114Y201879D01*
X35751Y201104D01*
X36526Y200467D01*
X37411Y199994D01*
X38371Y199703D01*
X39370Y199605D01*
X40368Y199703D01*
X41328Y199994D01*
X42213Y200467D01*
X42989Y201104D01*
X43625Y201879D01*
X44098Y202764D01*
X44390Y203724D01*
X44488Y204723D01*
X39370Y217518D02*
X38366Y217479D01*
X37368Y217360D01*
X36383Y217164D01*
X35416Y216892D01*
X34473Y216544D01*
X33561Y216124D01*
X32684Y215633D01*
X31849Y215074D01*
X31060Y214452D01*
X30322Y213770D01*
X29640Y213033D01*
X29018Y212244D01*
X28460Y211408D01*
X27969Y210532D01*
X27548Y209619D01*
X27201Y208677D01*
X26928Y207710D01*
X26732Y206724D01*
X26614Y205727D01*
X26574Y204723D01*
X298917Y235235D02*
X297925Y235179D01*
X296946Y235013D01*
X295991Y234737D01*
X295074Y234357D01*
X294204Y233877D01*
X293394Y233302D01*
X292653Y232640D01*
X291991Y231899D01*
X291416Y231089D01*
X290936Y230220D01*
X290556Y229302D01*
X290281Y228347D01*
X290114Y227368D01*
X290059Y226376D01*
X281200Y187394D02*
X282192Y187450D01*
X283172Y187616D01*
X284126Y187891D01*
X285044Y188271D01*
X285913Y188752D01*
X286723Y189327D01*
X287464Y189989D01*
X288126Y190729D01*
X288701Y191539D01*
X289181Y192409D01*
X289562Y193326D01*
X289837Y194281D01*
X290003Y195260D01*
X290059Y196252D01*
X273917Y187394D02*
X272913Y187355D01*
X271915Y187236D01*
X270930Y187040D01*
X269963Y186768D01*
X269020Y186420D01*
X268108Y185999D01*
X267231Y185509D01*
X266396Y184950D01*
X265607Y184328D01*
X264869Y183646D01*
X264187Y182909D01*
X263565Y182120D01*
X263007Y181284D01*
X262516Y180408D01*
X262096Y179495D01*
X261748Y178553D01*
X261475Y177586D01*
X261279Y176600D01*
X261161Y175603D01*
X261122Y174599D01*
X279035D02*
X278937Y175597D01*
X278645Y176557D01*
X278172Y177442D01*
X277536Y178218D01*
X276760Y178854D01*
X275875Y179327D01*
X274915Y179619D01*
X273917Y179717D01*
X272918Y179619D01*
X271958Y179327D01*
X271074Y178854D01*
X270298Y178218D01*
X269661Y177442D01*
X269188Y176557D01*
X268897Y175597D01*
X268799Y174599D01*
X268897Y173600D01*
X269188Y172640D01*
X269661Y171755D01*
X270298Y170980D01*
X271074Y170343D01*
X271958Y169870D01*
X272918Y169579D01*
X273917Y169481D01*
X274915Y169579D01*
X275875Y169870D01*
X276760Y170343D01*
X277536Y170980D01*
X278172Y171755D01*
X278645Y172640D01*
X278937Y173600D01*
X279035Y174599D01*
X327755Y226376D02*
X327700Y227368D01*
X327533Y228347D01*
X327258Y229302D01*
X326878Y230220D01*
X326398Y231089D01*
X325823Y231899D01*
X325161Y232640D01*
X324420Y233302D01*
X323610Y233877D01*
X322741Y234357D01*
X321823Y234737D01*
X320868Y235013D01*
X319889Y235179D01*
X318897Y235235D01*
X252263Y142043D02*
X253255Y142098D01*
X254235Y142265D01*
X255189Y142540D01*
X256107Y142920D01*
X256976Y143400D01*
X257786Y143975D01*
X258527Y144637D01*
X259189Y145378D01*
X259764Y146188D01*
X260244Y147057D01*
X260625Y147975D01*
X260899Y148930D01*
X261066Y149909D01*
X261122Y150901D01*
X212500Y178536D02*
X212444Y179527D01*
X212278Y180507D01*
X212002Y181461D01*
X211622Y182379D01*
X211142Y183249D01*
X210567Y184059D01*
X209905Y184800D01*
X209164Y185461D01*
X208354Y186036D01*
X207485Y186517D01*
X206567Y186897D01*
X205612Y187172D01*
X204633Y187338D01*
X203641Y187394D01*
X212500Y150901D02*
X212555Y149909D01*
X212722Y148930D01*
X212997Y147975D01*
X213377Y147057D01*
X213857Y146188D01*
X214432Y145378D01*
X215094Y144637D01*
X215835Y143975D01*
X216645Y143400D01*
X217514Y142920D01*
X218432Y142540D01*
X219387Y142265D01*
X220366Y142098D01*
X221358Y142043D01*
X298917Y235235D02*
X318897D01*
X172834Y15353D02*
X206299D01*
X166633Y150901D02*
Y178536D01*
X126870Y142043D02*
X157775D01*
X118011Y150901D02*
Y178536D01*
X39370Y26573D02*
X162992D01*
X169881Y18305D02*
Y19683D01*
X209252Y18305D02*
Y19683D01*
X216141Y26573D02*
X314960D01*
X89074Y196252D02*
Y204723D01*
X39370Y217518D02*
X76279D01*
X26574Y39368D02*
Y204723D01*
X290059Y196252D02*
Y226376D01*
X273917Y187394D02*
X281200D01*
X97933D02*
X109153D01*
X327755Y39368D02*
Y226376D01*
X221358Y142043D02*
X252263D01*
X212500Y150901D02*
Y178536D01*
X175492Y187394D02*
X203641D01*
X261122Y150901D02*
Y174599D01*
M02*
