M48
;Layer_Color=9474304
;FILE_FORMAT=2:4
INCH,TZ
;TYPE=PLATED
T2F00S00C0.0236
T3F00S00C0.0394
%
G90
G05
T02
G00X18179Y3122
M15
G01Y3358
M16
G00X20404Y3122
M15
G01Y3358
M16
T03
G00X17762Y16476
M15
G01Y17894
M16
G00X17762Y18976
M15
G01Y20394
M16
G00X17762Y21476
M15
G01Y22894
M16
G00X20821Y21476
M15
G01Y22894
M16
G00X20821Y18976
M15
G01Y20394
M16
G00X20821Y16476
M15
G01Y17894
M16
G00X27211Y16476
M15
G01Y17894
M16
G00X27211Y18976
M15
G01Y20394
M16
G00X27211Y21476
M15
G01Y22894
M16
G00X11372Y21476
M15
G01Y22894
M16
G00X11372Y18976
M15
G01Y20394
M16
G00X11372Y16476
M15
G01Y17894
M16
M17
M30
