M48
;Layer_Color=9474304
;FILE_FORMAT=2:4
INCH,TZ
;TYPE=PLATED
T1F00S00C0.0118
T4F00S00C0.1024
%
T01
X4841Y3184
X5245Y4076
X6415Y3184
X7360Y3900
X8505Y3706
X8563Y3005
X10000Y3360
Y3740
X9929Y4305
X10540Y4640
X10985Y4350
X11618Y4342
X12198Y4562
X13035Y3677
X12715Y3184
X14711Y2973
X14738Y3762
X15025Y4550
X13880Y5480
X13260Y6020
X13043Y6902
X13036Y8269
X12460Y9180
X11622Y7978
X11178Y8262
X10460Y8400
X10780Y7780
X10540Y7302
X10540Y6680
X10540Y6302
Y5802
X10520Y5400
X11200Y5380
X11639Y7227
X8560Y7200
X7240Y7340
X6907Y6127
X7720Y5500
X6821Y4762
X5460Y6080
X5360Y7580
X5298Y9062
X4898Y8962
X3266Y9483
X3273Y10473
X3266Y12633
X4841
X5426Y13478
X6640Y12160
X7203Y11058
X8778
X10352
X11927
X11140Y12633
X10352Y14208
X13502
X15077
X14795Y12133
X14289Y12633
X14344Y10684
X14446Y9777
X14441Y8163
X14780Y6940
X8640Y9040
X7160Y9080
X3266Y6334
X4120Y5360
X16607Y5306
X16652Y4759
X16500Y3720
X16567Y2945
X17391Y4056
X18459Y5750
X20216Y5816
X20960Y5560
X21300Y5040
X21860Y4900
X22718Y4782
X21950Y5830
X21757Y6651
X22040Y7900
X22830Y8240
X22798Y8902
X23558Y9422
X23938Y9342
X24240Y8200
X23760Y7460
X23360Y7480
X23060Y7360
X24782Y6210
X24940Y5500
X25088Y4995
X24640Y4200
X24597Y3045
X23240Y3148
X22276Y2974
X20220Y4760
X20367Y8103
X19040Y7420
X18100Y7440
X18160Y7800
X18580Y8987
X18180Y9600
X18960Y9640
X19203Y10986
X18720Y11520
X19886Y11589
X20246Y10278
X21400Y10275
X21656Y10939
X22493Y11525
X21810Y13155
X20597Y12896
X19354Y14201
X21529Y14689
X22996Y13522
X24164Y14632
X26114Y14564
X28330Y14299
X30940Y13980
X30372Y13313
X29940Y11900
X29716Y10368
X30077Y10007
X29716Y9646
X30077Y9284
X29716Y8923
X29354Y9284
X28993Y8923
Y9646
X29354Y10007
X28993Y10368
X28632Y10007
Y9284
X27280Y8280
X26620Y7014
X28285Y6645
X28785
X29785
X30300Y6620
X30820Y6640
X30060Y5180
X29640Y3760
X29620Y3260
X30504Y3034
X27899Y3183
X28323Y4427
X27258Y5162
X26400Y3600
X26860Y10080
X26420Y10840
X26329Y11859
X26746Y11885
X27329Y11859
X27829
X24709Y11641
X24799Y12288
X24664Y10871
X24730Y10211
X17070Y10265
X17439Y9483
X15864
X15980Y10860
X16089Y11558
X17439Y12633
X16652Y14208
Y7909
X16256Y6209
X31285Y6645
X31901Y7664
X31800Y9480
X31793Y11051
X32300Y13431
X31820Y14911
X32386Y4947
X31612Y15783
X32400Y17357
X31612Y18932
X32400Y20507
X30825
X29250
X28463Y22082
X30038
Y18932
X28463
X29250Y17357
X30825
X30038Y15783
X28463
X26888
X25313
X23738
X22163
X20589
X19014
X17439
X15864
X16652Y17357
X15864Y18932
X16652Y20507
X15864Y22082
X19014
X19801Y20507
X19014Y18932
X22163
X23738
X25313
X26100Y20507
X24526
X22951
X22163Y22082
X23738
X25313
X26100Y17357
X24526
X22951
X15077
X13502
X12715Y18932
X14289
X15077Y20507
X13502
X12715Y22082
X14289
X9565
X7990
X6415
X5628Y20507
X4053
X5160Y19320
X6415Y18932
Y15783
X4841
X3266
X4053Y17357
X3266Y18932
X8778Y20507
X10352
X8778Y17357
X8659Y15937
X11140Y15783
X12715
X14289
T04
X3937Y3937
X31496
Y22441
X3937
M30
