M48
;Layer_Color=9474304
;FILE_FORMAT=2:4
INCH,TZ
;TYPE=PLATED
T1F00S00C0.0118
T2F00S00C0.0197
%
T01
X3235Y3187
X4810
X5245Y4076
X6385Y3187
X7360Y3900
X8505Y3706
X8563Y3005
X10000Y3360
Y3740
X9929Y4305
X10540Y4640
X10985Y4350
X11618Y4342
X12198Y4562
X13035Y3677
X14720Y3720
X14711Y2973
X15025Y4550
X13880Y5480
X13260Y6020
X13043Y6902
X13036Y8269
X12460Y9180
X11622Y7978
X11178Y8262
X10460Y8400
X10780Y7780
X10540Y7302
X10540Y6680
X10540Y6302
Y5802
X10520Y5400
X11200Y5380
X11639Y7227
X8560Y7200
X7240Y7340
X6907Y6127
X7720Y5500
X6821Y4762
X5460Y6080
X5360Y7580
X5298Y9062
X4898Y8962
X3235Y9486
X3273Y10473
X3235Y12636
X4810
X5426Y13478
X5853Y12160
X7172Y11061
X8747
X8640Y9040
X7160Y9080
X7172Y14210
X8840Y13980
X9760Y14880
X10560Y13640
X11600Y12880
X11896Y11061
X14344Y10684
X14446Y9777
X14441Y8163
X14780Y6940
X14795Y12133
X14259Y12636
X15220Y13400
X3235Y6336
X4120Y5360
X16607Y5306
X16256Y6209
X15833Y6336
X16621Y7911
X18160Y7800
X18100Y7440
X19040Y7420
X20367Y8103
X22040Y7900
X22830Y8240
X22798Y8902
X23558Y9422
X23938Y9342
X24680Y9320
X24240Y8200
X23760Y7460
X23360Y7480
X23060Y7360
X21757Y6651
X21950Y5830
X21860Y4900
X21300Y5040
X20960Y5560
X20216Y5816
X20220Y4760
X22718Y4782
X23240Y3148
X22276Y2974
X20704Y2368
X17292Y2197
X16567Y2945
X16500Y3720
X17391Y4056
X18459Y5750
X18580Y8987
X18180Y9600
X18960Y9640
X19203Y10986
X18720Y11520
X19886Y11589
X20246Y10278
X21400Y10275
X21656Y10939
X22493Y11525
X21810Y13155
X20597Y12896
X19287Y12817
X19354Y14201
X16621Y14210
X17080Y13127
X17408Y12636
X16080Y13181
X16089Y11558
X15980Y10860
X15833Y9486
X17408
X17070Y10265
X24200Y10880
X24880Y11500
X24799Y12288
X25160Y13600
X22996Y13522
X26320Y12020
X26746Y11885
X27329Y11859
X27829
X29940Y11900
X29716Y10368
X30077Y10007
X29716Y9646
X30077Y9284
X29716Y8923
X29354Y9284
X28993Y8923
Y9646
X29354Y10007
X28993Y10368
X28632Y10007
Y9284
X29320Y7760
X29785Y6645
X30300Y6620
X30820Y6640
X28785Y6645
X28285
X26620Y7014
X27280Y8280
X26860Y10080
X26420Y10840
X27658Y14842
X28330Y14299
X29770Y14539
X30372Y13313
X30060Y5180
X29640Y3760
X29620Y3260
X30504Y3034
X27899Y3183
X28323Y4427
X27258Y5162
X25088Y4995
X24940Y5500
X24782Y6210
X24640Y4200
X24597Y3045
X26400Y3600
X32386Y4947
X32318Y6682
X31285Y6645
X31901Y7664
X31800Y9480
X31793Y11051
X32300Y13431
X31380Y13635
X31820Y14911
X31581Y15785
X32369Y17360
X31581Y18935
X32369Y20510
X32098Y22162
X29540Y22300
X29219Y20510
X30007Y18935
X30880Y19100
X30794Y17360
X29219
X29850Y15979
X26857Y15785
X20558
X20938Y17022
X19600Y17480
X17975Y17750
X18540Y16440
X17408Y15785
X9980Y16640
X8747Y17360
X8240Y16220
X6385Y15785
X4810
X5200Y17200
X4022Y17360
X3260Y16120
X3235Y18935
X5597Y20510
X7818Y20662
X7420Y19480
X7590Y18068
T02
X18169Y2953
X19744
M30
